<svg width="215" height="120" viewBox="0 0 215 120" fill="none" xmlns="http://www.w3.org/2000/svg">
<rect x="27" y="14" width="184" height="94" fill="#222222"/>
<rect x="52" y="15" width="120" height="90" fill="#557DD4"/>
<rect x="57" y="22" width="30" height="30" fill="white" fill-opacity="0.3"/>
<rect x="118" y="37" width="48" height="13" fill="white" fill-opacity="0.3"/>
<rect x="118" y="52" width="48" height="13" fill="white" fill-opacity="0.3"/>
<rect x="81" y="67" width="85" height="13" fill="white" fill-opacity="0.3"/>
<rect x="97" y="82" width="69" height="13" fill="white" fill-opacity="0.3"/>
<rect x="30" y="45" width="15" height="45" fill="#404040"/>
<rect x="34" y="49" width="7" height="7" fill="#151515"/>
<rect x="34" y="64" width="7" height="7" fill="#151515"/>
<rect x="34" y="79" width="7" height="7" fill="#151515"/>
<rect x="96" y="22" width="70" height="13" fill="white" fill-opacity="0.3"/>
<rect x="5" y="50" width="35" height="5" fill="#D9D9D9"/>
<rect x="5" y="65" width="35" height="5" fill="#D9D9D9"/>
<rect x="5" y="80" width="35" height="5" fill="#D9D9D9"/>
<rect x="177" y="15" width="30" height="90" fill="#557DD4"/>
<rect x="177" y="15" width="3" height="90" fill="black" fill-opacity="0.2"/>
<circle cx="195" cy="90" r="9" fill="#E1E1E1"/>
<circle cx="195" cy="60" r="9" fill="#E1E1E1"/>
<circle cx="195" cy="30" r="9" fill="#E1E1E1"/>
</svg>
