<svg width="280" height="120" viewBox="0 0 280 120" fill="none" xmlns="http://www.w3.org/2000/svg">
<rect x="15" y="9" width="257" height="111" fill="#086690"/>
<circle cx="127.5" cy="112.5" r="6.5" fill="#FFA77C"/>
<circle cx="127.5" cy="112.5" r="4.5" fill="white"/>
<circle cx="112.5" cy="112.5" r="6.5" fill="#FFA77C"/>
<circle cx="112.5" cy="112.5" r="4.5" fill="white"/>
<circle cx="97.5" cy="112.5" r="6.5" fill="#FFA77C"/>
<circle cx="97.5" cy="112.5" r="4.5" fill="white"/>
<circle cx="142.5" cy="112.5" r="6.5" fill="#FFA77C"/>
<circle cx="142.5" cy="112.5" r="4.5" fill="white"/>
<rect width="38" height="36" transform="translate(15 74)" fill="#F9EED9"/>
<rect width="45" height="5" transform="translate(18 110)" fill="#F9EED9"/>
<rect width="45" height="5" transform="translate(18 69)" fill="#F9EED9"/>
<rect width="18" height="3" transform="translate(26 78)" fill="#BFB8AA"/>
<rect width="18" height="3" transform="translate(26 103)" fill="#BFB8AA"/>
<rect width="38" height="36" transform="translate(15 19)" fill="#F9EED9"/>
<rect width="45" height="5" transform="translate(18 55)" fill="#F9EED9"/>
<rect width="45" height="5" transform="translate(18 14)" fill="#F9EED9"/>
<rect width="18" height="3" transform="translate(26 23)" fill="#BFB8AA"/>
<rect width="18" height="3" transform="translate(26 48)" fill="#BFB8AA"/>
<rect width="38" height="36" transform="translate(272 55) rotate(180)" fill="#F9EED9"/>
<rect width="45" height="5" transform="translate(269 19) rotate(180)" fill="#F9EED9"/>
<rect width="45" height="5" transform="translate(269 60) rotate(180)" fill="#F9EED9"/>
<rect width="18" height="3" transform="translate(261 51) rotate(180)" fill="#BFB8AA"/>
<rect width="18" height="3" transform="translate(261 26) rotate(180)" fill="#BFB8AA"/>
<rect width="38" height="36" transform="translate(272 110) rotate(180)" fill="#F9EED9"/>
<rect width="45" height="5" transform="translate(269 74) rotate(180)" fill="#F9EED9"/>
<rect width="45" height="5" transform="translate(269 115) rotate(180)" fill="#F9EED9"/>
<rect width="18" height="3" transform="translate(261 106) rotate(180)" fill="#BFB8AA"/>
<rect width="18" height="3" transform="translate(261 81) rotate(180)" fill="#BFB8AA"/>
<circle cx="93.5" cy="37.5" r="19.5" fill="#D9D9D9"/>
<rect x="126" y="32" width="23" height="30" fill="#1A1A1A"/>
<rect x="174" y="71" width="26" height="18" fill="#1A1A1A"/>
<rect x="200" y="71" width="5" height="18" fill="#D2D1D2"/>
<rect x="169" y="71" width="5" height="18" fill="#D2D1D2"/>
<rect x="172" y="28" width="38" height="36" fill="#A8A8A8"/>
<rect x="184" y="95" width="17" height="21" fill="#F9EED9"/>
<rect x="74" y="62" width="11" height="53" fill="white" fill-opacity="0.3"/>
<rect x="214" y="46" width="8" height="28" fill="white" fill-opacity="0.3"/>
<rect x="91" y="89" width="58" height="14" fill="white" fill-opacity="0.3"/>
</svg>
