<svg width="24" height="24" viewBox="0 0 24 24" fill="none" xmlns="http://www.w3.org/2000/svg">
<mask id="mask0_9237_29944" style="mask-type:alpha" maskUnits="userSpaceOnUse" x="0" y="0" width="24" height="24">
<rect width="24" height="24" fill="#D9D9D9"/>
</mask>
<g mask="url(#mask0_9237_29944)">
<path d="M4.3077 19.5C3.80257 19.5 3.375 19.325 3.025 18.975C2.675 18.625 2.5 18.1974 2.5 17.6923V6.3077C2.5 5.80257 2.675 5.375 3.025 5.025C3.375 4.675 3.80257 4.5 4.3077 4.5H19.6923C20.1974 4.5 20.625 4.675 20.975 5.025C21.325 5.375 21.5 5.80257 21.5 6.3077V17.6923C21.5 18.1974 21.325 18.625 20.975 18.975C20.625 19.325 20.1974 19.5 19.6923 19.5H4.3077ZM4.3077 18H19.6923C19.7692 18 19.8397 17.9679 19.9038 17.9038C19.9679 17.8397 20 17.7692 20 17.6923V7.99998H3.99998V17.6923C3.99998 17.7692 4.03203 17.8397 4.09613 17.9038C4.16024 17.9679 4.23077 18 4.3077 18ZM7.49998 16.6442L6.45578 15.6L9.03078 13L6.43077 10.4L7.49998 9.35578L11.1442 13L7.49998 16.6442ZM12.25 16.75V15.25H17.75V16.75H12.25Z" fill="#1C1B1F"/>
</g>
</svg>
