<svg width="1208" height="156" viewBox="0 0 1208 156" fill="none" xmlns="http://www.w3.org/2000/svg">
<g clip-path="url(#clip0_9072_41789)">
<path d="M114.586 40H41.4058C40.4223 40.0087 39.4502 40.2115 38.5452 40.5968C37.6402 40.982 36.8202 41.5422 36.1323 42.245C35.4443 42.9479 34.9018 43.7797 34.536 44.6927C34.1702 45.6057 33.9882 46.5819 34.0006 47.5654V198.202C33.9887 200.18 34.7614 202.082 36.1494 203.492C37.5374 204.902 39.4276 205.704 41.4058 205.723H114.586C116.568 205.705 118.463 204.901 119.853 203.488C121.243 202.074 122.015 200.166 122 198.184V47.5432C122.009 46.561 121.824 45.5867 121.456 44.6759C121.088 43.7652 120.544 42.9359 119.856 42.2353C119.167 41.5348 118.347 40.9769 117.443 40.5933C116.539 40.2098 115.568 40.0081 114.586 40ZM117.371 193.533C117.371 197.499 114.403 200.707 110.741 200.707H45.2642C41.5927 200.707 38.6244 197.499 38.6244 193.533V53.2528C38.6244 45.1756 41.5927 44.7974 45.2642 44.7974H58.379C59.14 44.7974 59.763 45.6874 59.763 46.7377V47.1827C59.763 49.6971 61.1382 49.706 62.8337 49.706H93.1621C94.8666 49.706 96.2328 49.706 96.2328 47.1827V46.7377C96.2328 45.6652 96.8469 44.7974 97.6213 44.7974H110.732C114.394 44.7974 117.363 45.8743 117.363 53.2528L117.371 193.533Z" fill="#455A64"/>
<path d="M82.1336 46.5638H73.8607C73.7257 46.5638 73.5962 46.5105 73.5003 46.4155C73.4045 46.3204 73.3501 46.1914 73.3489 46.0565C73.3489 45.9207 73.4028 45.7906 73.4988 45.6946C73.5947 45.5986 73.7249 45.5447 73.8607 45.5447H82.1336C82.2694 45.5447 82.3996 45.5986 82.4955 45.6946C82.5915 45.7906 82.6454 45.9207 82.6454 46.0565C82.6443 46.1914 82.5898 46.3204 82.494 46.4155C82.3981 46.5105 82.2686 46.5638 82.1336 46.5638Z" fill="white"/>
<path d="M117.37 53.2522V193.542C117.37 197.507 114.402 200.716 110.739 200.716H45.2673C41.5959 200.716 38.6231 197.507 38.6231 193.542V53.2522C38.6231 45.1751 41.5959 44.7968 45.2673 44.7968H58.3777C59.1387 44.7968 59.7617 45.6868 59.7617 46.7371V47.1821C59.7617 49.6965 61.1413 49.7054 62.8324 49.7054H93.1608C94.8697 49.7054 96.2315 49.7054 96.2315 47.1821V46.7371C96.2315 45.6646 96.8456 44.7968 97.62 44.7968H110.73C114.402 44.779 117.37 45.8559 117.37 53.2522Z" fill="white"/>
<path d="M45.6254 57.8766L44.2236 56.5637L45.6254 55.2554L45.8435 55.4868L44.6864 56.5637L45.8435 57.6452L45.6254 57.8766Z" fill="#DBDBDB"/>
<path d="M108.061 56.1094C108.149 56.1094 108.235 56.1355 108.309 56.1844C108.382 56.2333 108.439 56.3028 108.473 56.3842C108.506 56.4655 108.515 56.555 108.498 56.6413C108.481 56.7276 108.438 56.8069 108.376 56.8691C108.314 56.9314 108.235 56.9738 108.148 56.9909C108.062 57.0081 107.972 56.9993 107.891 56.9656C107.81 56.9319 107.74 56.8749 107.691 56.8017C107.642 56.7285 107.616 56.6425 107.616 56.5545C107.616 56.4364 107.663 56.3232 107.747 56.2398C107.83 56.1563 107.943 56.1094 108.061 56.1094Z" fill="#DBDBDB"/>
<path d="M109.691 56.1094C109.779 56.1094 109.865 56.1355 109.938 56.1844C110.012 56.2333 110.069 56.3028 110.102 56.3842C110.136 56.4655 110.145 56.555 110.128 56.6413C110.11 56.7276 110.068 56.8069 110.006 56.8691C109.944 56.9314 109.864 56.9738 109.778 56.9909C109.692 57.0081 109.602 56.9993 109.521 56.9656C109.439 56.9319 109.37 56.8749 109.321 56.8017C109.272 56.7285 109.246 56.6425 109.246 56.5545C109.246 56.4364 109.293 56.3232 109.376 56.2398C109.46 56.1563 109.573 56.1094 109.691 56.1094Z" fill="#DBDBDB"/>
<path d="M111.319 56.1094C111.407 56.1094 111.493 56.1355 111.566 56.1844C111.64 56.2333 111.697 56.3028 111.73 56.3842C111.764 56.4655 111.773 56.555 111.756 56.6413C111.738 56.7276 111.696 56.8069 111.634 56.8691C111.572 56.9314 111.492 56.9738 111.406 56.9909C111.32 57.0081 111.23 56.9993 111.149 56.9656C111.067 56.9319 110.998 56.8749 110.949 56.8017C110.9 56.7285 110.874 56.6425 110.874 56.5545C110.874 56.4364 110.921 56.3232 111.004 56.2398C111.088 56.1563 111.201 56.1094 111.319 56.1094Z" fill="#DBDBDB"/>
<path d="M56.1174 47.9297L55.9883 48.0588C55.9661 48.0588 55.9394 48.1033 55.9171 48.13C55.7571 47.9689 55.5667 47.8411 55.3571 47.7539C55.1474 47.6667 54.9226 47.6218 54.6955 47.6218C54.4685 47.6218 54.2436 47.6667 54.034 47.7539C53.8243 47.8411 53.634 47.9689 53.474 48.13L53.4072 48.0588L53.2826 47.9342C53.336 47.8852 53.3849 47.8363 53.4428 47.7918C53.5562 47.6989 53.6802 47.6197 53.8122 47.5559C53.9672 47.4793 54.1319 47.4239 54.3017 47.3913L54.5509 47.3601H54.7645C54.8179 47.3601 54.8758 47.3601 54.9292 47.3601C55.0815 47.3764 55.2311 47.4123 55.3742 47.4669C55.4787 47.5062 55.5799 47.5538 55.6768 47.6093C55.7812 47.6678 55.8795 47.7364 55.9705 47.814C56.015 47.8496 56.0595 47.8941 56.104 47.9342L56.1174 47.9297Z" fill="#C7C7C7"/>
<path d="M53.8765 48.5271L53.6762 48.3313C53.8939 48.1071 54.1808 47.9628 54.4906 47.9219C54.7128 47.888 54.9398 47.9071 55.1532 47.9774C55.3666 48.0478 55.5604 48.1675 55.7189 48.3269L55.5186 48.5271C55.3003 48.3105 55.0051 48.189 54.6976 48.189C54.39 48.189 54.0949 48.3105 53.8765 48.5271Z" fill="#C7C7C7"/>
<path d="M55.3173 48.7273L55.117 48.9276C55.0053 48.8164 54.8541 48.754 54.6965 48.754C54.5389 48.754 54.3877 48.8164 54.2759 48.9276L54.0801 48.7318C54.2455 48.5707 54.467 48.4803 54.6978 48.4794C54.9286 48.4786 55.1507 48.5675 55.3173 48.7273Z" fill="#C7C7C7"/>
<path d="M54.8784 49.1094C54.8717 49.1523 54.8498 49.1914 54.8167 49.2197C54.7837 49.2479 54.7417 49.2634 54.6982 49.2634C54.6547 49.2634 54.6127 49.2479 54.5796 49.2197C54.5466 49.1914 54.5247 49.1523 54.5179 49.1094C54.5138 49.0833 54.5154 49.0567 54.5226 49.0313C54.5298 49.006 54.5424 48.9824 54.5595 48.9624C54.5766 48.9424 54.5979 48.9263 54.6218 48.9152C54.6458 48.9042 54.6718 48.8985 54.6982 48.8985C54.7246 48.8985 54.7506 48.9042 54.7745 48.9152C54.7985 48.9263 54.8198 48.9424 54.8369 48.9624C54.854 48.9824 54.8666 49.006 54.8738 49.0313C54.8809 49.0567 54.8825 49.0833 54.8784 49.1094Z" fill="#C7C7C7"/>
<path d="M43.7611 48.3135C43.762 48.2107 43.7932 48.1105 43.851 48.0255C43.9087 47.9404 43.9904 47.8744 44.0856 47.8357C44.1808 47.7969 44.2853 47.7873 44.386 47.8079C44.4868 47.8284 44.5791 47.8784 44.6515 47.9514C44.7239 48.0244 44.773 48.1171 44.7927 48.218C44.8125 48.3189 44.8019 48.4234 44.7624 48.5182C44.7228 48.6131 44.6561 48.6942 44.5706 48.7512C44.485 48.8082 44.3846 48.8387 44.2818 48.8387C44.213 48.8387 44.1449 48.825 44.0815 48.7986C44.018 48.7722 43.9604 48.7334 43.912 48.6846C43.8636 48.6358 43.8253 48.5778 43.7994 48.5142C43.7735 48.4505 43.7605 48.3823 43.7611 48.3135Z" fill="#C7C7C7"/>
<path d="M45.4009 48.3132C45.4009 48.2093 45.4317 48.1078 45.4894 48.0214C45.5471 47.9351 45.6291 47.8677 45.7251 47.828C45.821 47.7883 45.9266 47.7779 46.0285 47.7981C46.1304 47.8184 46.2239 47.8684 46.2974 47.9418C46.3708 48.0153 46.4208 48.1088 46.4411 48.2107C46.4613 48.3126 46.451 48.4182 46.4112 48.5141C46.3715 48.6101 46.3041 48.6921 46.2178 48.7498C46.1314 48.8075 46.0299 48.8383 45.926 48.8383C45.7868 48.8383 45.6532 48.783 45.5547 48.6845C45.4562 48.586 45.4009 48.4524 45.4009 48.3132Z" fill="#C7C7C7"/>
<path d="M47.0488 48.3135C47.0497 48.2107 47.081 48.1105 47.1387 48.0255C47.1965 47.9404 47.2781 47.8744 47.3733 47.8357C47.4685 47.7969 47.5731 47.7873 47.6738 47.8079C47.7745 47.8284 47.8668 47.8784 47.9392 47.9514C48.0116 48.0244 48.0607 48.1171 48.0805 48.218C48.1002 48.3189 48.0896 48.4234 48.0501 48.5182C48.0106 48.6131 47.9438 48.6942 47.8583 48.7512C47.7728 48.8082 47.6723 48.8387 47.5695 48.8387C47.5007 48.8387 47.4327 48.825 47.3692 48.7986C47.3057 48.7722 47.2482 48.7334 47.1997 48.6846C47.1513 48.6358 47.1131 48.5778 47.0872 48.5142C47.0613 48.4505 47.0482 48.3823 47.0488 48.3135Z" fill="#C7C7C7"/>
<path d="M48.6917 48.3131C48.6917 48.2091 48.7227 48.1074 48.7806 48.0209C48.8385 47.9345 48.9207 47.8672 49.0169 47.8276C49.1132 47.788 49.219 47.7778 49.321 47.7984C49.4229 47.8191 49.5165 47.8695 49.5898 47.9434C49.663 48.0173 49.7127 48.1113 49.7324 48.2134C49.7522 48.3156 49.7412 48.4213 49.7007 48.5172C49.6603 48.6131 49.5923 48.6948 49.5054 48.7519C49.4184 48.8091 49.3165 48.8391 49.2124 48.8383C49.0739 48.8371 48.9415 48.7812 48.844 48.6829C48.7464 48.5845 48.6917 48.4516 48.6917 48.3131Z" fill="#C7C7C7"/>
<path d="M50.3317 48.3132C50.3317 48.2093 50.3625 48.1078 50.4202 48.0214C50.4779 47.9351 50.5599 47.8677 50.6559 47.828C50.7518 47.7883 50.8574 47.7779 50.9593 47.7981C51.0611 47.8184 51.1547 47.8684 51.2282 47.9418C51.3016 48.0153 51.3516 48.1088 51.3719 48.2107C51.3921 48.3126 51.3817 48.4182 51.342 48.5141C51.3022 48.6101 51.2349 48.6921 51.1486 48.7498C51.0622 48.8075 50.9607 48.8383 50.8568 48.8383C50.7879 48.8383 50.7196 48.8247 50.6559 48.7983C50.5922 48.7719 50.5343 48.7332 50.4855 48.6845C50.4367 48.6357 50.3981 48.5778 50.3717 48.5141C50.3453 48.4504 50.3317 48.3821 50.3317 48.3132Z" fill="#C7C7C7"/>
<path d="M111.466 49.4572H107.211V47.4813H111.466V49.4572ZM107.434 49.2347H111.243V47.7038H107.434V49.2347Z" fill="#C7C7C7"/>
<path d="M110.303 47.8194H107.566V49.1189H110.303V47.8194Z" fill="#C7C7C7"/>
<path d="M111.844 47.9438H111.465V48.9986H111.844V47.9438Z" fill="#C7C7C7"/>
<path d="M77.9836 132.33L84.7112 128.273C89.5285 125.289 94.043 121.843 98.1907 117.983C105.016 111.58 110.315 104.706 110.266 95.1138C110.247 91.1545 108.78 87.339 106.144 84.3854L106.087 84.3205C104.721 82.7162 103.027 81.4237 101.119 80.5305C99.2103 79.6373 97.1325 79.1641 95.0257 79.1429C88.5335 78.794 82.0413 81.3016 77.9836 88.6216C73.926 81.3178 67.4338 78.794 60.9415 79.1429C58.8402 79.1687 56.7688 79.6442 54.8665 80.5372C52.9642 81.4303 51.2751 82.7203 49.9129 84.3205L49.8561 84.3854C47.2193 87.339 45.7532 91.1545 45.7335 95.1138C45.6848 104.706 50.9841 111.58 57.8091 117.983C61.9585 121.829 66.473 125.262 71.2885 128.232L77.9836 132.33Z" fill="#FF44B4"/>
<path d="M107.369 106.71H92.2906L87.3565 91.6158C87.2886 91.4057 87.1566 91.2223 86.9789 91.0913C86.8013 90.9603 86.5871 90.8883 86.3664 90.8854C86.1476 90.886 85.9343 90.9542 85.7557 91.0805C85.577 91.2069 85.4417 91.3853 85.3682 91.5914L77.6263 113.746L70.7851 97.1017C70.7087 96.9111 70.578 96.7471 70.4092 96.6302C70.2404 96.5134 70.0409 96.4487 69.8356 96.4443C69.6306 96.4494 69.4308 96.5103 69.2578 96.6204C69.0848 96.7305 68.9451 96.8856 68.8537 97.0692L64.796 106.061H48.2733C48.6304 106.783 49.028 107.481 49.4419 108.171H65.4696C65.6726 108.171 65.8715 108.113 66.0427 108.004C66.2138 107.894 66.35 107.738 66.4353 107.554L69.7707 100.161L76.7174 117.09C76.7966 117.282 76.9316 117.447 77.1051 117.563C77.2786 117.679 77.4827 117.74 77.6912 117.739C77.905 117.734 78.1122 117.664 78.2848 117.537C78.4575 117.411 78.5873 117.235 78.6569 117.033L86.2934 95.2108L90.489 108.065C90.5599 108.277 90.6949 108.461 90.8753 108.592C91.0557 108.722 91.2724 108.794 91.4953 108.796H106.103C106.582 108.13 106.987 107.424 107.369 106.71Z" fill="white"/>
</g>
<rect x="4" y="4" width="148" height="148" rx="74" stroke="#FF44B4" stroke-width="8"/>
<path d="M198.344 35.75V38.8594H186.266V35.75H198.344ZM187.234 26.25V49H183.312V26.25H187.234ZM201.359 26.25V49H197.453V26.25H201.359ZM213.109 49.3125C211.859 49.3125 210.729 49.1094 209.719 48.7031C208.719 48.2865 207.865 47.7083 207.156 46.9688C206.458 46.2292 205.922 45.3594 205.547 44.3594C205.172 43.3594 204.984 42.2812 204.984 41.125V40.5C204.984 39.1771 205.177 37.9792 205.562 36.9062C205.948 35.8333 206.484 34.9167 207.172 34.1562C207.859 33.3854 208.672 32.7969 209.609 32.3906C210.547 31.9844 211.562 31.7812 212.656 31.7812C213.865 31.7812 214.922 31.9844 215.828 32.3906C216.734 32.7969 217.484 33.3698 218.078 34.1094C218.682 34.8385 219.13 35.7083 219.422 36.7188C219.724 37.7292 219.875 38.8438 219.875 40.0625V41.6719H206.812V38.9688H216.156V38.6719C216.135 37.9948 216 37.3594 215.75 36.7656C215.51 36.1719 215.141 35.6927 214.641 35.3281C214.141 34.9635 213.474 34.7812 212.641 34.7812C212.016 34.7812 211.458 34.9167 210.969 35.1875C210.49 35.4479 210.089 35.8281 209.766 36.3281C209.443 36.8281 209.193 37.4323 209.016 38.1406C208.849 38.8385 208.766 39.625 208.766 40.5V41.125C208.766 41.8646 208.865 42.5521 209.062 43.1875C209.271 43.8125 209.573 44.3594 209.969 44.8281C210.365 45.2969 210.844 45.6667 211.406 45.9375C211.969 46.1979 212.609 46.3281 213.328 46.3281C214.234 46.3281 215.042 46.1458 215.75 45.7812C216.458 45.4167 217.073 44.901 217.594 44.2344L219.578 46.1562C219.214 46.6875 218.74 47.1979 218.156 47.6875C217.573 48.1667 216.859 48.5573 216.016 48.8594C215.182 49.1615 214.214 49.3125 213.109 49.3125ZM232.344 45.6094V37.5469C232.344 36.9427 232.234 36.4219 232.016 35.9844C231.797 35.5469 231.464 35.2083 231.016 34.9688C230.578 34.7292 230.026 34.6094 229.359 34.6094C228.745 34.6094 228.214 34.7135 227.766 34.9219C227.318 35.1302 226.969 35.4115 226.719 35.7656C226.469 36.1198 226.344 36.5208 226.344 36.9688H222.594C222.594 36.3021 222.755 35.6562 223.078 35.0312C223.401 34.4062 223.87 33.849 224.484 33.3594C225.099 32.8698 225.833 32.4844 226.688 32.2031C227.542 31.9219 228.5 31.7812 229.562 31.7812C230.833 31.7812 231.958 31.9948 232.938 32.4219C233.927 32.849 234.703 33.4948 235.266 34.3594C235.839 35.2135 236.125 36.2865 236.125 37.5781V45.0938C236.125 45.8646 236.177 46.5573 236.281 47.1719C236.396 47.776 236.557 48.3021 236.766 48.75V49H232.906C232.729 48.5938 232.589 48.0781 232.484 47.4531C232.391 46.8177 232.344 46.2031 232.344 45.6094ZM232.891 38.7188L232.922 41.0469H230.219C229.521 41.0469 228.906 41.1146 228.375 41.25C227.844 41.375 227.401 41.5625 227.047 41.8125C226.693 42.0625 226.427 42.3646 226.25 42.7188C226.073 43.0729 225.984 43.474 225.984 43.9219C225.984 44.3698 226.089 44.7812 226.297 45.1562C226.505 45.5208 226.807 45.8073 227.203 46.0156C227.609 46.224 228.099 46.3281 228.672 46.3281C229.443 46.3281 230.115 46.1719 230.688 45.8594C231.271 45.5365 231.729 45.1458 232.062 44.6875C232.396 44.2188 232.573 43.776 232.594 43.3594L233.812 45.0312C233.688 45.4583 233.474 45.9167 233.172 46.4062C232.87 46.8958 232.474 47.3646 231.984 47.8125C231.505 48.25 230.927 48.6094 230.25 48.8906C229.583 49.1719 228.812 49.3125 227.938 49.3125C226.833 49.3125 225.849 49.0938 224.984 48.6562C224.12 48.2083 223.443 47.6094 222.953 46.8594C222.464 46.099 222.219 45.2396 222.219 44.2812C222.219 43.3854 222.385 42.5938 222.719 41.9062C223.062 41.2083 223.562 40.625 224.219 40.1562C224.885 39.6875 225.698 39.3333 226.656 39.0938C227.615 38.8438 228.708 38.7188 229.938 38.7188H232.891ZM244.094 25V49H240.312V25H244.094ZM255.969 32.0938V34.8438H246.438V32.0938H255.969ZM249.188 27.9531H252.953V44.3281C252.953 44.849 253.026 45.25 253.172 45.5312C253.328 45.8021 253.542 45.9844 253.812 46.0781C254.083 46.1719 254.401 46.2188 254.766 46.2188C255.026 46.2188 255.276 46.2031 255.516 46.1719C255.755 46.1406 255.948 46.1094 256.094 46.0781L256.109 48.9531C255.797 49.0469 255.432 49.1302 255.016 49.2031C254.609 49.276 254.141 49.3125 253.609 49.3125C252.745 49.3125 251.979 49.1615 251.312 48.8594C250.646 48.5469 250.125 48.0417 249.75 47.3438C249.375 46.6458 249.188 45.7188 249.188 44.5625V27.9531ZM262.594 25V49H258.844V25H262.594ZM261.938 39.9219L260.719 39.9062C260.729 38.7396 260.891 37.6615 261.203 36.6719C261.526 35.6823 261.974 34.8229 262.547 34.0938C263.13 33.3542 263.828 32.7865 264.641 32.3906C265.453 31.9844 266.354 31.7812 267.344 31.7812C268.177 31.7812 268.927 31.8958 269.594 32.125C270.271 32.3542 270.854 32.724 271.344 33.2344C271.833 33.7344 272.203 34.3906 272.453 35.2031C272.714 36.0052 272.844 36.9844 272.844 38.1406V49H269.062V38.1094C269.062 37.2969 268.943 36.651 268.703 36.1719C268.474 35.6927 268.135 35.349 267.688 35.1406C267.24 34.9219 266.693 34.8125 266.047 34.8125C265.37 34.8125 264.771 34.9479 264.25 35.2188C263.74 35.4896 263.312 35.8594 262.969 36.3281C262.625 36.7969 262.365 37.3385 262.188 37.9531C262.021 38.5677 261.938 39.224 261.938 39.9219Z" fill="#FF099C"/>
<line x1="148" y1="76" x2="1208" y2="76" stroke="#FF44B4" stroke-width="6"/>
<defs>
<clipPath id="clip0_9072_41789">
<rect x="8" y="8" width="140" height="140" rx="70" fill="white"/>
</clipPath>
</defs>
</svg>
