<svg width="1209" height="156" viewBox="0 0 1209 156" fill="none" xmlns="http://www.w3.org/2000/svg">
<rect x="4" y="4" width="148" height="148" rx="74" stroke="#FFC700" stroke-width="8"/>
<g filter="url(#filter0_d_9072_41791)">
<path d="M94.7994 114.427H50.5342C49.7067 114.427 49.0304 115.295 49.0304 116.353C49.0304 117.411 49.7067 118.274 50.5342 118.274H94.7994C95.6268 118.274 96.3031 117.407 96.3031 116.353C96.3031 115.299 95.6268 114.427 94.7994 114.427Z" fill="#263238"/>
<path d="M94.3583 30.4561C93.9499 30.5577 93.5985 30.8169 93.3808 31.177C93.1631 31.5371 93.0969 31.9688 93.1966 32.3776L110.12 100.969C110.221 101.379 110.481 101.731 110.842 101.948C111.203 102.166 111.636 102.232 112.045 102.131C112.454 102.029 112.805 101.77 113.023 101.41C113.24 101.05 113.307 100.618 113.207 100.209L96.2956 31.6257C96.2463 31.4211 96.1569 31.2283 96.0325 31.0585C95.9081 30.8887 95.7513 30.7452 95.5711 30.6365C95.3909 30.5277 95.191 30.4557 94.9828 30.4248C94.7746 30.3938 94.5623 30.4045 94.3583 30.4561Z" fill="#263238"/>
<path d="M109.631 102.513C107.063 103.319 104.734 104.746 102.85 106.667C100.966 108.589 99.5852 110.946 98.8302 113.529C98.6648 114.086 98.6317 114.674 98.7337 115.246C98.8357 115.818 99.0699 116.358 99.4177 116.824C99.7654 117.289 100.217 117.667 100.737 117.927C101.256 118.188 101.829 118.323 102.411 118.322H114.437V104.625C114.437 104.211 114.34 103.802 114.153 103.431C113.966 103.061 113.695 102.739 113.362 102.493C113.028 102.246 112.641 102.081 112.232 102.012C111.823 101.942 111.404 101.969 111.007 102.091L109.631 102.513Z" fill="#FFC700"/>
<path d="M101.676 112.904H50.5164C49.5895 112.904 48.8297 113.874 48.8297 115.06C48.8297 116.245 49.5895 117.216 50.5164 117.216H101.676C102.603 117.216 103.363 116.245 103.363 115.06C103.363 113.874 102.603 112.904 101.676 112.904Z" fill="#FFC700"/>
<path d="M108.437 87.5389C107.787 87.7007 107.228 88.1134 106.881 88.6867C106.534 89.26 106.429 89.9472 106.587 90.5981L110.219 105.317C110.382 105.967 110.795 106.526 111.368 106.872C111.941 107.219 112.628 107.325 113.279 107.167C113.929 107.004 114.489 106.591 114.835 106.017C115.182 105.443 115.287 104.755 115.129 104.104L111.496 89.3848C111.334 88.7354 110.921 88.1768 110.347 87.8309C109.774 87.4851 109.088 87.3801 108.437 87.5389Z" fill="#FFC700"/>
<path d="M111.112 95.0017C110.892 95.0563 110.703 95.1958 110.586 95.3897C110.469 95.5836 110.433 95.8161 110.488 96.036L111.713 101.009C111.767 101.229 111.907 101.418 112.101 101.536C112.294 101.654 112.527 101.69 112.747 101.637C112.967 101.581 113.155 101.44 113.272 101.246C113.389 101.052 113.425 100.819 113.372 100.599L112.142 95.6183C112.086 95.4008 111.947 95.2142 111.754 95.0988C111.561 94.9834 111.33 94.9485 111.112 95.0017Z" fill="#263238"/>
<path d="M110.915 106.654C108.451 107.419 106.301 108.963 104.788 111.052C103.275 113.142 102.479 115.667 102.521 118.247C102.53 118.65 102.633 119.047 102.821 119.404C103.009 119.761 103.278 120.07 103.606 120.306C103.933 120.542 104.311 120.699 104.71 120.764C105.109 120.829 105.517 120.801 105.903 120.681L122.973 115.394C123.36 115.276 123.713 115.07 124.006 114.792C124.299 114.513 124.523 114.171 124.66 113.791C124.797 113.411 124.845 113.005 124.798 112.603C124.751 112.202 124.611 111.818 124.389 111.48C122.967 109.327 120.885 107.693 118.456 106.823C116.027 105.953 113.381 105.894 110.915 106.654Z" fill="#FFC700"/>
<path opacity="0.6" d="M110.915 106.654C108.451 107.419 106.301 108.963 104.788 111.052C103.275 113.142 102.479 115.667 102.521 118.247C102.53 118.65 102.633 119.047 102.821 119.404C103.009 119.761 103.278 120.07 103.606 120.306C103.933 120.542 104.311 120.699 104.71 120.764C105.109 120.829 105.517 120.801 105.903 120.681L122.973 115.394C123.36 115.276 123.713 115.07 124.006 114.792C124.299 114.513 124.523 114.171 124.66 113.791C124.797 113.411 124.845 113.005 124.798 112.603C124.751 112.202 124.611 111.818 124.389 111.48C122.967 109.327 120.885 107.693 118.456 106.823C116.027 105.953 113.381 105.894 110.915 106.654Z" fill="white"/>
<path d="M120.719 124.318C124.188 120.848 124.188 115.224 120.719 111.755C117.25 108.286 111.625 108.286 108.156 111.755C104.687 115.224 104.687 120.848 108.156 124.318C111.625 127.787 117.25 127.787 120.719 124.318Z" fill="#263238"/>
<path opacity="0.3" d="M119.222 122.821C121.865 120.178 121.865 115.894 119.222 113.251C116.58 110.609 112.295 110.609 109.653 113.251C107.01 115.894 107.01 120.178 109.653 122.821C112.295 125.464 116.58 125.464 119.222 122.821Z" fill="white"/>
<path opacity="0.3" d="M118.078 118.634C118.404 116.626 117.04 114.733 115.032 114.407C113.024 114.081 111.131 115.445 110.805 117.453C110.479 119.461 111.843 121.354 113.851 121.68C115.86 122.006 117.752 120.642 118.078 118.634Z" fill="#263238"/>
<path d="M49.4931 118.039H41.1588C40.7662 118.04 40.3786 117.951 40.025 117.781L32.5102 114.164C32.1462 113.989 31.8278 113.732 31.58 113.413C31.3323 113.094 31.162 112.722 31.0826 112.326C31.0031 111.93 31.0167 111.521 31.1222 111.131C31.2278 110.741 31.4224 110.381 31.6907 110.079C33.1063 108.501 34.9172 107.329 36.9368 106.685C38.9563 106.041 41.1112 105.947 43.1789 106.414C45.2467 106.88 47.1525 107.891 48.6996 109.34C50.2466 110.789 51.3789 112.625 51.9795 114.658C52.0984 115.048 52.1247 115.46 52.0561 115.862C51.9876 116.264 51.8261 116.644 51.5847 116.972C51.3432 117.301 51.0283 117.568 50.6652 117.753C50.3021 117.939 49.9007 118.036 49.4931 118.039Z" fill="#FFC700"/>
<path d="M46.8443 124.322C50.3134 120.853 50.3134 115.228 46.8443 111.759C43.3751 108.29 37.7505 108.29 34.2814 111.759C30.8123 115.228 30.8123 120.853 34.2814 124.322C37.7506 127.791 43.3751 127.791 46.8443 124.322Z" fill="#263238"/>
<path opacity="0.3" d="M45.3476 122.825C47.9902 120.183 47.9902 115.898 45.3476 113.256C42.705 110.613 38.4204 110.613 35.7778 113.256C33.1352 115.898 33.1352 120.183 35.7778 122.825C38.4204 125.468 42.705 125.468 45.3476 122.825Z" fill="white"/>
<path opacity="0.3" d="M44.2018 118.634C44.5277 116.626 43.164 114.733 41.1558 114.407C39.1476 114.081 37.2553 115.445 36.9294 117.453C36.6034 119.462 37.9671 121.354 39.9753 121.68C41.9835 122.006 43.8758 120.642 44.2018 118.634Z" fill="#263238"/>
<path d="M54.318 120.685H43.3422C42.9221 120.679 42.5209 120.51 42.2238 120.213C41.9268 119.915 41.7571 119.514 41.751 119.094C41.7571 118.674 41.9268 118.273 42.2238 117.976C42.5209 117.679 42.9221 117.509 43.3422 117.503H54.318C54.7381 117.509 55.1393 117.679 55.4364 117.976C55.7335 118.273 55.9031 118.674 55.9093 119.094C55.9041 119.515 55.7348 119.916 55.4375 120.214C55.1402 120.511 54.7385 120.68 54.318 120.685Z" fill="#263238"/>
<path d="M57.1466 116.352H40.5019C40.0549 116.353 39.6265 116.532 39.3104 116.848C38.9943 117.164 38.8162 117.592 38.8152 118.039C38.8173 118.486 38.9957 118.914 39.3115 119.23C39.6274 119.545 40.0552 119.724 40.5019 119.726H57.1347C57.5814 119.724 58.0092 119.545 58.3251 119.23C58.641 118.914 58.8193 118.486 58.8214 118.039C58.8204 117.594 58.644 117.168 58.3305 116.852C58.0169 116.536 57.5916 116.357 57.1466 116.352Z" fill="#FFC700"/>
<path opacity="0.6" d="M57.1466 116.352H40.5019C40.0549 116.353 39.6265 116.532 39.3104 116.848C38.9943 117.164 38.8162 117.592 38.8152 118.039C38.8173 118.486 38.9957 118.914 39.3115 119.23C39.6274 119.545 40.0552 119.724 40.5019 119.726H57.1347C57.5814 119.724 58.0092 119.545 58.3251 119.23C58.641 118.914 58.8193 118.486 58.8214 118.039C58.8204 117.594 58.644 117.168 58.3305 116.852C58.0169 116.536 57.5916 116.357 57.1466 116.352Z" fill="white"/>
<path d="M45.0686 118.609H41.6951C41.5442 118.609 41.3995 118.549 41.2929 118.442C41.1862 118.335 41.1262 118.191 41.1262 118.04C41.1262 117.888 41.186 117.743 41.2926 117.636C41.3992 117.529 41.5439 117.468 41.6951 117.467H45.0805C45.2322 117.468 45.3773 117.529 45.4845 117.636C45.5917 117.743 45.6524 117.888 45.6534 118.04C45.6529 118.116 45.6373 118.191 45.6075 118.26C45.5778 118.33 45.5344 118.393 45.48 118.446C45.4256 118.499 45.3612 118.541 45.2906 118.569C45.22 118.597 45.1445 118.61 45.0686 118.609Z" fill="white"/>
<path opacity="0.3" d="M94.407 115.764H82.2736C82.0871 115.763 81.9086 115.688 81.7768 115.557C81.645 115.425 81.5705 115.246 81.5694 115.06C81.5694 114.873 81.6436 114.694 81.7757 114.562C81.9077 114.43 82.0868 114.356 82.2736 114.356H94.407C94.5941 114.356 94.7736 114.43 94.9063 114.562C95.039 114.694 95.1141 114.873 95.1151 115.06C95.1141 115.247 95.039 115.426 94.9063 115.558C94.7736 115.69 94.5941 115.764 94.407 115.764Z" fill="white"/>
<path d="M96.1617 31.2517C96.1617 31.697 96.0296 32.1323 95.7822 32.5026C95.5348 32.8729 95.1831 33.1615 94.7717 33.3319C94.3603 33.5023 93.9075 33.5469 93.4708 33.46C93.034 33.3732 92.6328 33.1587 92.3179 32.8438C92.003 32.5289 91.7885 32.1277 91.7017 31.6909C91.6148 31.2542 91.6594 30.8014 91.8298 30.39C92.0002 29.9785 92.2888 29.6269 92.6591 29.3795C93.0294 29.1321 93.4647 29 93.91 29C94.5072 29 95.0799 29.2372 95.5022 29.6595C95.9245 30.0818 96.1617 30.6545 96.1617 31.2517Z" fill="#263238"/>
<path d="M97.4743 33.4432L94.6259 32.2498C94.3223 32.1239 94.081 31.8828 93.955 31.5792C93.8289 31.2757 93.8284 30.9346 93.9536 30.6307C94.0794 30.3271 94.3206 30.0858 94.6241 29.9598C94.9277 29.8337 95.2688 29.8332 95.5727 29.9584L98.4211 31.1518C98.724 31.2785 98.9645 31.5198 99.0905 31.823C99.2164 32.1262 99.2174 32.4669 99.0934 32.7709C98.9658 33.0731 98.7245 33.313 98.4216 33.4388C98.1186 33.5646 97.7784 33.5662 97.4743 33.4432Z" fill="#263238"/>
<path d="M109.612 97.2217C108.997 97.2188 108.387 97.1029 107.814 96.8796C107.205 96.6598 106.649 96.3151 106.181 95.8678C105.713 95.4204 105.344 94.8802 105.097 94.2819C104.608 93.0128 104.699 91.6284 104.791 90.3037L104.826 89.7388C105.053 85.8839 104.405 82.6696 102.893 80.1911C102.337 79.3222 101.723 78.4915 101.055 77.7048C100.713 77.2831 100.359 76.8455 100.025 76.3999C97.537 73.0667 96.0223 69.109 95.6487 64.9667C95.3384 61.3505 95.9272 57.7025 96.4961 54.1778C96.6791 53.0441 96.87 51.8705 97.0252 50.7208C97.5384 46.9256 97.9362 41.3641 95.4538 36.8966L95.8317 36.6858C98.3778 41.2687 97.976 46.9216 97.4548 50.7765C97.2997 51.9341 97.1087 53.1117 96.9257 54.2455C96.3608 57.7463 95.776 61.3664 96.0824 64.9269C96.4414 68.9884 97.9204 72.8706 100.355 76.1414C100.685 76.579 101.035 77.0126 101.377 77.4303C102.056 78.2328 102.68 79.0793 103.247 79.9644C104.803 82.5263 105.475 85.8242 105.236 89.7666L105.2 90.3355C105.113 91.6244 105.021 92.9571 105.479 94.1386C105.715 94.6729 106.054 95.1552 106.477 95.5579C106.901 95.9606 107.399 96.2758 107.944 96.4854C108.489 96.695 109.071 96.7948 109.654 96.7792C110.238 96.7635 110.813 96.6327 111.347 96.3943L111.542 96.7921C110.941 97.0832 110.28 97.2303 109.612 97.2217Z" fill="#263238"/>
</g>
<path d="M73.952 94.3271H54.0787C53.0054 94.3264 51.9762 93.8997 51.2173 93.1407C50.4583 92.3818 50.0316 91.3526 50.0309 90.2793V42.7782C50.0316 41.7049 50.4583 40.6757 51.2173 39.9167C51.9762 39.1578 53.0054 38.7311 54.0787 38.7303H73.952C75.0254 38.7311 76.0545 39.1578 76.8135 39.9167C77.5725 40.6757 77.9992 41.7049 77.9999 42.7782V90.2793C77.9992 91.3526 77.5725 92.3818 76.8135 93.1407C76.0545 93.8997 75.0254 94.3264 73.952 94.3271Z" fill="#EDC947"/>
<path d="M72.9211 94.3271H53.0479C51.9745 94.3264 50.9454 93.8997 50.1864 93.1407C49.4274 92.3818 49.0007 91.3526 49 90.2793V42.7782C49.0007 41.7049 49.4274 40.6757 50.1864 39.9167C50.9454 39.1578 51.9745 38.7311 53.0479 38.7303H72.9211C73.9945 38.7311 75.0236 39.1578 75.7826 39.9167C76.5416 40.6757 76.9683 41.7049 76.969 42.7782V90.2793C76.9683 91.3526 76.5416 92.3818 75.7826 93.1407C75.0236 93.8997 73.9945 94.3264 72.9211 94.3271Z" fill="#263238"/>
<path d="M72.9197 39.6604H67.7546C67.5924 39.6595 67.4354 39.7177 67.3129 39.824C67.1904 39.9303 67.1107 40.0775 67.0887 40.2382L67.0667 40.4006C67.0141 40.7961 66.8202 41.1591 66.5208 41.4227C66.2213 41.6862 65.8365 41.8324 65.4376 41.8343H60.5285C60.1295 41.8324 59.7448 41.6862 59.4453 41.4227C59.1458 41.1591 58.9519 40.7961 58.8994 40.4006L58.8801 40.2382C58.8588 40.076 58.7792 39.9272 58.6561 39.8193C58.5331 39.7115 58.3751 39.6521 58.2115 39.6521H53.0464C52.6353 39.6507 52.2281 39.7305 51.848 39.8871C51.4679 40.0436 51.1225 40.2738 50.8317 40.5643C50.541 40.8548 50.3105 41.2 50.1536 41.5799C49.9967 41.9599 49.9165 42.3671 49.9176 42.7781V90.2792C49.9176 91.1061 50.2461 91.8991 50.8308 92.4838C51.4155 93.0685 52.2085 93.397 53.0354 93.397H72.9087C73.7358 93.397 74.5291 93.0686 75.1142 92.484C75.6994 91.8993 76.0285 91.1063 76.0292 90.2792V42.7781C76.0285 41.9529 75.7009 41.1616 75.1181 40.5773C74.5354 39.993 73.7449 39.6633 72.9197 39.6604Z" fill="#EDC947"/>
<path opacity="0.8" d="M72.9197 39.6604H67.7546C67.5924 39.6595 67.4354 39.7177 67.3129 39.824C67.1904 39.9303 67.1107 40.0775 67.0887 40.2382L67.0667 40.4006C67.0141 40.7961 66.8202 41.1591 66.5208 41.4227C66.2213 41.6862 65.8365 41.8324 65.4376 41.8343H60.5285C60.1295 41.8324 59.7448 41.6862 59.4453 41.4227C59.1458 41.1591 58.9519 40.7961 58.8994 40.4006L58.8801 40.2382C58.8588 40.076 58.7792 39.9272 58.6561 39.8193C58.5331 39.7115 58.3751 39.6521 58.2115 39.6521H53.0464C52.6353 39.6507 52.2281 39.7305 51.848 39.8871C51.4679 40.0436 51.1225 40.2738 50.8317 40.5643C50.541 40.8548 50.3105 41.2 50.1536 41.5799C49.9967 41.9599 49.9165 42.3671 49.9176 42.7781V90.2792C49.9176 91.1061 50.2461 91.8991 50.8308 92.4838C51.4155 93.0685 52.2085 93.397 53.0354 93.397H72.9087C73.7358 93.397 74.5291 93.0686 75.1142 92.484C75.6994 91.8993 76.0285 91.1063 76.0292 90.2792V42.7781C76.0285 41.9529 75.7009 41.1616 75.1181 40.5773C74.5354 39.993 73.7449 39.6633 72.9197 39.6604Z" fill="white"/>
<g opacity="0.7">
<path d="M61.7822 40.1859C61.7827 40.2645 61.7599 40.3415 61.7165 40.407C61.6732 40.4726 61.6113 40.5238 61.5388 40.5542C61.4663 40.5845 61.3864 40.5926 61.3093 40.5774C61.2322 40.5622 61.1613 40.5244 61.1057 40.4688C61.0501 40.4132 61.0124 40.3424 60.9972 40.2652C60.9819 40.1881 60.99 40.1082 61.0204 40.0357C61.0507 39.9632 61.1019 39.9013 61.1675 39.858C61.2331 39.8147 61.3101 39.7918 61.3887 39.7924C61.4403 39.7924 61.4915 39.8025 61.5393 39.8223C61.587 39.8421 61.6304 39.8711 61.6669 39.9076C61.7035 39.9442 61.7324 39.9875 61.7522 40.0353C61.772 40.083 61.7822 40.1342 61.7822 40.1859Z" fill="black"/>
<path d="M64.5795 39.7924H63.2257C63.1213 39.7924 63.0212 39.8338 62.9474 39.9076C62.8736 39.9814 62.8322 40.0815 62.8322 40.1859C62.8322 40.2902 62.8736 40.3903 62.9474 40.4641C63.0212 40.5379 63.1213 40.5794 63.2257 40.5794H64.5795C64.6839 40.5794 64.784 40.5379 64.8578 40.4641C64.9316 40.3903 64.973 40.2902 64.973 40.1859C64.973 40.0815 64.9316 39.9814 64.8578 39.9076C64.784 39.8338 64.6839 39.7924 64.5795 39.7924Z" fill="black"/>
</g>
<path d="M52.5115 41.4166H52.0933V41.8349H52.5115V41.4166Z" fill="#EDC947"/>
<path d="M52.9268 41.416V41.8342H53.3451V41.416V40.9977H52.9268V41.416Z" fill="#EDC947"/>
<path d="M53.7624 40.5819V40.9974V41.4157V41.834H54.1807V41.4157V40.9974V40.5819H53.7624Z" fill="#EDC947"/>
<path d="M71.7361 40.6097V40.9152H71.5325V41.5288H71.7361V41.8343H73.5853V40.6097H71.7361ZM72.5617 41.5288H71.9343V40.9152H72.5479L72.5617 41.5288Z" fill="#EDC947"/>
<path d="M65.2411 50.3015H64.622V48.8073C64.6312 48.5798 64.5943 48.3529 64.5136 48.14C64.4329 47.9272 64.31 47.7329 64.1524 47.5687C63.9947 47.4045 63.8055 47.2739 63.5961 47.1847C63.3867 47.0955 63.1614 47.0495 62.9338 47.0495C62.7062 47.0495 62.4809 47.0955 62.2715 47.1847C62.0621 47.2739 61.8729 47.4045 61.7152 47.5687C61.5575 47.7329 61.4347 47.9272 61.354 48.14C61.2733 48.3529 61.2364 48.5798 61.2456 48.8073V50.3015H60.6264V48.8073C60.6157 48.4975 60.6675 48.1888 60.7786 47.8996C60.8898 47.6103 61.058 47.3463 61.2733 47.1235C61.4886 46.9006 61.7466 46.7233 62.0319 46.6023C62.3172 46.4812 62.6239 46.4188 62.9338 46.4188C63.2437 46.4188 63.5504 46.4812 63.8357 46.6023C64.1209 46.7233 64.3789 46.9006 64.5942 47.1235C64.8096 47.3463 64.9778 47.6103 65.0889 47.8996C65.2001 48.1888 65.2518 48.4975 65.2411 48.8073V50.3015Z" fill="#263238"/>
<path d="M60.0097 49.7318V54.5474H65.8572V49.7318H60.0097ZM63.243 52.1231V52.8963C63.243 52.9781 63.2105 53.0565 63.1527 53.1143C63.0949 53.1721 63.0165 53.2045 62.9348 53.2045C62.8531 53.2045 62.7747 53.1721 62.7169 53.1143C62.6591 53.0565 62.6266 52.9781 62.6266 52.8963V52.1176C62.5231 52.051 62.444 51.9527 62.401 51.8374C62.3581 51.7221 62.3536 51.596 62.3883 51.4779C62.423 51.3599 62.495 51.2562 62.5935 51.1825C62.692 51.1088 62.8118 51.0689 62.9348 51.0689C63.0578 51.0689 63.1776 51.1088 63.2761 51.1825C63.3746 51.2562 63.4466 51.3599 63.4813 51.4779C63.516 51.596 63.5115 51.7221 63.4686 51.8374C63.4256 51.9527 63.3465 52.051 63.243 52.1176V52.1231Z" fill="#263238"/>
<path d="M58.9418 57.1659C58.8411 57.141 58.7471 57.094 58.6667 57.0283L58.7685 56.7999C58.8414 56.854 58.9221 56.8967 59.0079 56.9265C59.0968 56.9556 59.1895 56.9714 59.2831 56.9733C59.3781 56.9809 59.4734 56.9619 59.5582 56.9182C59.5848 56.9029 59.607 56.8808 59.6224 56.8543C59.6379 56.8277 59.6461 56.7976 59.6463 56.7669C59.6466 56.7456 59.6423 56.7246 59.6338 56.7051C59.6252 56.6856 59.6126 56.6682 59.5968 56.6541C59.5601 56.6236 59.5181 56.6003 59.4729 56.5853C59.4234 56.5688 59.3546 56.5495 59.2693 56.5302C59.1693 56.5074 59.071 56.478 58.9749 56.4422C58.9003 56.4143 58.834 56.3679 58.7822 56.3073C58.725 56.238 58.6965 56.1494 58.7024 56.0597C58.7006 55.9744 58.7256 55.8906 58.774 55.8203C58.8276 55.7432 58.902 55.6831 58.9886 55.6469C59.1006 55.6023 59.2204 55.5808 59.3408 55.5836C59.4338 55.585 59.5263 55.5979 59.616 55.6221C59.7021 55.6415 59.7841 55.676 59.8582 55.724L59.7674 55.9551C59.6982 55.9149 59.6242 55.8835 59.5472 55.8616C59.4758 55.84 59.4017 55.8289 59.3271 55.8285C59.2368 55.8231 59.1469 55.8442 59.0684 55.8891C59.0417 55.9055 59.0198 55.9286 59.0048 55.9561C58.9898 55.9836 58.9823 56.0146 58.9831 56.0459C58.9825 56.0668 58.9866 56.0876 58.9952 56.1067C59.0038 56.1258 59.0166 56.1426 59.0327 56.156C59.0686 56.1875 59.1108 56.2109 59.1565 56.2248L59.3601 56.2826C59.4592 56.3041 59.5567 56.3326 59.6518 56.3679C59.7264 56.3958 59.7927 56.4422 59.8444 56.5027C59.9015 56.5711 59.9301 56.6588 59.9242 56.7476C59.9264 56.8321 59.9013 56.9151 59.8527 56.9843C59.7998 57.0613 59.725 57.1207 59.638 57.1549C59.5255 57.2008 59.4045 57.2224 59.2831 57.2182C59.1674 57.2178 59.0524 57.2001 58.9418 57.1659Z" fill="#263238"/>
<path d="M61.4229 56.9483V57.1959H60.2314V55.6082H61.3788V55.8531H60.5258V56.2686H61.2935V56.508H60.5258V56.9455L61.4229 56.9483Z" fill="#263238"/>
<path d="M62.044 57.1132C61.9181 57.0458 61.8133 56.9449 61.7413 56.8215C61.6716 56.6951 61.6351 56.5531 61.6351 56.4088C61.6351 56.2644 61.6716 56.1224 61.7413 55.996C61.8143 55.8725 61.92 55.7716 62.0467 55.7043C62.1801 55.6319 62.3298 55.595 62.4815 55.597C62.6041 55.5964 62.7256 55.6198 62.8392 55.6658C62.9447 55.7102 63.0388 55.7779 63.1144 55.8639L62.9218 56.0428C62.869 55.9827 62.8037 55.9348 62.7305 55.9025C62.6573 55.8702 62.578 55.8542 62.498 55.8557C62.3963 55.8545 62.2959 55.8791 62.2063 55.9272C62.1213 55.9742 62.0508 56.0437 62.0027 56.1281C61.9561 56.2123 61.9315 56.307 61.9311 56.4033C61.9323 56.4994 61.9568 56.5939 62.0027 56.6784C62.0501 56.7627 62.1208 56.8314 62.2063 56.8766C62.2954 56.926 62.3961 56.9507 62.498 56.9481C62.578 56.9496 62.6573 56.9336 62.7305 56.9013C62.8037 56.869 62.869 56.8211 62.9218 56.761L63.1144 56.9426C63.0392 57.029 62.945 57.0968 62.8392 57.1407C62.7255 57.1861 62.6039 57.2085 62.4815 57.2068C62.33 57.2137 62.1794 57.1814 62.044 57.1132Z" fill="#263238"/>
<path d="M63.5557 57.0336C63.4907 56.9621 63.4409 56.8782 63.4092 56.7869C63.3775 56.6956 63.3646 56.5989 63.3713 56.5025V55.6082H63.6658V56.4915C63.6658 56.8052 63.8006 56.9593 64.0703 56.9593C64.34 56.9593 64.472 56.8052 64.472 56.4915V55.6082H64.7472V56.508C64.7537 56.6041 64.741 56.7006 64.7098 56.7918C64.6786 56.883 64.6296 56.967 64.5656 57.0391C64.4216 57.1581 64.2406 57.2232 64.0538 57.2232C63.867 57.2232 63.686 57.1581 63.5419 57.0391L63.5557 57.0336Z" fill="#263238"/>
<path d="M66.2155 57.1955L65.888 56.7304H65.4698V57.1927H65.1753V55.605H65.8275C65.9509 55.6022 66.0736 55.6247 66.188 55.671C66.2833 55.712 66.3645 55.7799 66.4219 55.8664C66.4782 55.9571 66.5069 56.0623 66.5044 56.1691C66.5063 56.2783 66.4757 56.3856 66.4164 56.4773C66.3562 56.5671 66.2682 56.6347 66.166 56.6699L66.5319 57.1927L66.2155 57.1955ZM66.1082 55.9379C66.0226 55.877 65.9185 55.8478 65.8137 55.8554H65.4698V56.491H65.8137C65.919 56.499 66.0235 56.4687 66.1082 56.4057C66.1396 56.3754 66.1647 56.3391 66.1818 56.2989C66.1988 56.2587 66.2077 56.2155 66.2077 56.1718C66.2077 56.1282 66.1988 56.0849 66.1818 56.0447C66.1647 56.0046 66.1396 55.9682 66.1082 55.9379Z" fill="#263238"/>
<path d="M68.0268 56.9483V57.1959H66.8353V55.6082H67.9828V55.8531H67.1297V56.2686H67.8975V56.508H67.1297V56.9455L68.0268 56.9483Z" fill="#263238"/>
<path d="M68.3551 32.869C68.2456 32.869 68.1406 32.8255 68.0632 32.7481C67.9858 32.6707 67.9423 32.5657 67.9423 32.4562C67.9423 31.672 65.8454 29.8255 62.9891 29.8255C60.2373 29.8255 58.0359 31.716 58.0359 32.4562C58.0359 32.5657 57.9924 32.6707 57.915 32.7481C57.8376 32.8255 57.7326 32.869 57.6231 32.869C57.5137 32.869 57.4087 32.8255 57.3313 32.7481C57.2539 32.6707 57.2104 32.5657 57.2104 32.4562C57.2104 31.1244 59.8603 29 62.9891 29C66.1867 29 68.7678 31.0913 68.7678 32.4562C68.7678 32.5657 68.7243 32.6707 68.6469 32.7481C68.5695 32.8255 68.4645 32.869 68.3551 32.869Z" fill="#EDC947"/>
<path d="M66.8396 34.9547C66.7301 34.9547 66.6251 34.9112 66.5477 34.8338C66.4703 34.7564 66.4268 34.6514 66.4268 34.5419C66.4268 34.0301 64.9381 32.7726 62.9844 32.7726C61.0306 32.7726 59.5502 34.1264 59.5502 34.5419C59.5502 34.6514 59.5067 34.7564 59.4293 34.8338C59.3519 34.9112 59.2469 34.9547 59.1374 34.9547C59.0279 34.9547 58.9229 34.9112 58.8455 34.8338C58.7681 34.7564 58.7246 34.6514 58.7246 34.5419C58.7246 33.5403 60.6784 31.947 62.9926 31.947C65.2518 31.947 67.2606 33.3972 67.2606 34.5419C67.2606 34.5968 67.2497 34.6512 67.2284 34.7018C67.2072 34.7525 67.176 34.7983 67.1368 34.8368C67.0976 34.8752 67.0511 34.9054 67.0001 34.9257C66.9491 34.9459 66.8945 34.9558 66.8396 34.9547Z" fill="#EDC947"/>
<path d="M60.652 37.0488C60.5415 37.0474 60.4361 37.0023 60.3588 36.9234C60.2814 36.8445 60.2385 36.7382 60.2392 36.6278C60.2392 35.871 61.571 34.8942 62.991 34.8942C64.4687 34.8942 65.7427 35.8463 65.7427 36.6278C65.7427 36.7373 65.6992 36.8422 65.6218 36.9196C65.5444 36.9971 65.4394 37.0405 65.33 37.0405C65.2205 37.0405 65.1155 36.9971 65.0381 36.9196C64.9607 36.8422 64.9172 36.7373 64.9172 36.6278C64.8842 36.3966 64.0917 35.7197 62.991 35.7197C61.8903 35.7197 61.1198 36.4214 61.0647 36.6415C61.0647 36.6955 61.054 36.7489 61.0332 36.7987C61.0124 36.8484 60.9819 36.8936 60.9435 36.9315C60.9051 36.9694 60.8595 36.9993 60.8095 37.0194C60.7594 37.0395 60.7059 37.0495 60.652 37.0488Z" fill="#EDC947"/>
<path d="M54.7968 73.5898L54.6945 73.7957L53.7487 74.3435C53.7723 74.2848 53.7998 74.2277 53.831 74.1726C53.8593 74.12 53.8915 74.0695 53.9271 74.0216C53.9852 73.943 54.0527 73.8718 54.128 73.8095L54.1742 73.7745L54.2403 73.7308C54.2806 73.7068 54.3222 73.6851 54.3651 73.666C54.3888 73.656 54.4112 73.6485 54.4337 73.641L54.4499 73.6348C54.4907 73.6215 54.5324 73.6111 54.5747 73.6036C54.6479 73.5903 54.7225 73.5857 54.7968 73.5898Z" fill="#FFC700"/>
<path opacity="0.6" d="M54.7968 73.5898L54.6945 73.7957L53.7487 74.3435C53.7723 74.2848 53.7998 74.2277 53.831 74.1726C53.8593 74.12 53.8915 74.0695 53.9271 74.0216C53.9852 73.943 54.0527 73.8718 54.128 73.8095L54.1742 73.7745L54.2403 73.7308C54.2806 73.7068 54.3222 73.6851 54.3651 73.666C54.3888 73.656 54.4112 73.6485 54.4337 73.641L54.4499 73.6348C54.4907 73.6215 54.5324 73.6111 54.5747 73.6036C54.6479 73.5903 54.7225 73.5857 54.7968 73.5898Z" fill="black"/>
<path d="M58.2158 77.2258C58.2158 75.842 57.3748 74.2311 56.3366 73.6347C56.2844 73.6049 56.2307 73.5779 56.1757 73.5536L56.1607 73.5461C56.1258 73.5298 56.09 73.5156 56.0534 73.5037C56.0259 73.4937 55.9997 73.4824 55.9723 73.4737L55.8937 73.4525C55.8575 73.4438 55.8225 73.435 55.7876 73.43L55.7302 73.4213C55.6888 73.4163 55.6471 73.4138 55.6054 73.4138H55.5817H55.5068C55.1498 73.4261 54.8011 73.5251 54.4909 73.7023C54.1807 73.8795 53.9182 74.1295 53.7263 74.4308C53.5359 74.697 53.422 75.0103 53.3968 75.3367C53.3834 75.4334 53.3763 75.531 53.3756 75.6286C53.375 75.6369 53.375 75.6453 53.3756 75.6536C53.3756 75.6623 53.3756 75.6711 53.3756 75.681C53.3756 77.0648 54.2166 78.6757 55.2548 79.2722C55.3097 79.3034 55.3634 79.3296 55.4158 79.3545L55.4307 79.362C55.4669 79.3782 55.5031 79.3907 55.538 79.4032L55.6192 79.4331C55.6454 79.4419 55.6716 79.4481 55.6978 79.4543C55.724 79.4606 55.7689 79.4718 55.8051 79.4781L55.8612 79.4855C55.9024 79.4855 56.0421 79.4955 56.0571 79.4955H56.0821C56.4394 79.4835 56.7883 79.3847 57.0988 79.2075C57.4093 79.0303 57.6719 78.7801 57.8639 78.4786C58.0538 78.2122 58.1673 77.8989 58.1921 77.5727C58.2055 77.4763 58.2126 77.3792 58.2133 77.282C58.214 77.2736 58.214 77.2653 58.2133 77.257C58.2133 77.247 58.2133 77.2383 58.2133 77.2295L58.2158 77.2258Z" fill="#37474F"/>
<path d="M56.3868 79.4202C57.2163 79.0673 57.3827 77.5922 56.7586 76.1255C56.1345 74.6588 54.9562 73.7559 54.1268 74.1088C53.2974 74.4617 53.1309 75.9368 53.755 77.4035C54.3791 78.8702 55.5574 79.7731 56.3868 79.4202Z" fill="#455A64"/>
<path d="M55.805 78.8206C55.6015 78.8146 55.4031 78.7553 55.2298 78.6484C54.4549 78.2017 53.8248 76.9988 53.8248 75.9694C53.8248 75.4154 54.0082 74.9911 54.3239 74.8065C54.5922 74.6517 54.9316 74.6817 55.2809 74.8801C56.0558 75.3268 56.6859 76.5284 56.6859 77.5591C56.6859 78.1118 56.5025 78.5361 56.1868 78.7208C56.0708 78.7876 55.9389 78.8221 55.805 78.8206ZM54.7107 74.8202C54.5966 74.8187 54.4842 74.8475 54.385 74.9038C54.1005 75.0685 53.9371 75.4566 53.9371 75.9694C53.9371 76.9676 54.5423 78.1218 55.2859 78.5511C55.5991 78.732 55.8986 78.7569 56.1307 78.6234C56.4152 78.4587 56.5786 78.0707 56.5786 77.5591C56.5786 76.5608 55.9735 75.4066 55.2298 74.9774C55.0735 74.8805 54.8945 74.8263 54.7107 74.8202Z" fill="#37474F"/>
<path d="M55.9161 77.4131C55.9092 77.4581 55.913 77.5041 55.9271 77.5475C55.9411 77.5908 55.9652 77.6302 55.9972 77.6626L56.142 77.8061C56.1056 77.9205 56.0315 78.019 55.9317 78.0857C55.832 78.1524 55.7125 78.1831 55.5929 78.173L55.5593 77.9558C55.5548 77.9107 55.5387 77.8675 55.5127 77.8304C55.4867 77.7932 55.4516 77.7634 55.4108 77.7437C55.3446 77.7263 55.3035 77.7899 55.3184 77.886L55.3534 78.1018C55.0477 77.9436 54.7972 77.6965 54.6347 77.3931L54.7445 77.3195C54.762 77.3021 54.7745 77.2802 54.7806 77.2563C54.7868 77.2323 54.7864 77.2072 54.7794 77.1835C54.7748 77.1526 54.7651 77.1226 54.7507 77.0949C54.7058 77.0025 54.6259 76.9539 54.5785 76.9876L54.4674 77.0612C54.3939 76.8823 54.3412 76.6956 54.3102 76.5047C54.2813 76.3331 54.2775 76.1582 54.299 75.9856L54.4437 76.1291C54.4612 76.1476 54.4831 76.1613 54.5074 76.169C54.5172 76.1718 54.5275 76.1724 54.5375 76.1708C54.5476 76.1692 54.5572 76.1654 54.5656 76.1597C54.5741 76.154 54.5811 76.1465 54.5864 76.1378C54.5916 76.129 54.5949 76.1193 54.596 76.1091C54.6034 76.0641 54.5999 76.0179 54.5858 75.9745C54.5716 75.9311 54.5473 75.8917 54.5149 75.8596L54.3701 75.7161C54.4069 75.6019 54.4814 75.5035 54.5814 75.4371C54.6813 75.3707 54.8008 75.3402 54.9204 75.3505L54.9541 75.5663C54.9589 75.6104 54.975 75.6525 55.0008 75.6886C55.0265 75.7246 55.0612 75.7534 55.1013 75.7722C55.1662 75.7897 55.2074 75.7261 55.1924 75.6312L55.1575 75.4141C55.4628 75.5728 55.7133 75.8197 55.8762 76.1229L55.7664 76.1977C55.7486 76.2147 55.7359 76.2363 55.7295 76.2601C55.7231 76.2838 55.7234 76.3089 55.7302 76.3325C55.7359 76.3635 55.7456 76.3937 55.7589 76.4223C55.8051 76.5147 55.8837 76.5621 55.9311 76.5296L56.0422 76.4548C56.117 76.6342 56.1702 76.8218 56.2006 77.0138C56.2296 77.1849 56.2334 77.3594 56.2119 77.5316L56.0659 77.3881C56.0492 77.3693 56.0276 77.3555 56.0035 77.3482C55.9934 77.3456 55.9828 77.3452 55.9726 77.3472C55.9623 77.3492 55.9527 77.3535 55.9443 77.3597C55.9359 77.3659 55.929 77.374 55.9242 77.3832C55.9193 77.3924 55.9165 77.4026 55.9161 77.4131Z" fill="#37474F"/>
<path d="M65.3843 83.3163L55.0052 77.3269C54.8914 77.2449 54.7982 77.1375 54.7332 77.0131C54.6682 76.8888 54.6332 76.751 54.6309 76.6107C54.6309 76.3349 54.7993 76.2076 55.0052 76.3274L56.5886 77.2445L56.8794 77.2707L66.1342 82.4815L65.3843 83.3163Z" fill="#263238"/>
<path d="M56.1169 77.7811L54.9939 77.136C54.9217 77.0847 54.8626 77.017 54.8214 76.9385C54.7802 76.86 54.7581 76.7729 54.7568 76.6843C54.7568 76.5109 54.8629 76.4348 54.9939 76.5059L56.1169 77.151C56.1889 77.2026 56.2477 77.2703 56.2886 77.3488C56.3296 77.4272 56.3516 77.5142 56.3528 77.6027C56.3528 77.7761 56.2479 77.856 56.1169 77.7811Z" fill="#37474F"/>
<path d="M56.1056 77.5653L55.0113 76.9327C54.9871 76.9156 54.9672 76.893 54.9533 76.8668C54.9394 76.8405 54.932 76.8114 54.9315 76.7817C54.9315 76.7231 54.9677 76.6969 55.0113 76.7218L56.1056 77.3545C56.1299 77.3715 56.1498 77.3941 56.1637 77.4204C56.1775 77.4466 56.185 77.4758 56.1855 77.5054C56.1855 77.5641 56.1493 77.5903 56.1056 77.5653Z" fill="#FFC700"/>
<path d="M65.3855 83.3162L66.954 82.4103L67.7026 81.5693L66.1342 82.4752L65.3855 83.3162Z" fill="black"/>
<path d="M67.1399 80.6135L59.1366 75.9967L57.0703 77.1908V77.5128L65.0723 82.1296C65.7923 82.5451 66.8392 82.615 67.4094 82.2855C67.6527 82.1445 67.7688 81.9536 67.7675 81.749C67.7675 81.6966 67.7675 81.4845 67.7675 81.4296C67.7638 81.1575 67.5517 80.8631 67.1399 80.6135Z" fill="#37474F"/>
<path d="M67.1399 80.4775L59.1366 75.8607L57.0703 77.0548V77.3693L65.0723 81.9861C65.7923 82.4016 66.8392 82.4715 67.4094 82.1421C67.6527 82.0011 67.7688 81.8102 67.7675 81.6055C67.7675 81.5531 67.7675 81.341 67.7675 81.2861C67.7638 81.0178 67.5517 80.7171 67.1399 80.4775Z" fill="#FFC700"/>
<path opacity="0.3" d="M67.1399 80.4775L59.1366 75.8607L57.0703 77.0548V77.3693L65.0723 81.9861C65.7923 82.4016 66.8392 82.4715 67.4094 82.1421C67.6527 82.0011 67.7688 81.8102 67.7675 81.6055C67.7675 81.5531 67.7675 81.341 67.7675 81.2861C67.7638 81.0178 67.5517 80.7171 67.1399 80.4775Z" fill="black"/>
<path d="M67.4082 81.8276C66.8379 82.157 65.786 82.0884 65.0711 81.6729L57.0703 77.0561L57.4296 76.8465L57.6355 76.7279L58.5813 76.1814L59.1341 75.8607L67.1361 80.4775C67.8586 80.893 67.9784 81.4982 67.4082 81.8276Z" fill="#FFC700"/>
<path d="M57.6355 76.7242L57.4297 76.8427C57.2038 75.6037 56.4439 74.3472 55.5393 73.8231C55.3134 73.6834 55.0558 73.6031 54.7906 73.5897C54.7183 73.5861 54.6459 73.5907 54.5747 73.6035C54.5325 73.611 54.4908 73.6214 54.4499 73.6347L54.4337 73.6409C54.4113 73.6484 54.3888 73.6559 54.3651 73.6659C54.3223 73.685 54.2806 73.7067 54.2403 73.7307C54.2175 73.7441 54.1954 73.7587 54.1742 73.7744L54.128 73.8094C54.0527 73.8717 53.9853 73.9429 53.9271 74.0215C53.8915 74.0694 53.8594 74.1199 53.831 74.1725C53.7999 74.2276 53.7724 74.2847 53.7487 74.3434C53.7058 74.3863 53.6513 74.4158 53.5919 74.4282C53.5325 74.4406 53.4708 74.4354 53.4143 74.4133C53.5316 73.9142 53.7724 73.5623 54.0943 73.3764C54.4811 73.153 54.9865 73.1742 55.5393 73.4937C56.5163 74.0577 57.3448 75.3828 57.6355 76.7242Z" fill="#FFC700"/>
<path opacity="0.4" d="M57.6355 76.7242L57.4297 76.8427C57.2038 75.6037 56.4439 74.3472 55.5393 73.8231C55.3134 73.6834 55.0558 73.6031 54.7906 73.5897C54.7183 73.5861 54.6459 73.5907 54.5747 73.6035C54.5325 73.611 54.4908 73.6214 54.4499 73.6347L54.4337 73.6409C54.4113 73.6484 54.3888 73.6559 54.3651 73.6659C54.3223 73.685 54.2806 73.7067 54.2403 73.7307C54.2175 73.7441 54.1954 73.7587 54.1742 73.7744L54.128 73.8094C54.0527 73.8717 53.9853 73.9429 53.9271 74.0215C53.8915 74.0694 53.8594 74.1199 53.831 74.1725C53.7999 74.2276 53.7724 74.2847 53.7487 74.3434C53.7058 74.3863 53.6513 74.4158 53.5919 74.4282C53.5325 74.4406 53.4708 74.4354 53.4143 74.4133C53.5316 73.9142 53.7724 73.5623 54.0943 73.3764C54.4811 73.153 54.9865 73.1742 55.5393 73.4937C56.5163 74.0577 57.3448 75.3828 57.6355 76.7242Z" fill="black"/>
<path d="M57.6368 76.7242C57.3461 75.3829 56.5138 74.0577 55.5405 73.4937C54.9878 73.1743 54.4824 73.1531 54.0956 73.3764L55.0439 72.8286C55.4307 72.6053 55.9348 72.6265 56.4876 72.9459C57.4659 73.5099 58.2944 74.8351 58.5839 76.1765C58.7111 76.7617 58.242 77.0736 57.6368 76.7242Z" fill="#FFC700"/>
<g opacity="0.2">
<path d="M57.6368 76.7242C57.3461 75.3829 56.5138 74.0577 55.5405 73.4937C54.9878 73.1743 54.4824 73.1531 54.0956 73.3764L55.0439 72.8286C55.4307 72.6053 55.9348 72.6265 56.4876 72.9459C57.4659 73.5099 58.2944 74.8351 58.5839 76.1765C58.7111 76.7617 58.242 77.0736 57.6368 76.7242Z" fill="black"/>
</g>
<path d="M69.5906 80.8221C69.5802 80.822 69.57 80.8194 69.5607 80.8146C69.5516 80.8108 69.5433 80.8052 69.5364 80.7981C69.5295 80.7911 69.5241 80.7827 69.5204 80.7735C69.5168 80.7643 69.5151 80.7545 69.5154 80.7446C69.5157 80.7347 69.5179 80.725 69.522 80.716C69.9825 79.6766 69.8177 78.9891 69.5095 78.6933C69.4085 78.594 69.2783 78.5295 69.138 78.5093C68.9977 78.4891 68.8547 78.5142 68.7297 78.581C68.7118 78.5898 68.6912 78.5911 68.6723 78.5847C68.6535 78.5782 68.638 78.5646 68.6292 78.5467C68.6205 78.5288 68.6191 78.5082 68.6256 78.4894C68.632 78.4705 68.6457 78.455 68.6635 78.4463C68.8164 78.3662 68.9906 78.3365 69.1614 78.3613C69.3322 78.3862 69.4907 78.4644 69.6144 78.5848C69.9587 78.9167 70.1509 79.6666 69.6593 80.7771C69.6533 80.7904 69.6437 80.8017 69.6315 80.8096C69.6194 80.8176 69.6052 80.8219 69.5906 80.8221Z" fill="#263238"/>
<path d="M70.0098 81.1975C69.9995 81.1979 69.9892 81.1957 69.9799 81.1913C69.9709 81.1874 69.9627 81.1817 69.9559 81.1746C69.9491 81.1675 69.9437 81.1592 69.9401 81.15C69.9365 81.1409 69.9348 81.1311 69.9349 81.1213C69.9351 81.1114 69.9372 81.1017 69.9412 81.0927C70.3792 80.072 70.2182 79.2023 69.9474 78.7681C69.8064 78.5416 69.5825 78.3791 69.3235 78.3152C69.2106 78.29 69.0937 78.288 68.98 78.3095C68.8663 78.331 68.7582 78.3753 68.6622 78.4399C68.6457 78.4482 68.6268 78.4501 68.609 78.4453C68.5912 78.4405 68.5758 78.4293 68.5658 78.4138C68.5558 78.3984 68.5518 78.3798 68.5546 78.3616C68.5574 78.3434 68.5668 78.3268 68.5811 78.3152C68.6938 78.2395 68.8208 78.1877 68.9542 78.1628C69.0877 78.1379 69.2248 78.1405 69.3572 78.1704C69.657 78.2424 69.9164 78.4293 70.0797 78.6907C70.3704 79.1562 70.5451 80.0795 70.0797 81.1551C70.0731 81.1679 70.063 81.1786 70.0507 81.1861C70.0384 81.1936 70.0242 81.1976 70.0098 81.1975Z" fill="#263238"/>
<path d="M71.7093 85.0157C71.7093 83.6307 70.8683 82.0211 69.8301 81.4234C69.7752 81.3922 69.7228 81.3672 69.6691 81.3423L69.6542 81.3348C69.618 81.3186 69.583 81.3061 69.5469 81.2924L69.4658 81.2637C69.4395 81.2549 69.4133 81.2487 69.3871 81.2424C69.3609 81.2362 69.316 81.225 69.2811 81.2187L69.2237 81.2113C69.1825 81.2113 69.1413 81.2038 69.0989 81.2025H69.0003C68.6432 81.2143 68.2943 81.313 67.984 81.4903C67.6737 81.6675 67.4113 81.9178 67.2197 82.2195C67.0296 82.4854 66.9157 82.7982 66.8903 83.1241C66.877 83.2209 66.8699 83.3184 66.8691 83.4161C66.8685 83.4244 66.8685 83.4327 66.8691 83.441C66.8691 83.451 66.8691 83.4585 66.8691 83.4685C66.8691 84.8535 67.7101 86.4632 68.7483 87.0609C68.8032 87.0921 68.8568 87.117 68.9092 87.142L68.9242 87.1495C68.9604 87.1657 68.9966 87.1782 69.0315 87.1919C69.0665 87.2056 69.0864 87.2131 69.1126 87.2206C69.1388 87.2281 69.165 87.2356 69.1912 87.2418C69.2174 87.248 69.2636 87.2593 69.2985 87.2655L69.3547 87.273C69.3959 87.273 69.5356 87.2842 69.5506 87.2842H69.5756C69.9329 87.272 70.2819 87.1729 70.5924 86.9955C70.9029 86.8181 71.1654 86.5677 71.3574 86.266C71.5473 86.0001 71.6608 85.6872 71.6856 85.3614C71.699 85.2646 71.7061 85.1671 71.7068 85.0694C71.7074 85.0611 71.7074 85.0528 71.7068 85.0444C71.7068 85.0357 71.7068 85.027 71.7068 85.017L71.7093 85.0157Z" fill="#37474F"/>
<path d="M69.8803 87.2107C70.7097 86.8578 70.8762 85.3827 70.2521 83.916C69.628 82.4493 68.4497 81.5464 67.6202 81.8993C66.7908 82.2522 66.6244 83.7273 67.2485 85.194C67.8726 86.6607 69.0509 87.5636 69.8803 87.2107Z" fill="#455A64"/>
<path d="M69.2986 86.6117C69.0952 86.6052 68.8969 86.5458 68.7234 86.4395C67.9485 85.9915 67.3184 84.7899 67.3184 83.7593C67.3184 83.2052 67.5018 82.7822 67.8175 82.5976C68.0858 82.4428 68.4252 82.4728 68.7745 82.6699C69.5494 83.1167 70.1795 84.3195 70.1795 85.3489C70.1795 85.903 69.9961 86.326 69.6804 86.5119C69.5641 86.5781 69.4324 86.6126 69.2986 86.6117ZM68.2043 82.6101C68.0901 82.609 67.9777 82.6382 67.8786 82.6949C67.5941 82.8596 67.4307 83.2477 67.4307 83.7593C67.4307 84.7575 68.0359 85.9117 68.7795 86.3409C69.0927 86.5219 69.3922 86.5481 69.6243 86.4145C69.9088 86.2498 70.0722 85.8618 70.0722 85.3489C70.0722 84.3507 69.4671 83.1965 68.7234 82.7673C68.5671 82.6703 68.3881 82.6161 68.2043 82.6101Z" fill="#37474F"/>
<path d="M69.4108 85.2042C69.4034 85.2493 69.4069 85.2954 69.421 85.3389C69.4352 85.3823 69.4595 85.4217 69.4919 85.4538L69.6354 85.5973C69.599 85.7115 69.5249 85.81 69.4251 85.8764C69.3253 85.9429 69.2058 85.9733 69.0864 85.9629L69.0527 85.747C69.0478 85.7031 69.0318 85.6612 69.0063 85.6252C68.9808 85.5892 68.9465 85.5603 68.9067 85.5411C68.8406 85.5237 68.7994 85.5873 68.8144 85.6821L68.8493 85.8992C68.5442 85.7402 68.2939 85.4933 68.1306 85.1905L68.2404 85.1156C68.258 85.0985 68.2705 85.0769 68.2766 85.0531C68.2828 85.0294 68.2823 85.0044 68.2754 84.9809C68.2708 84.9496 68.2611 84.9192 68.2467 84.891C68.2017 84.7987 68.1219 84.7513 68.0757 84.7837L67.9634 84.8586C67.8899 84.6793 67.8371 84.4921 67.8062 84.3008C67.7772 84.1293 67.7735 83.9544 67.795 83.7817L67.9397 83.9252C67.9568 83.9442 67.9788 83.958 68.0033 83.9652C68.013 83.9682 68.0233 83.969 68.0334 83.9676C68.0434 83.9661 68.053 83.9625 68.0615 83.9568C68.07 83.9512 68.0771 83.9438 68.0824 83.9351C68.0876 83.9264 68.0909 83.9166 68.0919 83.9065C68.0994 83.8615 68.096 83.8153 68.0819 83.7718C68.0677 83.7284 68.0434 83.689 68.0108 83.657L67.8661 83.5135C67.9029 83.3992 67.9773 83.3007 68.0772 83.2341C68.1771 83.1674 68.2967 83.1366 68.4163 83.1466L68.45 83.3637C68.4553 83.4077 68.4716 83.4496 68.4973 83.4855C68.523 83.5215 68.5574 83.5504 68.5973 83.5696C68.6622 83.5871 68.7033 83.5235 68.6884 83.4274L68.6534 83.2115C68.9591 83.3698 69.2096 83.6169 69.3722 83.9203L69.2623 83.9939C69.2446 84.0111 69.2319 84.033 69.2258 84.057C69.2196 84.081 69.2202 84.1062 69.2274 84.1299C69.2323 84.1606 69.2415 84.1904 69.2549 84.2185C69.301 84.3108 69.3796 84.3595 69.4271 84.3258L69.5394 84.2522C69.6132 84.4313 69.666 84.6185 69.6966 84.8099C69.7255 84.9811 69.7293 85.1555 69.7078 85.3278L69.5631 85.1843C69.5454 85.166 69.5236 85.1523 69.4994 85.1443C69.4896 85.1415 69.4793 85.1409 69.4693 85.1425C69.4592 85.1442 69.4496 85.1479 69.4412 85.1537C69.4328 85.1594 69.4257 85.1668 69.4204 85.1756C69.4152 85.1843 69.4119 85.1941 69.4108 85.2042Z" fill="#37474F"/>
<path d="M68.6147 79.5903L68.3552 78.0319L65.7112 80.9804C65.5714 81.1351 65.6113 81.3298 65.8359 81.4595C65.992 81.5386 66.1645 81.5798 66.3394 81.5798C66.5144 81.5798 66.6868 81.5386 66.8429 81.4595C66.8892 81.4332 66.9313 81.3999 66.9677 81.3609L68.6147 79.5903Z" fill="#37474F"/>
<path d="M69.1814 80.2517L68.4676 76.0604L67.573 76.1103L67.9348 78.2391L68.1944 79.7975L68.2879 80.3116C68.2973 80.3441 68.3132 80.3744 68.3347 80.4006C68.3561 80.4267 68.3827 80.4483 68.4127 80.4639C68.5111 80.5137 68.6199 80.5397 68.7303 80.5397C68.8406 80.5397 68.9494 80.5137 69.0478 80.4639C69.0903 80.4481 69.1265 80.4188 69.1506 80.3805C69.1747 80.3421 69.1855 80.2969 69.1814 80.2517Z" fill="#FFC700"/>
<path d="M67.7076 76.28C67.8058 76.3305 67.9147 76.3568 68.0251 76.3568C68.1356 76.3568 68.2444 76.3305 68.3427 76.28C68.5186 76.1789 68.5186 76.0155 68.3427 75.9131C68.2443 75.8633 68.1355 75.8373 68.0251 75.8373C67.9148 75.8373 67.806 75.8633 67.7076 75.9131C67.5316 76.0155 67.5316 76.1789 67.7076 76.28Z" fill="#FFC700"/>
<path opacity="0.3" d="M67.7076 76.28C67.8058 76.3305 67.9147 76.3568 68.0251 76.3568C68.1356 76.3568 68.2444 76.3305 68.3427 76.28C68.5186 76.1789 68.5186 76.0155 68.3427 75.9131C68.2443 75.8633 68.1355 75.8373 68.0251 75.8373C67.9148 75.8373 67.806 75.8633 67.7076 75.9131C67.5316 76.0155 67.5316 76.1789 67.7076 76.28Z" fill="black"/>
<path d="M68.253 80.1145C68.3191 80.5138 67.654 80.9879 67.7801 81.7117C67.9061 82.4354 68.2355 84.3894 68.2355 84.3894C68.3166 84.7887 68.5362 85.0982 68.807 85.1655C69.0166 85.2092 69.1888 85.0408 69.1351 84.6078L68.671 81.8789C68.6086 81.5108 69.3248 81.255 69.5444 81.2974C69.8366 81.4097 70.1019 81.5823 70.323 81.804C70.2656 81.5544 70.2357 81.4484 70.1546 81.114C69.9724 80.3653 69.1826 80.2642 69.0827 79.6815L68.253 80.1145Z" fill="#FFC700"/>
<path d="M68.9841 84.6727L68.7732 83.3999C68.7504 83.3144 68.7077 83.2354 68.6488 83.1693C68.5898 83.1032 68.5162 83.0519 68.4338 83.0194C68.2716 82.9582 68.1593 83.0293 68.1843 83.1778L68.3952 84.4506C68.4179 84.536 68.4604 84.6149 68.5191 84.681C68.5778 84.7471 68.6512 84.7985 68.7333 84.8311C68.8968 84.8923 69.0116 84.8212 68.9841 84.6727Z" fill="#37474F"/>
<path d="M68.7858 84.5865L68.5799 83.3387C68.5718 83.3106 68.5573 83.2848 68.5376 83.2631C68.518 83.2415 68.4936 83.2247 68.4663 83.2139C68.4114 83.1927 68.374 83.214 68.3815 83.2664L68.5886 84.5141C68.5964 84.5424 68.6107 84.5685 68.6304 84.5902C68.6502 84.6118 68.6747 84.6285 68.7022 84.6389C68.7621 84.6601 68.7945 84.6364 68.7858 84.5865Z" fill="#FFC700"/>
<path d="M68.1918 61.0409L67.7563 60.2922L69.5968 59.2303C69.6316 59.2132 69.6705 59.2058 69.7092 59.2091C69.7479 59.2124 69.785 59.2262 69.8164 59.2491C69.9058 59.3076 69.9801 59.3863 70.0334 59.4789C70.0867 59.5714 70.1175 59.6752 70.1234 59.7819C70.127 59.8192 70.121 59.8568 70.1059 59.8911C70.0909 59.9254 70.0672 59.9552 70.0373 59.9778L68.1918 61.0409Z" fill="#455A64"/>
<path d="M68.2816 60.8425C68.2816 61.0384 68.1431 61.1182 67.9734 61.0196C67.884 60.9615 67.8095 60.8831 67.7562 60.7907C67.7028 60.6983 67.6721 60.5946 67.6665 60.4881C67.6665 60.2922 67.8037 60.2123 67.9734 60.3097C68.0629 60.3681 68.1375 60.4468 68.191 60.5393C68.2445 60.6319 68.2756 60.7357 68.2816 60.8425Z" fill="#37474F"/>
<path d="M67.9248 60.5105C67.8997 60.4943 67.8696 60.4877 67.84 60.4918L66.0382 61.5287L65.9957 61.5537L66.2066 61.9205L68.0072 60.8848L68.0571 60.8537C68.073 60.8316 68.0806 60.8046 68.0783 60.7775C68.0751 60.7242 68.0596 60.6723 68.0329 60.626C68.0063 60.5797 67.9693 60.5401 67.9248 60.5105Z" fill="#E0E0E0"/>
<path d="M68.3778 76.0542L65.9159 61.6099L65.2134 61.6498L67.4007 74.4733L67.6054 75.6974L67.6778 76.1016C67.6848 76.1283 67.6973 76.1531 67.7145 76.1746C67.7316 76.1961 67.7532 76.2137 67.7776 76.2264C67.8549 76.2658 67.9404 76.2863 68.0271 76.2863C68.1139 76.2863 68.1994 76.2658 68.2767 76.2264C68.3103 76.2131 68.3385 76.1889 68.3569 76.1577C68.3752 76.1265 68.3825 76.0901 68.3778 76.0542Z" fill="#37474F"/>
<path d="M65.9445 61.7795H65.2345L65.4578 63.086L66.0218 63.2195C66.0767 63.232 66.1354 63.2419 66.1953 63.2494L65.9445 61.7795Z" fill="#263238"/>
<path d="M65.3169 61.782C65.3942 61.8213 65.4797 61.8418 65.5664 61.8418C65.6532 61.8418 65.7387 61.8213 65.816 61.782C65.8461 61.7718 65.8722 61.7524 65.8907 61.7265C65.9092 61.7007 65.9192 61.6697 65.9192 61.6379C65.9192 61.6061 65.9092 61.5751 65.8907 61.5492C65.8722 61.5234 65.8461 61.504 65.816 61.4938C65.7385 61.455 65.6531 61.4348 65.5664 61.4348C65.4798 61.4348 65.3944 61.455 65.3169 61.4938C65.2868 61.504 65.2606 61.5234 65.2421 61.5492C65.2236 61.5751 65.2137 61.6061 65.2137 61.6379C65.2137 61.6697 65.2236 61.7007 65.2421 61.7265C65.2606 61.7524 65.2868 61.7718 65.3169 61.782Z" fill="#455A64"/>
<path d="M66.0169 62.9062C66.4212 63.001 66.9702 62.9511 67.2422 62.7939C67.357 62.7278 67.4032 62.6529 67.3895 62.5818C67.3695 62.4832 67.2023 61.4712 67.2023 61.4712L64.4347 61.4637L64.6219 62.578L66.0169 62.9062Z" fill="#37474F"/>
<path d="M65.8348 61.792C66.239 61.8868 66.7868 61.8369 67.0588 61.6797C67.1724 61.6148 67.2198 61.5412 67.2073 61.4713C67.1899 61.3715 67.0551 61.2791 66.818 61.2217L65.4242 60.8986L64.4397 61.4675L65.8348 61.792Z" fill="#455A64"/>
<path d="M65.1322 62.0453L63.0746 63.2357L63.2842 63.6L65.3406 62.4184C65.4616 62.3498 65.2982 61.9742 65.1322 62.0453Z" fill="#E0E0E0"/>
<path d="M62.1113 64.4798L61.6758 63.7311L63.5213 62.6642C63.5565 62.6473 63.5956 62.6402 63.6345 62.6437C63.6734 62.6472 63.7106 62.6612 63.7422 62.6842C63.8316 62.7423 63.9061 62.8208 63.9594 62.9132C64.0128 63.0055 64.0435 63.1092 64.0491 63.2158C64.0528 63.2531 64.0468 63.2907 64.0317 63.325C64.0167 63.3593 63.993 63.3891 63.963 63.4117L62.1113 64.4798Z" fill="#455A64"/>
<path d="M62.2013 64.2814C62.2013 64.4773 62.064 64.5559 61.8943 64.4586C61.805 64.4 61.7306 64.3213 61.6773 64.2288C61.624 64.1362 61.5932 64.0324 61.5873 63.9257C61.5873 63.7298 61.7246 63.65 61.8943 63.7486C61.9839 63.8069 62.0584 63.8855 62.1117 63.9781C62.1651 64.0707 62.1957 64.1746 62.2013 64.2814Z" fill="#263238"/>
<path d="M67.6778 61.9317L67.3746 61.7533C67.3205 61.7317 67.2616 61.7248 67.2039 61.7333C67.1463 61.7418 67.0919 61.7655 67.0464 61.802C66.9147 61.8976 66.8072 62.0229 66.7326 62.1676C66.6581 62.3124 66.6185 62.4726 66.6172 62.6355C66.6142 62.6937 66.6265 62.7517 66.653 62.8036C66.6795 62.8555 66.7193 62.8995 66.7682 62.9312L67.0714 63.1096C67.1256 63.1311 67.1846 63.1378 67.2422 63.129C67.2999 63.1203 67.3542 63.0964 67.3996 63.0597C67.5315 62.9643 67.6391 62.8391 67.7135 62.6943C67.7878 62.5494 67.8269 62.389 67.8275 62.2262C67.8311 62.1682 67.8191 62.1104 67.7928 62.0586C67.7665 62.0068 67.7268 61.963 67.6778 61.9317Z" fill="#455A64"/>
<path d="M67.065 63.1071L66.7655 62.9311C66.7166 62.8994 66.6769 62.8554 66.6504 62.8035C66.6239 62.7516 66.6115 62.6936 66.6145 62.6354C66.6121 62.4909 66.6433 62.3478 66.7056 62.2174L67.0151 62.3958C66.9527 62.5262 66.9215 62.6693 66.924 62.8138C66.9207 62.8707 66.9319 62.9274 66.9566 62.9787C66.9812 63.03 67.0185 63.0742 67.065 63.1071Z" fill="#263238"/>
<path d="M67.4006 63.0611C67.5326 62.9657 67.6402 62.8405 67.7145 62.6956C67.7889 62.5508 67.828 62.3904 67.8286 62.2276C67.8149 61.9293 67.599 61.8183 67.3482 61.978C67.2164 62.0737 67.109 62.1989 67.0344 62.3437C66.9599 62.4884 66.9203 62.6487 66.919 62.8115C66.9339 63.1122 67.1498 63.2233 67.4006 63.0611Z" fill="#37474F"/>
<path d="M67.1898 63.041C67.0425 63.0472 67.0176 62.8813 67.0138 62.8089C67.0161 62.6628 67.0521 62.5193 67.1189 62.3894C67.1858 62.2596 67.2818 62.1469 67.3994 62.0602C67.4467 62.0273 67.5017 62.0071 67.5591 62.0016C67.7063 61.9941 67.7313 62.1601 67.7338 62.2324C67.7321 62.3785 67.6964 62.5221 67.6297 62.652C67.5631 62.7819 67.4671 62.8946 67.3495 62.9811C67.3021 63.0142 67.2472 63.0348 67.1898 63.041Z" fill="#263238"/>
<path d="M67.3994 62.0603C67.4419 62.031 67.4906 62.0118 67.5416 62.0042C67.5672 62.0527 67.5813 62.1065 67.5828 62.1614C67.5808 62.3075 67.545 62.4511 67.4781 62.5811C67.4112 62.711 67.315 62.8236 67.1972 62.91C67.1545 62.9392 67.106 62.9588 67.055 62.9674C67.0294 62.9184 67.0154 62.8642 67.0138 62.809C67.0161 62.6629 67.0521 62.5194 67.1189 62.3895C67.1858 62.2596 67.2818 62.147 67.3994 62.0603Z" fill="#FFC700"/>
<path d="M191.672 28.25V51H187.781V28.25H191.672ZM198.812 28.25V31.375H180.703V28.25H198.812ZM204.094 37.3125V51H200.328V34.0938H203.922L204.094 37.3125ZM209.266 33.9844L209.234 37.4844C209.005 37.4427 208.755 37.4115 208.484 37.3906C208.224 37.3698 207.964 37.3594 207.703 37.3594C207.057 37.3594 206.49 37.4531 206 37.6406C205.51 37.8177 205.099 38.0781 204.766 38.4219C204.443 38.7552 204.193 39.1615 204.016 39.6406C203.839 40.1198 203.734 40.6562 203.703 41.25L202.844 41.3125C202.844 40.25 202.948 39.2656 203.156 38.3594C203.365 37.4531 203.677 36.6562 204.094 35.9688C204.521 35.2812 205.052 34.7448 205.688 34.3594C206.333 33.974 207.078 33.7812 207.922 33.7812C208.151 33.7812 208.396 33.8021 208.656 33.8438C208.927 33.8854 209.13 33.9323 209.266 33.9844ZM220.594 47.6094V39.5469C220.594 38.9427 220.484 38.4219 220.266 37.9844C220.047 37.5469 219.714 37.2083 219.266 36.9688C218.828 36.7292 218.276 36.6094 217.609 36.6094C216.995 36.6094 216.464 36.7135 216.016 36.9219C215.568 37.1302 215.219 37.4115 214.969 37.7656C214.719 38.1198 214.594 38.5208 214.594 38.9688H210.844C210.844 38.3021 211.005 37.6562 211.328 37.0312C211.651 36.4062 212.12 35.849 212.734 35.3594C213.349 34.8698 214.083 34.4844 214.938 34.2031C215.792 33.9219 216.75 33.7812 217.812 33.7812C219.083 33.7812 220.208 33.9948 221.188 34.4219C222.177 34.849 222.953 35.4948 223.516 36.3594C224.089 37.2135 224.375 38.2865 224.375 39.5781V47.0938C224.375 47.8646 224.427 48.5573 224.531 49.1719C224.646 49.776 224.807 50.3021 225.016 50.75V51H221.156C220.979 50.5938 220.839 50.0781 220.734 49.4531C220.641 48.8177 220.594 48.2031 220.594 47.6094ZM221.141 40.7188L221.172 43.0469H218.469C217.771 43.0469 217.156 43.1146 216.625 43.25C216.094 43.375 215.651 43.5625 215.297 43.8125C214.943 44.0625 214.677 44.3646 214.5 44.7188C214.323 45.0729 214.234 45.474 214.234 45.9219C214.234 46.3698 214.339 46.7812 214.547 47.1562C214.755 47.5208 215.057 47.8073 215.453 48.0156C215.859 48.224 216.349 48.3281 216.922 48.3281C217.693 48.3281 218.365 48.1719 218.938 47.8594C219.521 47.5365 219.979 47.1458 220.312 46.6875C220.646 46.2188 220.823 45.776 220.844 45.3594L222.062 47.0312C221.938 47.4583 221.724 47.9167 221.422 48.4062C221.12 48.8958 220.724 49.3646 220.234 49.8125C219.755 50.25 219.177 50.6094 218.5 50.8906C217.833 51.1719 217.062 51.3125 216.188 51.3125C215.083 51.3125 214.099 51.0938 213.234 50.6562C212.37 50.2083 211.693 49.6094 211.203 48.8594C210.714 48.099 210.469 47.2396 210.469 46.2812C210.469 45.3854 210.635 44.5938 210.969 43.9062C211.312 43.2083 211.812 42.625 212.469 42.1562C213.135 41.6875 213.948 41.3333 214.906 41.0938C215.865 40.8438 216.958 40.7188 218.188 40.7188H221.141ZM232.047 37.7031V51H228.281V34.0938H231.828L232.047 37.7031ZM231.375 41.9219L230.156 41.9062C230.167 40.7083 230.333 39.6094 230.656 38.6094C230.99 37.6094 231.448 36.75 232.031 36.0312C232.625 35.3125 233.333 34.7604 234.156 34.375C234.979 33.9792 235.896 33.7812 236.906 33.7812C237.719 33.7812 238.453 33.8958 239.109 34.125C239.776 34.3438 240.344 34.7031 240.812 35.2031C241.292 35.7031 241.656 36.3542 241.906 37.1562C242.156 37.9479 242.281 38.9219 242.281 40.0781V51H238.5V40.0625C238.5 39.25 238.38 38.6094 238.141 38.1406C237.911 37.6615 237.573 37.3229 237.125 37.125C236.688 36.9167 236.141 36.8125 235.484 36.8125C234.839 36.8125 234.26 36.9479 233.75 37.2188C233.24 37.4896 232.807 37.8594 232.453 38.3281C232.109 38.7969 231.844 39.3385 231.656 39.9531C231.469 40.5677 231.375 41.224 231.375 41.9219ZM255.609 46.4219C255.609 46.0469 255.516 45.7083 255.328 45.4062C255.141 45.0938 254.781 44.8125 254.25 44.5625C253.729 44.3125 252.958 44.0833 251.938 43.875C251.042 43.6771 250.219 43.4427 249.469 43.1719C248.729 42.8906 248.094 42.5521 247.562 42.1562C247.031 41.7604 246.62 41.2917 246.328 40.75C246.036 40.2083 245.891 39.5833 245.891 38.875C245.891 38.1875 246.042 37.5365 246.344 36.9219C246.646 36.3073 247.078 35.7656 247.641 35.2969C248.203 34.8281 248.885 34.4583 249.688 34.1875C250.5 33.9167 251.406 33.7812 252.406 33.7812C253.823 33.7812 255.036 34.0208 256.047 34.5C257.068 34.9688 257.849 35.6094 258.391 36.4219C258.932 37.224 259.203 38.1302 259.203 39.1406H255.438C255.438 38.6927 255.323 38.276 255.094 37.8906C254.875 37.4948 254.542 37.1771 254.094 36.9375C253.646 36.6875 253.083 36.5625 252.406 36.5625C251.76 36.5625 251.224 36.6667 250.797 36.875C250.38 37.0729 250.068 37.3333 249.859 37.6562C249.661 37.9792 249.562 38.3333 249.562 38.7188C249.562 39 249.615 39.2552 249.719 39.4844C249.833 39.7031 250.021 39.9062 250.281 40.0938C250.542 40.2708 250.896 40.4375 251.344 40.5938C251.802 40.75 252.375 40.901 253.062 41.0469C254.354 41.3177 255.464 41.6667 256.391 42.0938C257.328 42.5104 258.047 43.0521 258.547 43.7188C259.047 44.375 259.297 45.2083 259.297 46.2188C259.297 46.9688 259.135 47.6562 258.812 48.2812C258.5 48.8958 258.042 49.4323 257.438 49.8906C256.833 50.3385 256.109 50.6875 255.266 50.9375C254.432 51.1875 253.495 51.3125 252.453 51.3125C250.922 51.3125 249.625 51.0417 248.562 50.5C247.5 49.9479 246.693 49.2448 246.141 48.3906C245.599 47.526 245.328 46.6302 245.328 45.7031H248.969C249.01 46.401 249.203 46.9583 249.547 47.375C249.901 47.7812 250.339 48.0781 250.859 48.2656C251.391 48.4427 251.938 48.5312 252.5 48.5312C253.177 48.5312 253.745 48.4427 254.203 48.2656C254.661 48.0781 255.01 47.8281 255.25 47.5156C255.49 47.1927 255.609 46.8281 255.609 46.4219ZM266.375 37.3438V57.5H262.609V34.0938H266.078L266.375 37.3438ZM277.391 42.3906V42.7188C277.391 43.9479 277.245 45.0885 276.953 46.1406C276.672 47.1823 276.25 48.0938 275.688 48.875C275.135 49.6458 274.453 50.2448 273.641 50.6719C272.828 51.099 271.891 51.3125 270.828 51.3125C269.776 51.3125 268.854 51.1198 268.062 50.7344C267.281 50.3385 266.62 49.7812 266.078 49.0625C265.536 48.3438 265.099 47.5 264.766 46.5312C264.443 45.5521 264.214 44.4792 264.078 43.3125V42.0469C264.214 40.8073 264.443 39.6823 264.766 38.6719C265.099 37.6615 265.536 36.7917 266.078 36.0625C266.62 35.3333 267.281 34.7708 268.062 34.375C268.844 33.9792 269.755 33.7812 270.797 33.7812C271.859 33.7812 272.802 33.9896 273.625 34.4062C274.448 34.8125 275.141 35.3958 275.703 36.1562C276.266 36.9062 276.688 37.8125 276.969 38.875C277.25 39.9271 277.391 41.099 277.391 42.3906ZM273.625 42.7188V42.3906C273.625 41.6094 273.552 40.8854 273.406 40.2188C273.26 39.5417 273.031 38.9479 272.719 38.4375C272.406 37.9271 272.005 37.5312 271.516 37.25C271.036 36.9583 270.458 36.8125 269.781 36.8125C269.115 36.8125 268.542 36.9271 268.062 37.1562C267.583 37.375 267.182 37.6823 266.859 38.0781C266.536 38.474 266.286 38.9375 266.109 39.4688C265.932 39.9896 265.807 40.5573 265.734 41.1719V44.2031C265.859 44.9531 266.073 45.6406 266.375 46.2656C266.677 46.8906 267.104 47.3906 267.656 47.7656C268.219 48.1302 268.938 48.3125 269.812 48.3125C270.49 48.3125 271.068 48.1667 271.547 47.875C272.026 47.5833 272.417 47.1823 272.719 46.6719C273.031 46.151 273.26 45.5521 273.406 44.875C273.552 44.1979 273.625 43.4792 273.625 42.7188ZM279.875 42.7344V42.375C279.875 41.1562 280.052 40.026 280.406 38.9844C280.76 37.9323 281.271 37.0208 281.938 36.25C282.615 35.4688 283.438 34.8646 284.406 34.4375C285.385 34 286.49 33.7812 287.719 33.7812C288.958 33.7812 290.062 34 291.031 34.4375C292.01 34.8646 292.839 35.4688 293.516 36.25C294.193 37.0208 294.708 37.9323 295.062 38.9844C295.417 40.026 295.594 41.1562 295.594 42.375V42.7344C295.594 43.9531 295.417 45.0833 295.062 46.125C294.708 47.1667 294.193 48.0781 293.516 48.8594C292.839 49.6302 292.016 50.2344 291.047 50.6719C290.078 51.099 288.979 51.3125 287.75 51.3125C286.51 51.3125 285.401 51.099 284.422 50.6719C283.453 50.2344 282.63 49.6302 281.953 48.8594C281.276 48.0781 280.76 47.1667 280.406 46.125C280.052 45.0833 279.875 43.9531 279.875 42.7344ZM283.641 42.375V42.7344C283.641 43.4948 283.719 44.2135 283.875 44.8906C284.031 45.5677 284.276 46.1615 284.609 46.6719C284.943 47.1823 285.37 47.5833 285.891 47.875C286.411 48.1667 287.031 48.3125 287.75 48.3125C288.448 48.3125 289.052 48.1667 289.562 47.875C290.083 47.5833 290.51 47.1823 290.844 46.6719C291.177 46.1615 291.422 45.5677 291.578 44.8906C291.745 44.2135 291.828 43.4948 291.828 42.7344V42.375C291.828 41.625 291.745 40.9167 291.578 40.25C291.422 39.5729 291.172 38.974 290.828 38.4531C290.495 37.9323 290.068 37.526 289.547 37.2344C289.036 36.9323 288.427 36.7812 287.719 36.7812C287.01 36.7812 286.396 36.9323 285.875 37.2344C285.365 37.526 284.943 37.9323 284.609 38.4531C284.276 38.974 284.031 39.5729 283.875 40.25C283.719 40.9167 283.641 41.625 283.641 42.375ZM302.531 37.3125V51H298.766V34.0938H302.359L302.531 37.3125ZM307.703 33.9844L307.672 37.4844C307.443 37.4427 307.193 37.4115 306.922 37.3906C306.661 37.3698 306.401 37.3594 306.141 37.3594C305.495 37.3594 304.927 37.4531 304.438 37.6406C303.948 37.8177 303.536 38.0781 303.203 38.4219C302.88 38.7552 302.63 39.1615 302.453 39.6406C302.276 40.1198 302.172 40.6562 302.141 41.25L301.281 41.3125C301.281 40.25 301.385 39.2656 301.594 38.3594C301.802 37.4531 302.115 36.6562 302.531 35.9688C302.958 35.2812 303.49 34.7448 304.125 34.3594C304.771 33.974 305.516 33.7812 306.359 33.7812C306.589 33.7812 306.833 33.8021 307.094 33.8438C307.365 33.8854 307.568 33.9323 307.703 33.9844ZM318.594 34.0938V36.8438H309.062V34.0938H318.594ZM311.812 29.9531H315.578V46.3281C315.578 46.849 315.651 47.25 315.797 47.5312C315.953 47.8021 316.167 47.9844 316.438 48.0781C316.708 48.1719 317.026 48.2188 317.391 48.2188C317.651 48.2188 317.901 48.2031 318.141 48.1719C318.38 48.1406 318.573 48.1094 318.719 48.0781L318.734 50.9531C318.422 51.0469 318.057 51.1302 317.641 51.2031C317.234 51.276 316.766 51.3125 316.234 51.3125C315.37 51.3125 314.604 51.1615 313.938 50.8594C313.271 50.5469 312.75 50.0417 312.375 49.3438C312 48.6458 311.812 47.7188 311.812 46.5625V29.9531Z" fill="#DBAB00"/>
<line x1="148" y1="76" x2="1208" y2="76" stroke="#FFC700" stroke-width="6"/>
<defs>
<filter id="filter0_d_9072_41791" x="27.0316" y="29" width="101.784" height="105.924" filterUnits="userSpaceOnUse" color-interpolation-filters="sRGB">
<feFlood flood-opacity="0" result="BackgroundImageFix"/>
<feColorMatrix in="SourceAlpha" type="matrix" values="0 0 0 0 0 0 0 0 0 0 0 0 0 0 0 0 0 0 127 0" result="hardAlpha"/>
<feOffset dy="4"/>
<feGaussianBlur stdDeviation="2"/>
<feComposite in2="hardAlpha" operator="out"/>
<feColorMatrix type="matrix" values="0 0 0 0 0 0 0 0 0 0 0 0 0 0 0 0 0 0 0.25 0"/>
<feBlend mode="normal" in2="BackgroundImageFix" result="effect1_dropShadow_9072_41791"/>
<feBlend mode="normal" in="SourceGraphic" in2="effect1_dropShadow_9072_41791" result="shape"/>
</filter>
</defs>
</svg>
