<svg width="1208" height="156" viewBox="0 0 1208 156" fill="none" xmlns="http://www.w3.org/2000/svg">
<g clip-path="url(#clip0_9072_41787)">
<path d="M117.495 124.235L117.472 124.208L117.384 124.09C117.327 124.017 117.277 123.948 117.224 123.887L115.531 122.172L115.493 122.138L109.8 116.372C109.78 116.354 109.762 116.334 109.747 116.311C109.456 115.968 107.325 113.438 106.412 112.021C106.401 112.007 106.392 111.991 106.385 111.975C106.302 111.852 106.225 111.724 106.156 111.593C106.021 111.352 105.862 111.126 105.682 110.917C105.667 110.904 105.654 110.888 105.644 110.871C104.48 109.603 103.119 108.533 101.613 107.7L101.54 107.666C101.238 107.499 100.927 107.35 100.608 107.219L100.543 107.192C100.825 107.04 101.054 106.808 101.203 106.525C101.351 106.241 101.411 105.92 101.376 105.603C101.378 105.571 101.378 105.539 101.376 105.507C101.38 105.484 101.38 105.461 101.376 105.438V105.381C101.135 104.422 99.9244 103.123 98.8432 102.378L98.5719 102.199C98.4941 102.147 98.4138 102.1 98.3313 102.057L98.2281 102L97.9301 99.1192H97.4067L97.2539 97.3465C97.2539 97.3465 97.2539 96.6473 97.2921 95.5318C97.2921 95.4706 97.2921 95.4133 97.2921 95.3522C97.3609 92.6779 97.5175 87.8526 97.804 84.4065C98.2128 79.3864 98.8126 73.8085 99.038 70.7483C99.038 70.7139 99.038 70.6833 99.038 70.6528C99.0361 70.635 99.0361 70.6171 99.038 70.5993C99.038 70.4236 99.0648 70.2516 99.0763 70.0797C99.0877 69.9078 99.103 69.7741 99.1145 69.6251C99.3093 67.4321 99.5462 65.4225 99.2023 64.5362C99.1501 64.3815 99.0497 64.2476 98.9158 64.1541C98.2205 63.7186 97.1316 66.5114 96.3102 69.243C96.1536 69.7779 96.0046 70.3128 95.8709 70.8171C95.8518 70.8858 95.8327 70.9508 95.8097 71.0234C95.2176 73.2775 93.7887 78.8363 92.994 83.2489C92.6524 84.874 92.4695 86.5284 92.4477 88.1888V88.2079C92.6196 91.738 92.8641 92.0284 93.7276 94.7027C94.1954 96.0868 94.5256 97.5136 94.7133 98.9626L94.3007 99.039L93.9721 99.1001L93.7047 100.777C93.1063 100.764 92.5124 100.884 91.9663 101.129C91.662 101.265 91.3929 101.469 91.1793 101.725L90.7973 101.641C89.8808 101.469 88.952 101.37 88.0198 101.347C86.9732 101.323 85.9264 101.388 84.8908 101.541H84.8564C81.7198 102.023 78.9767 103.035 77.9796 103.639C77.9451 103.657 77.9119 103.677 77.8802 103.7C77.8432 103.72 77.8086 103.745 77.7771 103.773C77.7578 103.783 77.7409 103.797 77.7274 103.815L77.693 103.841C77.6773 103.852 77.6631 103.865 77.651 103.88L77.6128 103.922C77.2957 104.304 77.0359 105.186 76.9404 106.099C76.8747 106.653 76.8953 107.214 77.0015 107.761C77.0185 107.85 77.0441 107.937 77.0779 108.021L80.8411 108.243L82.5641 108.346L84.887 108.479L84.5431 116.262C84.5431 116.262 83.588 116.961 82.4419 117.947C81.5321 118.72 80.6851 119.564 79.9089 120.472C79.8401 120.548 79.7828 120.628 79.7179 120.713L79.481 121.03C79.4572 121.056 79.4367 121.086 79.4199 121.118C78.3914 122.67 77.4451 124.276 76.5851 125.928C75.6414 127.67 74.8238 129.232 74.48 129.714C74.075 130.283 73.3339 131.75 72.5698 133.091C71.9623 134.18 71.3472 135.192 70.904 135.57C69.9222 136.411 69.3185 137.316 69.819 137.549C70.3195 137.782 71.1333 137.645 72.6309 136.403C72.6498 136.394 72.6667 136.381 72.6805 136.365C74.1629 135.143 77.9452 130.115 78.1782 129.805C78.4113 129.496 78.7207 129.137 78.9996 128.804C79.1104 128.667 79.225 128.522 79.3435 128.384C80.0197 127.57 80.8717 126.527 81.6358 125.618C81.823 125.381 82.0178 125.148 82.2165 124.911C82.3285 124.774 82.4431 124.636 82.5603 124.499C82.8086 124.193 83.0608 123.891 83.3244 123.589C84.0885 122.699 84.2719 122.825 84.2719 122.825L84.2146 124.22L84.1726 125.118L82.7743 175.834C84.0236 175.586 85.269 176.152 86.5069 175.834C87.6836 175.533 89.995 176.197 91.1564 175.834H91.1831L89.3073 116.556V116.464L89.3608 116.411L90.1898 115.494L94.4688 110.787C94.48 110.771 94.4943 110.758 94.5108 110.749C94.5727 110.793 94.6378 110.833 94.7056 110.867C94.8162 110.937 94.9427 110.977 95.0731 110.983C95.2036 110.99 95.3335 110.963 95.4506 110.905C95.8327 110.646 96.6808 108.827 96.6808 108.827L97.7849 108.544H97.8117L98.3504 108.407L98.8126 108.839L101.625 111.57L101.743 111.681L117.319 126.157L117.342 126.176C117.437 126.287 118.324 127.246 118.897 126.963C119.367 126.737 118.087 124.991 117.495 124.235ZM89.846 111.952L89.6015 112.231L89.5709 112.265L89.2653 112.609H89.2461V108.896H89.6015H91.6492L91.76 109.35V109.415L91.5346 109.752C91.0092 110.513 90.4456 111.248 89.846 111.952Z" fill="white"/>
<path d="M99.2869 108.017L98.7749 108.934L98.3127 108.514L97.7587 108.655H97.7319L96.6278 108.938C96.6278 108.938 95.7988 110.756 95.3976 111.016C95.2805 111.074 95.1506 111.101 95.0202 111.094C94.8897 111.087 94.7632 111.047 94.6526 110.978L94.9086 110.298C94.7228 109.773 94.3689 109.324 93.902 109.021C93.435 108.718 92.881 108.577 92.326 108.621L92.1502 109.717C92.1502 109.717 91.3861 108.437 91.4052 108.258C91.4243 108.078 90.324 106.905 90.1521 105.182C89.9802 103.459 90.8283 100.089 95.2372 101.003C95.2372 101.003 93.8121 101.14 93.2352 103.493C92.6583 105.847 96.1617 107.513 99.2869 108.017Z" fill="#407BFF"/>
<path d="M84.0661 125.282L88.261 120.911L87.8598 118.21L84.3297 122.565L84.0661 125.282Z" fill="#407BFF"/>
<path d="M87.061 105.415V104.85L89.4641 107.222L89.2692 108.792V112.747C88.6427 113.373 87.5806 114.229 87.0839 114.619C87.1374 109.213 87.1374 105.595 87.061 105.415Z" fill="#407BFF"/>
<path d="M91.1304 175.941H91.1036C89.9575 176.304 87.6308 175.639 86.4541 175.941C86.5802 168.717 86.7483 139.337 86.882 130.317C86.9202 127.719 86.9546 125.175 86.989 122.775C86.989 122.588 86.989 122.393 86.989 122.225C86.989 121.198 87.0157 120.197 87.0272 119.23V119.211L87.329 118.867L87.86 118.26L89.2469 116.67L91.1304 175.941Z" fill="#407BFF"/>
<path d="M118.898 126.974C118.29 127.276 117.335 126.18 117.335 126.18L98.3128 108.514L97.7589 108.655C98.7851 108.353 99.7499 107.871 100.609 107.234C102.657 108.059 105.446 110.29 106.156 111.608C106.867 112.926 109.782 116.361 109.782 116.361L117.224 123.895C117.224 123.895 119.501 126.672 118.898 126.974Z" fill="#407BFF"/>
<path d="M90.2631 103.818C90.2631 103.818 79.0462 103.157 77.8466 103.715C76.6469 104.273 76.6813 107.077 77.0443 108.074L91.3902 108.919V108.254L91.4246 108.074C91.4246 108.074 89.9575 107.039 90.2631 103.818Z" fill="#407BFF"/>
<path d="M93.7087 108.792C93.7087 108.792 91.6381 113.274 88.9064 115.211C86.1748 117.148 80.8261 120.838 76.2224 126.37C76.2224 126.37 78.6102 121.11 81.2463 118.924C83.8825 116.739 87.4355 114.641 88.5053 113.514C89.575 112.387 92.3257 108.617 92.3257 108.617L93.7087 108.792Z" fill="#407BFF"/>
<path d="M96.2683 69.3461C94.6599 77.4417 94.2205 88.7274 95.2559 92.6969C96.2912 96.6663 95.9474 99.1191 95.9474 99.1191H94.3046V99.058L94.7134 98.9816C94.5259 97.5171 94.1893 96.0757 93.7086 94.6797C92.8413 92.0054 92.6006 91.7074 92.4249 88.1849C92.2492 84.6624 95.0228 73.9154 95.8404 70.8322C95.978 70.3203 96.1308 69.7778 96.2912 69.2353L96.2683 69.3461Z" fill="#407BFF"/>
<path d="M93.7091 100.792C92.391 100.842 91.3748 101.148 90.7482 102.401C89.8237 104.242 89.9192 106.699 91.4359 108.074" stroke="#263238" stroke-linecap="round" stroke-linejoin="round"/>
<path d="M96.6274 108.934C99.0917 108.445 101.285 107.088 101.372 105.843C101.46 104.598 100.001 102.978 97.999 101.896" stroke="#263238" stroke-linecap="round" stroke-linejoin="round"/>
<path d="M98.1905 102.019L97.8887 99.1344H93.9689L93.7091 100.808C94.4689 100.836 95.2216 100.965 95.9479 101.19" stroke="#263238" stroke-linecap="round" stroke-linejoin="round"/>
<path d="M94.698 99.1192C94.698 99.1192 95.0419 97.2089 93.1699 93.5642C91.2978 89.9195 93.1699 81.2966 94.698 75.0922C96.2262 68.8877 97.5634 64.3948 98.87 64.1312C100.177 63.8676 97.7697 79.9174 97.6322 86.8783C97.4946 93.8393 97.0018 95.5852 97.2501 99.1039" stroke="#263238" stroke-linecap="round" stroke-linejoin="round"/>
<path d="M94.9125 110.294C94.9125 110.294 93.8962 108.082 92.326 108.617C90.9965 110.668 89.4186 113.007 87.4052 114.428C85.2848 115.922 83.0613 117.01 81.2466 118.925C79.5111 120.836 78.0257 122.961 76.8263 125.247C74.6945 129.114 72.9332 133.244 70.0984 136.629C69.8577 136.915 69.598 137.305 69.789 137.626C69.98 137.947 70.5531 137.87 70.9351 137.668C73.2618 136.43 74.683 134.103 76.3105 132.124C77.6019 130.554 78.8855 128.98 80.1769 127.414C83.1454 123.819 86.1254 120.235 89.155 116.693C90.3011 115.352 91.4473 114.019 92.6316 112.709C92.8036 112.514 94.9659 110.424 94.9125 110.294Z" stroke="#263238" stroke-linecap="round" stroke-linejoin="round"/>
<path d="M91.8638 109.324C91.6544 108.994 91.4984 108.633 91.4015 108.254C91.4015 107.914 92.1656 106.825 92.1656 106.825" stroke="#263238" stroke-linecap="round" stroke-linejoin="round"/>
<path d="M94.4534 110.852C94.4534 110.852 95.2175 111.203 95.4964 110.852C95.7753 110.5 96.7419 108.716 96.7419 108.716C96.7419 108.716 95.4429 107.039 94.4496 106.825" stroke="#263238" stroke-linecap="round" stroke-linejoin="round"/>
<path d="M98.3967 108.468C102.217 112.135 117.53 126.974 118.508 126.974C119.631 126.974 118.045 124.934 117.224 123.887C116.403 122.84 108.552 115.864 106.381 111.975C105.002 109.491 102.179 107.891 100.544 107.195" stroke="#263238" stroke-linecap="round" stroke-linejoin="round"/>
<path d="M91.6491 108.934L88.3749 108.743L86.6328 108.636L82.5296 108.399L80.8104 108.296L77.0434 108.074C77.0434 108.074 76.4015 104.636 77.8457 103.715C78.8237 103.096 81.7846 102.236 84.0463 101.728C84.8623 101.525 85.6924 101.383 86.5296 101.304C87.0399 101.299 87.5501 101.322 88.0578 101.373C88.7837 101.434 89.5631 101.53 90.1897 101.61C90.48 101.648 90.9767 101.656 91.1753 101.686" stroke="#263238" stroke-linecap="round" stroke-linejoin="round"/>
<path d="M84.509 116.319L84.8529 108.533" stroke="#263238" stroke-linecap="round" stroke-linejoin="round"/>
<path d="M91.1033 175.941H82.7211L84.1194 125.224V125.22L84.1614 124.323L84.1653 124.284L84.2379 122.535" stroke="#263238" stroke-linecap="round" stroke-linejoin="round"/>
<path d="M91.1035 175.941C90.9545 168.801 89.6135 138.63 89.4645 130.095C89.4149 127.421 89.3729 124.815 89.3347 122.428C89.3041 120.334 89.2735 118.393 89.2544 116.697V116.609" stroke="#263238" stroke-linecap="round" stroke-linejoin="round"/>
<path d="M89.2851 108.792C89.2278 108.792 89.2354 110.191 89.2545 112.789" stroke="#263238" stroke-linecap="round" stroke-linejoin="round"/>
<path d="M88.0622 101.373C87.1109 101.675 83.4242 102.901 83.0269 103.562C82.4729 104.498 82.4958 107.245 82.5302 108.399L80.811 108.296C80.7766 106.89 80.7919 104.215 81.3573 103.272C81.8196 102.722 82.9428 102.168 84.0316 101.744C84.8476 101.54 85.6777 101.398 86.515 101.319C87.0313 101.308 87.5479 101.326 88.0622 101.373Z" fill="#263238"/>
<path d="M91.1944 101.748C91.1944 101.748 88.9786 102.76 88.5774 103.837C88.2412 104.735 88.3444 107.75 88.3902 108.743L86.6481 108.636C86.6481 107.383 86.6863 104.407 86.862 103.631C87.0836 102.645 90.2088 101.61 90.2088 101.61L90.9537 101.713L91.1944 101.748Z" fill="#263238"/>
<path d="M89.3345 122.409C88.3211 122.631 87.2912 122.771 86.2552 122.825V130.264C87.3271 130.398 88.4147 130.336 89.4644 130.08" stroke="#263238" stroke-linecap="round" stroke-linejoin="round"/>
<path d="M84.8534 108.533C86.0027 109.822 87.574 110.659 89.2851 110.894L89.2622 108.708L84.8534 108.533Z" fill="#263238"/>
<path opacity="0.1" d="M89.254 116.663L87.8672 118.252V118.21L87.3476 118.856L87.0458 119.2V119.226L84.3179 122.565L84.0543 125.282L86.9846 122.225C86.9846 122.409 86.9846 122.607 86.9846 122.772C86.9502 125.171 86.9159 127.715 86.8777 130.313C86.7439 139.333 86.5758 168.713 86.4498 175.938C87.6265 175.636 89.9379 176.3 91.0993 175.938H91.126L89.254 116.655V116.663Z" fill="black"/>
<path opacity="0.1" d="M117.224 123.883L109.781 116.349C109.781 116.349 106.874 112.93 106.156 111.597C105.438 110.263 102.656 108.047 100.609 107.222C100.19 107.535 99.7434 107.81 99.2752 108.044V108.017C96.1309 107.513 92.6467 105.847 93.2235 103.49C93.8004 101.132 95.2255 100.999 95.2255 100.999C91.8214 100.292 90.5416 102.145 90.213 103.814C89.5177 103.776 78.9961 103.176 77.8347 103.715C76.6732 104.254 76.6694 107.077 77.0324 108.074L87.1108 108.666C87.1108 110.214 87.1108 112.242 87.0726 114.619C87.4737 114.305 88.2455 113.683 88.8567 113.125C88.7268 113.274 88.6084 113.408 88.5052 113.507C87.4241 114.653 83.8748 116.731 81.2463 118.917C78.6178 121.102 76.2224 126.363 76.2224 126.363C80.8261 120.831 86.1748 117.14 88.9064 115.203C91.4279 113.415 93.3802 109.472 93.6705 108.865C94.2419 109.173 94.6819 109.678 94.9084 110.286L94.6524 110.966C94.763 111.036 94.8895 111.076 95.0199 111.082C95.1503 111.089 95.2803 111.062 95.3974 111.004C95.7985 110.745 96.6276 108.926 96.6276 108.926L97.7317 108.643H97.7584L98.3124 108.502L117.335 126.179C117.335 126.179 118.29 127.276 118.897 126.974C119.505 126.672 117.224 123.883 117.224 123.883ZM91.1605 107.803C90.8398 107.411 90.6043 106.957 90.469 106.47C90.6543 106.936 90.886 107.383 91.1605 107.803ZM89.2502 112.647V108.792L91.3706 108.919V108.254C91.4762 108.604 91.6332 108.936 91.8367 109.239C91.256 110.076 90.1328 111.589 89.2846 112.647H89.2502ZM92.3066 108.617C92.6661 108.589 93.0273 108.635 93.3687 108.75L92.3066 108.617Z" fill="black"/>
<path opacity="0.1" d="M93.7084 94.6795C94.1891 96.0755 94.5258 97.5169 94.7132 98.9814L94.3044 99.0578V99.1189H95.9472C95.9472 99.1189 96.2911 96.6662 95.2557 92.6967C94.2204 88.7272 94.6597 77.4415 96.2682 69.3459L96.2911 69.2236C96.1306 69.7661 95.9778 70.3086 95.8403 70.8206C95.0227 73.9037 92.2452 84.6469 92.4247 88.1732C92.6043 91.6995 92.8412 92.009 93.7084 94.6795Z" fill="black"/>
<path d="M98.7402 92.8497L93.6437 88.693C93.6437 88.693 86.0639 81.052 84.8566 78.8438C83.6493 76.6355 81.7697 74.8972 78.3618 73.5295L78.2548 73.4836C78.7213 73.2305 79.1019 72.8443 79.3481 72.3742C79.5944 71.904 79.6953 71.3713 79.6378 70.8437C79.4697 68.9334 76.4324 65.9076 74.3312 64.8532L73.8307 60.0623H72.9673L72.7075 57.1167C72.7075 57.1167 72.9443 43.9322 73.6359 35.5959C74.3274 27.2596 74.9386 23.0685 75.313 17.9873C75.6875 12.9061 76.3637 13.907 74.9807 13.0436C73.8345 12.3292 70.8278 20.6196 70.6024 21.4487C69.2385 26.5757 65.5403 36.8108 65.5403 42.6791C65.5403 47.6916 64.7953 49.598 66.8736 52.6696C69.483 56.5283 68.5432 59.8178 68.5432 59.8178L67.8631 59.9438L67.3091 60.0432L67.057 61.6249L66.8736 62.8283C66.8736 62.8283 64.0503 62.7022 62.6711 64.4138C59.2095 63.661 55.639 63.5522 52.138 64.0929C46.2277 64.9831 41.1427 67.027 40.1493 67.9134C39.156 68.7997 38.3996 72.8418 39.1331 74.9125L52.1227 75.6766V75.7415L59.4389 76.3452V76.3184H60.0311L63.4428 76.3375L63.523 76.6776L64.2871 77.4875C63.3779 78.9049 61.6968 80.4522 60.7685 81.5257C60.4065 81.9401 59.9561 82.2678 59.4504 82.4847V82.4197C58.2775 83.6308 56.2985 85.5755 54.7283 86.5802C53.5134 87.3443 52.0005 88.3759 50.8008 89.1896C49.2726 90.374 46.8581 93.0789 44.6881 96.8306C42.4187 100.758 38.3079 107.455 36.1225 110.172C35.1292 112.987 40.5008 109.186 40.5008 109.186C40.5008 109.186 48.1647 100.258 49.6356 98.4887C50.2774 97.7246 58.885 88.2269 58.885 88.2269L63.2136 83.5468L67.6262 79.1265C67.8911 79.3402 68.1665 79.5404 68.4515 79.7263C68.637 79.8412 68.8488 79.9068 69.0668 79.9169C69.2847 79.9269 69.5017 79.881 69.6969 79.7836C70.3579 79.3557 71.7409 76.3452 71.7409 76.3452L73.5824 75.8753H73.6244L74.8202 75.5658L75.3933 76.2267L100.333 96.6854L101.289 96.7274L100.88 95.4896L98.7402 92.8497Z" fill="white"/>
<path d="M55.0686 92.6128L54.2931 110.294L53.0858 137.79L51.8174 166.604H64.9331L63.2177 83.585L55.0686 92.6128Z" fill="white"/>
<path d="M63.2134 82.6796V76.6013L55.8972 75.9976L55.328 88.8726C55.328 88.8726 55.0414 89.0828 54.5639 89.4495C55.7635 88.6358 57.2802 87.6195 58.4913 86.844C60.0615 85.8392 62.0444 83.8907 63.2134 82.6796Z" fill="white"/>
<path d="M76.1763 74.8514L75.3435 75.3289L74.5488 75.6537L73.6281 75.8867H73.586L71.7446 76.3566C71.7446 76.3566 70.3615 79.3786 69.7006 79.7951C69.2842 80.0625 67.8782 79.5926 67.5573 79.413L68.776 77.9154C68.776 77.9154 68.436 75.6231 65.414 75.8982L64.2908 77.6212C64.2908 77.6212 62.988 75.497 63.0453 75.199C63.1026 74.901 61.2497 72.9488 60.9632 70.0834C60.6766 67.2181 62.0902 61.6211 69.4293 63.1416C69.4293 63.1416 67.0568 63.3708 66.0941 67.283C65.1313 71.1952 70.9461 74.0071 76.1763 74.8514Z" fill="#407BFF"/>
<path d="M54.7323 97.2892L61.7161 90.0303L61.1048 85.9271L55.1716 92.7772L54.7323 97.2892Z" fill="#407BFF"/>
<path d="M59.7133 70.5227V69.5867L63.7172 73.5295L63.3924 76.1389V82.7063C62.2339 83.8054 61.0199 84.8446 59.7553 85.82C59.8432 76.8342 59.8661 70.8207 59.7133 70.5227Z" fill="#407BFF"/>
<path d="M64.9328 175.941H58.4074C58.5717 166.944 59.9929 113.702 60.3177 86.7024L63.1907 83.9478L64.9328 175.941Z" fill="#407BFF"/>
<path d="M101.032 96.861C100.023 97.3615 74.957 75.4854 74.957 75.4854L74.445 75.2294C75.9217 74.9463 77.3068 74.3062 78.4794 73.3651C81.8873 74.7328 84.447 77.7739 85.6314 79.9592C86.8157 82.1445 93.4595 87.7912 93.4595 87.7912L99.7251 93.946C99.7251 93.946 102.037 96.3567 101.032 96.861Z" fill="#407BFF"/>
<path d="M61.1467 67.8713C61.1467 67.8713 42.4722 66.771 40.4741 67.6994C38.476 68.6278 38.5295 73.2888 39.1369 74.9583L63.0264 76.3566V75.2525L63.0837 74.9545C63.0837 74.9545 60.631 73.2238 61.1467 67.8713Z" fill="#407BFF"/>
<path d="M66.885 76.1388C66.885 76.1388 64.0464 84.6966 58.8888 86.8017C49.4675 90.6528 45.5935 98.7636 37.922 107.96C37.922 107.96 43.3814 98.9126 46.4225 94.095C50.9192 86.9622 55.7407 84.9259 57.9757 83.5849C61.0633 81.7102 63.6231 79.0807 65.4141 75.9439L66.885 76.1388Z" fill="#407BFF"/>
<path d="M69.4598 49.3954C71.3701 55.9361 70.606 60.0622 70.606 60.0622H67.8896V59.9629L68.5697 59.8368C68.5697 59.8368 69.3834 58.0221 67.2669 53.8692C66.2545 51.8826 65.903 52.448 65.4827 46.6103C65.0625 40.7726 70.2201 20.1267 73.5057 14.4189C73.9069 13.6472 65.9068 37.2272 69.4598 49.3954Z" fill="#407BFF"/>
<path d="M66.8848 62.8476C64.6881 62.9278 62.9994 63.4398 61.9526 65.5219C60.4244 68.5783 60.5734 72.6586 63.0987 74.9432" stroke="#263238" stroke-width="1.02127" stroke-linecap="round" stroke-linejoin="round"/>
<path d="M71.7442 76.3721C75.8474 75.5622 79.496 73.3157 79.645 71.2374C79.794 69.1591 77.3527 66.4771 74.0289 64.6815" stroke="#263238" stroke-width="1.02127" stroke-linecap="round" stroke-linejoin="round"/>
<path d="M74.3426 64.853L73.8421 60.0621H67.3206L66.885 62.8473C66.885 62.8473 68.1267 62.8052 70.6138 63.4776" stroke="#263238" stroke-width="1.02127" stroke-linecap="round" stroke-linejoin="round"/>
<path d="M68.7302 60.0623C68.7302 60.0623 69.2422 57.5102 66.4723 52.6009C63.7025 47.6915 66.4418 36.1117 68.7646 27.7677C71.0875 19.4238 73.0398 13.4065 74.992 13.036C76.9443 12.6654 73.3492 34.2511 73.1429 43.5998C72.9366 52.9485 72.2031 55.2981 72.5889 60.047" stroke="#263238" stroke-width="1.02127" stroke-linecap="round" stroke-linejoin="round"/>
<path d="M68.7765 77.9497C68.7765 77.9497 67.4546 75.2753 65.4145 75.9325C63.6914 78.4005 61.6436 81.2047 59.0228 82.9125C56.2721 84.7081 53.3838 86.0185 51.0304 88.3146C48.7991 90.5873 46.8727 93.1404 45.2996 95.9098C42.5336 100.559 40.2451 105.518 36.5584 109.583C36.2489 109.927 35.9089 110.397 36.1572 110.783C36.4056 111.169 37.162 111.073 37.6472 110.836C40.6692 109.346 42.5183 106.55 44.6311 104.173C46.3082 102.29 47.974 100.399 49.6512 98.5153C53.506 94.1944 57.3762 89.8887 61.3113 85.6365C62.7974 84.0281 64.2951 82.4235 65.8233 80.8456C66.0372 80.624 68.8453 78.1025 68.7765 77.9497Z" stroke="#263238" stroke-width="1.02127" stroke-linecap="round" stroke-linejoin="round"/>
<path d="M63.8134 77.0177C63.8134 77.0177 63.0761 75.8066 63.0493 75.2411C63.0226 74.6757 64.2948 72.8724 64.2948 72.8724" stroke="#263238" stroke-width="1.02127" stroke-linecap="round" stroke-linejoin="round"/>
<path d="M68.127 79.5621C68.127 79.5621 69.384 80.1466 69.8615 79.5621C70.3391 78.9776 71.9399 76.0129 71.9399 76.0129C71.9399 76.0129 69.7698 73.2277 68.1194 72.8724" stroke="#263238" stroke-width="1.02127" stroke-linecap="round" stroke-linejoin="round"/>
<path d="M74.8238 75.4817C79.7637 79.8255 99.5194 96.8763 100.803 96.8763C102.259 96.8763 100.203 94.4618 99.1335 93.2201C98.0638 91.9785 87.8822 83.7339 85.0704 79.1264C83.4552 76.5764 81.0807 74.5974 78.2814 73.4683" stroke="#263238" stroke-width="1.02127" stroke-linecap="round" stroke-linejoin="round"/>
<path d="M63.4543 76.372L58.0025 76.0396L55.1066 75.8639L48.2755 75.4818L45.4064 75.3137L39.1369 74.9317C39.1369 74.9317 38.0672 69.2009 40.4741 67.6728C42.1016 66.6489 47.0301 65.22 50.7894 64.3719C52.1463 64.0333 53.5269 63.7983 54.9194 63.6689C55.7702 63.6587 56.6209 63.6957 57.4676 63.7797C58.6787 63.8867 59.9777 64.0433 61.0207 64.1808C61.5059 64.2381 62.3311 64.2534 62.6635 64.3031" stroke="#263238" stroke-width="1.02127" stroke-linecap="round" stroke-linejoin="round"/>
<path d="M55.6644 84.8457L56.0388 76.2535" stroke="#263238" stroke-width="1.02127" stroke-linecap="round" stroke-linejoin="round"/>
<path d="M63.217 83.585C63.5188 109.373 64.9324 175.941 64.9324 175.941H51.8205L55.0679 92.6128" stroke="#263238" stroke-width="1.02127" stroke-linecap="round" stroke-linejoin="round"/>
<path d="M57.4793 63.8139C55.9014 64.3182 49.7619 66.3393 49.0972 67.4549C48.1726 69.0098 48.2146 73.5676 48.2758 75.4779L45.4066 75.3098C45.3531 72.9716 45.3798 68.5322 46.3235 66.962C47.0876 66.0451 48.9596 65.1282 50.8011 64.3947C52.158 64.0561 53.5386 63.8211 54.931 63.6917C55.7821 63.6853 56.6328 63.7261 57.4793 63.8139Z" fill="#263238"/>
<path d="M62.6748 64.4328C62.6748 64.4328 58.9881 66.1062 58.3386 67.9018C57.777 69.3918 57.9565 74.3966 58.0215 76.0547L55.1256 75.879C55.1256 73.793 55.1829 68.8493 55.4771 67.5656C55.8591 65.9266 61.0511 64.2074 61.0511 64.2074L62.2928 64.3755L62.6748 64.4328Z" fill="#263238"/>
<path d="M63.5039 102.947C61.8171 103.321 60.1021 103.553 58.3768 103.642V115.998C60.1634 116.224 61.9762 116.12 63.7255 115.692" stroke="#263238" stroke-width="1.02127" stroke-linecap="round" stroke-linejoin="round"/>
<path d="M63.3775 78.7901C63.0146 79.1913 62.6134 79.6039 62.2658 79.9668C59.7882 79.3092 57.5761 77.8981 55.9352 75.9286L63.3546 76.5475L63.3775 78.7901Z" fill="#263238"/>
</g>
<rect x="4" y="4" width="148" height="148" rx="74" stroke="#407BFF" stroke-width="8"/>
<path d="M198.203 47.8906V51H186.125V47.8906H198.203ZM187.234 28.25V51H183.312V28.25H187.234ZM196.625 37.75V40.8125H186.125V37.75H196.625ZM198.125 28.25V31.375H186.125V28.25H198.125ZM204.766 37.7031V51H201V34.0938H204.547L204.766 37.7031ZM204.094 41.9219L202.875 41.9062C202.885 40.7083 203.052 39.6094 203.375 38.6094C203.708 37.6094 204.167 36.75 204.75 36.0312C205.344 35.3125 206.052 34.7604 206.875 34.375C207.698 33.9792 208.615 33.7812 209.625 33.7812C210.438 33.7812 211.172 33.8958 211.828 34.125C212.495 34.3438 213.062 34.7031 213.531 35.2031C214.01 35.7031 214.375 36.3542 214.625 37.1562C214.875 37.9479 215 38.9219 215 40.0781V51H211.219V40.0625C211.219 39.25 211.099 38.6094 210.859 38.1406C210.63 37.6615 210.292 37.3229 209.844 37.125C209.406 36.9167 208.859 36.8125 208.203 36.8125C207.557 36.8125 206.979 36.9479 206.469 37.2188C205.958 37.4896 205.526 37.8594 205.172 38.3281C204.828 38.7969 204.562 39.3385 204.375 39.9531C204.188 40.5677 204.094 41.224 204.094 41.9219ZM226.297 51.3125C225.047 51.3125 223.917 51.1094 222.906 50.7031C221.906 50.2865 221.052 49.7083 220.344 48.9688C219.646 48.2292 219.109 47.3594 218.734 46.3594C218.359 45.3594 218.172 44.2812 218.172 43.125V42.5C218.172 41.1771 218.365 39.9792 218.75 38.9062C219.135 37.8333 219.672 36.9167 220.359 36.1562C221.047 35.3854 221.859 34.7969 222.797 34.3906C223.734 33.9844 224.75 33.7812 225.844 33.7812C227.052 33.7812 228.109 33.9844 229.016 34.3906C229.922 34.7969 230.672 35.3698 231.266 36.1094C231.87 36.8385 232.318 37.7083 232.609 38.7188C232.911 39.7292 233.062 40.8438 233.062 42.0625V43.6719H220V40.9688H229.344V40.6719C229.323 39.9948 229.188 39.3594 228.938 38.7656C228.698 38.1719 228.328 37.6927 227.828 37.3281C227.328 36.9635 226.661 36.7812 225.828 36.7812C225.203 36.7812 224.646 36.9167 224.156 37.1875C223.677 37.4479 223.276 37.8281 222.953 38.3281C222.63 38.8281 222.38 39.4323 222.203 40.1406C222.036 40.8385 221.953 41.625 221.953 42.5V43.125C221.953 43.8646 222.052 44.5521 222.25 45.1875C222.458 45.8125 222.76 46.3594 223.156 46.8281C223.552 47.2969 224.031 47.6667 224.594 47.9375C225.156 48.1979 225.797 48.3281 226.516 48.3281C227.422 48.3281 228.229 48.1458 228.938 47.7812C229.646 47.4167 230.26 46.901 230.781 46.2344L232.766 48.1562C232.401 48.6875 231.927 49.1979 231.344 49.6875C230.76 50.1667 230.047 50.5573 229.203 50.8594C228.37 51.1615 227.401 51.3125 226.297 51.3125ZM239.781 37.3125V51H236.016V34.0938H239.609L239.781 37.3125ZM244.953 33.9844L244.922 37.4844C244.693 37.4427 244.443 37.4115 244.172 37.3906C243.911 37.3698 243.651 37.3594 243.391 37.3594C242.745 37.3594 242.177 37.4531 241.688 37.6406C241.198 37.8177 240.786 38.0781 240.453 38.4219C240.13 38.7552 239.88 39.1615 239.703 39.6406C239.526 40.1198 239.422 40.6562 239.391 41.25L238.531 41.3125C238.531 40.25 238.635 39.2656 238.844 38.3594C239.052 37.4531 239.365 36.6562 239.781 35.9688C240.208 35.2812 240.74 34.7448 241.375 34.3594C242.021 33.974 242.766 33.7812 243.609 33.7812C243.839 33.7812 244.083 33.8021 244.344 33.8438C244.615 33.8854 244.818 33.9323 244.953 33.9844ZM257.828 34.0938H261.25V50.5312C261.25 52.0521 260.927 53.3438 260.281 54.4062C259.635 55.4688 258.734 56.276 257.578 56.8281C256.422 57.3906 255.083 57.6719 253.562 57.6719C252.917 57.6719 252.198 57.5781 251.406 57.3906C250.625 57.2031 249.865 56.901 249.125 56.4844C248.396 56.0781 247.786 55.5417 247.297 54.875L249.062 52.6562C249.667 53.375 250.333 53.901 251.062 54.2344C251.792 54.5677 252.557 54.7344 253.359 54.7344C254.224 54.7344 254.958 54.5729 255.562 54.25C256.177 53.9375 256.651 53.474 256.984 52.8594C257.318 52.2448 257.484 51.4948 257.484 50.6094V37.9219L257.828 34.0938ZM246.344 42.7344V42.4062C246.344 41.125 246.5 39.9583 246.812 38.9062C247.125 37.8438 247.573 36.9323 248.156 36.1719C248.74 35.401 249.448 34.8125 250.281 34.4062C251.115 33.9896 252.057 33.7812 253.109 33.7812C254.203 33.7812 255.135 33.9792 255.906 34.375C256.688 34.7708 257.339 35.3385 257.859 36.0781C258.38 36.8073 258.786 37.6823 259.078 38.7031C259.38 39.7135 259.604 40.8385 259.75 42.0781V43.125C259.615 44.3333 259.385 45.4375 259.062 46.4375C258.74 47.4375 258.312 48.3021 257.781 49.0312C257.25 49.7604 256.594 50.3229 255.812 50.7188C255.042 51.1146 254.13 51.3125 253.078 51.3125C252.047 51.3125 251.115 51.099 250.281 50.6719C249.458 50.2448 248.75 49.6458 248.156 48.875C247.573 48.1042 247.125 47.1979 246.812 46.1562C246.5 45.1042 246.344 43.9635 246.344 42.7344ZM250.109 42.4062V42.7344C250.109 43.5052 250.182 44.224 250.328 44.8906C250.484 45.5573 250.719 46.1458 251.031 46.6562C251.354 47.1562 251.76 47.5521 252.25 47.8438C252.75 48.125 253.339 48.2656 254.016 48.2656C254.901 48.2656 255.625 48.0781 256.188 47.7031C256.76 47.3281 257.198 46.8229 257.5 46.1875C257.812 45.5417 258.031 44.8229 258.156 44.0312V41.2031C258.094 40.5885 257.964 40.0156 257.766 39.4844C257.578 38.9531 257.323 38.4896 257 38.0938C256.677 37.6875 256.271 37.375 255.781 37.1562C255.292 36.9271 254.714 36.8125 254.047 36.8125C253.37 36.8125 252.781 36.9583 252.281 37.25C251.781 37.5417 251.37 37.9427 251.047 38.4531C250.734 38.9635 250.5 39.5573 250.344 40.2344C250.188 40.9115 250.109 41.6354 250.109 42.4062ZM270.062 49.1562L274.656 34.0938H278.688L271.906 53.5781C271.75 53.9948 271.547 54.4479 271.297 54.9375C271.047 55.4271 270.719 55.8906 270.312 56.3281C269.917 56.776 269.422 57.1354 268.828 57.4062C268.234 57.6875 267.516 57.8281 266.672 57.8281C266.339 57.8281 266.016 57.7969 265.703 57.7344C265.401 57.6823 265.115 57.625 264.844 57.5625L264.828 54.6875C264.932 54.6979 265.057 54.7083 265.203 54.7188C265.359 54.7292 265.484 54.7344 265.578 54.7344C266.203 54.7344 266.724 54.6562 267.141 54.5C267.557 54.3542 267.896 54.1146 268.156 53.7812C268.427 53.4479 268.656 53 268.844 52.4375L270.062 49.1562ZM267.469 34.0938L271.484 46.75L272.156 50.7188L269.547 51.3906L263.406 34.0938H267.469Z" fill="#1960FF"/>
<line x1="148" y1="79" x2="1208" y2="79" stroke="#407BFF" stroke-width="6"/>
<defs>
<clipPath id="clip0_9072_41787">
<rect x="8" y="8" width="140" height="140" rx="70" fill="white"/>
</clipPath>
</defs>
</svg>
