<svg width="1209" height="156" viewBox="0 0 1209 156" fill="none" xmlns="http://www.w3.org/2000/svg">
<rect x="4" y="4" width="148" height="148" rx="74" stroke="#FF725E" stroke-width="8"/>
<path d="M31.4413 76.3817H32.1577V78.539H31.433C31.3398 78.539 31.2505 78.502 31.1846 78.4361C31.1188 78.3703 31.0818 78.2809 31.0818 78.1878V76.7329C31.0818 76.686 31.0911 76.6397 31.1093 76.5965C31.1275 76.5533 31.1541 76.5142 31.1876 76.4815C31.2211 76.4488 31.2608 76.4231 31.3044 76.406C31.3479 76.3888 31.3945 76.3805 31.4413 76.3817Z" fill="#FF725E"/>
<path d="M36.425 76.9029H32.1689V78.0178H36.425V76.9029Z" fill="#263238"/>
<path d="M33.1778 76.2283H31.7424V78.6894H33.1778V76.2283Z" fill="#263238"/>
<path d="M33.1667 78.709C33.0701 77.8887 33.0701 77.0598 33.1667 76.2395C33.2633 77.0598 33.2633 77.8887 33.1667 78.709Z" fill="#455A64"/>
<path d="M129.71 102.066L128.949 102.024L129.786 86.7083C129.788 86.6583 129.801 86.6092 129.822 86.564C129.844 86.5187 129.874 86.4782 129.911 86.4448C129.949 86.4114 129.992 86.3857 130.04 86.3692C130.087 86.3527 130.137 86.3458 130.187 86.3488C130.237 86.3513 130.286 86.3636 130.331 86.3852C130.377 86.4068 130.417 86.4371 130.451 86.4744C130.484 86.5118 130.51 86.5553 130.526 86.6027C130.543 86.65 130.55 86.7001 130.547 86.7501L129.71 102.066Z" fill="#E0E0E0"/>
<path d="M22.9153 110.188C22.9153 110.188 22.8679 112.139 23.9187 111.81C24.9694 111.481 24.3535 110.188 24.3535 110.188L28.604 109.472L29.0332 112.432C29.0332 112.432 24.1639 113.101 23.5898 113.053C23.0156 113.006 22.1627 112.95 22.0568 111.576C21.9648 110.402 22.0122 110.235 22.0122 110.235L22.9153 110.188Z" fill="#455A64"/>
<path d="M105.205 59.5608L103.444 61.0492L103.368 76.9949L104.55 77.8422V80.7938H106.986V77.7836L108.182 76.5127V61.0297L106.49 59.5608H105.205Z" fill="#263238"/>
<path d="M105.205 59.5636L105.147 49.1031C105.147 47.9632 105.584 47.0573 106.161 46.0734C106.595 45.3821 107.163 44.7857 107.834 44.3203L108.536 45.1425C108.536 45.1425 106.482 46.5918 106.384 48.5708C106.287 50.5497 106.501 59.5636 106.501 59.5636H105.205Z" fill="#263238"/>
<path d="M108.182 61.0492C107.403 61.1226 106.62 61.1468 105.838 61.1216C105.056 61.1468 104.273 61.1226 103.494 61.0492C104.273 60.9773 105.056 60.9531 105.838 60.9767C106.62 60.9531 107.403 60.9773 108.182 61.0492Z" fill="#455A64"/>
<path d="M106.354 59.5412C106.176 59.6099 105.985 59.6347 105.796 59.6137C105.607 59.6354 105.416 59.6105 105.239 59.5412C105.239 59.4994 105.49 59.4688 105.796 59.4688C106.103 59.4688 106.354 59.4994 106.354 59.5412Z" fill="#455A64"/>
<path d="M104.5 74.5895C104.461 74.5895 104.428 72.2231 104.428 69.2937C104.428 66.3644 104.461 63.998 104.5 63.998C104.539 63.998 104.572 66.3616 104.572 69.2937C104.572 72.2259 104.539 74.5895 104.5 74.5895Z" fill="#455A64"/>
<path d="M78.7042 49.0195H76.8702V47.3249C76.8702 47.0817 76.9669 46.8484 77.1388 46.6765C77.3108 46.5045 77.544 46.4079 77.7872 46.4079C78.0304 46.4079 78.2637 46.5045 78.4356 46.6765C78.6076 46.8484 78.7042 47.0817 78.7042 47.3249V49.0195Z" fill="#FF725E"/>
<path d="M79.0081 48.4593H76.5776V49.2202H79.0081V48.4593Z" fill="#E0E0E0"/>
<path d="M78.3894 49.0195H77.1992V51.3942H78.3894V49.0195Z" fill="#E0E0E0"/>
<path d="M79.0081 49.2202C78.268 49.3173 77.5184 49.3173 76.7783 49.2202C77.5184 49.1231 78.268 49.1231 79.0081 49.2202Z" fill="#263238"/>
<path d="M87.1635 66.2947H80.5884V66.0159H87.1635C87.5255 66.0152 87.8724 65.8711 88.1284 65.6151C88.3844 65.3591 88.5285 65.0122 88.5292 64.6502V54.3375C88.5285 53.9757 88.3843 53.6291 88.1282 53.3736C87.8722 53.118 87.5252 52.9745 87.1635 52.9745H79.4039V52.6958H87.1635C87.5992 52.6958 88.017 52.8687 88.3253 53.1765C88.6336 53.4843 88.8072 53.9018 88.808 54.3375V64.6502C88.808 65.0863 88.6347 65.5046 88.3263 65.813C88.0179 66.1214 87.5996 66.2947 87.1635 66.2947Z" fill="#263238"/>
<path d="M67.9539 108.764H86.1378V110.383H87.6791V108.764H90.0678V105.606H118.038V95.5884H94.4604L94.1204 75.643L79.1446 75.0661C78.42 75.1302 45.9767 75.5678 37.5147 78.8567V85.6603L67.9539 108.764Z" fill="#455A64"/>
<g opacity="0.3">
<path d="M67.9539 108.764H86.1378V110.383H87.6791V108.764H90.0678V105.606H118.038V95.5884H94.4604L94.1204 75.643L79.1446 75.0661C78.42 75.1302 45.9767 75.5678 37.5147 78.8567V85.6603L67.9539 108.764Z" fill="black"/>
</g>
<path d="M38.7885 76.443L40.2741 54.226L59.0209 53.8135L60.2585 76.8555L38.7885 76.443Z" fill="#455A64"/>
<path d="M61.0166 76.6185L59.871 53.0526H77.489L80.2344 91.1846L74.5151 91.4884L61.0166 76.6185Z" fill="#455A64"/>
<g opacity="0.3">
<path d="M39.1258 57.3031L42.2084 59.5022L41.4001 77.8449H43.8947L44.3852 59.4911L59.2216 59.0423L59.9602 77.8449L65.0469 80.5457L63.7787 59.0646L77.5197 58.9058L77.3581 53.5822C77.3581 53.5822 57.7611 52.746 57.5409 52.8268C57.3207 52.9077 39.4965 53.5627 39.4965 53.5627L39.1258 57.3031Z" fill="black"/>
</g>
<path d="M53.8981 76.3287L52.1951 70.7961C52.1015 70.4927 52.1263 70.1651 52.2643 69.8792C52.4024 69.5933 52.6435 69.3702 52.9392 69.2547C53.2096 69.1491 53.5083 69.1406 53.7843 69.2305C54.0603 69.3205 54.2965 69.5034 54.4527 69.7481L58.6698 76.3287C58.6698 76.3287 63.3885 76.443 64.3557 78.0902C65.3229 79.7375 64.81 80.5987 64.81 80.5987L53.8981 76.3287Z" fill="#263238"/>
<path d="M79.7022 51.3942L38.3816 51.4221L35.7059 81.2063L59.9045 81.5826L70.0918 93.2471H82.2162L79.7022 51.3942ZM38.9056 74.687L40.1236 55.6614C40.1474 55.1691 40.3566 54.7041 40.7093 54.3597C41.0619 54.0154 41.5318 53.8172 42.0245 53.8051H56.348C56.8496 53.8179 57.3269 54.0234 57.6809 54.379C58.0349 54.7345 58.2383 55.2128 58.2489 55.7144L58.9597 74.5616C58.9724 74.7751 58.9423 74.9891 58.8709 75.1907C58.7996 75.3924 58.6885 75.5777 58.5442 75.7357C58.4 75.8937 58.2256 76.0212 58.0312 76.1106C57.8369 76.2 57.6266 76.2495 57.4127 76.2562L40.4776 76.4179C40.2584 76.4148 40.0421 76.3667 39.8422 76.2765C39.6424 76.1864 39.4632 76.0561 39.3158 75.8938C39.1683 75.7315 39.0559 75.5406 38.9853 75.333C38.9148 75.1254 38.8876 74.9055 38.9056 74.687ZM61.3595 76.482L60.3338 55.366C60.3243 55.1659 60.3556 54.9661 60.4255 54.7784C60.4954 54.5908 60.6027 54.4192 60.7407 54.2742C60.8788 54.1291 61.0448 54.0135 61.2287 53.9343C61.4126 53.8551 61.6107 53.814 61.811 53.8135H75.8279C76.2023 53.8132 76.5628 53.9549 76.837 54.2098C77.1111 54.4648 77.2784 54.8142 77.3052 55.1876L79.7523 89.1917C79.763 89.3385 79.7435 89.4859 79.6949 89.6248C79.6463 89.7637 79.5698 89.8912 79.47 89.9994C79.3702 90.1075 79.2493 90.1941 79.1147 90.2536C78.9801 90.3132 78.8348 90.3445 78.6876 90.3456L75.0447 90.3679C74.7901 90.3692 74.538 90.3176 74.3043 90.2163C74.0707 90.1151 73.8606 89.9665 73.6873 89.7798L61.3595 76.482Z" fill="#FF725E"/>
<path d="M88.546 53.6463C87.2917 53.7856 86.5503 54.8866 86.5503 56.1548C86.5503 59.2765 86.4528 64.43 86.8291 64.954C87.4144 65.7735 89.8393 65.6954 90.0539 64.4328C90.2768 63.0977 90.157 55.9095 90.1319 55.0232C90.0985 54.0616 88.9529 53.6017 88.546 53.6463Z" fill="#263238"/>
<path d="M88.2087 53.6463C86.9545 53.7856 86.2131 54.8866 86.2131 56.1548C86.2131 59.2765 86.1155 64.43 86.4918 64.954C87.0771 65.7735 89.502 65.6954 89.7166 64.4328C89.9396 63.0977 89.8197 55.9095 89.7946 55.0232C89.7612 54.0616 88.6156 53.6017 88.2087 53.6463Z" fill="#E0E0E0"/>
<path d="M82.5116 74.1937C82.5116 74.1937 121.753 76.5071 127.874 81.0837C130.349 82.9344 128.565 98.9219 128.565 98.9219L96.8937 99.2871C96.3233 99.293 95.7644 99.126 95.2907 98.8081C94.8171 98.4901 94.4508 98.0362 94.2403 97.506L92.1052 92.1406C91.4475 90.7303 89.6302 89.7213 88.0916 89.476L82.9102 88.6399L82.5116 74.1937Z" fill="#FF725E"/>
<path d="M97.7048 111.261C97.7048 111.261 99.2796 111.099 99.4413 111.261C99.6029 111.423 99.6977 102.846 106.131 97.6844C111.892 93.0632 117.447 93.9523 117.447 93.9523V92.2131C117.447 92.2131 109.25 90.7693 102.415 98.8773C97.8581 104.296 97.7048 111.261 97.7048 111.261Z" fill="#FF725E"/>
<path d="M97.7048 111.261C97.6992 111.208 97.6992 111.155 97.7048 111.102C97.7048 110.999 97.7048 110.843 97.7298 110.639C97.7633 110.235 97.819 109.636 97.95 108.872C98.1071 107.945 98.3175 107.027 98.5799 106.124C98.9323 104.928 99.3845 103.763 99.9318 102.643C100.599 101.28 101.426 100.002 102.396 98.8355C103.525 97.5124 104.802 96.3237 106.203 95.2929C107.767 94.1721 109.499 93.3074 111.334 92.7315C113.317 92.1188 115.403 91.915 117.466 92.1322H117.525V94.0164H117.441C116.439 93.9115 115.427 93.934 114.431 94.0833C113.461 94.2125 112.506 94.4365 111.58 94.7522C109.828 95.345 108.182 96.2144 106.705 97.3276C105.355 98.3089 104.174 99.5024 103.207 100.862C102.366 102.043 101.666 103.319 101.122 104.664C100.341 106.609 99.8155 108.648 99.5583 110.729C99.5397 110.905 99.5117 111.08 99.4746 111.253C99.4746 111.253 99.4746 111.253 99.4579 111.275C99.4529 111.279 99.4464 111.282 99.4398 111.282C99.4332 111.282 99.4267 111.279 99.4217 111.275H99.3994C99.3994 111.275 99.3659 111.275 99.3492 111.255C99.3325 111.236 99.274 111.255 99.2377 111.236C99.2015 111.216 99.09 111.236 99.0175 111.222C98.7388 111.222 98.4935 111.222 98.2984 111.239L97.8581 111.264H97.7075C97.7564 111.254 97.8057 111.246 97.8553 111.241C97.9556 111.241 98.1033 111.216 98.2984 111.202C98.4935 111.188 98.7332 111.169 99.0175 111.172C99.09 111.172 99.1653 111.172 99.2433 111.172C99.2827 111.176 99.3218 111.182 99.3604 111.191C99.3827 111.191 99.4022 111.191 99.4217 111.214L99.4551 111.23C99.4551 111.23 99.4691 111.23 99.4551 111.244C99.4551 111.244 99.4551 111.244 99.4551 111.23C99.4914 111.083 99.5053 110.901 99.5304 110.72C99.7659 108.63 100.278 106.58 101.052 104.625C101.588 103.278 102.28 101.999 103.115 100.814C104.085 99.4398 105.273 98.2328 106.632 97.2412C108.118 96.1177 109.774 95.2389 111.538 94.6379C112.473 94.3198 113.438 94.093 114.417 93.9606C115.427 93.8098 116.453 93.7874 117.469 93.8938L117.385 93.9662V92.227L117.447 92.2995C115.404 92.0836 113.339 92.2846 111.376 92.8904C109.55 93.4554 107.825 94.3078 106.267 95.4156C104.872 96.4367 103.599 97.6151 102.474 98.9275C101.511 100.085 100.688 101.353 100.024 102.704C99.473 103.817 99.0152 104.974 98.6552 106.163C98.3899 107.062 98.1722 107.975 98.003 108.897C97.8664 109.655 97.7995 110.252 97.7577 110.656C97.741 110.854 97.7271 111.007 97.7187 111.116C97.7103 111.225 97.7048 111.255 97.7048 111.261Z" fill="#263238"/>
<path d="M34.5881 82.6501V79.2609C34.5881 79.2609 47.3397 78.8902 51.501 79.2915C60.4201 80.15 63.2352 83.4724 66.2733 86.6777C69.3113 89.883 72.7257 94.5571 72.7257 94.5571L71.0534 95.2093C71.0534 95.2093 63.6143 85.3008 56.0442 82.9456C48.4741 80.5904 34.5881 82.6501 34.5881 82.6501Z" fill="#FF725E"/>
<g opacity="0.3">
<path d="M92.1945 82.6585L94.4605 88.6622C94.5406 88.6622 94.6195 88.6429 94.6905 88.6059C94.7614 88.5688 94.8224 88.5151 94.8681 88.4494C94.9139 88.3837 94.943 88.3079 94.9531 88.2284C94.9632 88.149 94.9539 88.0683 94.926 87.9932L93.0725 82.9762C93.0368 82.8807 92.9729 82.7984 92.8892 82.7401C92.8056 82.6819 92.7061 82.6505 92.6042 82.6501L92.1945 82.6585Z" fill="black"/>
</g>
<g opacity="0.3">
<path d="M95.319 82.6585L97.5822 88.6622C97.6623 88.6622 97.7412 88.6429 97.8122 88.6059C97.8832 88.5688 97.9441 88.5151 97.9899 88.4494C98.0356 88.3837 98.0648 88.3079 98.0748 88.2284C98.0849 88.149 98.0756 88.0683 98.0477 87.9932L96.1942 82.9762C96.1593 82.8807 96.096 82.7982 96.0128 82.7399C95.9295 82.6816 95.8304 82.6502 95.7287 82.6501L95.319 82.6585Z" fill="black"/>
</g>
<g opacity="0.3">
<path d="M98.4406 82.6585L100.704 88.6622C100.784 88.6627 100.863 88.6437 100.935 88.6068C101.006 88.57 101.067 88.5163 101.113 88.4506C101.16 88.3848 101.189 88.3088 101.199 88.2291C101.209 88.1495 101.2 88.0685 101.172 87.9932L99.3297 82.9762C99.2941 82.8807 99.2301 82.7984 99.1465 82.7401C99.0628 82.6819 98.9634 82.6505 98.8615 82.6501L98.4406 82.6585Z" fill="black"/>
</g>
<g opacity="0.3">
<path d="M101.56 82.6585L103.823 88.6622C103.903 88.6622 103.982 88.6429 104.053 88.6059C104.124 88.5688 104.185 88.5151 104.23 88.4494C104.276 88.3837 104.305 88.3079 104.315 88.2284C104.325 88.149 104.316 88.0683 104.288 87.9932L102.435 82.9762C102.4 82.881 102.336 82.7987 102.253 82.7404C102.17 82.6821 102.071 82.6506 101.969 82.6501L101.56 82.6585Z" fill="black"/>
</g>
<g opacity="0.3">
<path d="M104.687 82.6585L106.95 88.6622C107.03 88.6618 107.108 88.6421 107.179 88.6049C107.25 88.5677 107.31 88.5139 107.356 88.4483C107.401 88.3826 107.43 88.3069 107.44 88.2277C107.45 88.1485 107.441 88.0681 107.413 87.9932L105.559 82.9762C105.524 82.8807 105.461 82.7982 105.378 82.7399C105.295 82.6816 105.195 82.6502 105.094 82.6501L104.687 82.6585Z" fill="black"/>
</g>
<path d="M133.587 113.636L134 110.954L133.055 110.012V109.851L133.95 109.154L133.635 106.461L132.255 105.667V105.687L132.222 105.589L132.868 104.212L131.553 101.843L130.12 101.653L129.95 101.43L130.229 100.343L128.328 98.3923L127.029 98.5679V97.3806L124.685 95.987L123.333 96.5444L122.99 95.3515L120.362 94.638L119.105 95.6274L119.314 95.6776C119.228 95.6776 119.139 95.6776 119.052 95.6609L117.979 94.507L115.278 94.8498L114.562 96.0762L114.303 96.1431L112.954 95.3236L110.445 96.3883L110.08 97.8906L108.712 97.5395L106.621 99.2843L106.71 100.859L105.554 100.812L104.068 103.086L104.514 104.326L103.352 104.588L102.49 107.172L103.327 108.382L102.226 108.973L102.081 111.69L103.313 112.713L103.327 111.991C103.349 112.223 103.377 112.454 103.41 112.682L102.454 114.048L103.357 116.618L104.751 117.047C104.779 117.109 104.809 117.17 104.84 117.231L104.31 118.764L105.877 120.994L107.424 121.036L107.368 122.449L109.514 124.121L111.056 123.698L110.994 123.645H111.017C111.153 123.72 111.295 123.792 111.429 123.862L111.582 124.698L114.116 125.665L114.966 125.122C115.153 125.164 115.34 125.203 115.523 125.236L115.889 125.997L118.587 126.256L119.336 125.42C119.598 125.401 119.858 125.373 120.114 125.339L120.95 125.977L123.545 125.186L123.846 124.35C124.144 124.227 124.44 124.093 124.73 123.951L125.719 124.341L127.999 122.878L128.08 121.699C128.203 121.59 128.322 121.482 128.442 121.367L129.51 121.457L131.266 119.391L130.987 118.184C131.059 118.065 131.126 117.947 131.193 117.828L132.054 117.713L133.15 115.236L132.615 114.288C132.637 114.199 132.659 114.109 132.679 114.009L133.587 113.636ZM110.398 97.821L110.222 97.9297L110.158 97.9129L110.398 97.821ZM103.382 108.482V108.463C103.381 108.483 103.381 108.503 103.382 108.524V108.482ZM107.259 120.746L107.407 120.899V120.963L107.259 120.746Z" fill="#263238"/>
<path d="M123.937 116.284C127.196 113.025 127.196 107.741 123.937 104.482C120.678 101.224 115.394 101.224 112.136 104.483C108.877 107.741 108.877 113.025 112.136 116.284C115.394 119.543 120.678 119.543 123.937 116.284Z" fill="#455A64"/>
<path d="M125.309 110.433C125.307 110.393 125.307 110.353 125.309 110.313C125.309 110.23 125.301 110.115 125.284 109.97L125.27 109.717C125.27 109.622 125.24 109.522 125.223 109.413C125.189 109.16 125.138 108.909 125.07 108.663C124.898 107.985 124.626 107.337 124.261 106.74C123.399 105.301 122.062 104.207 120.481 103.647C118.899 103.088 117.172 103.097 115.596 103.674C115.274 103.791 114.96 103.928 114.657 104.087C114.35 104.251 114.055 104.437 113.776 104.644C113.488 104.857 113.216 105.089 112.959 105.338C112.705 105.6 112.469 105.879 112.254 106.174C111.807 106.777 111.459 107.447 111.223 108.159C110.729 109.633 110.729 111.228 111.223 112.702C111.457 113.414 111.804 114.084 112.251 114.686C112.672 115.277 113.187 115.793 113.776 116.217C114.055 116.424 114.35 116.61 114.657 116.774C114.96 116.933 115.274 117.071 115.596 117.187C117.172 117.761 118.898 117.77 120.48 117.21C122.061 116.651 123.398 115.558 124.261 114.121C124.626 113.524 124.898 112.875 125.07 112.197C125.138 111.951 125.189 111.701 125.223 111.448C125.24 111.339 125.259 111.239 125.27 111.147L125.284 110.89C125.296 110.745 125.304 110.631 125.309 110.547C125.307 110.508 125.307 110.469 125.309 110.43C125.313 110.469 125.313 110.508 125.309 110.547V110.893C125.309 110.971 125.309 111.055 125.309 111.149C125.309 111.244 125.282 111.345 125.268 111.453C125.24 111.709 125.192 111.963 125.126 112.211C124.964 112.899 124.697 113.557 124.334 114.162C123.805 115.059 123.092 115.832 122.24 116.431C121.389 117.03 120.42 117.441 119.398 117.635C118.108 117.877 116.778 117.77 115.543 117.326C115.214 117.207 114.894 117.067 114.584 116.905C114.271 116.734 113.97 116.541 113.684 116.328C113.39 116.112 113.111 115.876 112.848 115.623C112.589 115.356 112.348 115.072 112.126 114.773C111.669 114.159 111.315 113.476 111.075 112.749C110.57 111.246 110.57 109.618 111.075 108.114C111.315 107.388 111.669 106.704 112.126 106.091C112.348 105.792 112.589 105.508 112.848 105.241C113.111 104.987 113.39 104.752 113.684 104.535C113.97 104.322 114.271 104.129 114.584 103.958C116.063 103.186 117.757 102.93 119.398 103.231C120.418 103.426 121.385 103.836 122.234 104.434C123.083 105.032 123.795 105.804 124.323 106.698C124.686 107.304 124.953 107.962 125.114 108.649C125.181 108.898 125.228 109.152 125.257 109.407C125.27 109.516 125.29 109.619 125.298 109.711C125.307 109.803 125.298 109.89 125.298 109.968C125.298 110.115 125.298 110.23 125.298 110.313C125.305 110.353 125.309 110.393 125.309 110.433Z" fill="#263238"/>
<g opacity="0.3">
<path d="M121.097 113.444C122.788 111.754 122.788 109.013 121.097 107.323C119.407 105.632 116.666 105.632 114.976 107.323C113.285 109.013 113.285 111.754 114.976 113.444C116.666 115.134 119.407 115.134 121.097 113.444Z" fill="black"/>
</g>
<path d="M68.0571 108.738L68.6145 105.115L67.3491 103.833V103.613L68.556 102.673L68.1295 99.0501L66.2677 97.9742V98.0021C66.2677 97.9575 66.237 97.9129 66.2231 97.8711L67.0983 96.012L65.3172 92.8123L63.3829 92.5559C63.3076 92.4555 63.2324 92.3552 63.1543 92.2576L63.5334 90.7888L60.9636 88.1604L59.2104 88.3973L59.1937 86.7947L56.0135 84.9272L54.1767 85.6798L53.714 84.0688L50.1659 83.1044L48.4685 84.4395L48.7472 84.5064L48.3932 84.4841L46.9466 82.9288L43.3065 83.3859L42.3756 85.0387L42.0272 85.1279L40.2071 84.013L36.8234 85.4512L36.3301 87.4776L34.4822 87.0037L31.6615 89.3589L31.7814 91.4856L30.2205 91.4215L28.1914 94.4874L28.7935 96.1597L27.2243 96.5137L26.0536 100.009L27.1936 101.651L25.708 102.448L25.5129 106.11L27.1852 107.49L27.2047 106.517C27.2354 106.829 27.2716 107.139 27.3162 107.448L26.0258 109.293L27.2438 112.76L29.114 113.34C29.153 113.424 29.1948 113.507 29.2366 113.588L28.5175 115.659L30.6275 118.653L32.7123 118.706L32.637 120.615L35.5358 122.875L37.6178 122.304L37.537 122.234H37.5648C37.7488 122.335 37.9355 122.432 38.1223 122.53L38.3285 123.661L41.7485 124.966L42.8968 124.233C43.1477 124.288 43.4013 124.341 43.6549 124.386L44.1511 125.412L47.794 125.763L48.8057 124.648C49.1569 124.62 49.5053 124.584 49.8537 124.539L50.9686 125.4L54.4694 124.333L54.8763 123.199C55.2795 123.031 55.6781 122.852 56.072 122.661L57.4071 123.187L60.473 121.211L60.5817 119.62C60.749 119.475 60.9106 119.341 61.0695 119.174L62.5105 119.294L64.8824 116.506L64.5089 114.873C64.6037 114.714 64.6957 114.555 64.7876 114.391L65.9499 114.24L67.4271 110.896L66.7025 109.619C66.7331 109.499 66.761 109.38 66.7917 109.257L68.0571 108.738ZM36.7482 87.3884C36.6674 87.4357 36.5893 87.4859 36.5113 87.5361L36.4221 87.5138L36.7482 87.3884ZM27.2939 101.776V101.751C27.2939 101.779 27.2939 101.807 27.2939 101.835V101.776ZM32.5228 118.318L32.7207 118.527V118.614L32.5228 118.318Z" fill="#263238"/>
<path d="M58.0341 106.885C59.439 100.824 55.6643 94.7714 49.6029 93.3665C43.5416 91.9615 37.489 95.7363 36.0841 101.798C34.6791 107.859 38.4539 113.912 44.5152 115.316C50.5765 116.721 56.6291 112.947 58.0341 106.885Z" fill="#455A64"/>
<path d="M56.8804 104.41C56.8804 104.41 56.8804 104.357 56.8637 104.251C56.8469 104.145 56.8469 103.986 56.833 103.786L56.8135 103.443C56.7996 103.317 56.7717 103.181 56.7494 103.033C56.7053 102.691 56.6373 102.353 56.5459 102.021C56.3155 101.104 55.9481 100.226 55.4561 99.418C54.7437 98.2303 53.7876 97.2071 52.6509 96.4158C51.5142 95.6245 50.2227 95.0832 48.8615 94.8274C48.4548 94.7506 48.0431 94.7022 47.6296 94.6825C47.4178 94.6825 47.2059 94.6546 46.9941 94.6602L46.3475 94.6937C46.2388 94.6937 46.1301 94.6937 46.0214 94.7132L45.698 94.7633C45.4806 94.7996 45.2577 94.8247 45.0403 94.872C44.5993 94.9702 44.1654 95.0978 43.7414 95.2539C43.3051 95.4095 42.8804 95.5958 42.4704 95.8113C42.2642 95.9228 42.0663 96.0538 41.8628 96.1737C41.6567 96.2942 41.4601 96.4302 41.2747 96.5806C40.882 96.8678 40.5095 97.1816 40.1598 97.5199C39.8162 97.8743 39.4968 98.2514 39.2038 98.6487C38.5981 99.4628 38.1276 100.369 37.8102 101.333C37.1393 103.328 37.1393 105.489 37.8102 107.484C37.8994 107.727 37.9886 107.966 38.0889 108.206C38.1893 108.446 38.3119 108.666 38.4206 108.895C38.4721 109.01 38.5327 109.121 38.6018 109.226L38.7969 109.55L38.9948 109.87L39.2178 110.171C39.5114 110.568 39.8308 110.945 40.1738 111.3C40.5228 111.639 40.8954 111.953 41.2887 112.239C41.4741 112.39 41.6707 112.526 41.8768 112.646C42.0802 112.766 42.2781 112.897 42.4844 113.008C42.8949 113.223 43.3196 113.409 43.7554 113.566C44.1797 113.721 44.6135 113.848 45.0542 113.948C45.2744 113.992 45.4946 114.017 45.712 114.054L46.0353 114.104C46.144 114.118 46.2527 114.118 46.3614 114.126L47.008 114.16C47.2199 114.16 47.4345 114.14 47.6435 114.135C48.0578 114.114 48.4703 114.067 48.8783 113.992C50.2392 113.736 51.5303 113.194 52.6665 112.402C53.8027 111.611 54.7582 110.587 55.47 109.399C55.9627 108.592 56.3301 107.716 56.5599 106.799C56.6512 106.466 56.7192 106.127 56.7633 105.784C56.7856 105.636 56.8135 105.505 56.8274 105.374L56.8469 105.031C56.8609 104.831 56.8692 104.677 56.8776 104.566C56.886 104.455 56.8943 104.407 56.8943 104.407C56.8943 104.407 56.8943 104.46 56.8943 104.566C56.8943 104.672 56.8943 104.845 56.8804 105.034C56.8804 105.137 56.8804 105.252 56.8804 105.38C56.8804 105.508 56.8442 105.642 56.8219 105.79C56.7845 106.134 56.7202 106.475 56.6295 106.81C56.4094 107.737 56.0474 108.624 55.5564 109.441C54.8406 110.65 53.8747 111.692 52.7234 112.498C51.5722 113.303 50.2622 113.854 48.8811 114.112C48.4687 114.19 48.0515 114.239 47.6324 114.26C47.4178 114.26 47.2031 114.291 46.9885 114.288L46.3335 114.254C46.2248 114.254 46.1133 114.254 46.0019 114.235L45.673 114.185C45.4528 114.148 45.2298 114.123 45.0096 114.079C44.5616 113.978 44.1203 113.85 43.6885 113.694C43.2461 113.538 42.815 113.352 42.398 113.137C42.1889 113.025 41.991 112.894 41.782 112.772C41.5736 112.649 41.3742 112.511 41.1855 112.359C40.793 112.068 40.4205 111.75 40.0706 111.409C39.7223 111.049 39.3983 110.666 39.1007 110.263L38.8721 109.959L38.6742 109.633L38.4736 109.307C38.4052 109.199 38.3437 109.086 38.2896 108.97L37.9551 108.27C37.866 108.028 37.774 107.782 37.6764 107.537C37.3523 106.526 37.1831 105.472 37.1747 104.41C37.188 103.35 37.36 102.298 37.6848 101.288C38.008 100.311 38.4861 99.3912 39.1007 98.5651C39.3983 98.1622 39.7223 97.7795 40.0706 97.4196C40.4218 97.0795 40.7942 96.7621 41.1855 96.4691C41.3747 96.319 41.574 96.1821 41.782 96.0594C41.991 95.9368 42.1917 95.803 42.398 95.6915C42.815 95.4765 43.2461 95.2903 43.6885 95.134C44.1191 94.9782 44.5595 94.8507 45.0068 94.7522C45.2298 94.7048 45.4528 94.6797 45.673 94.6435L46.0019 94.5933C46.1133 94.5933 46.222 94.5933 46.3335 94.5738L46.9857 94.5432C47.2031 94.5432 47.4178 94.5599 47.6296 94.5682C48.0487 94.5886 48.4659 94.638 48.8783 94.716C50.2532 94.9783 51.5566 95.5303 52.7018 96.3352C53.847 97.1402 54.8078 98.1797 55.5202 99.3846C56.0112 100.201 56.3731 101.089 56.5933 102.016C56.684 102.35 56.7483 102.691 56.7856 103.036C56.8079 103.184 56.833 103.315 56.8442 103.448C56.8553 103.582 56.8442 103.688 56.8442 103.791C56.8442 103.995 56.8441 104.148 56.8581 104.259C56.872 104.371 56.8804 104.41 56.8804 104.41Z" fill="#263238"/>
<g opacity="0.3">
<path d="M47.061 110.185C50.2875 110.185 52.903 107.57 52.903 104.343C52.903 101.117 50.2875 98.5011 47.061 98.5011C43.8346 98.5011 41.219 101.117 41.219 104.343C41.219 107.57 43.8346 110.185 47.061 110.185Z" fill="black"/>
</g>
<path d="M89.8198 56.5506L86.1992 59.9008L86.2159 62.0191L89.8198 58.6187V56.5506Z" fill="white"/>
<path d="M86.202 59.0033L89.8086 55.8203L89.7919 55.0148L86.2048 58.2368L86.202 59.0033Z" fill="white"/>
<path d="M72.7145 94.5571C72.6878 94.5285 72.6636 94.4978 72.6421 94.4651L72.4442 94.1864L71.6888 93.1412C71.0283 92.2354 70.0639 90.9309 68.7901 89.3868C67.3108 87.5714 65.686 85.8796 63.932 84.328C62.8948 83.4136 61.7751 82.5971 60.5873 81.8892C59.9565 81.5205 59.3051 81.1883 58.6363 80.8941C57.9469 80.5931 57.2416 80.3298 56.5236 80.1054C53.6081 79.1939 50.6704 78.9292 48.0421 78.8177C46.7209 78.7731 45.4611 78.7898 44.2849 78.8177C43.1087 78.8455 42.0105 78.8873 41.0099 78.9375C39.0087 79.0295 37.3865 79.1298 36.2716 79.1995L34.9839 79.2776L34.6467 79.2971H34.5324L34.6467 79.2803L34.9811 79.2469L36.266 79.141C37.3809 79.0546 39.0031 78.9375 41.0043 78.8316C42.0049 78.7759 43.1031 78.7313 44.2821 78.6922C45.4611 78.6532 46.7209 78.6365 48.0476 78.6922C50.6927 78.7954 53.6221 79.0574 56.5682 79.9771C57.2911 80.2026 58.0011 80.4678 58.6948 80.7715C59.3683 81.0684 60.0244 81.4034 60.6598 81.7749C61.8528 82.489 62.9771 83.3119 64.0184 84.2332C65.7748 85.7976 67.3988 87.5045 68.8738 89.3366C70.1392 90.8947 71.1035 92.2075 71.739 93.1245C72.0623 93.5816 72.2965 93.9411 72.4721 94.1864C72.5501 94.3063 72.6114 94.3982 72.6588 94.4651C72.6798 94.4942 72.6985 94.525 72.7145 94.5571Z" fill="#263238"/>
<path d="M60.2584 81.2621C60.2194 81.2621 59.9407 74.7483 59.6397 66.7128C59.3387 58.6772 59.124 52.1579 59.1658 52.1579C59.2077 52.1579 59.4836 58.6689 59.7846 66.7072C60.0856 74.7455 60.3086 81.2593 60.2584 81.2621Z" fill="#263238"/>
<path d="M79.153 52.3725H38.5961C38.3091 52.3718 38.034 52.2572 37.8313 52.054C37.6285 51.8507 37.5147 51.5754 37.5147 51.2883C37.5147 51.0015 37.6286 50.7264 37.8314 50.5236C38.0342 50.3208 38.3093 50.2068 38.5961 50.2068H79.153C79.4398 50.2068 79.7149 50.3208 79.9177 50.5236C80.1205 50.7264 80.2344 51.0015 80.2344 51.2883C80.2344 51.5754 80.1206 51.8507 79.9179 52.054C79.7151 52.2572 79.4401 52.3718 79.153 52.3725Z" fill="#FF725E"/>
<path d="M79.7551 52.1579C79.7551 52.1969 70.4123 52.2304 58.8927 52.2304C47.3731 52.2304 38.0248 52.1969 38.0248 52.1579C38.0248 52.1189 47.3648 52.0854 58.8927 52.0854C70.4207 52.0854 79.7551 52.1161 79.7551 52.1579Z" fill="#263238"/>
<path d="M68.333 73.168V74.91C68.333 74.91 76.8424 87.5807 76.9566 87.5807C77.0709 87.5807 79.6519 87.7981 79.6519 87.7981L78.7098 74.6982L75.708 74.8598L75.5575 73.915L76.1623 72.9199C76.2557 72.7681 76.2887 72.5866 76.2546 72.4116C76.2205 72.2366 76.1219 72.0808 75.9783 71.9751L74.6934 71.019C74.3824 70.7866 73.9953 70.6797 73.6091 70.7195C73.2229 70.7592 72.8658 70.9428 72.6086 71.2337L71.1314 72.906L69.7684 72.2649L70.2896 69.985L72.0539 68.9175C72.1426 68.8497 72.2029 68.7514 72.223 68.6416C72.2431 68.5319 72.2216 68.4186 72.1626 68.3238C72.0996 68.225 72.0002 68.1551 71.886 68.129C71.7718 68.1029 71.6519 68.1228 71.5522 68.1844L63.7118 73.076C63.6711 73.1015 63.6365 73.1356 63.6104 73.1759C63.5843 73.2162 63.5673 73.2617 63.5607 73.3092C63.554 73.3568 63.5579 73.4052 63.5719 73.4511C63.586 73.497 63.61 73.5393 63.6421 73.5749C63.6863 73.6239 63.7445 73.6581 63.8088 73.6731C63.873 73.688 63.9403 73.683 64.0016 73.6585L65.4705 72.8419L68.333 73.168Z" fill="#263238"/>
<path d="M79.0109 74.1853L61.2619 74.4891L60.8996 74.4947L60.9915 76.1587L78.944 75.9217L79.0109 74.1853Z" fill="#FF725E"/>
<path d="M81.4525 97.4642H72.1293V98.5011H81.4525V97.4642Z" fill="#E0E0E0"/>
<path d="M81.4525 103.309H72.1293V104.346H81.4525V103.309Z" fill="#E0E0E0"/>
<path d="M81.3243 109.865H72.2574V110.901H81.3243V109.865Z" fill="#E0E0E0"/>
<path d="M72.1292 113.836C72.0874 113.836 72.0568 109.58 72.0568 104.332C72.0568 99.0835 72.0874 94.8247 72.1292 94.8247C72.1711 94.8247 72.2017 99.0808 72.2017 104.332C72.2017 109.583 72.1683 113.836 72.1292 113.836Z" fill="#E0E0E0"/>
<path d="M81.4525 113.836C81.4135 113.836 81.38 109.229 81.38 103.546C81.38 97.8628 81.4135 93.2555 81.4525 93.2555C81.4915 93.2555 81.525 97.8628 81.525 103.546C81.525 109.229 81.4915 113.836 81.4525 113.836Z" fill="#E0E0E0"/>
<path d="M91.9241 94.5153H82.5116V107.178H91.9241V94.5153Z" fill="#455A64"/>
<path d="M91.9157 100.965C91.9157 101.004 89.8142 101.037 87.2193 101.037C84.6244 101.037 82.5228 101.004 82.5228 100.965C82.5228 100.926 84.6244 100.892 87.2193 100.892C89.8142 100.892 91.9157 100.923 91.9157 100.965Z" fill="#263238"/>
<path d="M91.9157 97.9826C91.9157 98.0244 89.8142 98.0551 87.2193 98.0551C84.6244 98.0551 82.5228 98.0244 82.5228 97.9826C82.5228 97.9408 84.6244 97.9102 87.2193 97.9102C89.8142 97.9102 91.9157 97.9436 91.9157 97.9826Z" fill="#263238"/>
<path d="M91.9157 104.279C91.9157 104.318 89.8142 104.351 87.2193 104.351C84.6244 104.351 82.5228 104.318 82.5228 104.279C82.5228 104.24 84.6244 104.206 87.2193 104.206C89.8142 104.206 91.9157 104.237 91.9157 104.279Z" fill="#263238"/>
<path d="M94.4605 88.6621C94.4214 88.6761 93.903 87.3438 93.2787 85.6854C92.6543 84.027 92.1972 82.6724 92.2335 82.6585C92.2697 82.6445 92.7909 83.9768 93.4153 85.6352C94.0396 87.2936 94.4967 88.6482 94.4605 88.6621Z" fill="#263238"/>
<path d="M97.557 88.6427C97.5208 88.6566 96.9996 87.3243 96.378 85.6687C95.7565 84.0131 95.2938 82.6557 95.3328 82.6418C95.3719 82.6278 95.8903 83.9601 96.5118 85.6185C97.1334 87.2769 97.5961 88.6287 97.557 88.6427Z" fill="#263238"/>
<path d="M100.701 88.6427C100.665 88.6566 100.144 87.3243 99.5192 85.6687C98.8949 84.0131 98.4378 82.6557 98.4768 82.6418C98.5158 82.6278 99.0343 83.9601 99.6558 85.6185C100.277 87.2769 100.737 88.6287 100.701 88.6427Z" fill="#263238"/>
<path d="M103.845 88.7179C103.806 88.7179 103.288 87.3995 102.663 85.7411C102.039 84.0828 101.582 82.7282 101.618 82.7142C101.654 82.7003 102.176 84.0326 102.8 85.691C103.424 87.3494 103.881 88.704 103.845 88.7179Z" fill="#263238"/>
<path d="M106.928 88.7179C106.889 88.7179 106.37 87.3995 105.746 85.7411C105.122 84.0828 104.664 82.7282 104.701 82.7142C104.737 82.7003 105.258 84.0326 105.882 85.691C106.507 87.3494 106.964 88.704 106.928 88.7179Z" fill="#263238"/>
<path d="M125.309 97.1911C125.309 97.1911 125.309 97.1409 125.323 97.0433C125.337 96.9458 125.351 96.7981 125.374 96.6113C125.418 96.2323 125.482 95.672 125.549 94.939C125.683 93.4952 125.856 91.3964 125.845 88.8071C125.844 87.3929 125.759 85.98 125.588 84.5761C125.56 84.3893 125.532 84.1998 125.502 84.0186L125.46 83.7399C125.46 83.6925 125.446 83.6368 125.438 83.5978C125.427 83.5582 125.408 83.5212 125.382 83.4891C125.257 83.3464 125.103 83.2315 124.93 83.1518C124.75 83.0573 124.564 82.9753 124.373 82.9065C123.591 82.6204 122.791 82.384 121.979 82.1986C118.634 81.407 114.908 80.805 110.992 80.2308C103.145 79.0825 96.0158 78.2602 90.8566 77.6666L84.7415 76.9837L83.0691 76.7969L82.6371 76.7468C82.5395 76.7468 82.4894 76.7245 82.4894 76.7245H82.6399L83.0719 76.7607L84.7443 76.9196C86.1908 77.0617 88.2812 77.2736 90.8761 77.5551C96.0381 78.1125 103.173 78.932 111.019 80.0775C114.938 80.6656 118.673 81.2593 122.018 82.0592C122.836 82.2482 123.641 82.4884 124.429 82.7783C124.62 82.8514 124.806 82.9362 124.986 83.032C125.175 83.1215 125.343 83.2497 125.479 83.4082C125.515 83.4533 125.541 83.5056 125.555 83.5615C125.555 83.6145 125.555 83.6591 125.577 83.7093L125.622 83.988L125.705 84.5622C125.872 85.9709 125.952 87.3885 125.945 88.8071C125.938 90.8556 125.824 92.9023 125.605 94.939C125.527 95.6637 125.454 96.2211 125.401 96.6113L125.335 97.0433C125.329 97.093 125.321 97.1423 125.309 97.1911Z" fill="#263238"/>
<path d="M112.987 77.0617C113.06 77.616 113.084 78.1756 113.06 78.7341C113.084 79.2926 113.06 79.8521 112.987 80.4064C112.916 79.852 112.892 79.2926 112.915 78.7341C112.892 78.1756 112.916 77.6162 112.987 77.0617Z" fill="#263238"/>
<path d="M71.8003 64.0231C71.8254 64.0538 70.3342 65.3108 68.4696 66.827C66.6049 68.3433 65.0692 69.5502 65.0441 69.5167C65.019 69.4833 66.5102 68.2318 68.3888 66.7156C70.2673 65.1993 71.7752 63.9841 71.8003 64.0231Z" fill="white"/>
<path d="M71.9146 62.0721C71.7 62.2745 71.4709 62.4608 71.2289 62.6295C70.7941 62.9668 70.1977 63.4378 69.5566 63.9702C68.9155 64.5025 68.3386 65.0042 67.9261 65.3638C67.711 65.5656 67.4819 65.7519 67.2404 65.9212C67.4255 65.6872 67.6317 65.4708 67.8564 65.2746C68.2522 64.8928 68.8152 64.3827 69.4646 63.8448C70.1141 63.3068 70.7189 62.8497 71.1704 62.532C71.4038 62.3561 71.6529 62.2021 71.9146 62.0721Z" fill="white"/>
<path d="M52.6298 64.076C52.6549 64.1067 51.1638 65.361 49.2991 66.88C47.4345 68.399 45.9015 69.6003 45.8764 69.5697C45.8513 69.539 47.3425 68.2847 49.2071 66.7657C51.0718 65.2467 52.6048 64.0454 52.6298 64.076Z" fill="white"/>
<path d="M52.7469 62.1306C52.5302 62.3316 52.3002 62.5178 52.0585 62.688C51.6264 63.0253 51.03 63.4963 50.3861 64.0287C49.7423 64.561 49.1681 65.0627 48.7556 65.4223C48.5422 65.626 48.313 65.8124 48.07 65.9797C48.2561 65.7467 48.4622 65.5303 48.6859 65.3331C49.0817 64.9512 49.6475 64.4412 50.2942 63.9032C50.9408 63.3653 51.5512 62.9082 51.9999 62.5904C52.234 62.4141 52.4841 62.2601 52.7469 62.1306Z" fill="white"/>
<path d="M82.3675 41.107C82.2514 41.1085 82.1362 41.0864 82.0289 41.0419C81.9216 40.9973 81.8246 40.9314 81.7437 40.848C80.7748 39.8802 79.4614 39.3366 78.092 39.3366C76.7225 39.3366 75.4091 39.8802 74.4402 40.848C74.2748 41.0143 74.0501 41.108 73.8155 41.1085C73.581 41.1091 73.3559 41.0164 73.1896 40.851C73.0234 40.6855 72.9297 40.4608 72.9291 40.2263C72.9286 39.9918 73.0212 39.7666 73.1867 39.6004C73.8304 38.9566 74.5947 38.4459 75.4359 38.0974C76.277 37.749 77.1786 37.5697 78.089 37.5697C78.9995 37.5697 79.901 37.749 80.7422 38.0974C81.5833 38.4459 82.3476 38.9566 82.9914 39.6004C83.1553 39.7667 83.2471 39.9907 83.2471 40.2242C83.2471 40.4577 83.1553 40.6818 82.9914 40.848C82.9099 40.9306 82.8127 40.996 82.7056 41.0404C82.5984 41.0849 82.4835 41.1075 82.3675 41.107Z" fill="#FF5C00"/>
<path d="M85.5103 37.9643C85.3933 37.9653 85.2774 37.9429 85.1693 37.8984C85.0611 37.854 84.9629 37.7883 84.8806 37.7054C83.0778 35.907 80.6354 34.8971 78.0891 34.8971C75.5427 34.8971 73.1003 35.907 71.2976 37.7054C71.1302 37.8613 70.9089 37.9462 70.6802 37.9421C70.4515 37.9381 70.2333 37.8455 70.0716 37.6837C69.9098 37.522 69.8172 37.3038 69.8131 37.0751C69.8091 36.8464 69.894 36.625 70.0499 36.4577C72.1855 34.3298 75.0773 33.135 78.092 33.135C81.1067 33.135 83.9986 34.3298 86.1341 36.4577C86.298 36.624 86.3899 36.8481 86.3899 37.0815C86.3899 37.315 86.298 37.5391 86.1341 37.7054C86.0526 37.7879 85.9554 37.8533 85.8483 37.8978C85.7412 37.9422 85.6263 37.9648 85.5103 37.9643Z" fill="#FF5C00"/>
<path d="M88.4235 35.0512C88.1898 35.0491 87.9661 34.9562 87.7997 34.7922C86.525 33.516 85.0113 32.5035 83.3451 31.8128C81.6789 31.122 79.8929 30.7664 78.0891 30.7664C76.2854 30.7664 74.4994 31.122 72.8332 31.8128C71.1669 32.5035 69.6532 33.516 68.3786 34.7922C68.2123 34.9561 67.9883 35.048 67.7548 35.048C67.5213 35.048 67.2972 34.9561 67.131 34.7922C67.0484 34.7107 66.9828 34.6135 66.9381 34.5064C66.8934 34.3993 66.8703 34.2844 66.8703 34.1684C66.8703 34.0523 66.8934 33.9374 66.9381 33.8303C66.9828 33.7233 67.0484 33.6261 67.131 33.5446C68.5691 32.1039 70.2772 30.961 72.1576 30.1812C74.0379 29.4014 76.0535 29 78.0891 29C80.1248 29 82.1404 29.4014 84.0207 30.1812C85.901 30.961 87.6092 32.1039 89.0473 33.5446C89.1706 33.668 89.2546 33.8252 89.2886 33.9964C89.3226 34.1675 89.3051 34.3449 89.2383 34.5061C89.1716 34.6673 89.0585 34.8051 88.9135 34.9021C88.7685 34.9991 88.598 35.051 88.4235 35.0512Z" fill="#FF5C00"/>
<path d="M79.7957 44.3026C79.7957 44.6402 79.6956 44.9702 79.5081 45.2508C79.3206 45.5315 79.054 45.7502 78.7422 45.8794C78.4303 46.0086 78.0872 46.0424 77.7561 45.9765C77.425 45.9107 77.1209 45.7481 76.8822 45.5094C76.6435 45.2708 76.481 44.9667 76.4151 44.6356C76.3493 44.3045 76.3831 43.9614 76.5123 43.6495C76.6414 43.3376 76.8602 43.0711 77.1409 42.8836C77.4215 42.696 77.7515 42.5959 78.0891 42.5959C78.3134 42.5951 78.5357 42.6388 78.7431 42.7243C78.9505 42.8098 79.139 42.9354 79.2976 43.0941C79.4562 43.2527 79.5819 43.4412 79.6674 43.6486C79.7529 43.856 79.7965 44.0783 79.7957 44.3026Z" fill="#FF5C00"/>
<path d="M191.172 35.2812L184.375 55H180.266L188.828 32.25H191.453L191.172 35.2812ZM196.859 55L190.047 35.2812L189.75 32.25H192.391L200.984 55H196.859ZM196.531 46.5625V49.6719H184.156V46.5625H196.531ZM213.984 38.0938H217.406V54.5312C217.406 56.0521 217.083 57.3438 216.438 58.4062C215.792 59.4688 214.891 60.276 213.734 60.8281C212.578 61.3906 211.24 61.6719 209.719 61.6719C209.073 61.6719 208.354 61.5781 207.562 61.3906C206.781 61.2031 206.021 60.901 205.281 60.4844C204.552 60.0781 203.943 59.5417 203.453 58.875L205.219 56.6562C205.823 57.375 206.49 57.901 207.219 58.2344C207.948 58.5677 208.714 58.7344 209.516 58.7344C210.38 58.7344 211.115 58.5729 211.719 58.25C212.333 57.9375 212.807 57.474 213.141 56.8594C213.474 56.2448 213.641 55.4948 213.641 54.6094V41.9219L213.984 38.0938ZM202.5 46.7344V46.4062C202.5 45.125 202.656 43.9583 202.969 42.9062C203.281 41.8438 203.729 40.9323 204.312 40.1719C204.896 39.401 205.604 38.8125 206.438 38.4062C207.271 37.9896 208.214 37.7812 209.266 37.7812C210.359 37.7812 211.292 37.9792 212.062 38.375C212.844 38.7708 213.495 39.3385 214.016 40.0781C214.536 40.8073 214.943 41.6823 215.234 42.7031C215.536 43.7135 215.76 44.8385 215.906 46.0781V47.125C215.771 48.3333 215.542 49.4375 215.219 50.4375C214.896 51.4375 214.469 52.3021 213.938 53.0312C213.406 53.7604 212.75 54.3229 211.969 54.7188C211.198 55.1146 210.286 55.3125 209.234 55.3125C208.203 55.3125 207.271 55.099 206.438 54.6719C205.615 54.2448 204.906 53.6458 204.312 52.875C203.729 52.1042 203.281 51.1979 202.969 50.1562C202.656 49.1042 202.5 47.9635 202.5 46.7344ZM206.266 46.4062V46.7344C206.266 47.5052 206.339 48.224 206.484 48.8906C206.641 49.5573 206.875 50.1458 207.188 50.6562C207.51 51.1562 207.917 51.5521 208.406 51.8438C208.906 52.125 209.495 52.2656 210.172 52.2656C211.057 52.2656 211.781 52.0781 212.344 51.7031C212.917 51.3281 213.354 50.8229 213.656 50.1875C213.969 49.5417 214.188 48.8229 214.312 48.0312V45.2031C214.25 44.5885 214.12 44.0156 213.922 43.4844C213.734 42.9531 213.479 42.4896 213.156 42.0938C212.833 41.6875 212.427 41.375 211.938 41.1562C211.448 40.9271 210.87 40.8125 210.203 40.8125C209.526 40.8125 208.938 40.9583 208.438 41.25C207.938 41.5417 207.526 41.9427 207.203 42.4531C206.891 42.9635 206.656 43.5573 206.5 44.2344C206.344 44.9115 206.266 45.6354 206.266 46.4062ZM225.094 41.3125V55H221.328V38.0938H224.922L225.094 41.3125ZM230.266 37.9844L230.234 41.4844C230.005 41.4427 229.755 41.4115 229.484 41.3906C229.224 41.3698 228.964 41.3594 228.703 41.3594C228.057 41.3594 227.49 41.4531 227 41.6406C226.51 41.8177 226.099 42.0781 225.766 42.4219C225.443 42.7552 225.193 43.1615 225.016 43.6406C224.839 44.1198 224.734 44.6562 224.703 45.25L223.844 45.3125C223.844 44.25 223.948 43.2656 224.156 42.3594C224.365 41.4531 224.677 40.6562 225.094 39.9688C225.521 39.2812 226.052 38.7448 226.688 38.3594C227.333 37.974 228.078 37.7812 228.922 37.7812C229.151 37.7812 229.396 37.8021 229.656 37.8438C229.927 37.8854 230.13 37.9323 230.266 37.9844ZM236.656 38.0938V55H232.875V38.0938H236.656ZM232.625 33.6562C232.625 33.0833 232.812 32.6094 233.188 32.2344C233.573 31.849 234.104 31.6562 234.781 31.6562C235.448 31.6562 235.974 31.849 236.359 32.2344C236.745 32.6094 236.938 33.0833 236.938 33.6562C236.938 34.2188 236.745 34.6875 236.359 35.0625C235.974 35.4375 235.448 35.625 234.781 35.625C234.104 35.625 233.573 35.4375 233.188 35.0625C232.812 34.6875 232.625 34.2188 232.625 33.6562ZM247.688 52.3125C248.302 52.3125 248.854 52.1927 249.344 51.9531C249.844 51.7031 250.245 51.3594 250.547 50.9219C250.859 50.4844 251.031 49.9792 251.062 49.4062H254.609C254.589 50.5 254.266 51.4948 253.641 52.3906C253.016 53.2865 252.188 54 251.156 54.5312C250.125 55.0521 248.984 55.3125 247.734 55.3125C246.443 55.3125 245.318 55.0938 244.359 54.6562C243.401 54.2083 242.604 53.5938 241.969 52.8125C241.333 52.0312 240.854 51.1302 240.531 50.1094C240.219 49.0885 240.062 47.9948 240.062 46.8281V46.2812C240.062 45.1146 240.219 44.0208 240.531 43C240.854 41.9688 241.333 41.0625 241.969 40.2812C242.604 39.5 243.401 38.8906 244.359 38.4531C245.318 38.0052 246.438 37.7812 247.719 37.7812C249.073 37.7812 250.26 38.0521 251.281 38.5938C252.302 39.125 253.104 39.8698 253.688 40.8281C254.281 41.776 254.589 42.8802 254.609 44.1406H251.062C251.031 43.5156 250.875 42.9531 250.594 42.4531C250.323 41.9427 249.938 41.5365 249.438 41.2344C248.948 40.9323 248.359 40.7812 247.672 40.7812C246.911 40.7812 246.281 40.9375 245.781 41.25C245.281 41.5521 244.891 41.9688 244.609 42.5C244.328 43.0208 244.125 43.6094 244 44.2656C243.885 44.9115 243.828 45.5833 243.828 46.2812V46.8281C243.828 47.526 243.885 48.2031 244 48.8594C244.115 49.5156 244.312 50.1042 244.594 50.625C244.885 51.1354 245.281 51.5469 245.781 51.8594C246.281 52.1615 246.917 52.3125 247.688 52.3125ZM267.672 51.0156V38.0938H271.453V55H267.891L267.672 51.0156ZM268.203 47.5L269.469 47.4688C269.469 48.6042 269.344 49.651 269.094 50.6094C268.844 51.5573 268.458 52.3854 267.938 53.0938C267.417 53.7917 266.75 54.3385 265.938 54.7344C265.125 55.1198 264.151 55.3125 263.016 55.3125C262.193 55.3125 261.438 55.1927 260.75 54.9531C260.062 54.7135 259.469 54.3438 258.969 53.8438C258.479 53.3438 258.099 52.6927 257.828 51.8906C257.557 51.0885 257.422 50.1302 257.422 49.0156V38.0938H261.188V49.0469C261.188 49.6615 261.26 50.1771 261.406 50.5938C261.552 51 261.75 51.3281 262 51.5781C262.25 51.8281 262.542 52.0052 262.875 52.1094C263.208 52.2135 263.562 52.2656 263.938 52.2656C265.01 52.2656 265.854 52.0573 266.469 51.6406C267.094 51.2135 267.536 50.6406 267.797 49.9219C268.068 49.2031 268.203 48.3958 268.203 47.5ZM279.344 31V55H275.562V31H279.344ZM291.219 38.0938V40.8438H281.688V38.0938H291.219ZM284.438 33.9531H288.203V50.3281C288.203 50.849 288.276 51.25 288.422 51.5312C288.578 51.8021 288.792 51.9844 289.062 52.0781C289.333 52.1719 289.651 52.2188 290.016 52.2188C290.276 52.2188 290.526 52.2031 290.766 52.1719C291.005 52.1406 291.198 52.1094 291.344 52.0781L291.359 54.9531C291.047 55.0469 290.682 55.1302 290.266 55.2031C289.859 55.276 289.391 55.3125 288.859 55.3125C287.995 55.3125 287.229 55.1615 286.562 54.8594C285.896 54.5469 285.375 54.0417 285 53.3438C284.625 52.6458 284.438 51.7188 284.438 50.5625V33.9531ZM304.297 51.0156V38.0938H308.078V55H304.516L304.297 51.0156ZM304.828 47.5L306.094 47.4688C306.094 48.6042 305.969 49.651 305.719 50.6094C305.469 51.5573 305.083 52.3854 304.562 53.0938C304.042 53.7917 303.375 54.3385 302.562 54.7344C301.75 55.1198 300.776 55.3125 299.641 55.3125C298.818 55.3125 298.062 55.1927 297.375 54.9531C296.688 54.7135 296.094 54.3438 295.594 53.8438C295.104 53.3438 294.724 52.6927 294.453 51.8906C294.182 51.0885 294.047 50.1302 294.047 49.0156V38.0938H297.812V49.0469C297.812 49.6615 297.885 50.1771 298.031 50.5938C298.177 51 298.375 51.3281 298.625 51.5781C298.875 51.8281 299.167 52.0052 299.5 52.1094C299.833 52.2135 300.188 52.2656 300.562 52.2656C301.635 52.2656 302.479 52.0573 303.094 51.6406C303.719 51.2135 304.161 50.6406 304.422 49.9219C304.693 49.2031 304.828 48.3958 304.828 47.5ZM315.719 41.3125V55H311.953V38.0938H315.547L315.719 41.3125ZM320.891 37.9844L320.859 41.4844C320.63 41.4427 320.38 41.4115 320.109 41.3906C319.849 41.3698 319.589 41.3594 319.328 41.3594C318.682 41.3594 318.115 41.4531 317.625 41.6406C317.135 41.8177 316.724 42.0781 316.391 42.4219C316.068 42.7552 315.818 43.1615 315.641 43.6406C315.464 44.1198 315.359 44.6562 315.328 45.25L314.469 45.3125C314.469 44.25 314.573 43.2656 314.781 42.3594C314.99 41.4531 315.302 40.6562 315.719 39.9688C316.146 39.2812 316.677 38.7448 317.312 38.3594C317.958 37.974 318.703 37.7812 319.547 37.7812C319.776 37.7812 320.021 37.8021 320.281 37.8438C320.552 37.8854 320.755 37.9323 320.891 37.9844ZM330.391 55.3125C329.141 55.3125 328.01 55.1094 327 54.7031C326 54.2865 325.146 53.7083 324.438 52.9688C323.74 52.2292 323.203 51.3594 322.828 50.3594C322.453 49.3594 322.266 48.2812 322.266 47.125V46.5C322.266 45.1771 322.458 43.9792 322.844 42.9062C323.229 41.8333 323.766 40.9167 324.453 40.1562C325.141 39.3854 325.953 38.7969 326.891 38.3906C327.828 37.9844 328.844 37.7812 329.938 37.7812C331.146 37.7812 332.203 37.9844 333.109 38.3906C334.016 38.7969 334.766 39.3698 335.359 40.1094C335.964 40.8385 336.411 41.7083 336.703 42.7188C337.005 43.7292 337.156 44.8438 337.156 46.0625V47.6719H324.094V44.9688H333.438V44.6719C333.417 43.9948 333.281 43.3594 333.031 42.7656C332.792 42.1719 332.422 41.6927 331.922 41.3281C331.422 40.9635 330.755 40.7812 329.922 40.7812C329.297 40.7812 328.74 40.9167 328.25 41.1875C327.771 41.4479 327.37 41.8281 327.047 42.3281C326.724 42.8281 326.474 43.4323 326.297 44.1406C326.13 44.8385 326.047 45.625 326.047 46.5V47.125C326.047 47.8646 326.146 48.5521 326.344 49.1875C326.552 49.8125 326.854 50.3594 327.25 50.8281C327.646 51.2969 328.125 51.6667 328.688 51.9375C329.25 52.1979 329.891 52.3281 330.609 52.3281C331.516 52.3281 332.323 52.1458 333.031 51.7812C333.74 51.4167 334.354 50.901 334.875 50.2344L336.859 52.1562C336.495 52.6875 336.021 53.1979 335.438 53.6875C334.854 54.1667 334.141 54.5573 333.297 54.8594C332.464 55.1615 331.495 55.3125 330.391 55.3125Z" fill="#FF725E"/>
<line x1="148" y1="77" x2="1208" y2="77" stroke="#FF725E" stroke-width="6"/>
</svg>
