<svg width="240" height="420" viewBox="0 0 240 420" fill="none" xmlns="http://www.w3.org/2000/svg">
<g clip-path="url(#clip0_6_665)">
<rect y="13" width="240" height="405" rx="12" fill="#007300"/>
<rect width="15" height="255" transform="translate(15 45)" fill="#404040"/>
<rect x="19" y="289" width="7" height="7" fill="#151515"/>
<rect x="19" y="199" width="7" height="7" fill="#151515"/>
<rect x="19" y="244" width="7" height="7" fill="#151515"/>
<rect x="19" y="154" width="7" height="7" fill="#151515"/>
<rect x="19" y="79" width="7" height="7" fill="#151515"/>
<rect x="19" y="274" width="7" height="7" fill="#151515"/>
<rect x="19" y="184" width="7" height="7" fill="#151515"/>
<rect x="19" y="109" width="7" height="7" fill="#151515"/>
<rect x="19" y="229" width="7" height="7" fill="#151515"/>
<rect x="19" y="139" width="7" height="7" fill="#151515"/>
<rect x="19" y="64" width="7" height="7" fill="#151515"/>
<rect x="19" y="259" width="7" height="7" fill="#151515"/>
<rect x="19" y="169" width="7" height="7" fill="#151515"/>
<rect x="19" y="94" width="7" height="7" fill="#151515"/>
<rect x="19" y="214" width="7" height="7" fill="#151515"/>
<rect x="19" y="124" width="7" height="7" fill="#151515"/>
<rect x="19" y="49" width="7" height="7" fill="#151515"/>
<rect width="15" height="226" transform="translate(210 45)" fill="#404040"/>
<rect x="214" y="260" width="7" height="7" fill="#151515"/>
<rect x="214" y="170" width="7" height="7" fill="#151515"/>
<rect x="214" y="215" width="7" height="7" fill="#151515"/>
<rect x="214" y="125" width="7" height="7" fill="#151515"/>
<rect x="214" y="50" width="7" height="7" fill="#151515"/>
<rect x="214" y="245" width="7" height="7" fill="#151515"/>
<rect x="214" y="155" width="7" height="7" fill="#151515"/>
<rect x="214" y="80" width="7" height="7" fill="#151515"/>
<rect x="214" y="200" width="7" height="7" fill="#151515"/>
<rect x="214" y="110" width="7" height="7" fill="#151515"/>
<rect x="214" y="230" width="7" height="7" fill="#151515"/>
<rect x="214" y="140" width="7" height="7" fill="#151515"/>
<rect x="214" y="65" width="7" height="7" fill="#151515"/>
<rect x="214" y="185" width="7" height="7" fill="#151515"/>
<rect x="214" y="95" width="7" height="7" fill="#151515"/>
<rect width="15" height="13" transform="translate(0 61)" fill="white" fill-opacity="0.7"/>
<rect x="1" y="64" width="13" height="8" fill="#007300" fill-opacity="0.3"/>
<rect width="15" height="13" transform="translate(225 63)" fill="white" fill-opacity="0.7"/>
<rect x="226" y="66" width="13" height="8" fill="#007300" fill-opacity="0.3"/>
<rect width="15" height="13" transform="translate(225 92)" fill="white" fill-opacity="0.7"/>
<rect x="226" y="95" width="13" height="8" fill="#007300" fill-opacity="0.3"/>
<rect x="1" y="49" width="13" height="8" fill="white" fill-opacity="0.3"/>
<rect x="226" y="50" width="13" height="8" fill="white" fill-opacity="0.3"/>
<rect width="15" height="13" transform="translate(0 271)" fill="white" fill-opacity="0.7"/>
<rect width="15" height="13" transform="translate(0 286)" fill="white" fill-opacity="0.7"/>
<rect x="1" y="289" width="13" height="8" fill="#007300" fill-opacity="0.3"/>
<rect x="1" y="259" width="13" height="8" fill="white" fill-opacity="0.3"/>
<rect x="226" y="260" width="13" height="8" fill="white" fill-opacity="0.3"/>
<rect x="1" y="244" width="13" height="8" fill="white" fill-opacity="0.3"/>
<rect x="226" y="245" width="13" height="8" fill="white" fill-opacity="0.3"/>
<rect x="154" y="120" width="8" height="29" fill="white" fill-opacity="0.3"/>
<rect x="70" y="14" width="8" height="26" fill="white" fill-opacity="0.3"/>
<rect x="193" y="19" width="8" height="23" fill="white" fill-opacity="0.3"/>
<rect x="1" y="229" width="13" height="8" fill="white" fill-opacity="0.3"/>
<rect x="226" y="230" width="13" height="8" fill="white" fill-opacity="0.3"/>
<rect x="1" y="214" width="13" height="8" fill="white" fill-opacity="0.3"/>
<rect x="226" y="215" width="13" height="8" fill="white" fill-opacity="0.3"/>
<rect x="1" y="199" width="13" height="8" fill="white" fill-opacity="0.3"/>
<rect x="226" y="200" width="13" height="8" fill="white" fill-opacity="0.3"/>
<rect x="1" y="184" width="13" height="8" fill="white" fill-opacity="0.3"/>
<rect x="226" y="185" width="13" height="8" fill="white" fill-opacity="0.3"/>
<rect x="1" y="169" width="13" height="8" fill="white" fill-opacity="0.3"/>
<rect x="226" y="170" width="13" height="8" fill="white" fill-opacity="0.3"/>
<rect x="1" y="154" width="13" height="8" fill="white" fill-opacity="0.3"/>
<rect x="226" y="155" width="13" height="8" fill="white" fill-opacity="0.3"/>
<rect x="1" y="139" width="13" height="8" fill="white" fill-opacity="0.3"/>
<rect x="226" y="140" width="13" height="8" fill="white" fill-opacity="0.3"/>
<rect x="1" y="124" width="13" height="8" fill="white" fill-opacity="0.3"/>
<rect x="226" y="125" width="13" height="8" fill="white" fill-opacity="0.3"/>
<rect x="1" y="109" width="13" height="8" fill="white" fill-opacity="0.3"/>
<rect x="226" y="110" width="13" height="8" fill="white" fill-opacity="0.3"/>
<rect x="1" y="94" width="13" height="8" fill="white" fill-opacity="0.3"/>
<rect x="1" y="79" width="13" height="8" fill="white" fill-opacity="0.3"/>
<rect x="226" y="80" width="13" height="8" fill="white" fill-opacity="0.3"/>
<rect width="13" height="18" transform="translate(61 300)" fill="white" fill-opacity="0.7"/>
<rect x="64" y="301" width="8" height="16" fill="#007300" fill-opacity="0.3"/>
<rect width="13" height="18" transform="translate(76 300)" fill="white" fill-opacity="0.7"/>
<rect x="79" y="301" width="8" height="16" fill="#007300" fill-opacity="0.3"/>
<rect width="13" height="18" transform="translate(91 300)" fill="white" fill-opacity="0.7"/>
<rect x="94" y="301" width="8" height="16" fill="#007300" fill-opacity="0.3"/>
<rect width="13" height="18" transform="translate(106 300)" fill="white" fill-opacity="0.7"/>
<rect x="109" y="301" width="8" height="16" fill="#007300" fill-opacity="0.3"/>
<rect width="13" height="18" transform="translate(121 300)" fill="white" fill-opacity="0.7"/>
<rect x="124" y="301" width="8" height="16" fill="#007300" fill-opacity="0.3"/>
<rect width="13" height="18" transform="translate(136 300)" fill="white" fill-opacity="0.7"/>
<rect x="139" y="301" width="8" height="16" fill="#007300" fill-opacity="0.3"/>
<rect width="13" height="18" transform="translate(151 300)" fill="white" fill-opacity="0.7"/>
<rect x="154" y="301" width="8" height="16" fill="#007300" fill-opacity="0.3"/>
<rect width="13" height="18" transform="translate(166 300)" fill="white" fill-opacity="0.7"/>
<rect x="169" y="301" width="8" height="16" fill="#007300" fill-opacity="0.3"/>
<rect width="13" height="18" transform="translate(181 300)" fill="white" fill-opacity="0.7"/>
<rect x="184" y="301" width="8" height="16" fill="#007300" fill-opacity="0.3"/>
<rect width="135" height="15" transform="translate(60 285)" fill="#404040"/>
<rect x="64" y="289" width="7" height="7" fill="#151515"/>
<rect x="79" y="289" width="7" height="7" fill="#151515"/>
<rect x="94" y="289" width="7" height="7" fill="#151515"/>
<rect x="109" y="289" width="7" height="7" fill="#151515"/>
<rect x="124" y="289" width="7" height="7" fill="#151515"/>
<rect x="139" y="289" width="7" height="7" fill="#151515"/>
<rect x="154" y="289" width="7" height="7" fill="#151515"/>
<rect x="169" y="289" width="7" height="7" fill="#151515"/>
<rect x="184" y="289" width="7" height="7" fill="#151515"/>
<circle cx="17" cy="315" r="12" fill="#B8AF82"/>
<circle cx="17" cy="315" r="9" fill="white"/>
<circle cx="17" cy="30" r="12" fill="#B8AF82"/>
<circle cx="17" cy="30" r="9" fill="white"/>
<circle cx="223" cy="30" r="12" fill="#B8AF82"/>
<circle cx="223" cy="30" r="9" fill="white"/>
<rect x="92" y="194" width="44" height="44" rx="4" fill="#1A1A1A"/>
<rect x="45" y="99" width="30" height="20" fill="#1A1A1A"/>
<rect x="118" y="67" width="27" height="60" fill="#1A1A1A"/>
<rect x="164" y="116" width="22" height="33" fill="#C4C4C4"/>
<circle cx="175" cy="133" r="8" fill="#1A1A1A"/>
<rect width="49" height="41" transform="translate(92)" fill="#E6E6E6"/>
<rect x="101" y="6" width="4" height="19" fill="#666666"/>
<rect x="128" y="6" width="4" height="19" fill="#666666"/>
<circle cx="103" cy="12" r="4" fill="#666666"/>
<circle cx="130" cy="12" r="4" fill="#666666"/>
<rect width="17" height="17" transform="translate(215 272)" fill="#CACA9E"/>
<circle cx="223.5" cy="280.5" r="7.5" fill="#B4B4B4"/>
<rect width="38" height="12" transform="translate(166 49)" fill="#151515"/>
<rect width="25" height="12" transform="translate(166 25)" fill="#151515"/>
<rect x="41" y="328" width="169" height="32" fill="white" fill-opacity="0.3"/>
<rect x="41" y="362" width="55" height="8" fill="white" fill-opacity="0.3"/>
<rect x="41" y="372" width="48" height="8" fill="white" fill-opacity="0.3"/>
<rect x="30" y="394" width="186" height="8" fill="white" fill-opacity="0.3"/>
<rect x="30" y="404" width="103" height="8" fill="white" fill-opacity="0.3"/>
<rect x="1" y="274" width="13" height="8" fill="#007300" fill-opacity="0.3"/>
</g>
<defs>
<clipPath id="clip0_6_665">
<rect width="240" height="420" fill="white"/>
</clipPath>
</defs>
</svg>
