<svg width="24" height="24" viewBox="0 0 24 24" fill="none" xmlns="http://www.w3.org/2000/svg">
<mask id="mask0_7739_29480" style="mask-type:alpha" maskUnits="userSpaceOnUse" x="0" y="0" width="24" height="24">
<rect width="24" height="24" fill="#D9D9D9"/>
</mask>
<g mask="url(#mask0_7739_29480)">
<path d="M5.00195 20.502C4.86029 20.502 4.74154 20.454 4.6457 20.3582C4.54987 20.2624 4.50195 20.1436 4.50195 20.002V18.8866H3.50195V15.3866C3.50195 15.2449 3.54987 15.1261 3.6457 15.0303C3.74154 14.9345 3.86029 14.8866 4.00195 14.8866H5.50195V7.00195C5.50195 6.03015 5.84234 5.20387 6.5231 4.5231C7.20387 3.84234 8.03015 3.50195 9.00195 3.50195C9.97375 3.50195 10.8 3.84234 11.4808 4.5231C12.1616 5.20387 12.502 6.03015 12.502 7.00195V17.002C12.502 17.7058 12.7427 18.2984 13.2241 18.7798C13.7055 19.2612 14.2981 19.502 15.002 19.502C15.7058 19.502 16.2984 19.2612 16.7798 18.7798C17.2612 18.2984 17.502 17.7058 17.502 17.002V9.11735H16.002C15.8603 9.11735 15.7415 9.06944 15.6457 8.9736C15.5499 8.87777 15.502 8.75901 15.502 8.61733V5.11733H16.502V4.00195C16.502 3.86029 16.5499 3.74154 16.6457 3.6457C16.7415 3.54987 16.8603 3.50195 17.002 3.50195H19.002C19.1436 3.50195 19.2624 3.54987 19.3582 3.6457C19.454 3.74154 19.502 3.86029 19.502 4.00195V5.11733H20.502V8.61733C20.502 8.75901 20.454 8.87777 20.3582 8.9736C20.2624 9.06944 20.1436 9.11735 20.002 9.11735H18.502V17.002C18.502 17.9738 18.1616 18.8 17.4808 19.4808C16.8 20.1616 15.9738 20.502 15.002 20.502C14.0302 20.502 13.2039 20.1616 12.5231 19.4808C11.8423 18.8 11.502 17.9738 11.502 17.002V7.00195C11.502 6.2981 11.2612 5.70548 10.7798 5.22408C10.2984 4.74266 9.7058 4.50195 9.00195 4.50195C8.2981 4.50195 7.70548 4.74266 7.22408 5.22408C6.74266 5.70548 6.50195 6.2981 6.50195 7.00195V14.8866H8.00195C8.14362 14.8866 8.26237 14.9345 8.3582 15.0303C8.45404 15.1261 8.50195 15.2449 8.50195 15.3866V18.8866H7.50195V20.002C7.50195 20.1436 7.45404 20.2624 7.3582 20.3582C7.26237 20.454 7.14362 20.502 7.00195 20.502H5.00195Z" fill="#1C1B1F" fill-opacity="0.8"/>
</g>
</svg>
