<svg width="900" height="60" viewBox="0 0 900 60" fill="none" xmlns="http://www.w3.org/2000/svg">
<g clip-path="url(#clip0_8822_30586)">
<rect x="1" y="1" width="58" height="58" rx="29" fill="#FFC700" fill-opacity="0.07"/>
<rect x="1" y="1" width="58" height="58" rx="29" stroke="#FFC727" stroke-width="2"/>
<path d="M38.7948 34.7627C40.6149 27.452 36.1638 20.0501 28.8531 18.23C21.5424 16.4099 14.1405 20.861 12.3204 28.1717C10.5004 35.4824 14.9514 42.8844 22.2621 44.7044C29.5728 46.5245 36.9748 42.0734 38.7948 34.7627Z" fill="#EBEBEB"/>
<path d="M35.6486 33.9876C37.0456 28.4092 33.656 22.7545 28.0777 21.3575C22.4993 19.9604 16.8446 23.35 15.4476 28.9284C14.0505 34.5068 17.4401 40.1615 23.0185 41.5585C28.5969 42.9556 34.2515 39.5659 35.6486 33.9876Z" fill="white"/>
<path d="M32.7722 33.2841C33.7769 29.2992 31.3609 25.2543 27.3759 24.2497C23.391 23.2451 19.3462 25.6611 18.3415 29.646C17.3369 33.6309 19.7529 37.6758 23.7378 38.6804C27.7227 39.685 31.7676 37.269 32.7722 33.2841Z" fill="#EBEBEB"/>
<path d="M29.5383 32.4725C30.097 30.271 28.7653 28.0334 26.5638 27.4747C24.3623 26.9159 22.1247 28.2477 21.5659 30.4492C21.0072 32.6507 22.339 34.8883 24.5405 35.447C26.742 36.0058 28.9796 34.674 29.5383 32.4725Z" fill="white"/>
<path d="M27.3601 31.9255C27.614 30.93 27.0129 29.9171 26.0173 29.6632C25.0218 29.4092 24.0089 30.0104 23.755 31.0059C23.501 32.0014 24.1022 33.0143 25.0977 33.2683C26.0933 33.5222 27.1061 32.921 27.3601 31.9255Z" fill="#EBEBEB"/>
<path d="M42.066 14.5728L26.4401 30.1987L26.8157 30.5743L42.4416 14.9484L42.066 14.5728Z" fill="#C7C7C7"/>
<path d="M27.6968 30.7898L25.9349 31.2618L26.4054 29.4999L27.6968 30.7898Z" fill="#A6A6A6"/>
<path d="M44.4347 13.4967L41.9666 16.4584L40.03 17.1666L40.6202 14.8451L43.0903 11.881L42.4982 14.2049L44.4347 13.4967Z" fill="#A6A6A6"/>
<path d="M52.9912 41.755C53.5657 40.9017 53.8762 39.8982 53.8842 38.8695C53.8842 35.2139 49.8691 32.2518 44.9215 32.2518C39.9739 32.2518 35.9657 35.2139 35.9657 38.8695C35.9657 42.5251 39.9739 45.4872 44.9215 45.4872C47.3222 45.4872 49.4956 44.7913 51.1031 43.6571L54.1904 44.4411L52.9912 41.755Z" fill="#FFC727"/>
<path d="M41.6998 38.8696C41.6998 39.0531 41.6453 39.2325 41.5434 39.3851C41.4414 39.5376 41.2965 39.6566 41.127 39.7268C40.9575 39.797 40.7709 39.8154 40.5909 39.7796C40.4109 39.7438 40.2456 39.6554 40.1159 39.5257C39.9861 39.3959 39.8977 39.2306 39.8619 39.0506C39.8261 38.8706 39.8445 38.6841 39.9147 38.5145C39.985 38.345 40.1039 38.2001 40.2565 38.0981C40.409 37.9962 40.5884 37.9418 40.7719 37.9418C41.018 37.9418 41.254 38.0395 41.428 38.2135C41.602 38.3875 41.6998 38.6235 41.6998 38.8696Z" fill="#263238"/>
<path d="M44.9239 39.7999C45.4376 39.7999 45.8541 39.3834 45.8541 38.8697C45.8541 38.356 45.4376 37.9396 44.9239 37.9396C44.4102 37.9396 43.9938 38.356 43.9938 38.8697C43.9938 39.3834 44.4102 39.7999 44.9239 39.7999Z" fill="#263238"/>
<path d="M50.0037 38.8696C50.0037 39.0531 49.9493 39.2325 49.8473 39.3851C49.7454 39.5376 49.6005 39.6566 49.431 39.7268C49.2614 39.797 49.0749 39.8154 48.8949 39.7796C48.7149 39.7438 48.5496 39.6554 48.4198 39.5257C48.2901 39.3959 48.2017 39.2306 48.1659 39.0506C48.1301 38.8706 48.1485 38.6841 48.2187 38.5145C48.2889 38.345 48.4078 38.2001 48.5604 38.0981C48.713 37.9962 48.8924 37.9418 49.0759 37.9418C49.322 37.9418 49.558 38.0395 49.732 38.2135C49.906 38.3875 50.0037 38.6235 50.0037 38.8696Z" fill="#263238"/>
<path d="M20.6473 21.9021C20.1301 26.228 17.3489 27.0051 16.8804 28.1649C16.6439 28.8908 16.4488 29.6296 16.2959 30.3777H11.7727C11.6227 29.6292 11.4282 28.8903 11.1905 28.1649C10.7266 27.0051 7.94315 26.2072 7.45604 21.8766C7.12899 19.0328 9.27922 14.5468 14.0644 14.5584C18.8497 14.57 20.9837 19.0606 20.6473 21.9021Z" fill="#FFC727"/>
<path d="M11.7115 23.4543L11.4834 23.4963L12.8082 30.6936L13.0364 30.6516L11.7115 23.4543Z" fill="white"/>
<path d="M16.3872 23.4626L15.0297 30.6538L15.2576 30.6968L16.6151 23.5057L16.3872 23.4626Z" fill="white"/>
<path d="M14.0482 25.8727C13.6933 25.8727 13.3361 25.5897 13.0438 25.0771C13.0299 25.0539 13.016 25.0307 13.0044 25.0075C12.9578 25.0674 12.8994 25.1171 12.8327 25.1534C12.7661 25.1897 12.6926 25.2119 12.617 25.2186C11.9397 25.2186 11.6707 23.8269 11.6614 23.7596L11.775 23.7387C11.775 23.7526 12.0348 25.1003 12.617 25.1026C12.6834 25.0933 12.747 25.0702 12.8038 25.0346C12.8605 24.999 12.9091 24.9518 12.9464 24.8962C12.6611 24.307 12.5011 23.5369 12.7145 23.1867C12.7449 23.1304 12.7902 23.0836 12.8454 23.0513C12.9006 23.019 12.9636 23.0025 13.0276 23.0034C13.1035 23.001 13.1786 23.0196 13.2445 23.0573C13.3104 23.095 13.3646 23.1502 13.401 23.2168C13.6052 23.5717 13.4544 24.3047 13.1853 24.7663C13.1568 24.8157 13.1259 24.8637 13.0925 24.9101C13.1111 24.9472 13.132 24.9843 13.1528 25.0191C13.3106 25.2951 13.6376 25.7567 14.0575 25.7567C14.3381 25.7567 14.6188 25.5248 14.8508 25.1374C14.8711 25.1044 14.8897 25.0703 14.9064 25.0353C14.8462 24.9635 14.7933 24.8858 14.7487 24.8034C14.468 24.3163 14.4124 23.5949 14.6258 23.2284C14.6597 23.1599 14.7119 23.102 14.7765 23.0611C14.8412 23.0202 14.9158 22.9978 14.9923 22.9965C15.0515 22.9966 15.1095 23.0131 15.1598 23.0442C15.2102 23.0754 15.251 23.1199 15.2776 23.1727C15.477 23.5207 15.3657 24.3488 15.0456 25.0006C15.1065 25.0614 15.1788 25.1096 15.2585 25.1422C15.3381 25.1749 15.4234 25.1914 15.5095 25.1908C15.9224 25.1908 16.2912 24.2049 16.3979 23.8245L16.5092 23.8547C16.493 23.915 16.094 25.3067 15.5095 25.3067C15.3223 25.3063 15.142 25.236 15.0038 25.1096L14.9621 25.1838C14.7626 25.5039 14.4611 25.8727 14.0482 25.8727ZM14.976 23.124C14.92 23.125 14.8654 23.1416 14.8182 23.1719C14.7711 23.2023 14.7334 23.2451 14.7093 23.2957C14.5191 23.6251 14.5771 24.307 14.8322 24.7547C14.8655 24.8139 14.9044 24.8698 14.9482 24.9217C15.2312 24.314 15.3379 23.5508 15.1616 23.2423C15.145 23.2071 15.1187 23.1773 15.0859 23.1564C15.053 23.1355 15.015 23.1242 14.976 23.124ZM13.009 23.124C12.9653 23.1226 12.922 23.1337 12.8842 23.1558C12.8465 23.178 12.8158 23.2104 12.7956 23.2493C12.6356 23.5276 12.74 24.2049 13.016 24.7941L13.067 24.7129C13.3129 24.2884 13.4613 23.5949 13.2827 23.2794C13.2565 23.2303 13.2168 23.1896 13.1684 23.1621C13.1199 23.1346 13.0647 23.1214 13.009 23.124Z" fill="white"/>
<path d="M16.8235 30.1971L11.245 30.1835L11.2423 31.2737L16.8208 31.2873L16.8235 30.1971Z" fill="#455A64"/>
<path d="M16.8182 31.4636L11.2397 31.45L11.2371 32.5401L16.8156 32.5538L16.8182 31.4636Z" fill="#455A64"/>
<path d="M16.8213 32.7199L11.2428 32.7073L11.2403 33.7975L16.8188 33.8101L16.8213 32.7199Z" fill="#455A64"/>
<path d="M14.2802 11C14.4257 11.5932 14.4162 12.2139 14.2523 12.8023C14.1069 12.2091 14.1165 11.5884 14.2802 11Z" fill="#263238"/>
<path d="M9.22119 12.2385C9.43587 12.4545 9.61793 12.7007 9.76164 12.9692C9.91415 13.2331 10.0282 13.5174 10.1003 13.8135C9.88845 13.5984 9.70876 13.3539 9.5668 13.0875C9.41109 12.8227 9.29467 12.5368 9.22119 12.2385Z" fill="#263238"/>
<path d="M5.4613 15.8386C6.04862 16.0088 6.58172 16.3285 7.00845 16.7664C6.7142 16.6854 6.43303 16.5627 6.17341 16.4023C5.91019 16.2496 5.67035 16.0598 5.4613 15.8386Z" fill="#263238"/>
<path d="M4 20.8347C4.59321 20.6893 5.21386 20.6989 5.80229 20.8626C5.20908 21.008 4.58843 20.9985 4 20.8347Z" fill="#263238"/>
<path d="M5.23865 25.8938C5.45467 25.6791 5.7008 25.497 5.9693 25.3533C6.23263 25.2002 6.51714 25.0868 6.81362 25.017C6.37161 25.4382 5.82958 25.74 5.23865 25.8938Z" fill="#263238"/>
<path d="M22.6537 26.2791C22.0674 26.1066 21.5349 25.7872 21.1066 25.3513C21.6939 25.5215 22.227 25.8412 22.6537 26.2791Z" fill="#263238"/>
<path d="M24.1128 21.2803C23.8176 21.3566 23.513 21.391 23.2082 21.3824C22.9042 21.3836 22.6017 21.3398 22.3105 21.2525C22.6048 21.1751 22.9087 21.1407 23.2128 21.1504C23.5174 21.1515 23.8204 21.1952 24.1128 21.2803Z" fill="#263238"/>
<path d="M22.8764 16.2235C22.6597 16.4367 22.4136 16.618 22.1457 16.7616C21.8823 16.9151 21.5978 17.0292 21.3014 17.1003C21.5179 16.8881 21.764 16.7084 22.032 16.5668C22.2956 16.4126 22.58 16.297 22.8764 16.2235Z" fill="#263238"/>
<path d="M19.2765 12.4613C19.1063 13.0486 18.7866 13.5817 18.3486 14.0084C18.4297 13.7149 18.5524 13.4345 18.7128 13.1757C18.866 12.9122 19.0558 12.6717 19.2765 12.4613Z" fill="#263238"/>
<path d="M60 30H900" stroke="#FFC727" stroke-width="2" stroke-linecap="round"/>
<path d="M77.5117 16.2832H80.4316C80.373 17.2402 80.1094 18.0898 79.6406 18.832C79.1784 19.5742 78.5306 20.1536 77.6973 20.5703C76.8704 20.987 75.8743 21.1953 74.709 21.1953C73.7975 21.1953 72.9805 21.0391 72.2578 20.7266C71.5352 20.4076 70.9167 19.9518 70.4023 19.3594C69.8945 18.7669 69.5072 18.0508 69.2402 17.2109C68.9733 16.3711 68.8398 15.4303 68.8398 14.3887V13.4023C68.8398 12.3607 68.9766 11.4199 69.25 10.5801C69.5299 9.73372 69.9271 9.01432 70.4414 8.42188C70.9622 7.82943 71.584 7.3737 72.3066 7.05469C73.0293 6.73568 73.8366 6.57617 74.7285 6.57617C75.9134 6.57617 76.9128 6.79102 77.7266 7.2207C78.5469 7.65039 79.1816 8.24284 79.6309 8.99805C80.0866 9.75326 80.36 10.6126 80.4512 11.5762H77.5215C77.4889 11.0033 77.375 10.5182 77.1797 10.1211C76.9844 9.71745 76.6882 9.41471 76.291 9.21289C75.9004 9.00456 75.3796 8.90039 74.7285 8.90039C74.2402 8.90039 73.8138 8.99154 73.4492 9.17383C73.0846 9.35612 72.7786 9.63281 72.5312 10.0039C72.2839 10.375 72.0983 10.8438 71.9746 11.4102C71.8574 11.9701 71.7988 12.6276 71.7988 13.3828V14.3887C71.7988 15.1243 71.8542 15.7721 71.9648 16.332C72.0755 16.8854 72.2448 17.3542 72.4727 17.7383C72.707 18.1159 73.0065 18.4023 73.3711 18.5977C73.7422 18.7865 74.1882 18.8809 74.709 18.8809C75.321 18.8809 75.8255 18.7832 76.2227 18.5879C76.6198 18.3926 76.9225 18.1029 77.1309 17.7188C77.3457 17.3346 77.4727 16.8561 77.5117 16.2832ZM81.7305 15.8242V15.6191C81.7305 14.8444 81.8411 14.1315 82.0625 13.4805C82.2839 12.8229 82.6061 12.2533 83.0293 11.7715C83.4525 11.2897 83.9733 10.9154 84.5918 10.6484C85.2103 10.375 85.9199 10.2383 86.7207 10.2383C87.5215 10.2383 88.2344 10.375 88.8594 10.6484C89.4844 10.9154 90.0085 11.2897 90.4316 11.7715C90.8613 12.2533 91.1868 12.8229 91.4082 13.4805C91.6296 14.1315 91.7402 14.8444 91.7402 15.6191V15.8242C91.7402 16.5924 91.6296 17.3053 91.4082 17.9629C91.1868 18.6139 90.8613 19.1836 90.4316 19.6719C90.0085 20.1536 89.4876 20.528 88.8691 20.7949C88.2507 21.0618 87.541 21.1953 86.7402 21.1953C85.9395 21.1953 85.2266 21.0618 84.6016 20.7949C83.9831 20.528 83.459 20.1536 83.0293 19.6719C82.6061 19.1836 82.2839 18.6139 82.0625 17.9629C81.8411 17.3053 81.7305 16.5924 81.7305 15.8242ZM84.543 15.6191V15.8242C84.543 16.2669 84.582 16.6803 84.6602 17.0645C84.7383 17.4486 84.862 17.7871 85.0312 18.0801C85.207 18.3665 85.4349 18.5911 85.7148 18.7539C85.9948 18.9167 86.3366 18.998 86.7402 18.998C87.1309 18.998 87.4661 18.9167 87.7461 18.7539C88.026 18.5911 88.2507 18.3665 88.4199 18.0801C88.5892 17.7871 88.7129 17.4486 88.791 17.0645C88.8757 16.6803 88.918 16.2669 88.918 15.8242V15.6191C88.918 15.1895 88.8757 14.7858 88.791 14.4082C88.7129 14.0241 88.5859 13.6855 88.4102 13.3926C88.2409 13.0931 88.0163 12.8587 87.7363 12.6895C87.4564 12.5202 87.1178 12.4355 86.7207 12.4355C86.3236 12.4355 85.985 12.5202 85.7051 12.6895C85.4316 12.8587 85.207 13.0931 85.0312 13.3926C84.862 13.6855 84.7383 14.0241 84.6602 14.4082C84.582 14.7858 84.543 15.1895 84.543 15.6191ZM99.0156 13.793V16H93.498V13.793H99.0156ZM107.6 18.6953V6H110.432V21H107.883L107.6 18.6953ZM100.92 15.8438V15.6387C100.92 14.8314 101.011 14.099 101.193 13.4414C101.376 12.7773 101.643 12.2077 101.994 11.7324C102.346 11.2572 102.779 10.8893 103.293 10.6289C103.807 10.3685 104.393 10.2383 105.051 10.2383C105.669 10.2383 106.21 10.3685 106.672 10.6289C107.141 10.8893 107.538 11.2604 107.863 11.7422C108.195 12.2174 108.462 12.7806 108.664 13.4316C108.866 14.0762 109.012 14.7826 109.104 15.5508V16C109.012 16.7357 108.866 17.4193 108.664 18.0508C108.462 18.6823 108.195 19.2357 107.863 19.7109C107.538 20.1797 107.141 20.5443 106.672 20.8047C106.203 21.0651 105.656 21.1953 105.031 21.1953C104.374 21.1953 103.788 21.0618 103.273 20.7949C102.766 20.528 102.336 20.1536 101.984 19.6719C101.639 19.1901 101.376 18.6237 101.193 17.9727C101.011 17.3216 100.92 16.612 100.92 15.8438ZM103.732 15.6387V15.8438C103.732 16.2799 103.765 16.6868 103.83 17.0645C103.902 17.4421 104.016 17.7773 104.172 18.0703C104.335 18.3568 104.543 18.5814 104.797 18.7441C105.057 18.9004 105.373 18.9785 105.744 18.9785C106.226 18.9785 106.623 18.8711 106.936 18.6562C107.248 18.4349 107.486 18.1322 107.648 17.748C107.818 17.3639 107.915 16.9212 107.941 16.4199V15.1406C107.922 14.7305 107.863 14.3626 107.766 14.0371C107.674 13.7051 107.538 13.4219 107.355 13.1875C107.18 12.9531 106.958 12.7708 106.691 12.6406C106.431 12.5104 106.122 12.4453 105.764 12.4453C105.399 12.4453 105.087 12.5299 104.826 12.6992C104.566 12.862 104.354 13.0866 104.191 13.373C104.035 13.6595 103.918 13.998 103.84 14.3887C103.768 14.7728 103.732 15.1895 103.732 15.6387ZM117.492 21.1953C116.672 21.1953 115.936 21.0651 115.285 20.8047C114.634 20.5378 114.081 20.1699 113.625 19.7012C113.176 19.2324 112.831 18.6888 112.59 18.0703C112.349 17.4453 112.229 16.7812 112.229 16.0781V15.6875C112.229 14.8867 112.342 14.1543 112.57 13.4902C112.798 12.8262 113.124 12.25 113.547 11.7617C113.977 11.2734 114.497 10.8991 115.109 10.6387C115.721 10.3717 116.411 10.2383 117.18 10.2383C117.928 10.2383 118.592 10.362 119.172 10.6094C119.751 10.8568 120.236 11.2083 120.627 11.6641C121.024 12.1198 121.324 12.6667 121.525 13.3047C121.727 13.9362 121.828 14.6393 121.828 15.4141V16.5859H113.43V14.7109H119.064V14.4961C119.064 14.1055 118.993 13.7572 118.85 13.4512C118.713 13.1387 118.505 12.8913 118.225 12.709C117.945 12.5267 117.587 12.4355 117.15 12.4355C116.779 12.4355 116.46 12.5169 116.193 12.6797C115.926 12.8424 115.708 13.0703 115.539 13.3633C115.376 13.6562 115.253 14.0013 115.168 14.3984C115.09 14.7891 115.051 15.2188 115.051 15.6875V16.0781C115.051 16.5013 115.109 16.8919 115.227 17.25C115.35 17.6081 115.523 17.9173 115.744 18.1777C115.972 18.4382 116.245 18.64 116.564 18.7832C116.89 18.9264 117.258 18.998 117.668 18.998C118.176 18.998 118.648 18.9004 119.084 18.7051C119.527 18.5033 119.908 18.2005 120.227 17.7969L121.594 19.2812C121.372 19.6003 121.07 19.9062 120.686 20.1992C120.308 20.4922 119.852 20.7331 119.318 20.9219C118.785 21.1042 118.176 21.1953 117.492 21.1953ZM129.143 18.0801C129.143 17.8783 129.084 17.696 128.967 17.5332C128.85 17.3704 128.632 17.2207 128.312 17.084C128 16.9408 127.548 16.8105 126.955 16.6934C126.421 16.5762 125.923 16.4297 125.461 16.2539C125.005 16.0716 124.608 15.8535 124.27 15.5996C123.938 15.3457 123.677 15.0462 123.488 14.7012C123.299 14.3496 123.205 13.9492 123.205 13.5C123.205 13.0573 123.299 12.6406 123.488 12.25C123.684 11.8594 123.96 11.5143 124.318 11.2148C124.683 10.9089 125.126 10.6712 125.646 10.502C126.174 10.3262 126.766 10.2383 127.424 10.2383C128.342 10.2383 129.13 10.3848 129.787 10.6777C130.451 10.9707 130.959 11.3743 131.311 11.8887C131.669 12.3965 131.848 12.9759 131.848 13.627H129.035C129.035 13.3535 128.977 13.1094 128.859 12.8945C128.749 12.6732 128.573 12.5007 128.332 12.377C128.098 12.2467 127.792 12.1816 127.414 12.1816C127.102 12.1816 126.831 12.237 126.604 12.3477C126.376 12.4518 126.2 12.5951 126.076 12.7773C125.959 12.9531 125.9 13.1484 125.9 13.3633C125.9 13.526 125.933 13.6725 125.998 13.8027C126.07 13.9264 126.184 14.0404 126.34 14.1445C126.496 14.2487 126.698 14.3464 126.945 14.4375C127.199 14.5221 127.512 14.6003 127.883 14.6719C128.645 14.8281 129.325 15.0332 129.924 15.2871C130.523 15.5345 130.998 15.873 131.35 16.3027C131.701 16.7259 131.877 17.2826 131.877 17.9727C131.877 18.4414 131.773 18.8711 131.564 19.2617C131.356 19.6523 131.057 19.9941 130.666 20.2871C130.275 20.5736 129.807 20.7982 129.26 20.9609C128.719 21.1172 128.111 21.1953 127.434 21.1953C126.451 21.1953 125.617 21.0195 124.934 20.668C124.257 20.3164 123.742 19.8704 123.391 19.3301C123.046 18.7832 122.873 18.2233 122.873 17.6504H125.539C125.552 18.0345 125.65 18.3438 125.832 18.5781C126.021 18.8125 126.258 18.9818 126.545 19.0859C126.838 19.1901 127.154 19.2422 127.492 19.2422C127.857 19.2422 128.16 19.1934 128.4 19.0957C128.641 18.9915 128.824 18.8548 128.947 18.6855C129.077 18.5098 129.143 18.3079 129.143 18.0801ZM136.672 10.4336V21H133.85V10.4336H136.672ZM133.674 7.67969C133.674 7.26953 133.817 6.93099 134.104 6.66406C134.39 6.39714 134.774 6.26367 135.256 6.26367C135.731 6.26367 136.112 6.39714 136.398 6.66406C136.691 6.93099 136.838 7.26953 136.838 7.67969C136.838 8.08984 136.691 8.42839 136.398 8.69531C136.112 8.96224 135.731 9.0957 135.256 9.0957C134.774 9.0957 134.39 8.96224 134.104 8.69531C133.817 8.42839 133.674 8.08984 133.674 7.67969ZM145.686 10.4336H148.234V20.6484C148.234 21.612 148.02 22.429 147.59 23.0996C147.167 23.7767 146.574 24.2878 145.812 24.6328C145.051 24.9844 144.165 25.1602 143.156 25.1602C142.714 25.1602 142.245 25.1016 141.75 24.9844C141.262 24.8672 140.793 24.6849 140.344 24.4375C139.901 24.1901 139.53 23.8776 139.23 23.5L140.471 21.8398C140.796 22.2174 141.174 22.5104 141.604 22.7188C142.033 22.9336 142.508 23.041 143.029 23.041C143.537 23.041 143.967 22.9466 144.318 22.7578C144.67 22.5755 144.94 22.3053 145.129 21.9473C145.318 21.5957 145.412 21.1693 145.412 20.668V12.875L145.686 10.4336ZM138.576 15.8438V15.6387C138.576 14.8314 138.674 14.099 138.869 13.4414C139.071 12.7773 139.354 12.2077 139.719 11.7324C140.09 11.2572 140.539 10.8893 141.066 10.6289C141.594 10.3685 142.189 10.2383 142.854 10.2383C143.557 10.2383 144.146 10.3685 144.621 10.6289C145.096 10.8893 145.487 11.2604 145.793 11.7422C146.099 12.2174 146.337 12.7806 146.506 13.4316C146.682 14.0762 146.818 14.7826 146.916 15.5508V16C146.818 16.7357 146.672 17.4193 146.477 18.0508C146.281 18.6823 146.024 19.2357 145.705 19.7109C145.386 20.1797 144.989 20.5443 144.514 20.8047C144.045 21.0651 143.485 21.1953 142.834 21.1953C142.183 21.1953 141.594 21.0618 141.066 20.7949C140.546 20.528 140.1 20.1536 139.729 19.6719C139.357 19.1901 139.071 18.6237 138.869 17.9727C138.674 17.3216 138.576 16.612 138.576 15.8438ZM141.389 15.6387V15.8438C141.389 16.2799 141.431 16.6868 141.516 17.0645C141.6 17.4421 141.73 17.7773 141.906 18.0703C142.089 18.3568 142.313 18.5814 142.58 18.7441C142.854 18.9004 143.176 18.9785 143.547 18.9785C144.061 18.9785 144.481 18.8711 144.807 18.6562C145.132 18.4349 145.376 18.1322 145.539 17.748C145.702 17.3639 145.796 16.9212 145.822 16.4199V15.1406C145.809 14.7305 145.754 14.3626 145.656 14.0371C145.559 13.7051 145.422 13.4219 145.246 13.1875C145.07 12.9531 144.842 12.7708 144.562 12.6406C144.283 12.5104 143.951 12.4453 143.566 12.4453C143.195 12.4453 142.873 12.5299 142.6 12.6992C142.333 12.862 142.108 13.0866 141.926 13.373C141.75 13.6595 141.617 13.998 141.525 14.3887C141.434 14.7728 141.389 15.1895 141.389 15.6387ZM153.176 12.6895V21H150.363V10.4336H153L153.176 12.6895ZM152.766 15.3457H152.004C152.004 14.5645 152.105 13.8613 152.307 13.2363C152.508 12.6048 152.792 12.0677 153.156 11.625C153.521 11.1758 153.954 10.834 154.455 10.5996C154.963 10.3587 155.529 10.2383 156.154 10.2383C156.649 10.2383 157.102 10.3099 157.512 10.4531C157.922 10.5964 158.273 10.8242 158.566 11.1367C158.866 11.4492 159.094 11.8626 159.25 12.377C159.413 12.8913 159.494 13.5195 159.494 14.2617V21H156.662V14.252C156.662 13.7832 156.597 13.4186 156.467 13.1582C156.337 12.8978 156.145 12.7155 155.891 12.6113C155.643 12.5007 155.337 12.4453 154.973 12.4453C154.595 12.4453 154.266 12.5202 153.986 12.6699C153.713 12.8197 153.485 13.028 153.303 13.2949C153.127 13.5553 152.993 13.8613 152.902 14.2129C152.811 14.5645 152.766 14.9421 152.766 15.3457Z" fill="#FFC727"/>
</g>
<defs>
<clipPath id="clip0_8822_30586">
<rect width="900" height="60" fill="white"/>
</clipPath>
</defs>
</svg>
