<svg width="1201" height="60" viewBox="0 0 1201 60" fill="none" xmlns="http://www.w3.org/2000/svg">
<g clip-path="url(#clip0_8822_30586)">
<rect x="1.5" y="1" width="58" height="58" rx="29" fill="#FFC700" fill-opacity="0.07"/>
<rect x="1.5" y="1" width="58" height="58" rx="29" stroke="#FFC727" stroke-width="2"/>
<path d="M39.2949 34.7627C41.1149 27.452 36.6639 20.0501 29.3532 18.23C22.0424 16.4099 14.6405 20.861 12.8204 28.1717C11.0004 35.4824 15.4514 42.8844 22.7622 44.7044C30.0729 46.5245 37.4748 42.0734 39.2949 34.7627Z" fill="#EBEBEB"/>
<path d="M36.1485 33.9874C37.5456 28.4091 34.156 22.7544 28.5776 21.3573C22.9992 19.9603 17.3445 23.3499 15.9475 28.9283C14.5504 34.5066 17.9401 40.1613 23.5184 41.5584C29.0968 42.9554 34.7515 39.5658 36.1485 33.9874Z" fill="white"/>
<path d="M33.2722 33.2841C34.2769 29.2992 31.8609 25.2543 27.876 24.2497C23.891 23.2451 19.8462 25.6611 18.8416 29.646C17.8369 33.6309 20.2529 37.6758 24.2378 38.6804C28.2228 39.685 32.2676 37.269 33.2722 33.2841Z" fill="#EBEBEB"/>
<path d="M30.0383 32.4726C30.597 30.2711 29.2653 28.0335 27.0637 27.4748C24.8622 26.9161 22.6246 28.2478 22.0659 30.4493C21.5072 32.6509 22.839 34.8885 25.0405 35.4472C27.242 36.0059 29.4796 34.6741 30.0383 32.4726Z" fill="white"/>
<path d="M27.86 31.9256C28.114 30.9301 27.5128 29.9172 26.5173 29.6633C25.5217 29.4093 24.5088 30.0105 24.2549 31.006C24.001 32.0016 24.6021 33.0145 25.5977 33.2684C26.5932 33.5223 27.6061 32.9212 27.86 31.9256Z" fill="#EBEBEB"/>
<path d="M42.566 14.5728L26.9401 30.1987L27.3157 30.5743L42.9416 14.9484L42.566 14.5728Z" fill="#C7C7C7"/>
<path d="M28.1969 30.7897L26.435 31.2616L26.9055 29.4998L28.1969 30.7897Z" fill="#A6A6A6"/>
<path d="M44.9348 13.4966L42.4667 16.4583L40.5301 17.1665L41.1203 14.845L43.5903 11.8809L42.9982 14.2048L44.9348 13.4966Z" fill="#A6A6A6"/>
<path d="M53.4912 41.7552C54.0656 40.9018 54.3762 39.8983 54.3842 38.8696C54.3842 35.214 50.3691 32.252 45.4215 32.252C40.4739 32.252 36.4657 35.214 36.4657 38.8696C36.4657 42.5252 40.4739 45.4873 45.4215 45.4873C47.8222 45.4873 49.9956 44.7914 51.6031 43.6572L54.6904 44.4412L53.4912 41.7552Z" fill="#FFC727"/>
<path d="M42.1998 38.8697C42.1998 39.0532 42.1453 39.2326 42.0434 39.3852C41.9414 39.5378 41.7965 39.6567 41.627 39.7269C41.4575 39.7971 41.2709 39.8155 41.0909 39.7797C40.9109 39.7439 40.7456 39.6555 40.6159 39.5258C40.4861 39.396 40.3977 39.2307 40.3619 39.0507C40.3261 38.8707 40.3445 38.6842 40.4147 38.5147C40.485 38.3451 40.6039 38.2002 40.7565 38.0983C40.909 37.9963 41.0884 37.9419 41.2719 37.9419C41.518 37.9419 41.754 38.0396 41.928 38.2136C42.102 38.3876 42.1998 38.6236 42.1998 38.8697Z" fill="#263238"/>
<path d="M45.4238 39.8C45.9375 39.8 46.354 39.3835 46.354 38.8698C46.354 38.3561 45.9375 37.9397 45.4238 37.9397C44.9101 37.9397 44.4937 38.3561 44.4937 38.8698C44.4937 39.3835 44.9101 39.8 45.4238 39.8Z" fill="#263238"/>
<path d="M50.5036 38.8697C50.5036 39.0532 50.4492 39.2326 50.3473 39.3852C50.2453 39.5378 50.1004 39.6567 49.9309 39.7269C49.7613 39.7971 49.5748 39.8155 49.3948 39.7797C49.2148 39.7439 49.0495 39.6555 48.9197 39.5258C48.79 39.396 48.7016 39.2307 48.6658 39.0507C48.63 38.8707 48.6484 38.6842 48.7186 38.5147C48.7888 38.3451 48.9078 38.2002 49.0603 38.0983C49.2129 37.9963 49.3923 37.9419 49.5758 37.9419C49.8219 37.9419 50.0579 38.0396 50.2319 38.2136C50.4059 38.3876 50.5036 38.6236 50.5036 38.8697Z" fill="#263238"/>
<path d="M21.1473 21.9021C20.63 26.228 17.8489 27.0051 17.3803 28.1649C17.1439 28.8908 16.9487 29.6296 16.7958 30.3777H12.2727C12.1226 29.6292 11.9282 28.8903 11.6905 28.1649C11.2266 27.0051 8.44312 26.2072 7.95601 21.8766C7.62896 19.0328 9.77919 14.5468 14.5644 14.5584C19.3496 14.57 21.4836 19.0606 21.1473 21.9021Z" fill="#FFC727"/>
<path d="M12.2115 23.4543L11.9834 23.4963L13.3082 30.6936L13.5363 30.6516L12.2115 23.4543Z" fill="white"/>
<path d="M16.8871 23.4626L15.5296 30.6538L15.7576 30.6968L17.115 23.5057L16.8871 23.4626Z" fill="white"/>
<path d="M14.5482 25.8726C14.1933 25.8726 13.8361 25.5896 13.5438 25.077C13.5299 25.0538 13.516 25.0306 13.5044 25.0074C13.4578 25.0673 13.3993 25.117 13.3327 25.1533C13.266 25.1896 13.1926 25.2118 13.117 25.2185C12.4397 25.2185 12.1706 23.8267 12.1613 23.7595L12.275 23.7386C12.275 23.7525 12.5348 25.1002 13.117 25.1025C13.1833 25.0932 13.247 25.07 13.3038 25.0345C13.3605 24.9989 13.4091 24.9517 13.4464 24.8961C13.1611 24.3069 13.001 23.5368 13.2144 23.1865C13.2449 23.1303 13.2902 23.0835 13.3454 23.0512C13.4006 23.0189 13.4636 23.0023 13.5276 23.0033C13.6035 23.0009 13.6785 23.0195 13.7445 23.0572C13.8104 23.0949 13.8646 23.1501 13.901 23.2167C14.1051 23.5716 13.9544 24.3046 13.6853 24.7662C13.6568 24.8156 13.6258 24.8636 13.5925 24.91C13.6111 24.9471 13.6319 24.9842 13.6528 25.019C13.8105 25.295 14.1376 25.7566 14.5574 25.7566C14.8381 25.7566 15.1188 25.5246 15.3507 25.1373C15.3711 25.1043 15.3896 25.0702 15.4064 25.0352C15.3461 24.9634 15.2933 24.8857 15.2487 24.8033C14.968 24.3162 14.9123 23.5948 15.1257 23.2283C15.1597 23.1598 15.2119 23.1019 15.2765 23.061C15.3411 23.0201 15.4157 22.9977 15.4922 22.9963C15.5514 22.9965 15.6094 23.013 15.6598 23.0441C15.7102 23.0752 15.7509 23.1197 15.7775 23.1726C15.977 23.5206 15.8657 24.3486 15.5456 25.0004C15.6064 25.0613 15.6788 25.1094 15.7584 25.1421C15.8381 25.1748 15.9234 25.1913 16.0095 25.1906C16.4224 25.1906 16.7912 24.2048 16.8979 23.8244L17.0092 23.8546C16.993 23.9149 16.594 25.3066 16.0095 25.3066C15.8222 25.3062 15.6419 25.2359 15.5038 25.1094L15.4621 25.1837C15.2626 25.5038 14.961 25.8726 14.5482 25.8726ZM15.476 23.1239C15.42 23.1249 15.3653 23.1415 15.3182 23.1718C15.2711 23.2021 15.2334 23.245 15.2092 23.2956C15.019 23.6249 15.077 24.3069 15.3322 24.7546C15.3655 24.8137 15.4043 24.8697 15.4482 24.9216C15.7311 24.3138 15.8378 23.5507 15.6615 23.2422C15.6449 23.207 15.6187 23.1772 15.5858 23.1563C15.553 23.1353 15.5149 23.1241 15.476 23.1239ZM13.509 23.1239C13.4652 23.1225 13.422 23.1335 13.3842 23.1557C13.3464 23.1779 13.3157 23.2103 13.2956 23.2492C13.1356 23.5275 13.2399 24.2048 13.516 24.794L13.567 24.7128C13.8129 24.2883 13.9613 23.5948 13.7827 23.2793C13.7565 23.2302 13.7168 23.1895 13.6684 23.162C13.6199 23.1345 13.5647 23.1213 13.509 23.1239Z" fill="white"/>
<path d="M17.3236 30.1972L11.7451 30.1836L11.7424 31.2738L17.3209 31.2874L17.3236 30.1972Z" fill="#455A64"/>
<path d="M17.3183 31.4636L11.7398 31.45L11.7371 32.5401L17.3156 32.5538L17.3183 31.4636Z" fill="#455A64"/>
<path d="M17.3213 32.7199L11.7428 32.7073L11.7403 33.7975L17.3188 33.8101L17.3213 32.7199Z" fill="#455A64"/>
<path d="M14.7802 11C14.9257 11.5932 14.9161 12.2139 14.7523 12.8023C14.6069 12.2091 14.6164 11.5884 14.7802 11Z" fill="#263238"/>
<path d="M9.72119 12.2385C9.93587 12.4545 10.1179 12.7007 10.2616 12.9692C10.4141 13.2331 10.5282 13.5174 10.6003 13.8135C10.3884 13.5984 10.2088 13.3539 10.0668 13.0875C9.91109 12.8227 9.79467 12.5368 9.72119 12.2385Z" fill="#263238"/>
<path d="M5.96133 15.8386C6.54865 16.0088 7.08175 16.3285 7.50848 16.7664C7.21424 16.6854 6.93306 16.5627 6.67344 16.4023C6.41022 16.2496 6.17038 16.0598 5.96133 15.8386Z" fill="#263238"/>
<path d="M4.5 20.8349C5.09321 20.6894 5.71386 20.699 6.30229 20.8627C5.70908 21.0082 5.08843 20.9986 4.5 20.8349Z" fill="#263238"/>
<path d="M5.73862 25.8936C5.95464 25.679 6.20077 25.4969 6.46927 25.3532C6.73259 25.2001 7.01711 25.0867 7.31359 25.0168C6.87157 25.4381 6.32955 25.7399 5.73862 25.8936Z" fill="#263238"/>
<path d="M23.1538 26.2791C22.5675 26.1066 22.035 25.7872 21.6066 25.3513C22.1939 25.5215 22.727 25.8412 23.1538 26.2791Z" fill="#263238"/>
<path d="M24.6129 21.2802C24.3176 21.3565 24.0131 21.3909 23.7083 21.3822C23.4043 21.3835 23.1018 21.3397 22.8106 21.2523C23.1049 21.175 23.4088 21.1406 23.7129 21.1503C24.0175 21.1513 24.3204 21.1951 24.6129 21.2802Z" fill="#263238"/>
<path d="M23.3763 16.2236C23.1596 16.4369 22.9136 16.6181 22.6457 16.7618C22.3823 16.9152 22.0978 17.0293 21.8014 17.1004C22.0178 16.8882 22.264 16.7085 22.532 16.5669C22.7956 16.4128 23.0799 16.2971 23.3763 16.2236Z" fill="#263238"/>
<path d="M19.7765 12.4614C19.6064 13.0487 19.2867 13.5818 18.8487 14.0086C18.9298 13.7151 19.0524 13.4347 19.2129 13.1758C19.3661 12.9123 19.5559 12.6718 19.7765 12.4614Z" fill="#263238"/>
<path d="M60.5 30H1200.5" stroke="#FFC727" stroke-width="2" stroke-linecap="round"/>
<path d="M78.0117 16.2832H80.9316C80.873 17.2402 80.6094 18.0898 80.1406 18.832C79.6784 19.5742 79.0306 20.1536 78.1973 20.5703C77.3704 20.987 76.3743 21.1953 75.209 21.1953C74.2975 21.1953 73.4805 21.0391 72.7578 20.7266C72.0352 20.4076 71.4167 19.9518 70.9023 19.3594C70.3945 18.7669 70.0072 18.0508 69.7402 17.2109C69.4733 16.3711 69.3398 15.4303 69.3398 14.3887V13.4023C69.3398 12.3607 69.4766 11.4199 69.75 10.5801C70.0299 9.73372 70.4271 9.01432 70.9414 8.42188C71.4622 7.82943 72.084 7.3737 72.8066 7.05469C73.5293 6.73568 74.3366 6.57617 75.2285 6.57617C76.4134 6.57617 77.4128 6.79102 78.2266 7.2207C79.0469 7.65039 79.6816 8.24284 80.1309 8.99805C80.5866 9.75326 80.86 10.6126 80.9512 11.5762H78.0215C77.9889 11.0033 77.875 10.5182 77.6797 10.1211C77.4844 9.71745 77.1882 9.41471 76.791 9.21289C76.4004 9.00456 75.8796 8.90039 75.2285 8.90039C74.7402 8.90039 74.3138 8.99154 73.9492 9.17383C73.5846 9.35612 73.2786 9.63281 73.0312 10.0039C72.7839 10.375 72.5983 10.8438 72.4746 11.4102C72.3574 11.9701 72.2988 12.6276 72.2988 13.3828V14.3887C72.2988 15.1243 72.3542 15.7721 72.4648 16.332C72.5755 16.8854 72.7448 17.3542 72.9727 17.7383C73.207 18.1159 73.5065 18.4023 73.8711 18.5977C74.2422 18.7865 74.6882 18.8809 75.209 18.8809C75.821 18.8809 76.3255 18.7832 76.7227 18.5879C77.1198 18.3926 77.4225 18.1029 77.6309 17.7188C77.8457 17.3346 77.9727 16.8561 78.0117 16.2832ZM82.2305 15.8242V15.6191C82.2305 14.8444 82.3411 14.1315 82.5625 13.4805C82.7839 12.8229 83.1061 12.2533 83.5293 11.7715C83.9525 11.2897 84.4733 10.9154 85.0918 10.6484C85.7103 10.375 86.4199 10.2383 87.2207 10.2383C88.0215 10.2383 88.7344 10.375 89.3594 10.6484C89.9844 10.9154 90.5085 11.2897 90.9316 11.7715C91.3613 12.2533 91.6868 12.8229 91.9082 13.4805C92.1296 14.1315 92.2402 14.8444 92.2402 15.6191V15.8242C92.2402 16.5924 92.1296 17.3053 91.9082 17.9629C91.6868 18.6139 91.3613 19.1836 90.9316 19.6719C90.5085 20.1536 89.9876 20.528 89.3691 20.7949C88.7507 21.0618 88.041 21.1953 87.2402 21.1953C86.4395 21.1953 85.7266 21.0618 85.1016 20.7949C84.4831 20.528 83.959 20.1536 83.5293 19.6719C83.1061 19.1836 82.7839 18.6139 82.5625 17.9629C82.3411 17.3053 82.2305 16.5924 82.2305 15.8242ZM85.043 15.6191V15.8242C85.043 16.2669 85.082 16.6803 85.1602 17.0645C85.2383 17.4486 85.362 17.7871 85.5312 18.0801C85.707 18.3665 85.9349 18.5911 86.2148 18.7539C86.4948 18.9167 86.8366 18.998 87.2402 18.998C87.6309 18.998 87.9661 18.9167 88.2461 18.7539C88.526 18.5911 88.7507 18.3665 88.9199 18.0801C89.0892 17.7871 89.2129 17.4486 89.291 17.0645C89.3757 16.6803 89.418 16.2669 89.418 15.8242V15.6191C89.418 15.1895 89.3757 14.7858 89.291 14.4082C89.2129 14.0241 89.0859 13.6855 88.9102 13.3926C88.7409 13.0931 88.5163 12.8587 88.2363 12.6895C87.9564 12.5202 87.6178 12.4355 87.2207 12.4355C86.8236 12.4355 86.485 12.5202 86.2051 12.6895C85.9316 12.8587 85.707 13.0931 85.5312 13.3926C85.362 13.6855 85.2383 14.0241 85.1602 14.4082C85.082 14.7858 85.043 15.1895 85.043 15.6191ZM99.5156 13.793V16H93.998V13.793H99.5156ZM108.1 18.6953V6H110.932V21H108.383L108.1 18.6953ZM101.42 15.8438V15.6387C101.42 14.8314 101.511 14.099 101.693 13.4414C101.876 12.7773 102.143 12.2077 102.494 11.7324C102.846 11.2572 103.279 10.8893 103.793 10.6289C104.307 10.3685 104.893 10.2383 105.551 10.2383C106.169 10.2383 106.71 10.3685 107.172 10.6289C107.641 10.8893 108.038 11.2604 108.363 11.7422C108.695 12.2174 108.962 12.7806 109.164 13.4316C109.366 14.0762 109.512 14.7826 109.604 15.5508V16C109.512 16.7357 109.366 17.4193 109.164 18.0508C108.962 18.6823 108.695 19.2357 108.363 19.7109C108.038 20.1797 107.641 20.5443 107.172 20.8047C106.703 21.0651 106.156 21.1953 105.531 21.1953C104.874 21.1953 104.288 21.0618 103.773 20.7949C103.266 20.528 102.836 20.1536 102.484 19.6719C102.139 19.1901 101.876 18.6237 101.693 17.9727C101.511 17.3216 101.42 16.612 101.42 15.8438ZM104.232 15.6387V15.8438C104.232 16.2799 104.265 16.6868 104.33 17.0645C104.402 17.4421 104.516 17.7773 104.672 18.0703C104.835 18.3568 105.043 18.5814 105.297 18.7441C105.557 18.9004 105.873 18.9785 106.244 18.9785C106.726 18.9785 107.123 18.8711 107.436 18.6562C107.748 18.4349 107.986 18.1322 108.148 17.748C108.318 17.3639 108.415 16.9212 108.441 16.4199V15.1406C108.422 14.7305 108.363 14.3626 108.266 14.0371C108.174 13.7051 108.038 13.4219 107.855 13.1875C107.68 12.9531 107.458 12.7708 107.191 12.6406C106.931 12.5104 106.622 12.4453 106.264 12.4453C105.899 12.4453 105.587 12.5299 105.326 12.6992C105.066 12.862 104.854 13.0866 104.691 13.373C104.535 13.6595 104.418 13.998 104.34 14.3887C104.268 14.7728 104.232 15.1895 104.232 15.6387ZM117.992 21.1953C117.172 21.1953 116.436 21.0651 115.785 20.8047C115.134 20.5378 114.581 20.1699 114.125 19.7012C113.676 19.2324 113.331 18.6888 113.09 18.0703C112.849 17.4453 112.729 16.7812 112.729 16.0781V15.6875C112.729 14.8867 112.842 14.1543 113.07 13.4902C113.298 12.8262 113.624 12.25 114.047 11.7617C114.477 11.2734 114.997 10.8991 115.609 10.6387C116.221 10.3717 116.911 10.2383 117.68 10.2383C118.428 10.2383 119.092 10.362 119.672 10.6094C120.251 10.8568 120.736 11.2083 121.127 11.6641C121.524 12.1198 121.824 12.6667 122.025 13.3047C122.227 13.9362 122.328 14.6393 122.328 15.4141V16.5859H113.93V14.7109H119.564V14.4961C119.564 14.1055 119.493 13.7572 119.35 13.4512C119.213 13.1387 119.005 12.8913 118.725 12.709C118.445 12.5267 118.087 12.4355 117.65 12.4355C117.279 12.4355 116.96 12.5169 116.693 12.6797C116.426 12.8424 116.208 13.0703 116.039 13.3633C115.876 13.6562 115.753 14.0013 115.668 14.3984C115.59 14.7891 115.551 15.2188 115.551 15.6875V16.0781C115.551 16.5013 115.609 16.8919 115.727 17.25C115.85 17.6081 116.023 17.9173 116.244 18.1777C116.472 18.4382 116.745 18.64 117.064 18.7832C117.39 18.9264 117.758 18.998 118.168 18.998C118.676 18.998 119.148 18.9004 119.584 18.7051C120.027 18.5033 120.408 18.2005 120.727 17.7969L122.094 19.2812C121.872 19.6003 121.57 19.9062 121.186 20.1992C120.808 20.4922 120.352 20.7331 119.818 20.9219C119.285 21.1042 118.676 21.1953 117.992 21.1953ZM129.643 18.0801C129.643 17.8783 129.584 17.696 129.467 17.5332C129.35 17.3704 129.132 17.2207 128.812 17.084C128.5 16.9408 128.048 16.8105 127.455 16.6934C126.921 16.5762 126.423 16.4297 125.961 16.2539C125.505 16.0716 125.108 15.8535 124.77 15.5996C124.438 15.3457 124.177 15.0462 123.988 14.7012C123.799 14.3496 123.705 13.9492 123.705 13.5C123.705 13.0573 123.799 12.6406 123.988 12.25C124.184 11.8594 124.46 11.5143 124.818 11.2148C125.183 10.9089 125.626 10.6712 126.146 10.502C126.674 10.3262 127.266 10.2383 127.924 10.2383C128.842 10.2383 129.63 10.3848 130.287 10.6777C130.951 10.9707 131.459 11.3743 131.811 11.8887C132.169 12.3965 132.348 12.9759 132.348 13.627H129.535C129.535 13.3535 129.477 13.1094 129.359 12.8945C129.249 12.6732 129.073 12.5007 128.832 12.377C128.598 12.2467 128.292 12.1816 127.914 12.1816C127.602 12.1816 127.331 12.237 127.104 12.3477C126.876 12.4518 126.7 12.5951 126.576 12.7773C126.459 12.9531 126.4 13.1484 126.4 13.3633C126.4 13.526 126.433 13.6725 126.498 13.8027C126.57 13.9264 126.684 14.0404 126.84 14.1445C126.996 14.2487 127.198 14.3464 127.445 14.4375C127.699 14.5221 128.012 14.6003 128.383 14.6719C129.145 14.8281 129.825 15.0332 130.424 15.2871C131.023 15.5345 131.498 15.873 131.85 16.3027C132.201 16.7259 132.377 17.2826 132.377 17.9727C132.377 18.4414 132.273 18.8711 132.064 19.2617C131.856 19.6523 131.557 19.9941 131.166 20.2871C130.775 20.5736 130.307 20.7982 129.76 20.9609C129.219 21.1172 128.611 21.1953 127.934 21.1953C126.951 21.1953 126.117 21.0195 125.434 20.668C124.757 20.3164 124.242 19.8704 123.891 19.3301C123.546 18.7832 123.373 18.2233 123.373 17.6504H126.039C126.052 18.0345 126.15 18.3438 126.332 18.5781C126.521 18.8125 126.758 18.9818 127.045 19.0859C127.338 19.1901 127.654 19.2422 127.992 19.2422C128.357 19.2422 128.66 19.1934 128.9 19.0957C129.141 18.9915 129.324 18.8548 129.447 18.6855C129.577 18.5098 129.643 18.3079 129.643 18.0801ZM137.172 10.4336V21H134.35V10.4336H137.172ZM134.174 7.67969C134.174 7.26953 134.317 6.93099 134.604 6.66406C134.89 6.39714 135.274 6.26367 135.756 6.26367C136.231 6.26367 136.612 6.39714 136.898 6.66406C137.191 6.93099 137.338 7.26953 137.338 7.67969C137.338 8.08984 137.191 8.42839 136.898 8.69531C136.612 8.96224 136.231 9.0957 135.756 9.0957C135.274 9.0957 134.89 8.96224 134.604 8.69531C134.317 8.42839 134.174 8.08984 134.174 7.67969ZM146.186 10.4336H148.734V20.6484C148.734 21.612 148.52 22.429 148.09 23.0996C147.667 23.7767 147.074 24.2878 146.312 24.6328C145.551 24.9844 144.665 25.1602 143.656 25.1602C143.214 25.1602 142.745 25.1016 142.25 24.9844C141.762 24.8672 141.293 24.6849 140.844 24.4375C140.401 24.1901 140.03 23.8776 139.73 23.5L140.971 21.8398C141.296 22.2174 141.674 22.5104 142.104 22.7188C142.533 22.9336 143.008 23.041 143.529 23.041C144.037 23.041 144.467 22.9466 144.818 22.7578C145.17 22.5755 145.44 22.3053 145.629 21.9473C145.818 21.5957 145.912 21.1693 145.912 20.668V12.875L146.186 10.4336ZM139.076 15.8438V15.6387C139.076 14.8314 139.174 14.099 139.369 13.4414C139.571 12.7773 139.854 12.2077 140.219 11.7324C140.59 11.2572 141.039 10.8893 141.566 10.6289C142.094 10.3685 142.689 10.2383 143.354 10.2383C144.057 10.2383 144.646 10.3685 145.121 10.6289C145.596 10.8893 145.987 11.2604 146.293 11.7422C146.599 12.2174 146.837 12.7806 147.006 13.4316C147.182 14.0762 147.318 14.7826 147.416 15.5508V16C147.318 16.7357 147.172 17.4193 146.977 18.0508C146.781 18.6823 146.524 19.2357 146.205 19.7109C145.886 20.1797 145.489 20.5443 145.014 20.8047C144.545 21.0651 143.985 21.1953 143.334 21.1953C142.683 21.1953 142.094 21.0618 141.566 20.7949C141.046 20.528 140.6 20.1536 140.229 19.6719C139.857 19.1901 139.571 18.6237 139.369 17.9727C139.174 17.3216 139.076 16.612 139.076 15.8438ZM141.889 15.6387V15.8438C141.889 16.2799 141.931 16.6868 142.016 17.0645C142.1 17.4421 142.23 17.7773 142.406 18.0703C142.589 18.3568 142.813 18.5814 143.08 18.7441C143.354 18.9004 143.676 18.9785 144.047 18.9785C144.561 18.9785 144.981 18.8711 145.307 18.6562C145.632 18.4349 145.876 18.1322 146.039 17.748C146.202 17.3639 146.296 16.9212 146.322 16.4199V15.1406C146.309 14.7305 146.254 14.3626 146.156 14.0371C146.059 13.7051 145.922 13.4219 145.746 13.1875C145.57 12.9531 145.342 12.7708 145.062 12.6406C144.783 12.5104 144.451 12.4453 144.066 12.4453C143.695 12.4453 143.373 12.5299 143.1 12.6992C142.833 12.862 142.608 13.0866 142.426 13.373C142.25 13.6595 142.117 13.998 142.025 14.3887C141.934 14.7728 141.889 15.1895 141.889 15.6387ZM153.676 12.6895V21H150.863V10.4336H153.5L153.676 12.6895ZM153.266 15.3457H152.504C152.504 14.5645 152.605 13.8613 152.807 13.2363C153.008 12.6048 153.292 12.0677 153.656 11.625C154.021 11.1758 154.454 10.834 154.955 10.5996C155.463 10.3587 156.029 10.2383 156.654 10.2383C157.149 10.2383 157.602 10.3099 158.012 10.4531C158.422 10.5964 158.773 10.8242 159.066 11.1367C159.366 11.4492 159.594 11.8626 159.75 12.377C159.913 12.8913 159.994 13.5195 159.994 14.2617V21H157.162V14.252C157.162 13.7832 157.097 13.4186 156.967 13.1582C156.837 12.8978 156.645 12.7155 156.391 12.6113C156.143 12.5007 155.837 12.4453 155.473 12.4453C155.095 12.4453 154.766 12.5202 154.486 12.6699C154.213 12.8197 153.985 13.028 153.803 13.2949C153.627 13.5553 153.493 13.8613 153.402 14.2129C153.311 14.5645 153.266 14.9421 153.266 15.3457Z" fill="#FFC727"/>
</g>
<defs>
<clipPath id="clip0_8822_30586">
<rect width="1200" height="60" fill="white" transform="translate(0.5)"/>
</clipPath>
</defs>
</svg>
