<svg width="135" height="503" viewBox="0 0 135 503" fill="none" xmlns="http://www.w3.org/2000/svg">
<g clip-path="url(#clip0_100_3815)">
<g clip-path="url(#clip1_100_3815)">
<rect y="95" width="135" height="360" rx="7" fill="#D9D9D9"/>
<circle cx="62" cy="437" r="16" fill="#A4A4A4"/>
<circle cx="62" cy="437" r="14" fill="#858585"/>
<circle cx="62" cy="437" r="13" fill="#FDFDFD"/>
<circle cx="21" cy="437" r="16" fill="#A4A4A4"/>
<circle cx="21" cy="437" r="14" fill="#858585"/>
<circle cx="21" cy="437" r="13" fill="#FDFDFD"/>
<circle cx="103" cy="437" r="16" fill="#A4A4A4"/>
<circle cx="103" cy="437" r="14" fill="#858585"/>
<circle cx="103" cy="437" r="13" fill="#FDFDFD"/>
<circle cx="144" cy="437" r="16" fill="#A4A4A4"/>
<circle cx="144" cy="437" r="14" fill="#858585"/>
<circle cx="144" cy="437" r="13" fill="#FDFDFD"/>
<circle cx="37" cy="403" r="16" fill="#A4A4A4"/>
<circle cx="37" cy="403" r="14" fill="#858585"/>
<circle cx="37" cy="403" r="13" fill="#FDFDFD"/>
<circle cx="-4" cy="403" r="16" fill="#A4A4A4"/>
<circle cx="-4" cy="403" r="14" fill="#858585"/>
<circle cx="-4" cy="403" r="13" fill="#FDFDFD"/>
<circle cx="78" cy="403" r="16" fill="#A4A4A4"/>
<circle cx="78" cy="403" r="14" fill="#858585"/>
<circle cx="78" cy="403" r="13" fill="#FDFDFD"/>
<circle cx="119" cy="403" r="16" fill="#A4A4A4"/>
<circle cx="119" cy="403" r="14" fill="#858585"/>
<circle cx="119" cy="403" r="13" fill="#FDFDFD"/>
<circle cx="59" cy="368" r="16" fill="#A4A4A4"/>
<circle cx="59" cy="368" r="14" fill="#858585"/>
<circle cx="59" cy="368" r="13" fill="#FDFDFD"/>
<circle cx="18" cy="368" r="16" fill="#A4A4A4"/>
<circle cx="18" cy="368" r="14" fill="#858585"/>
<circle cx="18" cy="368" r="13" fill="#FDFDFD"/>
<circle cx="100" cy="368" r="16" fill="#A4A4A4"/>
<circle cx="100" cy="368" r="14" fill="#858585"/>
<circle cx="100" cy="368" r="13" fill="#FDFDFD"/>
<circle cx="141" cy="368" r="16" fill="#A4A4A4"/>
<circle cx="141" cy="368" r="14" fill="#858585"/>
<circle cx="141" cy="368" r="13" fill="#FDFDFD"/>
<circle cx="38" cy="333" r="16" fill="#A4A4A4"/>
<circle cx="38" cy="333" r="14" fill="#858585"/>
<circle cx="38" cy="333" r="13" fill="#FDFDFD"/>
<circle cx="-3" cy="333" r="16" fill="#A4A4A4"/>
<circle cx="-3" cy="333" r="14" fill="#858585"/>
<circle cx="-3" cy="333" r="13" fill="#FDFDFD"/>
<circle cx="79" cy="333" r="16" fill="#A4A4A4"/>
<circle cx="79" cy="333" r="14" fill="#858585"/>
<circle cx="79" cy="333" r="13" fill="#FDFDFD"/>
<circle cx="120" cy="333" r="16" fill="#A4A4A4"/>
<circle cx="120" cy="333" r="14" fill="#858585"/>
<circle cx="120" cy="333" r="13" fill="#FDFDFD"/>
<circle cx="59" cy="297" r="16" fill="#A4A4A4"/>
<circle cx="59" cy="297" r="14" fill="#858585"/>
<circle cx="59" cy="297" r="13" fill="#FDFDFD"/>
<circle cx="18" cy="297" r="16" fill="#A4A4A4"/>
<circle cx="18" cy="297" r="14" fill="#858585"/>
<circle cx="18" cy="297" r="13" fill="#FDFDFD"/>
<circle cx="100" cy="297" r="16" fill="#A4A4A4"/>
<circle cx="100" cy="297" r="14" fill="#858585"/>
<circle cx="100" cy="297" r="13" fill="#FDFDFD"/>
<circle cx="141" cy="297" r="16" fill="#A4A4A4"/>
<circle cx="141" cy="297" r="14" fill="#858585"/>
<circle cx="141" cy="297" r="13" fill="#FDFDFD"/>
<circle cx="58" cy="229" r="16" fill="#A4A4A4"/>
<circle cx="58" cy="229" r="14" fill="#858585"/>
<circle cx="58" cy="229" r="13" fill="#FDFDFD"/>
<circle cx="17" cy="229" r="16" fill="#A4A4A4"/>
<circle cx="17" cy="229" r="14" fill="#858585"/>
<circle cx="17" cy="229" r="13" fill="#FDFDFD"/>
<circle cx="99" cy="229" r="16" fill="#A4A4A4"/>
<circle cx="99" cy="229" r="14" fill="#858585"/>
<circle cx="99" cy="229" r="13" fill="#FDFDFD"/>
<circle cx="140" cy="229" r="16" fill="#A4A4A4"/>
<circle cx="140" cy="229" r="14" fill="#858585"/>
<circle cx="140" cy="229" r="13" fill="#FDFDFD"/>
<circle cx="38" cy="195" r="16" fill="#A4A4A4"/>
<circle cx="38" cy="195" r="14" fill="#858585"/>
<circle cx="38" cy="195" r="13" fill="#B1B1B1"/>
<circle cx="-3" cy="195" r="16" fill="#A4A4A4"/>
<circle cx="-3" cy="195" r="14" fill="#858585"/>
<circle cx="-3" cy="195" r="13" fill="#B1B1B1"/>
<circle cx="79" cy="195" r="16" fill="#A4A4A4"/>
<circle cx="79" cy="195" r="14" fill="#858585"/>
<circle cx="79" cy="195" r="13" fill="#B1B1B1"/>
<circle cx="120" cy="195" r="16" fill="#A4A4A4"/>
<circle cx="120" cy="195" r="14" fill="#858585"/>
<circle cx="120" cy="195" r="13" fill="#B1B1B1"/>
<circle cx="57" cy="160" r="16" fill="#A4A4A4"/>
<circle cx="57" cy="160" r="14" fill="#858585"/>
<circle cx="57" cy="160" r="13" fill="#B1B1B1"/>
<circle cx="16" cy="160" r="16" fill="#A4A4A4"/>
<circle cx="16" cy="160" r="14" fill="#858585"/>
<circle cx="16" cy="160" r="13" fill="#B1B1B1"/>
<circle cx="98" cy="160" r="16" fill="#A4A4A4"/>
<circle cx="98" cy="160" r="14" fill="#858585"/>
<circle cx="98" cy="160" r="13" fill="#B1B1B1"/>
<circle cx="139" cy="160" r="16" fill="#A4A4A4"/>
<circle cx="139" cy="160" r="14" fill="#858585"/>
<circle cx="139" cy="160" r="13" fill="#B1B1B1"/>
<circle cx="38" cy="126" r="16" fill="#A4A4A4"/>
<circle cx="38" cy="126" r="14" fill="#858585"/>
<circle cx="38" cy="126" r="13" fill="#B1B1B1"/>
<circle cx="-3" cy="126" r="16" fill="#A4A4A4"/>
<circle cx="-3" cy="126" r="14" fill="#858585"/>
<circle cx="-3" cy="126" r="13" fill="#B1B1B1"/>
<circle cx="79" cy="126" r="16" fill="#A4A4A4"/>
<circle cx="79" cy="126" r="14" fill="#858585"/>
<circle cx="79" cy="126" r="13" fill="#B1B1B1"/>
<circle cx="120" cy="126" r="16" fill="#A4A4A4"/>
<circle cx="120" cy="126" r="14" fill="#858585"/>
<circle cx="120" cy="126" r="13" fill="#B1B1B1"/>
<circle cx="41" cy="264" r="16" fill="#A4A4A4"/>
<circle cx="41" cy="264" r="14" fill="#858585"/>
<circle cx="41" cy="264" r="13" fill="#FDFDFD"/>
<circle cy="264" r="16" fill="#A4A4A4"/>
<circle cy="264" r="14" fill="#858585"/>
<circle cy="264" r="13" fill="#FDFDFD"/>
<circle cx="82" cy="264" r="16" fill="#A4A4A4"/>
<circle cx="82" cy="264" r="14" fill="#858585"/>
<circle cx="82" cy="264" r="13" fill="#FDFDFD"/>
<circle cx="123" cy="264" r="16" fill="#A4A4A4"/>
<circle cx="123" cy="264" r="14" fill="#858585"/>
<circle cx="123" cy="264" r="13" fill="#FDFDFD"/>
<path d="M0 102C0 98.134 3.13401 95 7 95H68V455H7C3.13401 455 0 451.866 0 448V102Z" fill="black" fill-opacity="0.2"/>
</g>
<rect y="72" width="135" height="23" fill="#21675C"/>
<rect y="72" width="68" height="23" fill="black" fill-opacity="0.2"/>
<path d="M0 455H135V473C135 489.569 121.569 503 105 503H30C13.4315 503 0 489.569 0 473V455Z" fill="#22685D"/>
<path d="M0 455H68V503H30C13.4315 503 0 489.569 0 473V455Z" fill="black" fill-opacity="0.2"/>
<path d="M15 4C15 1.79086 16.7909 0 19 0H116C118.209 0 120 1.79086 120 4V72H15V4Z" fill="#1C6358"/>
<path d="M15 4C15 1.79086 16.7909 0 19 0H68V72H15V4Z" fill="black" fill-opacity="0.2"/>
</g>
<defs>
<clipPath id="clip0_100_3815">
<rect width="135" height="503" fill="white"/>
</clipPath>
<clipPath id="clip1_100_3815">
<rect width="135" height="360" fill="white" transform="translate(0 95)"/>
</clipPath>
</defs>
</svg>
