<svg width="24" height="24" viewBox="0 0 24 24" fill="none" xmlns="http://www.w3.org/2000/svg">
<path d="M20.9463 18.9412C22.2263 17.0881 23 14.7594 23 12.2411C23 9.61139 22.17 7.20395 20.7916 5.3033C20.5242 4.93891 20.0317 4.89129 19.7226 5.22371L19.5537 5.39808C19.2723 5.69898 19.2444 6.20601 19.4834 6.53842C20.6086 8.09078 21.2838 10.0708 21.2838 12.225C21.2838 14.3002 20.6509 16.217 19.61 17.7376C19.3708 18.0861 19.4131 18.5768 19.7083 18.862L19.8772 19.0364C20.1867 19.3688 20.6789 19.3217 20.9463 18.9412Z" fill="#1C1B1F"/>
<path d="M19.0896 16.8821C19.9194 15.5674 20.4118 13.9679 20.4118 12.2412C20.4118 10.4355 19.8769 8.75642 18.9771 7.40972C18.7098 7.01404 18.2034 6.95055 17.8798 7.29884L17.7111 7.47345C17.4298 7.77412 17.4014 8.24962 17.6267 8.59791C18.3019 9.61173 18.7098 10.8788 18.7098 12.2412C18.7098 13.5559 18.3442 14.7754 17.7111 15.7574C17.5001 16.1062 17.5564 16.581 17.8377 16.8506L18.0065 17.0089C18.316 17.3574 18.8222 17.278 19.0896 16.8821Z" fill="#1C1B1F"/>
<path d="M17.0359 14.7437C17.4298 14.0149 17.6547 13.1593 17.6547 12.241C17.6547 11.2746 17.4016 10.3557 16.9655 9.59544C16.7123 9.15191 16.1779 9.07301 15.84 9.42153L15.6713 9.59544C15.4184 9.86506 15.3477 10.3081 15.5446 10.641C15.798 11.1002 15.9526 11.6546 15.9526 12.241C15.9526 12.7793 15.8259 13.2861 15.6012 13.7301C15.4184 14.0781 15.4744 14.506 15.7418 14.7756L15.9105 14.9496C16.2482 15.282 16.7967 15.1872 17.0359 14.7437Z" fill="#1C1B1F"/>
<path d="M13.3921 5.39994C13.1551 5.13331 12.8656 5.00011 12.5238 5.00011C12.1814 5.00011 11.8954 5.13331 11.6654 5.39994C11.435 5.66656 11.32 5.99277 11.32 6.37763V14.6216L9.72592 12.8222C9.08262 12.0959 8.30224 11.7329 7.38356 11.7329C6.93719 11.7329 6.51085 11.8256 6.10391 12.0106C5.69697 12.1962 5.34294 12.4663 5.04121 12.8222L3.46656 14.5995V6.37763C3.46656 5.99254 3.34685 5.66656 3.10824 5.39994C2.86964 5.13354 2.57812 5.00011 2.23328 5.00011C1.88865 5.00011 1.59652 5.13354 1.35791 5.39994C1.1191 5.66656 1 5.99254 1 6.37763V17.9106C1 18.2961 1.11849 18.6214 1.35525 18.8883C1.59182 19.1551 1.88109 19.2881 2.22347 19.2881C2.47332 19.2881 2.71009 19.2073 2.93399 19.0438V19.0656L6.56457 14.9549C6.78806 14.7033 7.05793 14.5776 7.37376 14.5776C7.66282 14.5776 7.92615 14.6961 8.16271 14.9326L11.6756 18.9103L11.8331 19.0656L11.853 19.0438C12.0632 19.2073 12.2871 19.2881 12.5238 19.2881C12.8656 19.2881 13.1551 19.1551 13.3921 18.8883C13.6288 18.6214 13.7471 18.2961 13.7471 17.9106V6.37763C13.7471 5.99277 13.6288 5.66656 13.3921 5.39994Z" fill="#1C1B1F"/>
</svg>
