<svg width="450" height="214" viewBox="0 0 450 214" fill="none" xmlns="http://www.w3.org/2000/svg">
<path fill-rule="evenodd" clip-rule="evenodd" d="M0 7.62939e-05H446.714V213.451H0V7.62939e-05ZM438.549 17.4961C438.549 22.6496 434.371 26.8273 429.218 26.8273C424.065 26.8273 419.887 22.6496 419.887 17.4961C419.887 12.3426 424.065 8.16491 429.218 8.16491C434.371 8.16491 438.549 12.3426 438.549 17.4961ZM429.218 205.287C434.371 205.287 438.549 201.109 438.549 195.956C438.549 190.802 434.371 186.624 429.218 186.624C424.065 186.624 419.887 190.802 419.887 195.956C419.887 201.109 424.065 205.287 429.218 205.287ZM25.6605 195.955C25.6605 201.109 21.4829 205.287 16.3297 205.287C11.1764 205.287 6.99881 201.109 6.99881 195.955C6.99881 190.802 11.1764 186.624 16.3297 186.624C21.4829 186.624 25.6605 190.802 25.6605 195.955ZM16.3297 26.8275C21.4829 26.8275 25.6605 22.6497 25.6605 17.4963C25.6605 12.3428 21.4829 8.16505 16.3297 8.16505C11.1764 8.16505 6.99881 12.3428 6.99881 17.4963C6.99881 22.6497 11.1764 26.8275 16.3297 26.8275Z" fill="#2FAB5D"/>
<rect x="16.3291" y="39.6578" width="407.075" height="134.136" fill="#4A5355"/>
<rect x="32.6597" y="65.3185" width="374.416" height="83.9808" fill="#284690"/>
<path fill-rule="evenodd" clip-rule="evenodd" d="M16.3284 31.493C24.0586 31.493 30.3252 25.2264 30.3252 17.4962C30.3252 9.76599 24.0586 3.4994 16.3284 3.4994C8.59814 3.4994 2.33154 9.76599 2.33154 17.4962C2.33154 25.2264 8.59814 31.493 16.3284 31.493ZM16.3291 26.8274C21.4826 26.8274 25.6603 22.6497 25.6603 17.4962C25.6603 12.3428 21.4826 8.16503 16.3291 8.16503C11.1756 8.16503 6.99789 12.3428 6.99789 17.4962C6.99789 22.6497 11.1756 26.8274 16.3291 26.8274Z" fill="#EADCAF"/>
<path fill-rule="evenodd" clip-rule="evenodd" d="M16.3284 209.953C24.0586 209.953 30.3252 203.686 30.3252 195.956C30.3252 188.226 24.0586 181.959 16.3284 181.959C8.59814 181.959 2.33154 188.226 2.33154 195.956C2.33154 203.686 8.59814 209.953 16.3284 209.953ZM16.3291 205.287C21.4826 205.287 25.6603 201.109 25.6603 195.956C25.6603 190.802 21.4826 186.625 16.3291 186.625C11.1756 186.625 6.99789 190.802 6.99789 195.956C6.99789 201.109 11.1756 205.287 16.3291 205.287Z" fill="#EADCAF"/>
<path fill-rule="evenodd" clip-rule="evenodd" d="M429.237 209.953C436.967 209.953 443.234 203.686 443.234 195.956C443.234 188.226 436.967 181.959 429.237 181.959C421.507 181.959 415.24 188.226 415.24 195.956C415.24 203.686 421.507 209.953 429.237 209.953ZM429.236 205.287C434.389 205.287 438.567 201.109 438.567 195.956C438.567 190.802 434.389 186.625 429.236 186.625C424.082 186.625 419.905 190.802 419.905 195.956C419.905 201.109 424.082 205.287 429.236 205.287Z" fill="#EADCAF"/>
<path fill-rule="evenodd" clip-rule="evenodd" d="M429.237 31.4931C436.967 31.4931 443.234 25.2265 443.234 17.4963C443.234 9.76605 436.967 3.49947 429.237 3.49947C421.507 3.49947 415.24 9.76605 415.24 17.4963C415.24 25.2265 421.507 31.4931 429.237 31.4931ZM429.236 26.8275C434.389 26.8275 438.567 22.6497 438.567 17.4963C438.567 12.3428 434.389 8.16505 429.236 8.16505C424.082 8.16505 419.905 12.3428 419.905 17.4963C419.905 22.6497 424.082 26.8275 429.236 26.8275Z" fill="#EADCAF"/>
<g clip-path="url(#clip0_1101_7943)">
<rect x="435.65" y="72.3169" width="11.664" height="17.496" fill="#EEE6B2"/>
<rect x="439.151" y="74.6497" width="4.66561" height="12.8304" rx="2.3328" fill="#7F7D7C"/>
<ellipse cx="441.482" cy="99.1441" rx="5.83202" ry="5.832" fill="#EEE6B2"/>
<ellipse cx="441.482" cy="99.1441" rx="3.49921" ry="3.4992" fill="#7F7D7C"/>
<ellipse cx="441.482" cy="114.307" rx="5.83202" ry="5.832" fill="#EEE6B2"/>
<ellipse cx="441.482" cy="114.307" rx="3.49921" ry="3.4992" fill="#7F7D7C"/>
<rect x="435.65" y="123.639" width="11.664" height="17.496" fill="#EEE6B2"/>
<rect x="439.151" y="125.971" width="4.66561" height="12.8304" rx="2.3328" fill="#7F7D7C"/>
</g>
<path d="M423.402 72.317L435.066 89.8131V123.806L423.402 141.135V72.317Z" fill="#FCFDFD"/>
<g clip-path="url(#clip1_1101_7943)">
<g clip-path="url(#clip2_1101_7943)">
<path d="M56.9316 13.3521C56.9316 16.5125 54.3697 19.0744 51.2093 19.0744V19.0744C48.049 19.0744 45.487 16.5125 45.487 13.3521V8.58307e-05H56.9316V13.3521Z" fill="#D8C2A2"/>
<ellipse cx="51.2049" cy="14.6237" rx="3.17907" ry="3.17906" fill="#987B54"/>
<path d="M74.4883 13.3521C74.4883 16.5125 71.9263 19.0745 68.766 19.0745V19.0745C65.6056 19.0745 63.0436 16.5125 63.0436 13.3521V9.34601e-05H74.4883V13.3521Z" fill="#D8C2A2"/>
<ellipse cx="68.7635" cy="14.6236" rx="3.17907" ry="3.17906" fill="#987B54"/>
<path d="M92.0449 13.3521C92.0449 16.5125 89.483 19.0744 86.3226 19.0744V19.0744C83.1622 19.0744 80.6003 16.5125 80.6003 13.3521V8.96454e-05H92.0449V13.3521Z" fill="#D8C2A2"/>
<ellipse cx="86.3187" cy="14.6239" rx="3.17907" ry="3.17906" fill="#987B54"/>
<path d="M109.602 13.3521C109.602 16.5125 107.04 19.0744 103.879 19.0744V19.0744C100.719 19.0744 98.1569 16.5125 98.1569 13.3521V8.96454e-05H109.602V13.3521Z" fill="#D8C2A2"/>
<ellipse cx="103.879" cy="14.6241" rx="3.17907" ry="3.17906" fill="#987B54"/>
<path d="M127.158 13.3521C127.158 16.5125 124.596 19.0744 121.436 19.0744V19.0744C118.276 19.0744 115.714 16.5125 115.714 13.3521V8.96454e-05H127.158V13.3521Z" fill="#D8C2A2"/>
<ellipse cx="121.438" cy="14.6239" rx="3.17907" ry="3.17906" fill="#987B54"/>
<path d="M144.714 13.3521C144.714 16.5125 142.152 19.0745 138.992 19.0745V19.0745C135.832 19.0745 133.27 16.5125 133.27 13.3521V0.000104904H144.714V13.3521Z" fill="#D8C2A2"/>
<ellipse cx="138.992" cy="14.6236" rx="3.17907" ry="3.17906" fill="#987B54"/>
<path d="M162.271 13.3521C162.271 16.5125 159.709 19.0744 156.549 19.0744V19.0744C153.388 19.0744 150.826 16.5125 150.826 13.3521V8.96454e-05H162.271V13.3521Z" fill="#D8C2A2"/>
<ellipse cx="156.547" cy="14.6238" rx="3.17907" ry="3.17906" fill="#987B54"/>
<path d="M179.828 13.3521C179.828 16.5125 177.266 19.0745 174.105 19.0745V19.0745C170.945 19.0745 168.383 16.5125 168.383 13.3521V0.000104904H179.828V13.3521Z" fill="#D8C2A2"/>
<ellipse cx="174.101" cy="14.6239" rx="3.17907" ry="3.17906" fill="#987B54"/>
<path d="M197.384 13.3521C197.384 16.5125 194.822 19.0745 191.662 19.0745V19.0745C188.502 19.0745 185.94 16.5125 185.94 13.3521V0.000104904H197.384V13.3521Z" fill="#D8C2A2"/>
<ellipse cx="191.661" cy="14.6239" rx="3.17907" ry="3.17906" fill="#987B54"/>
<path d="M214.941 13.3521C214.941 16.5125 212.379 19.0745 209.219 19.0745V19.0745C206.058 19.0745 203.496 16.5125 203.496 13.3521V0.000104904H214.941V13.3521Z" fill="#D8C2A2"/>
<ellipse cx="209.216" cy="14.6238" rx="3.17907" ry="3.17906" fill="#987B54"/>
<path d="M232.498 13.3521C232.498 16.5125 229.936 19.0745 226.775 19.0745V19.0745C223.615 19.0745 221.053 16.5125 221.053 13.3521V0.000104904H232.498V13.3521Z" fill="#D8C2A2"/>
<ellipse cx="226.77" cy="14.624" rx="3.17907" ry="3.17906" fill="#987B54"/>
<path d="M250.054 13.3521C250.054 16.5125 247.492 19.0744 244.332 19.0744V19.0744C241.172 19.0744 238.61 16.5125 238.61 13.3521V8.96454e-05H250.054V13.3521Z" fill="#D8C2A2"/>
<ellipse cx="244.334" cy="14.6238" rx="3.17907" ry="3.17906" fill="#987B54"/>
<path d="M267.611 13.3521C267.611 16.5125 265.049 19.0744 261.889 19.0744V19.0744C258.728 19.0744 256.166 16.5125 256.166 13.3521V7.43866e-05H267.611V13.3521Z" fill="#D8C2A2"/>
<ellipse cx="261.89" cy="14.6238" rx="3.17907" ry="3.17906" fill="#987B54"/>
<path d="M285.167 13.3521C285.167 16.5125 282.606 19.0744 279.445 19.0744V19.0744C276.285 19.0744 273.723 16.5125 273.723 13.3521V8.96454e-05H285.167V13.3521Z" fill="#D8C2A2"/>
<ellipse cx="279.438" cy="14.6237" rx="3.17907" ry="3.17906" fill="#987B54"/>
<path d="M302.724 13.3522C302.724 16.5125 300.162 19.0745 297.002 19.0745V19.0745C293.841 19.0745 291.279 16.5125 291.279 13.3522V0.000120163H302.724V13.3522Z" fill="#D8C2A2"/>
<ellipse cx="296.996" cy="14.624" rx="3.17907" ry="3.17906" fill="#987B54"/>
<path d="M320.281 13.3521C320.281 16.5125 317.719 19.0744 314.558 19.0744V19.0744C311.398 19.0744 308.836 16.5125 308.836 13.3521V8.96454e-05H320.281V13.3521Z" fill="#D8C2A2"/>
<ellipse cx="314.555" cy="14.624" rx="3.17907" ry="3.17906" fill="#987B54"/>
</g>
</g>
<defs>
<clipPath id="clip0_1101_7943">
<rect width="15.1632" height="68.8176" fill="white" transform="translate(433.9 72.3169)"/>
</clipPath>
<clipPath id="clip1_1101_7943">
<rect width="288.79" height="19.0744" fill="white" transform="translate(45.4868 9.15527e-05)"/>
</clipPath>
<clipPath id="clip2_1101_7943">
<rect width="274.793" height="19.0744" fill="white" transform="translate(45.4868 9.15527e-05)"/>
</clipPath>
</defs>
</svg>
