<svg width="1201" height="60" viewBox="0 0 1201 60" fill="none" xmlns="http://www.w3.org/2000/svg">
<g clip-path="url(#clip0_8870_2893)">
<g clip-path="url(#clip1_8870_2893)">
<rect x="0.5" width="60" height="60" rx="30" fill="#407BFF" fill-opacity="0.23"/>
<path d="M50.1654 33.1279L49.6987 36.7444L48.5996 35.6724L37.7368 46.2668H26.5604L21.7202 50.9868H19.8053L25.9988 44.9458H37.1763L47.6411 34.7375L46.4577 33.5832L50.1654 33.1279Z" fill="#407BFF"/>
<path d="M62.7965 40.3605H39.5212C39.3212 40.3602 39.1294 40.2807 38.9879 40.1395C38.8464 39.9982 38.7668 39.8068 38.7665 39.607V5.75344C38.7672 5.55392 38.8469 5.36279 38.9884 5.22184C39.1298 5.08088 39.3214 5.00156 39.5212 5.00122H62.7965C62.9963 5.00156 63.1879 5.08088 63.3294 5.22184C63.4708 5.36279 63.5506 5.55392 63.5513 5.75344V39.607C63.5509 39.8068 63.4713 39.9982 63.3298 40.1395C63.1884 40.2807 62.9966 40.3602 62.7965 40.3605ZM39.5212 5.03337C39.426 5.03269 39.3316 5.0508 39.2434 5.08667C39.1553 5.12254 39.0751 5.17545 39.0074 5.24237C38.9398 5.30928 38.8861 5.38888 38.8494 5.47659C38.8127 5.56429 38.7937 5.65838 38.7935 5.75344V39.607C38.7935 39.7983 38.8697 39.9818 39.0052 40.1171C39.1407 40.2524 39.3245 40.3284 39.5161 40.3284H62.7965C62.9881 40.3284 63.1719 40.2524 63.3074 40.1171C63.4429 39.9818 63.5191 39.7983 63.5191 39.607V5.75344C63.5191 5.56212 63.4429 5.37864 63.3074 5.24336C63.1719 5.10808 62.9881 5.03208 62.7965 5.03208L39.5212 5.03337Z" fill="#F0F0F0"/>
<path d="M35.9509 40.3606H12.6705C12.4705 40.3602 12.2787 40.2807 12.1372 40.1395C11.9957 39.9983 11.9161 39.8068 11.9158 39.6071V5.7535C11.9161 5.55377 11.9957 5.36231 12.1372 5.22107C12.2787 5.07984 12.4705 5.00034 12.6705 5H35.9509C36.151 5.00034 36.3428 5.07984 36.4843 5.22107C36.6257 5.36231 36.7054 5.55377 36.7057 5.7535V39.6071C36.7054 39.8068 36.6257 39.9983 36.4843 40.1395C36.3428 40.2807 36.151 40.3602 35.9509 40.3606ZM12.6705 5.03343C12.4791 5.03343 12.2955 5.10926 12.1601 5.24426C12.0246 5.37926 11.9483 5.56241 11.948 5.7535V39.6071C11.948 39.7984 12.0241 39.9819 12.1596 40.1172C12.2951 40.2524 12.4789 40.3284 12.6705 40.3284H35.9509C36.1426 40.3284 36.3264 40.2524 36.4619 40.1172C36.5974 39.9819 36.6735 39.7984 36.6735 39.6071V5.7535C36.6735 5.56219 36.5974 5.37871 36.4619 5.24343C36.3264 5.10815 36.1426 5.03215 35.9509 5.03215L12.6705 5.03343Z" fill="#F0F0F0"/>
<path d="M69.9177 48.2134H5.51825V48.2455H69.9177V48.2134Z" fill="#F0F0F0"/>
<path d="M38.7586 20.1602L38.1829 24.7365L34.1747 20.7349L38.7586 20.1602Z" fill="#F5F5F5"/>
<path d="M29.5378 30.5021L37.6444 22.409L36.4607 21.2261L29.5378 28.1387V30.5021Z" fill="#F5F5F5"/>
<path d="M20.2628 34.4098C20.529 34.9205 20.6767 35.4845 20.695 36.0599C20.7132 36.6353 20.6016 37.2075 20.3683 37.734C20.135 38.2605 19.786 38.7279 19.3473 39.1015C18.9085 39.4751 18.3912 39.7453 17.8336 39.8922C17.2041 40.0586 16.5426 40.0623 15.9114 39.9029C15.8234 39.8801 15.7338 39.8544 15.6472 39.8256C15.2618 39.6978 14.899 39.51 14.5723 39.2693C14.5085 39.2223 14.4448 39.1723 14.384 39.1177C13.9973 38.7942 13.6784 38.3976 13.4457 37.9506C13.4245 37.9081 13.4032 37.8657 13.3835 37.8217C13.121 37.265 12.9963 36.6535 13.0201 36.0386C13.0438 35.4237 13.2152 34.8236 13.5199 34.2887C13.8245 33.7538 14.2535 33.2998 14.7706 32.9651C15.2878 32.6303 15.8779 32.4245 16.4914 32.3651C16.584 32.356 16.6766 32.3514 16.7692 32.3484C17.1704 32.3407 17.5704 32.3949 17.955 32.509C18.04 32.5348 18.1236 32.5621 18.2055 32.5924C18.5 32.7033 18.7799 32.8493 19.0391 33.0274C19.5161 33.3552 19.9123 33.7869 20.1975 34.29C20.2188 34.3264 20.2416 34.3674 20.2628 34.4098Z" fill="#F5F5F5"/>
<path d="M19.6419 34.8913C19.6024 34.8246 19.5614 34.7594 19.5174 34.6958C19.324 34.4145 19.0849 34.1676 18.8098 33.9652C18.5341 33.7632 18.2261 33.6095 17.8989 33.5105C17.8156 33.4833 17.731 33.4605 17.6453 33.4423C17.2461 33.3533 16.8331 33.345 16.4307 33.418C16.3283 33.436 16.227 33.4593 16.127 33.4877C15.7006 33.6105 15.3058 33.824 14.9698 34.1135C14.6338 34.403 14.3645 34.7617 14.1805 35.1649C13.9964 35.5681 13.902 36.0063 13.9036 36.4494C13.9051 36.8924 14.0028 37.3299 14.1897 37.7318L14.1214 37.6075C13.9345 37.2495 13.82 36.8583 13.7845 36.4561C13.7491 36.054 13.7933 35.6488 13.9147 35.2637C14.0361 34.8786 14.2323 34.5212 14.492 34.2117C14.7518 33.9023 15.07 33.647 15.4286 33.4604C15.7872 33.2738 16.1791 33.1596 16.5819 33.1242C16.9848 33.0887 17.3906 33.1329 17.7764 33.2541C18.1621 33.3753 18.5202 33.5711 18.8301 33.8304C19.14 34.0898 19.3957 34.4075 19.5826 34.7655C19.6009 34.8064 19.6206 34.8549 19.6419 34.8913Z" fill="#E0E0E0"/>
<g opacity="0.3">
<path d="M18.2709 38.902C18.239 38.9187 18.2072 38.9354 18.1738 38.9505C18.1403 38.9672 18.1085 38.9823 18.0735 38.996L18.0493 39.0066C18.0113 39.0233 17.9749 39.0369 17.9384 39.0506H17.9232C17.8038 39.0952 17.6816 39.1322 17.5573 39.1612C17.5163 39.1703 17.4738 39.1809 17.4328 39.187C17.3493 39.2036 17.2658 39.2158 17.1808 39.2249L17.0988 39.2324H17.0548H16.9895C16.9561 39.2324 16.9227 39.2324 16.8878 39.2324C16.8528 39.2324 16.8012 39.2324 16.7572 39.2324C16.7132 39.2324 16.6707 39.2324 16.6281 39.2249C16.5856 39.2173 16.5568 39.2249 16.5219 39.2158L16.452 39.2067L16.3958 39.1991L16.3321 39.1885L16.2273 39.1688L16.1377 39.1476H16.118L15.9905 39.1142L15.872 39.0763L15.8022 39.0506L15.7324 39.0248L15.6656 38.9975L15.5942 38.9657L15.5259 38.9338L15.4591 38.9005C15.4135 38.8778 15.368 38.8535 15.3224 38.8262L15.2678 38.7944C15.2222 38.7671 15.1797 38.7398 15.1357 38.7095L15.0749 38.6671C15.0097 38.6216 14.9459 38.5716 14.8852 38.5155L14.8366 38.4731C14.8001 38.4412 14.7652 38.4109 14.7318 38.3776C14.6969 38.3442 14.6635 38.3094 14.6301 38.2745L14.5845 38.226L14.5633 38.2017L14.5162 38.1487V38.1396C14.4982 38.1199 14.4815 38.0992 14.4661 38.0774C14.4466 38.0553 14.4283 38.032 14.4115 38.0077C14.3932 37.985 14.3765 37.9607 14.3598 37.9365C14.3431 37.9122 14.3325 37.8986 14.3204 37.8789L14.2945 37.841L14.2611 37.7879L14.2156 37.7122C14.0286 37.3103 13.931 36.8728 13.9294 36.4297C13.9278 35.9866 14.0223 35.5484 14.2064 35.1452C14.3904 34.742 14.6597 34.3834 14.9957 34.0939C15.3317 33.8044 15.7265 33.5909 16.1529 33.4681C16.2529 33.4396 16.3542 33.4163 16.4566 33.3983C16.859 33.3254 17.272 33.3336 17.6712 33.4226C17.7569 33.4409 17.8415 33.4636 17.9248 33.4908C18.252 33.5898 18.56 33.7436 18.8357 33.9455C19.1108 34.1479 19.3499 34.3949 19.5432 34.6761C19.5873 34.7398 19.6283 34.805 19.6677 34.8716C20.0028 35.5933 20.0444 36.4165 19.7839 37.1682C19.5234 37.9199 18.981 38.5414 18.2709 38.902Z" fill="black"/>
</g>
<path d="M18.2707 38.9023C18.2388 38.9189 18.207 38.9356 18.1736 38.9508C18.1402 38.9674 18.1083 38.9826 18.0734 38.9962L18.0491 39.0069C18.0111 39.0235 17.9747 39.0372 17.9382 39.0508H17.923C17.8036 39.0955 17.6814 39.1325 17.5571 39.1615C17.5161 39.1706 17.4736 39.1812 17.4326 39.1872C17.3491 39.2039 17.2656 39.216 17.1806 39.2251H17.1472H17.0971H17.0531H16.9878C16.9544 39.2251 16.921 39.2251 16.8861 39.2251C16.8511 39.2251 16.7995 39.2251 16.7555 39.2251C16.7115 39.2251 16.6689 39.2251 16.6264 39.2175C16.5839 39.21 16.5551 39.2175 16.5202 39.2085L16.4503 39.1994L16.3941 39.1918L16.3304 39.1812L16.2256 39.1615L16.136 39.1402H16.1163L15.9888 39.1069L15.8703 39.069L15.8005 39.0432L15.7306 39.0175L15.6638 38.9902L15.5925 38.9584L15.5242 38.9265L15.4574 38.8932C15.4118 38.8704 15.3663 38.8462 15.3207 38.8189L15.2661 38.7871C15.2205 38.7598 15.178 38.7325 15.134 38.7022L15.0732 38.6598C15.0079 38.6143 14.9442 38.5643 14.8834 38.5082L14.8349 38.4657C14.7984 38.4339 14.7635 38.4036 14.7301 38.3702C14.6952 38.3369 14.6618 38.302 14.6284 38.2672L14.5828 38.2187L14.5616 38.1944L14.5145 38.1414V38.1323C14.4965 38.1126 14.4798 38.0919 14.4644 38.0701C14.4449 38.0479 14.4266 38.0246 14.4097 38.0004C14.3915 37.9777 14.3748 37.9534 14.3581 37.9292C14.3414 37.9049 14.3308 37.8913 14.3186 37.8716L14.2928 37.8337L14.2594 37.7806L14.2139 37.7048C14.0269 37.303 13.9293 36.8655 13.9277 36.4224C13.9261 35.9793 14.0206 35.5411 14.2047 35.1379C14.3887 34.7347 14.658 34.376 14.994 34.0865C15.33 33.797 15.7248 33.5835 16.1512 33.4607C16.2512 33.4323 16.3525 33.409 16.4549 33.391C16.8573 33.318 17.2703 33.3263 17.6695 33.4153C17.7551 33.4336 17.8398 33.4563 17.923 33.4835C18.2503 33.5825 18.5583 33.7363 18.834 33.9382C19.109 34.1406 19.3482 34.3875 19.5415 34.6688C19.5856 34.7325 19.6266 34.7976 19.666 34.8643C20.0035 35.5866 20.0466 36.4115 19.7862 37.165C19.5259 37.9184 18.9825 38.5413 18.2707 38.9023Z" fill="#F0F0F0"/>
<path d="M18.037 37.5286L18.2723 37.9833L17.6969 38.2865L17.4722 37.8545C17.0987 38.0317 16.6893 38.1204 16.2758 38.1137L16.2196 37.2527C16.5958 37.2679 16.9696 37.1865 17.3052 37.0163C17.5785 36.8738 17.6453 36.7662 17.5952 36.6692C17.4084 36.3099 15.9797 37.4195 15.4256 36.3569C15.1857 35.9022 15.3193 35.3353 15.9387 34.8942L15.708 34.4501L16.2834 34.147L16.5096 34.5835C16.8095 34.4584 17.132 34.396 17.457 34.4001L17.5299 35.2459C17.2146 35.2405 16.9024 35.3096 16.6189 35.4475C16.3365 35.5991 16.2895 35.7218 16.3411 35.8204C16.5187 36.1629 17.9489 35.0625 18.497 36.1068C18.7309 36.5419 18.6124 37.089 18.037 37.5286Z" fill="#E0E0E0"/>
<path d="M17.9413 37.3863L18.1766 37.841L17.6027 38.1442L17.3765 37.7137C17.0024 37.8893 16.5934 37.9779 16.1801 37.9729L16.1254 37.112C16.4983 37.127 16.8689 37.0483 17.2034 36.8831C17.4767 36.7406 17.545 36.633 17.4934 36.5345C17.3051 36.1692 15.8794 37.2802 15.3313 36.2192C15.0915 35.7645 15.2235 35.1991 15.8445 34.758L15.6122 34.3139L16.1877 34.0107L16.4154 34.4458C16.7137 34.3175 17.0349 34.2505 17.3598 34.2487L17.4342 35.096C17.1188 35.0899 16.8065 35.159 16.5232 35.2976C16.2423 35.4492 16.1937 35.572 16.2453 35.669C16.423 36.0115 17.8532 34.9111 18.4013 35.957C18.6351 36.3996 18.5197 36.9483 17.9413 37.3863Z" fill="#F5F5F5"/>
<path d="M53.1303 26.0943C52.9322 26.8076 52.5316 27.4485 51.9767 27.9395C51.4218 28.4305 50.7365 28.7507 50.0033 28.8615C49.2702 28.9722 48.5206 28.8688 47.8451 28.5636C47.1696 28.2584 46.5969 27.7646 46.1963 27.1417C46.1462 27.0644 46.0992 26.9901 46.0551 26.9037C45.8599 26.547 45.722 26.1618 45.6467 25.7624C45.6331 25.6835 45.6209 25.6108 45.6103 25.5244C45.5501 25.0245 45.5893 24.5176 45.7257 24.0329C45.7378 23.9874 45.7515 23.9419 45.7667 23.8965C45.9545 23.3092 46.2813 22.7757 46.7195 22.3412C47.1576 21.9067 47.6942 21.5839 48.2837 21.4003C48.8732 21.2166 49.4984 21.1775 50.1063 21.2862C50.7142 21.3948 51.2869 21.6481 51.776 22.0245C51.8489 22.0806 51.9202 22.1397 51.9886 22.2019C52.2887 22.4689 52.5449 22.7814 52.7477 23.128C52.7917 23.2038 52.8343 23.2796 52.8737 23.3599C53.0134 23.6406 53.1179 23.9374 53.185 24.2436C53.256 24.5649 53.2846 24.8941 53.27 25.2228C53.2595 25.4701 53.2249 25.7158 53.1668 25.9564C53.1546 26.0034 53.1425 26.0488 53.1303 26.0943Z" fill="#F5F5F5"/>
<path d="M52.3469 26.0232C52.3636 25.9474 52.3788 25.8716 52.3894 25.7958C52.4416 25.4588 52.436 25.1154 52.3727 24.7803C52.3109 24.4441 52.1928 24.1208 52.0235 23.8238C51.981 23.748 51.9339 23.6723 51.8853 23.601C51.6538 23.2638 51.3576 22.9758 51.0138 22.7537C50.9273 22.7007 50.8392 22.6491 50.7481 22.6021C50.5656 22.5098 50.3744 22.4357 50.1772 22.3808C49.4158 22.1693 48.602 22.2587 47.9048 22.6304C47.2076 23.0022 46.6806 23.6277 46.4332 24.3771C46.4453 24.3316 46.4559 24.2861 46.4681 24.2407C46.6869 23.4568 47.2088 22.7918 47.9187 22.3919C48.6287 21.9921 49.4687 21.8903 50.2539 22.1088C51.0391 22.3272 51.7052 22.8482 52.1057 23.557C52.5062 24.2658 52.6082 25.1044 52.3894 25.8883L52.3469 26.0232Z" fill="#E0E0E0"/>
<g opacity="0.3">
<path d="M48.6028 28.0177L48.498 27.9874L48.3933 27.9525L48.3675 27.9434L48.2581 27.901H48.2414C48.1241 27.8517 48.0099 27.795 47.8998 27.7312C47.8634 27.71 47.8254 27.6888 47.7905 27.666C47.7176 27.6206 47.6493 27.572 47.581 27.522L47.5172 27.472L47.4823 27.4432L47.4337 27.3962C47.4079 27.3735 47.3821 27.3523 47.3578 27.328L47.2637 27.2386C47.2333 27.2083 47.2029 27.1764 47.1741 27.1446C47.1452 27.1128 47.1255 27.0931 47.1027 27.0643C47.08 27.0355 47.0724 27.0294 47.0587 27.0112L47.0223 26.9673L46.9828 26.9157C46.9615 26.8884 46.9403 26.8596 46.9205 26.8308C46.9008 26.802 46.8856 26.7808 46.8689 26.7535L46.8568 26.7369L46.7869 26.6247L46.7277 26.5171C46.7156 26.4944 46.7049 26.4716 46.6943 26.4504C46.6837 26.4292 46.6715 26.4049 46.6609 26.3822C46.6503 26.3595 46.6412 26.3397 46.6305 26.317C46.6199 26.2943 46.6093 26.27 46.6002 26.2458L46.5728 26.176C46.5637 26.1533 46.5546 26.1306 46.547 26.1063C46.5288 26.0578 46.5121 26.0093 46.4969 25.9547L46.4787 25.8926C46.465 25.8441 46.4529 25.7926 46.4408 25.741C46.4408 25.7168 46.4301 25.6925 46.4256 25.6683C46.4089 25.5895 46.3967 25.5167 46.3861 25.4318C46.3861 25.4106 46.3861 25.3894 46.3861 25.3682C46.3861 25.3212 46.377 25.2742 46.3755 25.2257C46.3755 25.1772 46.3755 25.1302 46.3755 25.0832V25.0165C46.3755 25.0044 46.3755 24.9938 46.3755 24.9832C46.3755 24.9725 46.3755 24.9362 46.3755 24.9119C46.3748 24.9084 46.3748 24.9048 46.3755 24.9013C46.3755 24.8755 46.3755 24.8483 46.3755 24.8225L46.3846 24.7346C46.3846 24.7043 46.3846 24.6755 46.3952 24.6467C46.4058 24.6179 46.3952 24.6012 46.4058 24.5769C46.4165 24.5527 46.4058 24.5481 46.4058 24.533C46.4058 24.5178 46.4134 24.4921 46.418 24.4708L46.4362 24.3844C46.6836 23.635 47.2106 23.0095 47.9078 22.6378C48.605 22.2661 49.4188 22.1767 50.1803 22.3882C50.3774 22.4431 50.5686 22.5172 50.7512 22.6095C50.8423 22.6565 50.9303 22.708 51.0169 22.7611C51.3606 22.9832 51.6568 23.2712 51.8883 23.6084C51.9369 23.6796 51.984 23.7599 52.0265 23.8312C52.1958 24.1282 52.3139 24.4515 52.3757 24.7876C52.439 25.1227 52.4447 25.4662 52.3924 25.8032C52.3818 25.879 52.3666 25.9547 52.3499 26.0305C52.1003 26.7787 51.572 27.4024 50.8745 27.7723C50.1769 28.1423 49.3635 28.2301 48.6028 28.0177Z" fill="black"/>
</g>
<path d="M48.6028 28.0177L48.498 27.9874L48.3933 27.9525L48.3675 27.9434L48.2581 27.901H48.2414C48.1241 27.8517 48.0099 27.795 47.8998 27.7312C47.8634 27.71 47.8254 27.6888 47.7905 27.666C47.7176 27.6206 47.6493 27.572 47.581 27.522L47.5537 27.5008C47.5403 27.4915 47.5277 27.4814 47.5157 27.4705L47.4808 27.4417L47.4337 27.3962C47.4079 27.3735 47.3821 27.3523 47.3578 27.328L47.2637 27.2386C47.2333 27.2083 47.2029 27.1764 47.1741 27.1446C47.1452 27.1128 47.1255 27.0931 47.1027 27.0643C47.08 27.0355 47.0724 27.0294 47.0587 27.0112L47.0223 26.9673L46.9828 26.9157C46.9615 26.8884 46.9403 26.8596 46.9205 26.8308C46.9008 26.802 46.8856 26.7808 46.8689 26.7535L46.8568 26.7369L46.7869 26.6247L46.7277 26.5171C46.7156 26.4944 46.7049 26.4716 46.6943 26.4504C46.6837 26.4292 46.6715 26.4049 46.6609 26.3822C46.6503 26.3595 46.6412 26.3397 46.6305 26.317C46.6199 26.2943 46.6093 26.27 46.6002 26.2458L46.5728 26.176C46.5637 26.1533 46.5546 26.1306 46.547 26.1063C46.5288 26.0578 46.5121 26.0093 46.4969 25.9547L46.4787 25.8926C46.465 25.8441 46.4529 25.7926 46.4408 25.741C46.4408 25.7168 46.4301 25.6925 46.4256 25.6683C46.4089 25.5895 46.3967 25.5167 46.3861 25.4318C46.3861 25.4106 46.3861 25.3894 46.3861 25.3682C46.3861 25.3212 46.377 25.2742 46.3755 25.2257C46.3755 25.1772 46.3755 25.1302 46.3755 25.0832V25.0165C46.3755 25.0044 46.3755 24.9938 46.3755 24.9832C46.3755 24.9725 46.3755 24.9362 46.3755 24.9119C46.3748 24.9084 46.3748 24.9048 46.3755 24.9013C46.3755 24.8755 46.3755 24.8483 46.3755 24.8225L46.3846 24.7346C46.3846 24.7043 46.3846 24.6755 46.3952 24.6467C46.4058 24.6179 46.3952 24.6012 46.4058 24.5769C46.4165 24.5527 46.4058 24.5481 46.4058 24.533C46.4058 24.5178 46.4134 24.4921 46.418 24.4708L46.4362 24.3844C46.6836 23.635 47.2106 23.0095 47.9078 22.6378C48.605 22.2661 49.4188 22.1767 50.1803 22.3882C50.3774 22.4431 50.5686 22.5172 50.7512 22.6095C50.8423 22.6565 50.9303 22.708 51.0169 22.7611C51.3606 22.9832 51.6568 23.2712 51.8883 23.6084C51.9369 23.6796 51.984 23.7599 52.0265 23.8312C52.1958 24.1282 52.3139 24.4515 52.3757 24.7876C52.439 25.1227 52.4447 25.4662 52.3924 25.8032C52.3818 25.879 52.3666 25.9547 52.3499 26.0305C52.1003 26.7787 51.572 27.4024 50.8745 27.7723C50.1769 28.1423 49.3635 28.2301 48.6028 28.0177Z" fill="#F0F0F0"/>
<path d="M49.371 26.8555L49.2344 27.3451L48.6088 27.1723L48.7409 26.704C48.3467 26.5779 47.9868 26.3632 47.6888 26.0765L48.2369 25.4095C48.4986 25.6754 48.8235 25.871 49.1812 25.9779C49.4849 26.0598 49.6018 26.028 49.6367 25.9219C49.7445 25.5323 47.9423 25.3701 48.2703 24.2151C48.4099 23.7149 48.8897 23.3966 49.6443 23.4967L49.7794 23.0146L50.4034 23.189L50.2713 23.6619C50.5791 23.7728 50.8607 23.9457 51.0988 24.1696L50.5735 24.8381C50.3486 24.6198 50.0748 24.4582 49.7749 24.3667C49.4712 24.2818 49.3467 24.344 49.3194 24.4501C49.2161 24.8214 51.0168 24.9882 50.698 26.1295C50.5522 26.607 50.0907 26.9268 49.371 26.8555Z" fill="#E0E0E0"/>
<path d="M49.3984 26.6866L49.2617 27.1762L48.6362 27.0034L48.7683 26.5335C48.374 26.4085 48.0139 26.1943 47.7161 25.9075L48.2657 25.2406C48.5267 25.5067 48.8511 25.7023 49.2086 25.809C49.5123 25.8908 49.6292 25.859 49.6641 25.7529C49.7719 25.3634 47.9712 25.2012 48.2976 24.0462C48.4373 23.546 48.9171 23.2277 49.6732 23.3277L49.8068 22.8457L50.4323 23.02L50.2987 23.4929C50.6067 23.6042 50.8888 23.777 51.1277 24.0007L50.5917 24.6676C50.3668 24.4494 50.0931 24.2878 49.7931 24.1962C49.4895 24.1114 49.365 24.1735 49.3377 24.2796C49.2344 24.651 51.0351 24.8177 50.7162 25.959C50.5796 26.438 50.118 26.7578 49.3984 26.6866Z" fill="#F5F5F5"/>
<path d="M25.1021 12.0913L24.5251 16.6676L20.5181 12.6674L25.1021 12.0913Z" fill="#F5F5F5"/>
<path d="M11.9505 26.3578L23.988 14.3404L22.8044 13.1587L11.9505 23.9945V26.3578Z" fill="#F5F5F5"/>
<path d="M16.8525 8.28935C16.8525 8.31208 16.848 8.33459 16.8392 8.35558C16.8305 8.37657 16.8177 8.39562 16.8015 8.41164C16.7853 8.42766 16.7662 8.44032 16.7451 8.44891C16.724 8.45749 16.7014 8.46182 16.6786 8.46165H15.9934V9.14829C15.9897 9.19158 15.9698 9.2319 15.9377 9.26128C15.9056 9.29065 15.8637 9.30695 15.8202 9.30695C15.7767 9.30695 15.7347 9.29065 15.7026 9.26128C15.6706 9.2319 15.6507 9.19158 15.6469 9.14829V8.46165H14.9592C14.9145 8.46032 14.8721 8.44176 14.8409 8.40986C14.8097 8.37797 14.792 8.33523 14.7917 8.29063C14.7917 8.24494 14.8099 8.20111 14.8423 8.1688C14.8746 8.13648 14.9185 8.11833 14.9643 8.11833H15.6521V7.42526C15.6558 7.38197 15.6757 7.34165 15.7078 7.31228C15.7399 7.2829 15.7818 7.2666 15.8253 7.2666C15.8689 7.2666 15.9108 7.2829 15.9429 7.31228C15.9749 7.34165 15.9948 7.38197 15.9986 7.42526V8.1119H16.6864C16.7319 8.11358 16.7749 8.13318 16.8061 8.16642C16.8372 8.19967 16.8539 8.24386 16.8525 8.28935Z" fill="#F5F5F5"/>
<path d="M60.3261 9.88741C60.3261 9.91015 60.3216 9.93266 60.3128 9.95365C60.3041 9.97464 60.2912 9.99369 60.2751 10.0097C60.2589 10.0257 60.2397 10.0384 60.2186 10.047C60.1976 10.0556 60.175 10.0599 60.1522 10.0597H59.4644V10.7464C59.4665 10.7703 59.4635 10.7945 59.4558 10.8172C59.448 10.84 59.4356 10.8609 59.4193 10.8786C59.403 10.8964 59.3832 10.9105 59.3612 10.9202C59.3391 10.9299 59.3153 10.9349 59.2912 10.9349C59.2671 10.9349 59.2433 10.9299 59.2212 10.9202C59.1991 10.9105 59.1793 10.8964 59.1631 10.8786C59.1468 10.8609 59.1343 10.84 59.1266 10.8172C59.1188 10.7945 59.1159 10.7703 59.1179 10.7464V10.061H58.4302C58.3844 10.061 58.3405 10.0428 58.3081 10.0105C58.2758 9.97822 58.2576 9.93439 58.2576 9.8887C58.2579 9.8431 58.2762 9.79947 58.3085 9.76723C58.3408 9.73499 58.3845 9.71673 58.4302 9.71639H59.1179V9.02976C59.1217 8.98646 59.1416 8.94615 59.1736 8.91677C59.2057 8.88739 59.2477 8.87109 59.2912 8.87109C59.3347 8.87109 59.3767 8.88739 59.4087 8.91677C59.4408 8.94615 59.4607 8.98646 59.4644 9.02976V9.71639H60.1522C60.1979 9.71639 60.2417 9.73432 60.2743 9.76632C60.3068 9.79832 60.3254 9.84182 60.3261 9.88741Z" fill="#F5F5F5"/>
<path d="M35.7137 35.8155C35.7134 35.8613 35.6949 35.9051 35.6623 35.9374C35.6298 35.9696 35.5857 35.9878 35.5398 35.9878H34.8508V36.6744C34.8528 36.6984 34.8499 36.7225 34.8421 36.7453C34.8344 36.768 34.822 36.7889 34.8057 36.8067C34.7894 36.8244 34.7696 36.8385 34.7475 36.8482C34.7255 36.8579 34.7016 36.8629 34.6775 36.8629C34.6534 36.8629 34.6296 36.8579 34.6076 36.8482C34.5855 36.8385 34.5657 36.8244 34.5494 36.8067C34.5331 36.7889 34.5207 36.768 34.5129 36.7453C34.5052 36.7225 34.5022 36.6984 34.5043 36.6744V35.9878H33.8165C33.7706 35.9878 33.7266 35.9696 33.694 35.9374C33.6614 35.9051 33.643 35.8613 33.6426 35.8155C33.6433 35.7697 33.6619 35.7261 33.6944 35.6939C33.7269 35.6617 33.7707 35.6435 33.8165 35.6432H34.5043V34.9565C34.508 34.9132 34.5279 34.8729 34.56 34.8435C34.5921 34.8141 34.634 34.7979 34.6775 34.7979C34.7211 34.7979 34.763 34.8141 34.7951 34.8435C34.8272 34.8729 34.847 34.9132 34.8508 34.9565V35.6432H35.5386C35.5846 35.6431 35.6287 35.6612 35.6615 35.6935C35.6943 35.7257 35.713 35.7695 35.7137 35.8155Z" fill="#F5F5F5"/>
<path d="M48.8667 19.0995C48.622 18.5286 48.0037 17.4613 46.726 17.1707C45.5578 16.9046 44.6743 18.3794 43.9504 18.4874C43.2266 18.5955 43.3064 18.2701 41.8561 17.7275C40.6171 17.262 39.7863 18.4707 39.4914 19.0995H48.8667Z" fill="#F5F5F5"/>
<path d="M34.4027 9.18555C34.4027 9.18555 34.4027 7.88686 33.125 7.83157C32.5132 7.80585 31.7675 8.30475 31.2961 7.51525C30.7487 6.59845 29.7917 6.05196 28.93 6.40686C27.9782 6.79261 27.4385 8.30218 26.5086 8.17874C25.5787 8.0553 23.8038 7.4381 22.8881 9.18555H34.4027Z" fill="#F5F5F5"/>
<path d="M29.3746 52C40.0298 52 48.6676 51.6505 48.6676 51.2195C48.6676 50.7884 40.0298 50.439 29.3746 50.439C18.7195 50.439 10.0817 50.7884 10.0817 51.2195C10.0817 51.6505 18.7195 52 29.3746 52Z" fill="#F0F0F0"/>
<path d="M23.5614 25.137C23.2892 26.304 22.7584 27.3949 22.0083 28.3294C21.2583 29.2638 20.308 30.018 19.2275 30.5362C18.1471 31.0544 16.9641 31.3234 15.7659 31.3235C14.5676 31.3235 13.3846 31.0545 12.3042 30.5363C11.656 30.2261 11.0533 29.8286 10.5131 29.3547C10.0391 28.9389 9.61544 28.469 9.25068 27.9546C9.13929 27.7974 9.03226 27.6357 8.93616 27.4719C8.49711 26.7474 8.17569 25.9579 7.98386 25.1327C7.94673 24.9689 7.91397 24.8072 7.88557 24.6412C7.71333 23.6058 7.74747 22.5466 7.98605 21.5244C8.00789 21.4283 8.03191 21.3322 8.06031 21.2383C8.39696 19.9983 9.02729 18.8577 9.89798 17.9129C10.7687 16.968 11.8541 16.2468 13.0625 15.8102C14.2708 15.3735 15.5666 15.2343 16.8401 15.4043C18.1137 15.5744 19.3275 16.0486 20.379 16.787C20.5363 16.8983 20.6892 17.0054 20.8377 17.1364C21.4853 17.6649 22.0455 18.2922 22.4977 18.9952C22.596 19.148 22.6921 19.3053 22.7795 19.4648C23.4296 20.642 23.7729 21.964 23.7776 23.3089C23.7768 23.822 23.7278 24.3339 23.6313 24.8378C23.6029 24.9427 23.5832 25.0409 23.5614 25.137Z" fill="#407BFF"/>
<path d="M23.5614 25.137C23.2892 26.304 22.7584 27.3949 22.0083 28.3294C21.2583 29.2638 20.308 30.018 19.2275 30.5362C18.1471 31.0544 16.9641 31.3234 15.7659 31.3235C14.5676 31.3235 13.3846 31.0545 12.3042 30.5363C11.656 30.2261 11.0533 29.8286 10.5131 29.3547C10.0391 28.9389 9.61544 28.469 9.25068 27.9546C9.13929 27.7974 9.03226 27.6357 8.93616 27.4719C8.49711 26.7474 8.17569 25.9579 7.98386 25.1327C7.94673 24.9689 7.91397 24.8072 7.88557 24.6412C7.71333 23.6058 7.74747 22.5466 7.98605 21.5244C8.00789 21.4283 8.03191 21.3322 8.06031 21.2383C8.39696 19.9983 9.02729 18.8577 9.89798 17.9129C10.7687 16.968 11.8541 16.2468 13.0625 15.8102C14.2708 15.3735 15.5666 15.2343 16.8401 15.4043C18.1137 15.5744 19.3275 16.0486 20.379 16.787C20.5363 16.8983 20.6892 17.0054 20.8377 17.1364C21.4853 17.6649 22.0455 18.2922 22.4977 18.9952C22.596 19.148 22.6921 19.3053 22.7795 19.4648C23.4296 20.642 23.7729 21.964 23.7776 23.3089C23.7768 23.822 23.7278 24.3339 23.6313 24.8378C23.6029 24.9427 23.5832 25.0409 23.5614 25.137Z" fill="#407BFF"/>
<path opacity="0.6" d="M21.9256 25.0585C21.954 24.9013 21.978 24.7418 21.9933 24.5824C22.1414 23.1569 21.806 21.723 21.041 20.5111C20.9449 20.3553 20.8423 20.2046 20.7331 20.0589C20.2219 19.3778 19.5795 18.806 18.8438 18.3771C18.6602 18.2701 18.4714 18.1724 18.2781 18.0845C17.4386 17.7015 16.5262 17.5049 15.6036 17.508C14.6809 17.5112 13.7699 17.7141 12.9331 18.1029C12.0963 18.4916 11.3536 19.0569 10.7561 19.7599C10.1585 20.4629 9.72029 21.2869 9.47147 22.1754C9.49112 22.0793 9.51078 21.9832 9.53262 21.8871C9.95712 20.2803 10.9906 18.902 12.4141 18.0442C13.8376 17.1865 15.5391 16.9168 17.158 17.2923C18.777 17.6678 20.1861 18.6589 21.0867 20.0557C21.9873 21.4524 22.3085 23.145 21.9824 24.7746C21.9759 24.8707 21.9497 24.9668 21.9256 25.0585Z" fill="black"/>
<g opacity="0.3">
<path d="M14.3247 29.5579C14.2504 29.5427 14.1783 29.523 14.1063 29.5033L13.8878 29.44L13.8332 29.4225L13.5995 29.3439L13.5668 29.3308C13.3179 29.2397 13.075 29.1332 12.8394 29.0119C12.7608 28.9704 12.6822 28.9289 12.6057 28.883C12.4507 28.7957 12.3021 28.7039 12.1689 28.6035L12.0313 28.5052L11.9549 28.4484L11.8478 28.3654C11.7932 28.3239 11.7386 28.2802 11.684 28.2322C11.6294 28.1841 11.5464 28.1164 11.4809 28.053C11.4154 27.9897 11.3477 27.9307 11.2843 27.8674C11.221 27.8041 11.1817 27.7626 11.1314 27.708C11.0812 27.6533 11.0637 27.6381 11.0331 27.6009C11.0026 27.5638 10.9807 27.542 10.9545 27.5136L10.8671 27.4087L10.7295 27.2362C10.6902 27.1859 10.6509 27.1357 10.616 27.0833L10.5897 27.0483C10.5373 26.9741 10.4849 26.8976 10.4347 26.8299C10.3844 26.7622 10.3429 26.6858 10.2992 26.6115V26.6006C10.273 26.5569 10.2468 26.511 10.2228 26.4652C10.1988 26.4193 10.1726 26.3734 10.1485 26.3276L10.0786 26.1943C10.0568 26.1463 10.0306 26.0982 10.0088 26.0502L9.94541 25.906C9.92357 25.8601 9.90391 25.8121 9.88426 25.764C9.84276 25.6657 9.80563 25.5653 9.7685 25.4604L9.72481 25.3359C9.68987 25.2333 9.65929 25.1284 9.63308 25.0258C9.61779 24.9734 9.60468 24.9231 9.59158 24.8729C9.55226 24.7113 9.5195 24.5496 9.49111 24.3858L9.47145 24.2548C9.45616 24.1565 9.44524 24.0582 9.43432 23.9599V23.9446C9.43432 23.8463 9.41684 23.7459 9.41248 23.6476V23.51V23.427C9.41248 23.3789 9.41248 23.3287 9.41248 23.2806V23.2588C9.41248 23.202 9.41248 23.1474 9.41248 23.0906C9.41248 23.0338 9.41248 22.9683 9.41248 22.9071C9.41248 22.846 9.41248 22.7848 9.42558 22.7259C9.43869 22.6669 9.42558 22.6276 9.44305 22.5795C9.46053 22.5315 9.44305 22.5162 9.44305 22.4856C9.44305 22.455 9.45398 22.4004 9.46053 22.3567C9.46708 22.313 9.48019 22.2344 9.49111 22.1733C9.73993 21.2848 10.1782 20.4607 10.7757 19.7577C11.3733 19.0547 12.116 18.4894 12.9528 18.1007C13.7895 17.712 14.7006 17.5091 15.6232 17.5059C16.5459 17.5027 17.4583 17.6994 18.2977 18.0823C18.4911 18.1703 18.6799 18.2679 18.8634 18.375C19.5991 18.8038 20.2415 19.3757 20.7527 20.0568C20.8619 20.2024 20.9646 20.3531 21.0607 20.5089C21.8226 21.7219 22.1549 23.1557 22.0042 24.5802C21.9889 24.7397 21.9649 24.8991 21.9365 25.0564C21.4904 26.6418 20.4504 27.9943 19.0328 28.8327C17.6151 29.6711 15.9289 29.9308 14.3247 29.5579Z" fill="black"/>
</g>
<g opacity="0.6">
<path d="M15.8165 27.0666L15.5762 28.0998L14.2701 27.7962L14.4885 26.8089C13.6601 26.5857 12.8937 26.1763 12.2475 25.612L13.3265 24.1726C13.8952 24.7014 14.5889 25.0772 15.3425 25.2647C15.9672 25.411 16.2162 25.3324 16.273 25.1074C16.463 24.2884 12.7018 24.1136 13.2654 21.6805C13.51 20.6277 14.4798 19.92 16.0567 20.0598L16.2926 19.042L17.6031 19.3478L17.3716 20.3459C18.0211 20.5484 18.6223 20.8814 19.1386 21.3245L18.1077 22.7638C17.6181 22.3325 17.0336 22.0227 16.4018 21.8596C15.7597 21.7089 15.5107 21.8487 15.4583 22.078C15.277 22.8621 19.0359 23.0456 18.479 25.4504C18.2496 26.442 17.3279 27.1409 15.8165 27.0666Z" fill="black"/>
</g>
<path d="M15.8581 26.7031L15.6178 27.7384L14.3073 27.4326L14.5257 26.4453C13.6956 26.2192 12.9283 25.806 12.2826 25.2375L13.3615 23.7981C13.9303 24.3269 14.6239 24.7027 15.3775 24.8902C16.0022 25.0343 16.2512 24.9557 16.308 24.7329C16.498 23.9117 12.7369 23.7369 13.3004 21.3038C13.545 20.251 14.5148 19.5433 16.0918 19.6831L16.3277 18.6675L17.6382 18.9711L17.4066 19.9692C18.0561 20.1717 18.6574 20.5047 19.1736 20.9478L18.1427 22.3893C17.6539 21.9564 17.0692 21.6457 16.4369 21.4829C15.7947 21.3344 15.5457 21.4829 15.4933 21.7013C15.312 22.4832 19.071 22.6667 18.514 25.0715C18.2912 26.0871 17.3608 26.7948 15.8581 26.7031Z" fill="#407BFF"/>
<path d="M47.5356 45.389C47.2634 46.5559 46.7326 47.6469 45.9826 48.5813C45.2325 49.5158 44.2822 50.2699 43.2017 50.7881C42.1213 51.3063 40.9383 51.5754 39.7401 51.5754C38.5418 51.5754 37.3588 51.3064 36.2784 50.7883C35.6302 50.4781 35.0276 50.0805 34.4873 49.6066C34.0134 49.1908 33.5897 48.7209 33.2249 48.2066C33.1135 48.0493 33.0065 47.8877 32.9104 47.7239C32.4713 46.9994 32.1499 46.2098 31.9581 45.3846C31.9209 45.2208 31.8882 45.0592 31.8598 44.8932C31.6875 43.8578 31.7217 42.7985 31.9603 41.7764C31.9821 41.6803 32.0061 41.5842 32.0345 41.4903C32.3712 40.2503 33.0015 39.1097 33.8722 38.1648C34.7429 37.22 35.8283 36.4988 37.0367 36.0621C38.2451 35.6255 39.5408 35.4863 40.8144 35.6563C42.0879 35.8263 43.3018 36.3006 44.3533 37.0389C44.5105 37.1503 44.6634 37.2573 44.8119 37.3884C45.4595 37.9169 46.0197 38.5441 46.4719 39.2471C46.5702 39.4 46.6663 39.5573 46.7537 39.7167C47.4039 40.894 47.7471 42.216 47.7518 43.5609C47.751 44.0739 47.702 44.5858 47.6055 45.0898C47.5771 45.1946 47.5574 45.2929 47.5356 45.389Z" fill="#407BFF"/>
<path d="M47.5356 45.389C47.2634 46.5559 46.7326 47.6469 45.9826 48.5813C45.2325 49.5158 44.2822 50.2699 43.2017 50.7881C42.1213 51.3063 40.9383 51.5754 39.7401 51.5754C38.5418 51.5754 37.3588 51.3064 36.2784 50.7883C35.6302 50.4781 35.0276 50.0805 34.4873 49.6066C34.0134 49.1908 33.5897 48.7209 33.2249 48.2066C33.1135 48.0493 33.0065 47.8877 32.9104 47.7239C32.4713 46.9994 32.1499 46.2098 31.9581 45.3846C31.9209 45.2208 31.8882 45.0592 31.8598 44.8932C31.6875 43.8578 31.7217 42.7985 31.9603 41.7764C31.9821 41.6803 32.0061 41.5842 32.0345 41.4903C32.3712 40.2503 33.0015 39.1097 33.8722 38.1648C34.7429 37.22 35.8283 36.4988 37.0367 36.0621C38.2451 35.6255 39.5408 35.4863 40.8144 35.6563C42.0879 35.8263 43.3018 36.3006 44.3533 37.0389C44.5105 37.1503 44.6634 37.2573 44.8119 37.3884C45.4595 37.9169 46.0197 38.5441 46.4719 39.2471C46.5702 39.4 46.6663 39.5573 46.7537 39.7167C47.4039 40.894 47.7471 42.216 47.7518 43.5609C47.751 44.0739 47.702 44.5858 47.6055 45.0898C47.5771 45.1946 47.5574 45.2929 47.5356 45.389Z" fill="#407BFF"/>
<path opacity="0.6" d="M45.8995 45.3105C45.9279 45.1532 45.9519 44.9938 45.9672 44.8343C46.1152 43.4088 45.7799 41.975 45.0149 40.763C44.9188 40.6072 44.8161 40.4565 44.7069 40.3109C44.1958 39.6298 43.5534 39.0579 42.8176 38.6291C42.6341 38.5221 42.4453 38.4244 42.2519 38.3364C41.4125 37.9535 40.5001 37.7568 39.5774 37.76C38.6548 37.7632 37.7438 37.9661 36.907 38.3548C36.0702 38.7435 35.3275 39.3088 34.73 40.0118C34.1324 40.7148 33.6942 41.5389 33.4453 42.4274C33.465 42.3313 33.4847 42.2352 33.5065 42.1391C33.931 40.5323 34.9645 39.1539 36.388 38.2962C37.8114 37.4385 39.513 37.1688 41.1319 37.5442C42.7509 37.9197 44.16 38.9109 45.0605 40.3076C45.9611 41.7044 46.2824 43.3969 45.9563 45.0265C45.9497 45.1226 45.9235 45.2187 45.8995 45.3105Z" fill="black"/>
<g opacity="0.3">
<path d="M38.2986 49.8089C38.2244 49.7936 38.1523 49.774 38.0802 49.7543L37.8618 49.691L37.8072 49.6735L37.5735 49.5949L37.5407 49.5818C37.2919 49.4907 37.049 49.3842 36.8134 49.2629C36.7347 49.2214 36.6561 49.1799 36.5797 49.134C36.4246 49.0466 36.2761 48.9549 36.1428 48.8544L36.0052 48.7562L35.9288 48.6994L35.8218 48.6164C35.7672 48.5749 35.7126 48.5312 35.658 48.4831C35.6033 48.4351 35.5204 48.3674 35.4548 48.304C35.3893 48.2407 35.3216 48.1817 35.2582 48.1184C35.1949 48.055 35.1556 48.0135 35.1054 47.9589C35.0551 47.9043 35.0376 47.889 35.0071 47.8519C34.9765 47.8148 34.9546 47.7929 34.9284 47.7645L34.8411 47.6597L34.7035 47.4871C34.6642 47.4369 34.6248 47.3867 34.5899 47.3343L34.5637 47.2993C34.5113 47.225 34.4588 47.1486 34.4086 47.0809C34.3584 47.0132 34.3169 46.9367 34.2732 46.8625V46.8516C34.247 46.8079 34.2208 46.762 34.1967 46.7161C34.1727 46.6703 34.1465 46.6244 34.1225 46.5785L34.0526 46.4453C34.0307 46.3972 34.0045 46.3492 33.9827 46.3011L33.9194 46.157C33.8975 46.1111 33.8779 46.0631 33.8582 46.015C33.8167 45.9167 33.7796 45.8163 33.7424 45.7114L33.6988 45.5869C33.6638 45.4843 33.6332 45.3794 33.607 45.2768C33.5917 45.2243 33.5786 45.1741 33.5655 45.1239C33.5262 44.9622 33.4934 44.8006 33.465 44.6368L33.4454 44.5057C33.4301 44.4075 33.4192 44.3092 33.4083 44.2109V44.1956C33.4083 44.0973 33.3908 43.9968 33.3864 43.8985V43.7609V43.6779C33.3864 43.6299 33.3864 43.5797 33.3864 43.5316V43.5098C33.3864 43.453 33.3864 43.3984 33.3864 43.3416C33.3864 43.2848 33.3864 43.2193 33.3864 43.1581C33.3864 43.097 33.3864 43.0358 33.3995 42.9768C33.4126 42.9179 33.3995 42.8785 33.417 42.8305C33.4345 42.7824 33.417 42.7671 33.417 42.7366C33.417 42.706 33.4279 42.6514 33.4345 42.6077C33.441 42.564 33.4541 42.4854 33.465 42.4242C33.7139 41.5358 34.1521 40.7117 34.7497 40.0087C35.3472 39.3057 36.0899 38.7404 36.9267 38.3517C37.7635 37.963 38.6745 37.7601 39.5971 37.7569C40.5198 37.7537 41.4322 37.9503 42.2716 38.3333C42.465 38.4212 42.6538 38.5189 42.8373 38.626C43.5731 39.0548 44.2155 39.6267 44.7266 40.3078C44.8358 40.4534 44.9385 40.6041 45.0346 40.7599C45.7965 41.9729 46.1288 43.4067 45.9782 44.8312C45.9629 44.9906 45.9389 45.1501 45.9105 45.3073C45.4644 46.8928 44.4244 48.2453 43.0067 49.0837C41.5891 49.922 39.9029 50.1818 38.2986 49.8089Z" fill="black"/>
</g>
<g opacity="0.6">
<path d="M39.7906 47.3176L39.5503 48.3507L38.2442 48.0471L38.4626 47.0599C37.6343 46.8367 36.8678 46.4273 36.2216 45.863L37.3006 44.4236C37.8693 44.9524 38.563 45.3282 39.3166 45.5157C39.9413 45.662 40.1903 45.5834 40.2471 45.3584C40.4371 44.5394 36.676 44.3646 37.2395 41.9315C37.4841 40.8787 38.4539 40.171 40.0308 40.3108L40.2667 39.293L41.5772 39.5988L41.3457 40.5969C41.9952 40.7994 42.5965 41.1324 43.1127 41.5754L42.0818 43.0148C41.5922 42.5835 41.0077 42.2737 40.3759 42.1106C39.7338 41.9598 39.4848 42.0996 39.4324 42.329C39.2511 43.1131 43.0101 43.2966 42.4531 45.7013C42.2238 46.6929 41.302 47.3919 39.7906 47.3176Z" fill="black"/>
</g>
<path d="M39.832 46.955L39.5917 47.9903L38.2812 47.6845L38.4996 46.6973C37.6695 46.4712 36.9022 46.058 36.2565 45.4894L37.3355 44.0501C37.9042 44.5789 38.5978 44.9546 39.3514 45.1421C39.9761 45.2863 40.2251 45.2077 40.2819 44.9849C40.4719 44.1636 36.7108 43.9889 37.2743 41.5557C37.5189 40.503 38.4887 39.7953 40.0657 39.9351L40.3016 38.9194L41.6121 39.223L41.3805 40.2212C42.03 40.4237 42.6313 40.7567 43.1475 41.1997L42.1166 42.6413C41.6278 42.2083 41.0431 41.8977 40.4108 41.7348C39.7686 41.5863 39.5196 41.7348 39.4672 41.9533C39.2859 42.7352 43.0449 42.9187 42.4879 45.3234C42.2651 46.3391 41.3347 47.0467 39.832 46.955Z" fill="#407BFF"/>
<path d="M24.7582 36.6215L26.1443 38.0089L13.0172 51.1347H15.3819L27.3273 39.1919L28.7597 40.623L29.3358 36.0454L24.7582 36.6215Z" fill="#407BFF"/>
<g opacity="0.3">
<path d="M24.7582 36.6215L26.1443 38.0089L13.0172 51.1347H15.3819L27.3273 39.1919L28.7597 40.623L29.3358 36.0454L24.7582 36.6215Z" fill="white"/>
</g>
<path d="M30.3091 12.1402L30.6833 12.0335L30.4442 11.2029L30.0121 11.3314C29.8884 11.1914 29.7333 11.0826 29.5595 11.0138V10.5767H28.6954V11.0138C28.5599 11.0676 28.4352 11.1456 28.3277 11.244L27.9419 11.0588L27.5639 11.8304L27.9432 12.0155C27.9432 12.0464 27.9432 12.0785 27.9432 12.1094C27.9433 12.3115 27.995 12.5103 28.0936 12.6867L27.8095 13.0429L28.4845 13.5817L28.761 13.2358C28.8794 13.2741 29.003 13.2937 29.1275 13.2936C29.2184 13.2935 29.309 13.2827 29.3975 13.2615L29.6469 13.6125L30.3516 13.1123L30.1086 12.7703C30.2345 12.5839 30.3041 12.3652 30.3091 12.1402ZM28.3495 12.1094C28.3495 11.9571 28.3946 11.8082 28.4791 11.6814C28.5636 11.5547 28.6837 11.4558 28.8243 11.3972C28.9649 11.3387 29.1197 11.323 29.2692 11.3523C29.4187 11.3815 29.5561 11.4544 29.6643 11.5616C29.7724 11.6689 29.8464 11.8057 29.8769 11.955C29.9074 12.1042 29.893 12.2591 29.8356 12.4002C29.7782 12.5413 29.6803 12.6622 29.5543 12.7477C29.4283 12.8333 29.2798 12.8796 29.1275 12.8809C28.9223 12.8806 28.7256 12.7994 28.58 12.6549C28.4344 12.5105 28.3516 12.3145 28.3495 12.1094Z" fill="#407BFF"/>
<path opacity="0.6" d="M30.3091 12.1402L30.6833 12.0335L30.4442 11.2029L30.0121 11.3314C29.8884 11.1914 29.7333 11.0826 29.5595 11.0138V10.5767H28.6954V11.0138C28.5599 11.0676 28.4352 11.1456 28.3277 11.244L27.9419 11.0588L27.5639 11.8304L27.9432 12.0155C27.9432 12.0464 27.9432 12.0785 27.9432 12.1094C27.9433 12.3115 27.995 12.5103 28.0936 12.6867L27.8095 13.0429L28.4845 13.5817L28.761 13.2358C28.8794 13.2741 29.003 13.2937 29.1275 13.2936C29.2184 13.2935 29.309 13.2827 29.3975 13.2615L29.6469 13.6125L30.3516 13.1123L30.1086 12.7703C30.2345 12.5839 30.3041 12.3652 30.3091 12.1402ZM28.3495 12.1094C28.3495 11.9571 28.3946 11.8082 28.4791 11.6814C28.5636 11.5547 28.6837 11.4558 28.8243 11.3972C28.9649 11.3387 29.1197 11.323 29.2692 11.3523C29.4187 11.3815 29.5561 11.4544 29.6643 11.5616C29.7724 11.6689 29.8464 11.8057 29.8769 11.955C29.9074 12.1042 29.893 12.2591 29.8356 12.4002C29.7782 12.5413 29.6803 12.6622 29.5543 12.7477C29.4283 12.8333 29.2798 12.8796 29.1275 12.8809C28.9223 12.8806 28.7256 12.7994 28.58 12.6549C28.4344 12.5105 28.3516 12.3145 28.3495 12.1094Z" fill="white"/>
<path d="M37.281 31.7316L37.6539 31.6249L37.416 30.8006L36.984 30.9292C36.8602 30.7892 36.7051 30.6803 36.5313 30.6116V30.1577H35.6634V30.5949C35.5277 30.6483 35.403 30.7264 35.2956 30.8251L34.9099 30.6399L34.5319 31.4114L34.9176 31.5966C34.9176 31.6274 34.9176 31.6583 34.9176 31.6904C34.917 31.8926 34.9689 32.0916 35.0681 32.2678L34.7826 32.624L35.4589 33.1627L35.7354 32.8168C35.8538 32.8552 35.9774 32.8747 36.1019 32.8747C36.1928 32.8745 36.2834 32.8637 36.3719 32.8425L36.6213 33.1936L37.326 32.6934L37.0778 32.3604C37.2044 32.1746 37.2749 31.9563 37.281 31.7316ZM35.3214 31.7007C35.3226 31.5487 35.3688 31.4004 35.4541 31.2745C35.5393 31.1487 35.6599 31.0508 35.8006 30.9932C35.9413 30.9356 36.0959 30.9208 36.2449 30.9508C36.394 30.9808 36.5309 31.0541 36.6384 31.1616C36.7459 31.2692 36.8192 31.406 36.8492 31.5551C36.8792 31.7041 36.8644 31.8587 36.8068 31.9994C36.7493 32.1401 36.6514 32.2607 36.5255 32.346C36.3996 32.4312 36.2513 32.4774 36.0993 32.4787C35.9969 32.4795 35.8954 32.46 35.8006 32.4212C35.7058 32.3824 35.6197 32.3251 35.5473 32.2527C35.4749 32.1803 35.4176 32.0942 35.3788 31.9994C35.34 31.9047 35.3205 31.8031 35.3214 31.7007Z" fill="#407BFF"/>
<path opacity="0.6" d="M37.281 31.7316L37.6539 31.6249L37.416 30.8006L36.984 30.9292C36.8602 30.7892 36.7051 30.6803 36.5313 30.6116V30.1577H35.6634V30.5949C35.5277 30.6483 35.403 30.7264 35.2956 30.8251L34.9099 30.6399L34.5319 31.4114L34.9176 31.5966C34.9176 31.6274 34.9176 31.6583 34.9176 31.6904C34.917 31.8926 34.9689 32.0916 35.0681 32.2678L34.7826 32.624L35.4589 33.1627L35.7354 32.8168C35.8538 32.8552 35.9774 32.8747 36.1019 32.8747C36.1928 32.8745 36.2834 32.8637 36.3719 32.8425L36.6213 33.1936L37.326 32.6934L37.0778 32.3604C37.2044 32.1746 37.2749 31.9563 37.281 31.7316ZM35.3214 31.7007C35.3226 31.5487 35.3688 31.4004 35.4541 31.2745C35.5393 31.1487 35.6599 31.0508 35.8006 30.9932C35.9413 30.9356 36.0959 30.9208 36.2449 30.9508C36.394 30.9808 36.5309 31.0541 36.6384 31.1616C36.7459 31.2692 36.8192 31.406 36.8492 31.5551C36.8792 31.7041 36.8644 31.8587 36.8068 31.9994C36.7493 32.1401 36.6514 32.2607 36.5255 32.346C36.3996 32.4312 36.2513 32.4774 36.0993 32.4787C35.9969 32.4795 35.8954 32.46 35.8006 32.4212C35.7058 32.3824 35.6197 32.3251 35.5473 32.2527C35.4749 32.1803 35.4176 32.0942 35.3788 31.9994C35.34 31.9047 35.3205 31.8031 35.3214 31.7007Z" fill="white"/>
</g>
<rect x="1.5" y="1" width="58" height="58" rx="29" stroke="#407BFF" stroke-width="2"/>
<path d="M60.5 30H1200.5" stroke="#407BFF" stroke-width="2" stroke-linecap="round"/>
<path d="M81.0391 13.5684V19.2031C80.8177 19.4701 80.4759 19.7598 80.0137 20.0723C79.5514 20.3783 78.9557 20.6419 78.2266 20.8633C77.4974 21.0846 76.6152 21.1953 75.5801 21.1953C74.6621 21.1953 73.8255 21.0456 73.0703 20.7461C72.3151 20.4401 71.6641 19.9941 71.1172 19.4082C70.5768 18.8223 70.1602 18.1061 69.8672 17.2598C69.5742 16.4069 69.4277 15.4336 69.4277 14.3398V13.4512C69.4277 12.3574 69.5677 11.3841 69.8477 10.5312C70.1341 9.67839 70.541 8.95898 71.0684 8.37305C71.5957 7.78711 72.224 7.34115 72.9531 7.03516C73.6823 6.72917 74.4928 6.57617 75.3848 6.57617C76.6217 6.57617 77.6374 6.77799 78.4316 7.18164C79.2259 7.57878 79.8314 8.13216 80.248 8.8418C80.6712 9.54492 80.9316 10.3522 81.0293 11.2637H78.1875C78.1159 10.7819 77.9792 10.362 77.7773 10.0039C77.5755 9.64583 77.2858 9.36589 76.9082 9.16406C76.5371 8.96224 76.0553 8.86133 75.4629 8.86133C74.9746 8.86133 74.5384 8.96224 74.1543 9.16406C73.7767 9.35938 73.4577 9.64909 73.1973 10.0332C72.9368 10.4173 72.7383 10.8926 72.6016 11.459C72.4648 12.0254 72.3965 12.6829 72.3965 13.4316V14.3398C72.3965 15.082 72.4681 15.7396 72.6113 16.3125C72.7546 16.8789 72.9661 17.3574 73.2461 17.748C73.5326 18.1322 73.8841 18.4219 74.3008 18.6172C74.7174 18.8125 75.2025 18.9102 75.7559 18.9102C76.2181 18.9102 76.6022 18.8711 76.9082 18.793C77.2207 18.7148 77.4714 18.6204 77.6602 18.5098C77.8555 18.3926 78.0052 18.2819 78.1094 18.1777V15.6582H75.4336V13.5684H81.0391ZM82.7773 15.8242V15.6191C82.7773 14.8444 82.888 14.1315 83.1094 13.4805C83.3307 12.8229 83.653 12.2533 84.0762 11.7715C84.4993 11.2897 85.0202 10.9154 85.6387 10.6484C86.2572 10.375 86.9668 10.2383 87.7676 10.2383C88.5684 10.2383 89.2812 10.375 89.9062 10.6484C90.5312 10.9154 91.0553 11.2897 91.4785 11.7715C91.9082 12.2533 92.2337 12.8229 92.4551 13.4805C92.6764 14.1315 92.7871 14.8444 92.7871 15.6191V15.8242C92.7871 16.5924 92.6764 17.3053 92.4551 17.9629C92.2337 18.6139 91.9082 19.1836 91.4785 19.6719C91.0553 20.1536 90.5345 20.528 89.916 20.7949C89.2975 21.0618 88.5879 21.1953 87.7871 21.1953C86.9863 21.1953 86.2734 21.0618 85.6484 20.7949C85.0299 20.528 84.5059 20.1536 84.0762 19.6719C83.653 19.1836 83.3307 18.6139 83.1094 17.9629C82.888 17.3053 82.7773 16.5924 82.7773 15.8242ZM85.5898 15.6191V15.8242C85.5898 16.2669 85.6289 16.6803 85.707 17.0645C85.7852 17.4486 85.9089 17.7871 86.0781 18.0801C86.2539 18.3665 86.4818 18.5911 86.7617 18.7539C87.0417 18.9167 87.3835 18.998 87.7871 18.998C88.1777 18.998 88.513 18.9167 88.793 18.7539C89.0729 18.5911 89.2975 18.3665 89.4668 18.0801C89.6361 17.7871 89.7598 17.4486 89.8379 17.0645C89.9225 16.6803 89.9648 16.2669 89.9648 15.8242V15.6191C89.9648 15.1895 89.9225 14.7858 89.8379 14.4082C89.7598 14.0241 89.6328 13.6855 89.457 13.3926C89.2878 13.0931 89.0632 12.8587 88.7832 12.6895C88.5033 12.5202 88.1647 12.4355 87.7676 12.4355C87.3704 12.4355 87.0319 12.5202 86.752 12.6895C86.4785 12.8587 86.2539 13.0931 86.0781 13.3926C85.9089 13.6855 85.7852 14.0241 85.707 14.4082C85.6289 14.7858 85.5898 15.1895 85.5898 15.6191ZM104.672 10.4336V12.4258H98.5195V10.4336H104.672ZM100.043 7.82617H102.855V17.8164C102.855 18.1224 102.895 18.3568 102.973 18.5195C103.057 18.6823 103.181 18.7962 103.344 18.8613C103.507 18.9199 103.712 18.9492 103.959 18.9492C104.135 18.9492 104.291 18.9427 104.428 18.9297C104.571 18.9102 104.691 18.8906 104.789 18.8711L104.799 20.9414C104.558 21.0195 104.298 21.0814 104.018 21.127C103.738 21.1725 103.428 21.1953 103.09 21.1953C102.471 21.1953 101.931 21.0944 101.469 20.8926C101.013 20.6842 100.661 20.3522 100.414 19.8965C100.167 19.4408 100.043 18.8418 100.043 18.0996V7.82617ZM105.57 15.8242V15.6191C105.57 14.8444 105.681 14.1315 105.902 13.4805C106.124 12.8229 106.446 12.2533 106.869 11.7715C107.292 11.2897 107.813 10.9154 108.432 10.6484C109.05 10.375 109.76 10.2383 110.561 10.2383C111.361 10.2383 112.074 10.375 112.699 10.6484C113.324 10.9154 113.848 11.2897 114.271 11.7715C114.701 12.2533 115.027 12.8229 115.248 13.4805C115.469 14.1315 115.58 14.8444 115.58 15.6191V15.8242C115.58 16.5924 115.469 17.3053 115.248 17.9629C115.027 18.6139 114.701 19.1836 114.271 19.6719C113.848 20.1536 113.327 20.528 112.709 20.7949C112.09 21.0618 111.381 21.1953 110.58 21.1953C109.779 21.1953 109.066 21.0618 108.441 20.7949C107.823 20.528 107.299 20.1536 106.869 19.6719C106.446 19.1836 106.124 18.6139 105.902 17.9629C105.681 17.3053 105.57 16.5924 105.57 15.8242ZM108.383 15.6191V15.8242C108.383 16.2669 108.422 16.6803 108.5 17.0645C108.578 17.4486 108.702 17.7871 108.871 18.0801C109.047 18.3665 109.275 18.5911 109.555 18.7539C109.835 18.9167 110.176 18.998 110.58 18.998C110.971 18.998 111.306 18.9167 111.586 18.7539C111.866 18.5911 112.09 18.3665 112.26 18.0801C112.429 17.7871 112.553 17.4486 112.631 17.0645C112.715 16.6803 112.758 16.2669 112.758 15.8242V15.6191C112.758 15.1895 112.715 14.7858 112.631 14.4082C112.553 14.0241 112.426 13.6855 112.25 13.3926C112.081 13.0931 111.856 12.8587 111.576 12.6895C111.296 12.5202 110.958 12.4355 110.561 12.4355C110.163 12.4355 109.825 12.5202 109.545 12.6895C109.271 12.8587 109.047 13.0931 108.871 13.3926C108.702 13.6855 108.578 14.0241 108.5 14.4082C108.422 14.7858 108.383 15.1895 108.383 15.6191ZM123.803 6.78125H126.283L129.936 17.2207L133.588 6.78125H136.068L130.932 21H128.939L123.803 6.78125ZM122.465 6.78125H124.936L125.385 16.957V21H122.465V6.78125ZM134.936 6.78125H137.416V21H134.486V16.957L134.936 6.78125ZM145.512 18.6172V13.9102C145.512 13.5716 145.456 13.2819 145.346 13.041C145.235 12.7936 145.062 12.6016 144.828 12.4648C144.6 12.3281 144.304 12.2598 143.939 12.2598C143.627 12.2598 143.357 12.3151 143.129 12.4258C142.901 12.5299 142.725 12.6829 142.602 12.8848C142.478 13.0801 142.416 13.3112 142.416 13.5781H139.604C139.604 13.1289 139.708 12.7025 139.916 12.2988C140.124 11.8952 140.427 11.5404 140.824 11.2344C141.221 10.9219 141.693 10.6777 142.24 10.502C142.794 10.3262 143.412 10.2383 144.096 10.2383C144.916 10.2383 145.645 10.375 146.283 10.6484C146.921 10.9219 147.423 11.332 147.787 11.8789C148.158 12.4258 148.344 13.1094 148.344 13.9297V18.4512C148.344 19.0306 148.38 19.5059 148.451 19.877C148.523 20.2415 148.627 20.5605 148.764 20.834V21H145.922C145.785 20.7135 145.681 20.3555 145.609 19.9258C145.544 19.4896 145.512 19.0534 145.512 18.6172ZM145.883 14.5645L145.902 16.1562H144.33C143.959 16.1562 143.637 16.1986 143.363 16.2832C143.09 16.3678 142.865 16.4883 142.689 16.6445C142.514 16.7943 142.383 16.9701 142.299 17.1719C142.221 17.3737 142.182 17.5951 142.182 17.8359C142.182 18.0768 142.237 18.2949 142.348 18.4902C142.458 18.679 142.618 18.8288 142.826 18.9395C143.035 19.0436 143.279 19.0957 143.559 19.0957C143.982 19.0957 144.35 19.0111 144.662 18.8418C144.975 18.6725 145.215 18.4642 145.385 18.2168C145.561 17.9694 145.652 17.735 145.658 17.5137L146.4 18.7051C146.296 18.972 146.153 19.2487 145.971 19.5352C145.795 19.8216 145.57 20.0918 145.297 20.3457C145.023 20.5931 144.695 20.7982 144.311 20.9609C143.926 21.1172 143.471 21.1953 142.943 21.1953C142.273 21.1953 141.664 21.0618 141.117 20.7949C140.577 20.5215 140.147 20.1471 139.828 19.6719C139.516 19.1901 139.359 18.6432 139.359 18.0312C139.359 17.4779 139.464 16.9863 139.672 16.5566C139.88 16.127 140.186 15.7656 140.59 15.4727C141 15.1732 141.511 14.9486 142.123 14.7988C142.735 14.6426 143.445 14.5645 144.252 14.5645H145.883ZM153.324 12.7383V21H150.512V10.4336H153.158L153.324 12.7383ZM156.508 10.3652L156.459 12.9727C156.322 12.9531 156.156 12.9368 155.961 12.9238C155.772 12.9043 155.6 12.8945 155.443 12.8945C155.046 12.8945 154.701 12.9466 154.408 13.0508C154.122 13.1484 153.881 13.2949 153.686 13.4902C153.497 13.6855 153.354 13.9232 153.256 14.2031C153.165 14.4831 153.113 14.8021 153.1 15.1602L152.533 14.9844C152.533 14.3008 152.602 13.6725 152.738 13.0996C152.875 12.5202 153.074 12.0156 153.334 11.5859C153.601 11.1562 153.926 10.8242 154.311 10.5898C154.695 10.3555 155.134 10.2383 155.629 10.2383C155.785 10.2383 155.945 10.2513 156.107 10.2773C156.27 10.2969 156.404 10.3262 156.508 10.3652ZM160.648 5.99023V21H157.836V5.99023H160.648ZM167.309 10.4336L162.719 15.668L160.258 18.1582L159.232 16.127L161.186 13.6465L163.93 10.4336H167.309ZM164.389 21L161.264 16.1172L163.207 14.418L167.631 21H164.389ZM173.188 21.1953C172.367 21.1953 171.632 21.0651 170.98 20.8047C170.329 20.5378 169.776 20.1699 169.32 19.7012C168.871 19.2324 168.526 18.6888 168.285 18.0703C168.044 17.4453 167.924 16.7812 167.924 16.0781V15.6875C167.924 14.8867 168.038 14.1543 168.266 13.4902C168.493 12.8262 168.819 12.25 169.242 11.7617C169.672 11.2734 170.193 10.8991 170.805 10.6387C171.417 10.3717 172.107 10.2383 172.875 10.2383C173.624 10.2383 174.288 10.362 174.867 10.6094C175.447 10.8568 175.932 11.2083 176.322 11.6641C176.719 12.1198 177.019 12.6667 177.221 13.3047C177.423 13.9362 177.523 14.6393 177.523 15.4141V16.5859H169.125V14.7109H174.76V14.4961C174.76 14.1055 174.688 13.7572 174.545 13.4512C174.408 13.1387 174.2 12.8913 173.92 12.709C173.64 12.5267 173.282 12.4355 172.846 12.4355C172.475 12.4355 172.156 12.5169 171.889 12.6797C171.622 12.8424 171.404 13.0703 171.234 13.3633C171.072 13.6562 170.948 14.0013 170.863 14.3984C170.785 14.7891 170.746 15.2188 170.746 15.6875V16.0781C170.746 16.5013 170.805 16.8919 170.922 17.25C171.046 17.6081 171.218 17.9173 171.439 18.1777C171.667 18.4382 171.941 18.64 172.26 18.7832C172.585 18.9264 172.953 18.998 173.363 18.998C173.871 18.998 174.343 18.9004 174.779 18.7051C175.222 18.5033 175.603 18.2005 175.922 17.7969L177.289 19.2812C177.068 19.6003 176.765 19.9062 176.381 20.1992C176.003 20.4922 175.548 20.7331 175.014 20.9219C174.48 21.1042 173.871 21.1953 173.188 21.1953ZM184.301 10.4336V12.4258H178.148V10.4336H184.301ZM179.672 7.82617H182.484V17.8164C182.484 18.1224 182.523 18.3568 182.602 18.5195C182.686 18.6823 182.81 18.7962 182.973 18.8613C183.135 18.9199 183.34 18.9492 183.588 18.9492C183.764 18.9492 183.92 18.9427 184.057 18.9297C184.2 18.9102 184.32 18.8906 184.418 18.8711L184.428 20.9414C184.187 21.0195 183.926 21.0814 183.646 21.127C183.367 21.1725 183.057 21.1953 182.719 21.1953C182.1 21.1953 181.56 21.0944 181.098 20.8926C180.642 20.6842 180.29 20.3522 180.043 19.8965C179.796 19.4408 179.672 18.8418 179.672 18.0996V7.82617Z" fill="#407BFF"/>
</g>
<defs>
<clipPath id="clip0_8870_2893">
<rect width="1200" height="60" fill="white" transform="translate(0.5)"/>
</clipPath>
<clipPath id="clip1_8870_2893">
<rect x="0.5" width="60" height="60" rx="30" fill="white"/>
</clipPath>
</defs>
</svg>
