<svg width="24" height="24" viewBox="0 0 24 24" fill="none" xmlns="http://www.w3.org/2000/svg">
<mask id="mask0_7739_29505" style="mask-type:alpha" maskUnits="userSpaceOnUse" x="0" y="0" width="24" height="24">
<rect width="24" height="24" fill="#D9D9D9"/>
</mask>
<g mask="url(#mask0_7739_29505)">
<path d="M4.61538 19.998C4.15513 19.998 3.77083 19.8439 3.4625 19.5355C3.15417 19.2272 3 18.8429 3 18.3827V8.61342C3 8.15317 3.15417 7.76888 3.4625 7.46055C3.77083 7.15221 4.15513 6.99805 4.61538 6.99805H9V5.61342C9 5.15317 9.15417 4.76888 9.4625 4.46055C9.77083 4.15221 10.1551 3.99805 10.6154 3.99805H13.3846C13.8449 3.99805 14.2292 4.15221 14.5375 4.46055C14.8458 4.76888 15 5.15317 15 5.61342V6.99805H19.3846C19.8449 6.99805 20.2292 7.15221 20.5375 7.46055C20.8458 7.76888 21 8.15317 21 8.61342V18.3827C21 18.8429 20.8458 19.2272 20.5375 19.5355C20.2292 19.8439 19.8449 19.998 19.3846 19.998H4.61538ZM10 6.99805H14V5.61342C14 5.45957 13.9359 5.31855 13.8077 5.19035C13.6795 5.06215 13.5385 4.99805 13.3846 4.99805H10.6154C10.4615 4.99805 10.3205 5.06215 10.1923 5.19035C10.0641 5.31855 10 5.45957 10 5.61342V6.99805ZM20 14.498H14V15.998H10V14.498H4V18.3827C4 18.5365 4.0641 18.6775 4.1923 18.8057C4.32052 18.9339 4.46154 18.998 4.61538 18.998H19.3846C19.5385 18.998 19.6795 18.9339 19.8077 18.8057C19.9359 18.6775 20 18.5365 20 18.3827V14.498ZM11 14.998H13V12.998H11V14.998ZM4 13.498H10V11.998H14V13.498H20V8.61342C20 8.45959 19.9359 8.31856 19.8077 8.19035C19.6795 8.06215 19.5385 7.99805 19.3846 7.99805H4.61538C4.46154 7.99805 4.32052 8.06215 4.1923 8.19035C4.0641 8.31856 4 8.45959 4 8.61342V13.498Z" fill="#1C1B1F"/>
</g>
</svg>
