<svg width="1201" height="60" viewBox="0 0 1201 60" fill="none" xmlns="http://www.w3.org/2000/svg">
<g clip-path="url(#clip0_8870_2849)">
<rect x="1.5" y="1" width="58" height="58" rx="29" fill="#455A64" fill-opacity="0.14"/>
<rect x="1.5" y="1" width="58" height="58" rx="29" stroke="#455A64" stroke-width="2"/>
<path d="M30.7441 32.9907H23.8683V51.0001H30.7441V32.9907Z" fill="#FFC727"/>
<g opacity="0.1">
<path d="M30.7442 32.9907H29.1696V51.0001H30.7442V32.9907Z" fill="black"/>
</g>
<path d="M39.8034 26.1843H32.9276V51.0001H39.8034V26.1843Z" fill="#FFC727"/>
<g opacity="0.1">
<path d="M39.8019 26.1843H38.2273V51.0001H39.8019V26.1843Z" fill="black"/>
</g>
<path d="M21.7059 37.0457H14.8301V50.9987H21.7059V37.0457Z" fill="#FFC727"/>
<g opacity="0.1">
<path d="M21.7059 37.0457H20.1313V50.9987H21.7059V37.0457Z" fill="black"/>
</g>
<path d="M48.8611 17.1194H41.9854V50.9987H48.8611V17.1194Z" fill="#FFC727"/>
<g opacity="0.1">
<path d="M48.8611 17.1194H47.2865V50.9987H48.8611V17.1194Z" fill="black"/>
</g>
<path d="M12.3947 45.5896V42.1171C12.3947 42.1171 37.4385 40.1274 47.555 14.2236L48.5612 14.4659C48.5612 14.4659 41.8414 41.0165 12.3947 45.5896Z" fill="#37474F"/>
<path d="M49.5 15.3368L46.3358 14.3595L48.9571 11.9189L49.5 15.3368Z" fill="#37474F"/>
<path d="M16.5427 11.1349L11.9 23.282L33.3747 30.4376L38.0174 18.2905L16.5427 11.1349Z" fill="#455A64"/>
<path d="M16.5437 11.1329L14.3573 16.8533L35.832 24.0089L38.0184 18.2885L16.5437 11.1329Z" fill="#37474F"/>
<path d="M14.5526 14.8435L37.0433 22.3376L39.21 16.6688L16.7193 9.17468L14.5526 14.8435Z" fill="#455A64"/>
<path d="M24.4642 8.11255L23.2271 11.3451L24.8571 11.8871L25.5606 10.0477L31.7725 12.1197L31.0689 13.9591L32.6988 14.501L33.933 11.2657L24.4642 8.11255Z" fill="#263238"/>
<path d="M31.9754 22.1731L33.4415 22.6616L34.4761 19.9548L33.01 19.4663L31.9754 22.1731Z" fill="#263238"/>
<path d="M17.1204 17.2285L18.5864 17.717L19.621 15.0102L18.1549 14.5217L17.1204 17.2285Z" fill="#263238"/>
<path d="M60.5 30H1200.5" stroke="#455A64" stroke-width="2" stroke-linecap="round"/>
<path d="M75.3359 14.7598H71.6836L71.6641 12.748H74.7305C75.2708 12.748 75.7135 12.6797 76.0586 12.543C76.4036 12.3997 76.6608 12.1947 76.8301 11.9277C77.0059 11.6543 77.0938 11.3223 77.0938 10.9316C77.0938 10.4889 77.0091 10.1309 76.8398 9.85742C76.6771 9.58398 76.4199 9.38542 76.0684 9.26172C75.7233 9.13802 75.2773 9.07617 74.7305 9.07617H72.6992V21H69.7695V6.78125H74.7305C75.5573 6.78125 76.2962 6.85938 76.9473 7.01562C77.6048 7.17188 78.1615 7.40951 78.6172 7.72852C79.0729 8.04753 79.4212 8.45117 79.6621 8.93945C79.903 9.42122 80.0234 9.99414 80.0234 10.6582C80.0234 11.2441 79.89 11.7845 79.623 12.2793C79.3626 12.7741 78.9492 13.1777 78.3828 13.4902C77.8229 13.8027 77.0905 13.9753 76.1855 14.0078L75.3359 14.7598ZM75.209 21H70.8828L72.0254 18.7148H75.209C75.7233 18.7148 76.1432 18.6335 76.4688 18.4707C76.7943 18.3014 77.0352 18.0736 77.1914 17.7871C77.3477 17.5007 77.4258 17.1719 77.4258 16.8008C77.4258 16.3841 77.3542 16.0228 77.2109 15.7168C77.0742 15.4108 76.8529 15.1764 76.5469 15.0137C76.2409 14.8444 75.8372 14.7598 75.3359 14.7598H72.5137L72.5332 12.748H76.0488L76.7227 13.5391C77.5885 13.526 78.2852 13.679 78.8125 13.998C79.3464 14.3105 79.7337 14.7174 79.9746 15.2188C80.222 15.7201 80.3457 16.2572 80.3457 16.8301C80.3457 17.7415 80.1471 18.5098 79.75 19.1348C79.3529 19.7533 78.7702 20.2188 78.002 20.5312C77.2402 20.8438 76.3092 21 75.209 21ZM88.6172 18.4707V10.4336H91.4297V21H88.7832L88.6172 18.4707ZM88.9297 16.3027L89.7598 16.2832C89.7598 16.9863 89.6784 17.6406 89.5156 18.2461C89.3529 18.8451 89.1087 19.3659 88.7832 19.8086C88.4577 20.2448 88.0475 20.5866 87.5527 20.834C87.0579 21.0749 86.4753 21.1953 85.8047 21.1953C85.2904 21.1953 84.8151 21.1237 84.3789 20.9805C83.9492 20.8307 83.5781 20.5996 83.2656 20.2871C82.9596 19.9681 82.7188 19.5612 82.543 19.0664C82.3737 18.5651 82.2891 17.9629 82.2891 17.2598V10.4336H85.1016V17.2793C85.1016 17.5918 85.1374 17.8555 85.209 18.0703C85.2871 18.2852 85.3945 18.4609 85.5312 18.5977C85.668 18.7344 85.8275 18.832 86.0098 18.8906C86.1986 18.9492 86.4069 18.9785 86.6348 18.9785C87.2142 18.9785 87.6699 18.8613 88.002 18.627C88.3405 18.3926 88.5781 18.0736 88.7148 17.6699C88.8581 17.2598 88.9297 16.804 88.9297 16.3027ZM99.291 18.0801C99.291 17.8783 99.2324 17.696 99.1152 17.5332C98.998 17.3704 98.7799 17.2207 98.4609 17.084C98.1484 16.9408 97.696 16.8105 97.1035 16.6934C96.5697 16.5762 96.0716 16.4297 95.6094 16.2539C95.1536 16.0716 94.7565 15.8535 94.418 15.5996C94.0859 15.3457 93.8255 15.0462 93.6367 14.7012C93.4479 14.3496 93.3535 13.9492 93.3535 13.5C93.3535 13.0573 93.4479 12.6406 93.6367 12.25C93.832 11.8594 94.1087 11.5143 94.4668 11.2148C94.8314 10.9089 95.2741 10.6712 95.7949 10.502C96.3223 10.3262 96.9147 10.2383 97.5723 10.2383C98.4902 10.2383 99.278 10.3848 99.9355 10.6777C100.6 10.9707 101.107 11.3743 101.459 11.8887C101.817 12.3965 101.996 12.9759 101.996 13.627H99.1836C99.1836 13.3535 99.125 13.1094 99.0078 12.8945C98.8971 12.6732 98.7214 12.5007 98.4805 12.377C98.2461 12.2467 97.9401 12.1816 97.5625 12.1816C97.25 12.1816 96.9798 12.237 96.752 12.3477C96.5241 12.4518 96.3483 12.5951 96.2246 12.7773C96.1074 12.9531 96.0488 13.1484 96.0488 13.3633C96.0488 13.526 96.0814 13.6725 96.1465 13.8027C96.2181 13.9264 96.332 14.0404 96.4883 14.1445C96.6445 14.2487 96.8464 14.3464 97.0938 14.4375C97.3477 14.5221 97.6602 14.6003 98.0312 14.6719C98.793 14.8281 99.4733 15.0332 100.072 15.2871C100.671 15.5345 101.146 15.873 101.498 16.3027C101.85 16.7259 102.025 17.2826 102.025 17.9727C102.025 18.4414 101.921 18.8711 101.713 19.2617C101.505 19.6523 101.205 19.9941 100.814 20.2871C100.424 20.5736 99.9551 20.7982 99.4082 20.9609C98.8678 21.1172 98.2591 21.1953 97.582 21.1953C96.599 21.1953 95.7656 21.0195 95.082 20.668C94.4049 20.3164 93.8906 19.8704 93.5391 19.3301C93.194 18.7832 93.0215 18.2233 93.0215 17.6504H95.6875C95.7005 18.0345 95.7982 18.3438 95.9805 18.5781C96.1693 18.8125 96.4069 18.9818 96.6934 19.0859C96.9863 19.1901 97.3021 19.2422 97.6406 19.2422C98.0052 19.2422 98.3079 19.1934 98.5488 19.0957C98.7897 18.9915 98.972 18.8548 99.0957 18.6855C99.2259 18.5098 99.291 18.3079 99.291 18.0801ZM106.82 10.4336V21H103.998V10.4336H106.82ZM103.822 7.67969C103.822 7.26953 103.965 6.93099 104.252 6.66406C104.538 6.39714 104.923 6.26367 105.404 6.26367C105.88 6.26367 106.26 6.39714 106.547 6.66406C106.84 6.93099 106.986 7.26953 106.986 7.67969C106.986 8.08984 106.84 8.42839 106.547 8.69531C106.26 8.96224 105.88 9.0957 105.404 9.0957C104.923 9.0957 104.538 8.96224 104.252 8.69531C103.965 8.42839 103.822 8.08984 103.822 7.67969ZM111.898 12.6895V21H109.086V10.4336H111.723L111.898 12.6895ZM111.488 15.3457H110.727C110.727 14.5645 110.827 13.8613 111.029 13.2363C111.231 12.6048 111.514 12.0677 111.879 11.625C112.243 11.1758 112.676 10.834 113.178 10.5996C113.686 10.3587 114.252 10.2383 114.877 10.2383C115.372 10.2383 115.824 10.3099 116.234 10.4531C116.645 10.5964 116.996 10.8242 117.289 11.1367C117.589 11.4492 117.816 11.8626 117.973 12.377C118.135 12.8913 118.217 13.5195 118.217 14.2617V21H115.385V14.252C115.385 13.7832 115.32 13.4186 115.189 13.1582C115.059 12.8978 114.867 12.7155 114.613 12.6113C114.366 12.5007 114.06 12.4453 113.695 12.4453C113.318 12.4453 112.989 12.5202 112.709 12.6699C112.436 12.8197 112.208 13.028 112.025 13.2949C111.85 13.5553 111.716 13.8613 111.625 14.2129C111.534 14.5645 111.488 14.9421 111.488 15.3457ZM125.219 21.1953C124.398 21.1953 123.663 21.0651 123.012 20.8047C122.361 20.5378 121.807 20.1699 121.352 19.7012C120.902 19.2324 120.557 18.6888 120.316 18.0703C120.076 17.4453 119.955 16.7812 119.955 16.0781V15.6875C119.955 14.8867 120.069 14.1543 120.297 13.4902C120.525 12.8262 120.85 12.25 121.273 11.7617C121.703 11.2734 122.224 10.8991 122.836 10.6387C123.448 10.3717 124.138 10.2383 124.906 10.2383C125.655 10.2383 126.319 10.362 126.898 10.6094C127.478 10.8568 127.963 11.2083 128.354 11.6641C128.751 12.1198 129.05 12.6667 129.252 13.3047C129.454 13.9362 129.555 14.6393 129.555 15.4141V16.5859H121.156V14.7109H126.791V14.4961C126.791 14.1055 126.719 13.7572 126.576 13.4512C126.439 13.1387 126.231 12.8913 125.951 12.709C125.671 12.5267 125.313 12.4355 124.877 12.4355C124.506 12.4355 124.187 12.5169 123.92 12.6797C123.653 12.8424 123.435 13.0703 123.266 13.3633C123.103 13.6562 122.979 14.0013 122.895 14.3984C122.816 14.7891 122.777 15.2188 122.777 15.6875V16.0781C122.777 16.5013 122.836 16.8919 122.953 17.25C123.077 17.6081 123.249 17.9173 123.471 18.1777C123.699 18.4382 123.972 18.64 124.291 18.7832C124.617 18.9264 124.984 18.998 125.395 18.998C125.902 18.998 126.374 18.9004 126.811 18.7051C127.253 18.5033 127.634 18.2005 127.953 17.7969L129.32 19.2812C129.099 19.6003 128.796 19.9062 128.412 20.1992C128.035 20.4922 127.579 20.7331 127.045 20.9219C126.511 21.1042 125.902 21.1953 125.219 21.1953ZM136.869 18.0801C136.869 17.8783 136.811 17.696 136.693 17.5332C136.576 17.3704 136.358 17.2207 136.039 17.084C135.727 16.9408 135.274 16.8105 134.682 16.6934C134.148 16.5762 133.65 16.4297 133.188 16.2539C132.732 16.0716 132.335 15.8535 131.996 15.5996C131.664 15.3457 131.404 15.0462 131.215 14.7012C131.026 14.3496 130.932 13.9492 130.932 13.5C130.932 13.0573 131.026 12.6406 131.215 12.25C131.41 11.8594 131.687 11.5143 132.045 11.2148C132.41 10.9089 132.852 10.6712 133.373 10.502C133.9 10.3262 134.493 10.2383 135.15 10.2383C136.068 10.2383 136.856 10.3848 137.514 10.6777C138.178 10.9707 138.686 11.3743 139.037 11.8887C139.395 12.3965 139.574 12.9759 139.574 13.627H136.762C136.762 13.3535 136.703 13.1094 136.586 12.8945C136.475 12.6732 136.299 12.5007 136.059 12.377C135.824 12.2467 135.518 12.1816 135.141 12.1816C134.828 12.1816 134.558 12.237 134.33 12.3477C134.102 12.4518 133.926 12.5951 133.803 12.7773C133.686 12.9531 133.627 13.1484 133.627 13.3633C133.627 13.526 133.66 13.6725 133.725 13.8027C133.796 13.9264 133.91 14.0404 134.066 14.1445C134.223 14.2487 134.424 14.3464 134.672 14.4375C134.926 14.5221 135.238 14.6003 135.609 14.6719C136.371 14.8281 137.051 15.0332 137.65 15.2871C138.249 15.5345 138.725 15.873 139.076 16.3027C139.428 16.7259 139.604 17.2826 139.604 17.9727C139.604 18.4414 139.499 18.8711 139.291 19.2617C139.083 19.6523 138.783 19.9941 138.393 20.2871C138.002 20.5736 137.533 20.7982 136.986 20.9609C136.446 21.1172 135.837 21.1953 135.16 21.1953C134.177 21.1953 133.344 21.0195 132.66 20.668C131.983 20.3164 131.469 19.8704 131.117 19.3301C130.772 18.7832 130.6 18.2233 130.6 17.6504H133.266C133.279 18.0345 133.376 18.3438 133.559 18.5781C133.747 18.8125 133.985 18.9818 134.271 19.0859C134.564 19.1901 134.88 19.2422 135.219 19.2422C135.583 19.2422 135.886 19.1934 136.127 19.0957C136.368 18.9915 136.55 18.8548 136.674 18.6855C136.804 18.5098 136.869 18.3079 136.869 18.0801ZM147.143 18.0801C147.143 17.8783 147.084 17.696 146.967 17.5332C146.85 17.3704 146.632 17.2207 146.312 17.084C146 16.9408 145.548 16.8105 144.955 16.6934C144.421 16.5762 143.923 16.4297 143.461 16.2539C143.005 16.0716 142.608 15.8535 142.27 15.5996C141.938 15.3457 141.677 15.0462 141.488 14.7012C141.299 14.3496 141.205 13.9492 141.205 13.5C141.205 13.0573 141.299 12.6406 141.488 12.25C141.684 11.8594 141.96 11.5143 142.318 11.2148C142.683 10.9089 143.126 10.6712 143.646 10.502C144.174 10.3262 144.766 10.2383 145.424 10.2383C146.342 10.2383 147.13 10.3848 147.787 10.6777C148.451 10.9707 148.959 11.3743 149.311 11.8887C149.669 12.3965 149.848 12.9759 149.848 13.627H147.035C147.035 13.3535 146.977 13.1094 146.859 12.8945C146.749 12.6732 146.573 12.5007 146.332 12.377C146.098 12.2467 145.792 12.1816 145.414 12.1816C145.102 12.1816 144.831 12.237 144.604 12.3477C144.376 12.4518 144.2 12.5951 144.076 12.7773C143.959 12.9531 143.9 13.1484 143.9 13.3633C143.9 13.526 143.933 13.6725 143.998 13.8027C144.07 13.9264 144.184 14.0404 144.34 14.1445C144.496 14.2487 144.698 14.3464 144.945 14.4375C145.199 14.5221 145.512 14.6003 145.883 14.6719C146.645 14.8281 147.325 15.0332 147.924 15.2871C148.523 15.5345 148.998 15.873 149.35 16.3027C149.701 16.7259 149.877 17.2826 149.877 17.9727C149.877 18.4414 149.773 18.8711 149.564 19.2617C149.356 19.6523 149.057 19.9941 148.666 20.2871C148.275 20.5736 147.807 20.7982 147.26 20.9609C146.719 21.1172 146.111 21.1953 145.434 21.1953C144.451 21.1953 143.617 21.0195 142.934 20.668C142.257 20.3164 141.742 19.8704 141.391 19.3301C141.046 18.7832 140.873 18.2233 140.873 17.6504H143.539C143.552 18.0345 143.65 18.3438 143.832 18.5781C144.021 18.8125 144.258 18.9818 144.545 19.0859C144.838 19.1901 145.154 19.2422 145.492 19.2422C145.857 19.2422 146.16 19.1934 146.4 19.0957C146.641 18.9915 146.824 18.8548 146.947 18.6855C147.077 18.5098 147.143 18.3079 147.143 18.0801ZM162.396 15.9316H158.773V13.6465H162.396C162.956 13.6465 163.412 13.5553 163.764 13.373C164.115 13.1842 164.372 12.9238 164.535 12.5918C164.698 12.2598 164.779 11.8854 164.779 11.4688C164.779 11.0456 164.698 10.6517 164.535 10.2871C164.372 9.92253 164.115 9.62956 163.764 9.4082C163.412 9.18685 162.956 9.07617 162.396 9.07617H159.789V21H156.859V6.78125H162.396C163.51 6.78125 164.464 6.98307 165.258 7.38672C166.059 7.78385 166.671 8.33398 167.094 9.03711C167.517 9.74023 167.729 10.5443 167.729 11.4492C167.729 12.3672 167.517 13.1615 167.094 13.832C166.671 14.5026 166.059 15.0202 165.258 15.3848C164.464 15.7493 163.51 15.9316 162.396 15.9316ZM172.543 6V21H169.721V6H172.543ZM180.57 18.6172V13.9102C180.57 13.5716 180.515 13.2819 180.404 13.041C180.294 12.7936 180.121 12.6016 179.887 12.4648C179.659 12.3281 179.363 12.2598 178.998 12.2598C178.686 12.2598 178.415 12.3151 178.188 12.4258C177.96 12.5299 177.784 12.6829 177.66 12.8848C177.536 13.0801 177.475 13.3112 177.475 13.5781H174.662C174.662 13.1289 174.766 12.7025 174.975 12.2988C175.183 11.8952 175.486 11.5404 175.883 11.2344C176.28 10.9219 176.752 10.6777 177.299 10.502C177.852 10.3262 178.471 10.2383 179.154 10.2383C179.975 10.2383 180.704 10.375 181.342 10.6484C181.98 10.9219 182.481 11.332 182.846 11.8789C183.217 12.4258 183.402 13.1094 183.402 13.9297V18.4512C183.402 19.0306 183.438 19.5059 183.51 19.877C183.581 20.2415 183.686 20.5605 183.822 20.834V21H180.98C180.844 20.7135 180.74 20.3555 180.668 19.9258C180.603 19.4896 180.57 19.0534 180.57 18.6172ZM180.941 14.5645L180.961 16.1562H179.389C179.018 16.1562 178.695 16.1986 178.422 16.2832C178.148 16.3678 177.924 16.4883 177.748 16.6445C177.572 16.7943 177.442 16.9701 177.357 17.1719C177.279 17.3737 177.24 17.5951 177.24 17.8359C177.24 18.0768 177.296 18.2949 177.406 18.4902C177.517 18.679 177.676 18.8288 177.885 18.9395C178.093 19.0436 178.337 19.0957 178.617 19.0957C179.04 19.0957 179.408 19.0111 179.721 18.8418C180.033 18.6725 180.274 18.4642 180.443 18.2168C180.619 17.9694 180.71 17.735 180.717 17.5137L181.459 18.7051C181.355 18.972 181.212 19.2487 181.029 19.5352C180.854 19.8216 180.629 20.0918 180.355 20.3457C180.082 20.5931 179.753 20.7982 179.369 20.9609C178.985 21.1172 178.529 21.1953 178.002 21.1953C177.331 21.1953 176.723 21.0618 176.176 20.7949C175.635 20.5215 175.206 20.1471 174.887 19.6719C174.574 19.1901 174.418 18.6432 174.418 18.0312C174.418 17.4779 174.522 16.9863 174.73 16.5566C174.939 16.127 175.245 15.7656 175.648 15.4727C176.059 15.1732 176.57 14.9486 177.182 14.7988C177.794 14.6426 178.503 14.5645 179.311 14.5645H180.941ZM188.324 12.6895V21H185.512V10.4336H188.148L188.324 12.6895ZM187.914 15.3457H187.152C187.152 14.5645 187.253 13.8613 187.455 13.2363C187.657 12.6048 187.94 12.0677 188.305 11.625C188.669 11.1758 189.102 10.834 189.604 10.5996C190.111 10.3587 190.678 10.2383 191.303 10.2383C191.798 10.2383 192.25 10.3099 192.66 10.4531C193.07 10.5964 193.422 10.8242 193.715 11.1367C194.014 11.4492 194.242 11.8626 194.398 12.377C194.561 12.8913 194.643 13.5195 194.643 14.2617V21H191.811V14.252C191.811 13.7832 191.745 13.4186 191.615 13.1582C191.485 12.8978 191.293 12.7155 191.039 12.6113C190.792 12.5007 190.486 12.4453 190.121 12.4453C189.743 12.4453 189.415 12.5202 189.135 12.6699C188.861 12.8197 188.633 13.028 188.451 13.2949C188.275 13.5553 188.142 13.8613 188.051 14.2129C187.96 14.5645 187.914 14.9421 187.914 15.3457Z" fill="#455A64"/>
</g>
<defs>
<clipPath id="clip0_8870_2849">
<rect width="1200" height="60" fill="white" transform="translate(0.5)"/>
</clipPath>
</defs>
</svg>
