<svg width="102" height="275" viewBox="0 0 102 275" fill="none" xmlns="http://www.w3.org/2000/svg">
<rect x="86" y="86" width="7" height="142" fill="url(#paint0_linear_1037_4817)"/>
<rect x="56" y="106" width="7" height="142" fill="url(#paint1_linear_1037_4817)"/>
<rect x="26" y="133" width="7" height="142" fill="url(#paint2_linear_1037_4817)"/>
<path d="M0 28C5.70731 38.1463 15.5967 45.2611 27.031 47.4471L43 50.5V140C27.7658 141.865 12.6492 135.726 3.02973 123.767L0 120V28Z" fill="url(#paint3_linear_1037_4817)"/>
<ellipse cx="51" cy="27" rx="51" ry="27" fill="url(#paint4_linear_1037_4817)"/>
<path d="M43 53.6755L102 28V115L72.5 128L43 140V53.6755Z" fill="#323131"/>
<defs>
<linearGradient id="paint0_linear_1037_4817" x1="93" y1="157" x2="86" y2="157" gradientUnits="userSpaceOnUse">
<stop stop-color="#737373"/>
<stop offset="1" stop-color="#D9D9D9"/>
</linearGradient>
<linearGradient id="paint1_linear_1037_4817" x1="63" y1="177" x2="56" y2="177" gradientUnits="userSpaceOnUse">
<stop stop-color="#737373"/>
<stop offset="1" stop-color="#D9D9D9"/>
</linearGradient>
<linearGradient id="paint2_linear_1037_4817" x1="33" y1="204" x2="26" y2="204" gradientUnits="userSpaceOnUse">
<stop stop-color="#737373"/>
<stop offset="1" stop-color="#D9D9D9"/>
</linearGradient>
<linearGradient id="paint3_linear_1037_4817" x1="0" y1="85.5" x2="43" y2="85.5" gradientUnits="userSpaceOnUse">
<stop stop-color="#D9D9D9"/>
<stop offset="0.63" stop-color="#323131"/>
</linearGradient>
<linearGradient id="paint4_linear_1037_4817" x1="34.56" y1="-0.957431" x2="48.44" y2="43.9574" gradientUnits="userSpaceOnUse">
<stop stop-color="#D9D9D9"/>
<stop offset="0.975" stop-color="#323131"/>
</linearGradient>
</defs>
</svg>
