<svg width="165" height="105" viewBox="0 0 165 105" fill="none" xmlns="http://www.w3.org/2000/svg">
<rect x="9" y="12" width="129" height="82" fill="#222222"/>
<rect x="120" y="30" width="15" height="45" fill="#404040"/>
<rect x="124" y="34" width="7" height="7" fill="#151515"/>
<rect x="124" y="49" width="7" height="7" fill="#151515"/>
<rect x="124" y="64" width="7" height="7" fill="#151515"/>
<rect x="125" y="35" width="35" height="5" fill="#D9D9D9"/>
<rect x="125" y="50" width="35" height="5" fill="#D9D9D9"/>
<rect x="125" y="65" width="35" height="5" fill="#D9D9D9"/>
<rect x="14" y="14" width="96" height="78" rx="4" fill="#0294D5"/>
<rect x="93" y="80" width="10" height="12" fill="#0076AB"/>
<rect x="61" y="80" width="10" height="12" fill="#0076AB"/>
<rect x="45" y="80" width="10" height="12" fill="#0076AB"/>
<rect x="93" y="14" width="10" height="12" fill="#0076AB"/>
<rect x="61" y="14" width="10" height="12" fill="#0076AB"/>
<rect x="45" y="14" width="10" height="12" fill="#0076AB"/>
<rect x="93" y="32" width="10" height="10" fill="#0076AB"/>
<rect x="77" y="32" width="10" height="10" fill="#0076AB"/>
<rect x="61" y="32" width="10" height="10" fill="#0076AB"/>
<rect x="45" y="32" width="10" height="10" fill="#0076AB"/>
<rect x="29" y="32" width="10" height="10" fill="#0076AB"/>
<rect x="14" y="32" width="9" height="10" fill="#0076AB"/>
<rect x="93" y="48" width="10" height="10" fill="#0076AB"/>
<rect x="77" y="48" width="10" height="10" fill="#0076AB"/>
<rect x="61" y="48" width="10" height="10" fill="#0076AB"/>
<rect x="45" y="48" width="10" height="10" fill="#0076AB"/>
<rect x="29" y="48" width="10" height="10" fill="#0076AB"/>
<rect x="14" y="48" width="9" height="10" fill="#0076AB"/>
<rect x="93" y="64" width="10" height="10" fill="#0076AB"/>
<rect x="77" y="64" width="10" height="10" fill="#0076AB"/>
<rect x="61" y="64" width="10" height="10" fill="#0076AB"/>
<rect x="45" y="64" width="10" height="10" fill="#0076AB"/>
<rect x="29" y="64" width="10" height="10" fill="#0076AB"/>
<rect x="14" y="64" width="9" height="10" fill="#0076AB"/>
</svg>
