<svg width="24" height="24" viewBox="0 0 24 24" fill="none" xmlns="http://www.w3.org/2000/svg">
<mask id="mask0_7739_29485" style="mask-type:alpha" maskUnits="userSpaceOnUse" x="0" y="0" width="24" height="24">
<rect width="24" height="24" fill="#D9D9D9"/>
</mask>
<g mask="url(#mask0_7739_29485)">
<path d="M4.84782 19.998C4.38757 19.998 4.00327 19.8439 3.69492 19.5355C3.38659 19.2272 3.23242 18.8429 3.23242 18.3827V5.61342C3.23242 5.15317 3.38659 4.76888 3.69492 4.46055C4.00327 4.15221 4.38757 3.99805 4.84782 3.99805H17.617C18.0773 3.99805 18.4616 4.15221 18.7699 4.46055C19.0783 4.76888 19.2324 5.15317 19.2324 5.61342V7.76727H20.7709V8.76727H19.2324V11.498H20.7709V12.498H19.2324V15.2288H20.7709V16.2288H19.2324V18.3827C19.2324 18.8429 19.0783 19.2272 18.7699 19.5355C18.4616 19.8439 18.0773 19.998 17.617 19.998H4.84782ZM4.84782 18.998H17.617C17.7709 18.998 17.9119 18.9339 18.0401 18.8057C18.1683 18.6775 18.2324 18.5365 18.2324 18.3827V5.61342C18.2324 5.45959 18.1683 5.31856 18.0401 5.19035C17.9119 5.06215 17.7709 4.99805 17.617 4.99805H4.84782C4.69397 4.99805 4.55295 5.06215 4.42475 5.19035C4.29655 5.31856 4.23245 5.45959 4.23245 5.61342V18.3827C4.23245 18.5365 4.29655 18.6775 4.42475 18.8057C4.55295 18.9339 4.69397 18.998 4.84782 18.998ZM7.00167 16.2288H11.0401V13.1903H7.00167V16.2288ZM12.4247 9.80575H15.4632V7.76727H12.4247V9.80575ZM7.00167 11.8057H11.0401V7.76727H7.00167V11.8057ZM12.4247 16.2288H15.4632V11.1903H12.4247V16.2288Z" fill="#1C1B1F" fill-opacity="0.8"/>
</g>
</svg>
