<svg width="961" height="675" viewBox="0 0 961 675" fill="none" xmlns="http://www.w3.org/2000/svg">
<path d="M90 525L105 465H345L360 525V630H90V525Z" fill="#F4F1F0"/>
<path d="M345 525L330 465H345L360 525V630H345V525Z" fill="#F3F3F3"/>
<rect x="435" y="315" width="60" height="360" fill="#D9D9D9"/>
<path d="M359.836 270.986L359.917 271H360H570H570.083L570.164 270.986L660.083 256H749V299H660H659.917L659.836 299.014L569.917 314H360.083L270.164 299.014L270.083 299H270H181V256H269.917L359.836 270.986Z" fill="#F4F1F0" stroke="#E2E2E2" stroke-width="2"/>
<line x1="270.533" y1="256.154" x2="359.533" y2="312.154" stroke="#E2E2E2" stroke-width="2"/>
<line x1="360.287" y1="271.958" x2="270.287" y2="298.958" stroke="#E2E2E2" stroke-width="2"/>
<line x1="270" y1="255" x2="270" y2="300" stroke="#E2E2E2" stroke-width="2"/>
<line x1="181" y1="277" x2="269" y2="277" stroke="#E2E2E2" stroke-width="2"/>
<line x1="359.846" y1="291.988" x2="269.846" y2="277.988" stroke="#E2E2E2" stroke-width="2"/>
<line x1="360.01" y1="292" x2="465.01" y2="293.01" stroke="#E2E2E2" stroke-width="2"/>
<line x1="570.01" y1="292" x2="465.01" y2="293.01" stroke="#E2E2E2" stroke-width="2"/>
<line x1="569.836" y1="292.014" x2="659.836" y2="277.014" stroke="#E2E2E2" stroke-width="2"/>
<line x1="748.989" y1="278" x2="659.989" y2="277" stroke="#E2E2E2" stroke-width="2"/>
<line x1="269.422" y1="257.906" x2="181.422" y2="298.906" stroke="#E2E2E2" stroke-width="2"/>
<line x1="181.427" y1="256.096" x2="270.427" y2="298.096" stroke="#E2E2E2" stroke-width="2"/>
<line x1="360" y1="270" x2="360" y2="315" stroke="#E2E2E2" stroke-width="2"/>
<line x1="465.379" y1="270.925" x2="360.379" y2="313.925" stroke="#E2E2E2" stroke-width="2"/>
<line x1="359.383" y1="269.076" x2="465.383" y2="313.076" stroke="#E2E2E2" stroke-width="2"/>
<line x1="465" y1="270" x2="465" y2="315" stroke="#E2E2E2" stroke-width="4"/>
<line x1="569.374" y1="271.927" x2="465.374" y2="313.927" stroke="#E2E2E2" stroke-width="2"/>
<line x1="570" y1="270" x2="570" y2="315" stroke="#E2E2E2" stroke-width="2"/>
<line x1="660.535" y1="256.845" x2="570.535" y2="313.845" stroke="#E2E2E2" stroke-width="2"/>
<line x1="465.382" y1="271.076" x2="569.382" y2="314.076" stroke="#E2E2E2" stroke-width="2"/>
<line x1="660" y1="255" x2="660" y2="300" stroke="#E2E2E2" stroke-width="2"/>
<line x1="570.287" y1="271.042" x2="660.287" y2="298.042" stroke="#E2E2E2" stroke-width="2"/>
<line x1="660.431" y1="256.098" x2="748.431" y2="298.098" stroke="#E2E2E2" stroke-width="2"/>
<line x1="749.423" y1="256.906" x2="659.423" y2="298.906" stroke="#E2E2E2" stroke-width="2"/>
<rect x="183" y="240" width="39" height="15" fill="#D9D9D9"/>
<path d="M139 150H266L270 240H135L139 150Z" fill="#D9D9D9"/>
<ellipse cx="345.419" cy="118.867" rx="63.5" ry="48" transform="rotate(-70.5317 345.419 118.867)" fill="#E7E7E7"/>
<path d="M105 127H135L202.5 105L270 127H387V143H105V127Z" fill="#C9C9C9"/>
<ellipse cx="202.5" cy="150" rx="63.5" ry="48" fill="#D9D9D9"/>
<rect x="708" y="240" width="39" height="15" fill="#D9D9D9"/>
<path d="M664 150H791L795 240H660L664 150Z" fill="#D9D9D9"/>
<path d="M53 120H105V150H53L36 142V128.5L53 120Z" fill="#D9D9D9"/>
<rect x="690" y="144" width="75" height="6" fill="#C9C9C9"/>
<line x1="139" y1="149" x2="266" y2="149" stroke="#C9C9C9" stroke-width="2"/>
<rect x="555" y="126" width="345" height="14" fill="#C9C9C9"/>
<path d="M664 144C664 137.697 665.642 131.455 668.834 125.631C672.025 119.808 676.702 114.516 682.599 110.059C688.495 105.602 695.495 102.066 703.2 99.6538C710.904 97.2415 719.161 96 727.5 96C735.839 96 744.096 97.2416 751.8 99.6538C759.505 102.066 766.505 105.602 772.401 110.059C778.298 114.516 782.975 119.808 786.166 125.631C789.358 131.455 791 137.697 791 144L727.5 144L664 144Z" fill="#D9D9D9"/>
<circle cx="555" cy="133" r="45" fill="url(#paint0_radial_89_3270)"/>
<circle cx="900" cy="133" r="45" fill="url(#paint1_radial_89_3270)"/>
<path d="M360 555H430L499 540V615L430 600H360V555Z" fill="#F4F1F0"/>
<defs>
<radialGradient id="paint0_radial_89_3270" cx="0" cy="0" r="1" gradientUnits="userSpaceOnUse" gradientTransform="translate(555 133) rotate(90) scale(45)">
<stop offset="0.287195" stop-color="#959595"/>
<stop offset="1" stop-color="#D9D9D9"/>
</radialGradient>
<radialGradient id="paint1_radial_89_3270" cx="0" cy="0" r="1" gradientUnits="userSpaceOnUse" gradientTransform="translate(900 133) rotate(90) scale(45)">
<stop offset="0.294334" stop-color="white"/>
<stop offset="1" stop-color="#D9D9D9"/>
</radialGradient>
</defs>
</svg>
