<svg width="900" height="60" viewBox="0 0 900 60" fill="none" xmlns="http://www.w3.org/2000/svg">
<g clip-path="url(#clip0_8870_2690)">
<rect x="1" y="1" width="58" height="58" rx="29" fill="#186DBF" fill-opacity="0.1"/>
<rect x="1" y="1" width="58" height="58" rx="29" stroke="#2D56B3" stroke-width="2"/>
<path d="M23.8842 36.9025C21.968 34.2955 19.5626 32.8131 18.511 33.5813L13.6913 37.1245C12.6398 37.8971 13.3408 40.637 15.257 43.244C17.1732 45.8511 19.5801 47.3335 20.6317 46.5667L25.4513 43.0235C26.5029 42.2509 25.8019 39.511 23.8842 36.9025Z" fill="#407BFF"/>
<path opacity="0.4" d="M25.4524 43.0206C26.5039 42.2476 25.8025 39.5072 23.8858 36.8998C21.969 34.2923 19.5627 32.8052 18.5112 33.5783C17.4596 34.3513 18.161 37.0916 20.0778 39.6991C21.9945 42.3065 24.4008 43.7936 25.4524 43.0206Z" fill="white"/>
<path d="M18.1371 41.1321C17.179 39.8279 15.9756 39.0874 15.4498 39.4715L9.25283 44.0254C8.72705 44.4124 9.07757 45.778 10.0357 47.0924C10.9938 48.4069 12.1972 49.1371 12.723 48.753L18.9199 44.1977C19.4399 43.8063 19.0894 42.4363 18.1371 41.1321Z" fill="#407BFF"/>
<path opacity="0.3" d="M18.9126 44.1918L17.2462 45.4172C15.7638 44.1116 14.5806 42.5015 13.7775 40.6968L15.4439 39.4715C15.9697 39.0844 17.1732 39.8278 18.1312 41.1321C19.0893 42.4363 19.4384 43.8048 18.9126 44.1918Z" fill="black"/>
<path opacity="0.3" d="M18.9147 44.1887C19.4404 43.8022 19.0897 42.432 18.1314 41.1283C17.173 39.8246 15.9698 39.081 15.4441 39.4675C14.9183 39.854 15.269 41.2242 16.2274 42.5279C17.1857 43.8317 18.3889 44.5752 18.9147 44.1887Z" fill="white"/>
<path opacity="0.3" d="M12.7172 48.7472C12.1914 49.1327 10.9879 48.3893 10.0298 47.0866C9.07174 45.7838 8.71538 44.4124 9.247 44.0195C9.77863 43.6266 10.9762 44.3773 11.9343 45.6801C12.8924 46.9829 13.243 48.3601 12.7172 48.7472Z" fill="black"/>
<path opacity="0.3" d="M20.6334 46.563C21.6849 45.79 20.9836 43.0496 19.0668 40.4421C17.15 37.8347 14.7438 36.3476 13.6922 37.1206C12.6407 37.8936 13.342 40.634 15.2588 43.2414C17.1755 45.8489 19.5818 47.336 20.6334 46.563Z" fill="black"/>
<path d="M27.8947 33.9551C24.5852 29.4524 20.4315 26.8848 18.6147 28.2197L15.9463 30.1841C14.1309 31.5175 15.3417 36.2496 18.6497 40.7523C21.9578 45.2551 26.1115 47.8227 27.9225 46.4877L30.5952 44.5234C32.415 43.1885 31.2043 38.4579 27.8947 33.9551Z" fill="#407BFF"/>
<path opacity="0.3" d="M27.9288 46.4831C29.7446 45.1482 28.5339 40.4166 25.2245 35.9147C21.9151 31.4128 17.7602 28.8454 15.9444 30.1802C14.1285 31.5151 15.3393 36.2467 18.6487 40.7486C21.9581 45.2505 26.1129 47.8179 27.9288 46.4831Z" fill="black"/>
<path opacity="0.4" d="M30.5994 44.5198C32.4153 43.185 31.2045 38.4534 27.8951 33.9514C24.5857 29.4495 20.4309 26.8821 18.615 28.217C16.7992 29.5518 18.01 34.2834 21.3194 38.7854C24.6288 43.2873 28.7836 45.8547 30.5994 44.5198Z" fill="white"/>
<path d="M31.8659 31.0326C29.9497 28.4256 27.5428 26.9432 26.4912 27.7114L21.6716 31.2532C20.62 32.0258 21.321 34.7672 23.2372 37.3742C25.1534 39.9812 27.5603 41.4636 28.6119 40.6954L33.4316 37.1536C34.4948 36.381 33.7879 33.6397 31.8659 31.0326Z" fill="#407BFF"/>
<path opacity="0.3" d="M28.6182 40.6933C29.6698 39.9203 28.9684 37.1799 27.0517 34.5725C25.1349 31.9651 22.7286 30.478 21.6771 31.251C20.6255 32.024 21.3269 34.7644 23.2437 37.3718C25.1604 39.9792 27.5667 41.4663 28.6182 40.6933Z" fill="black"/>
<path opacity="0.4" d="M33.4379 37.1499C34.4895 36.3769 33.7881 33.6365 31.8714 31.029C29.9546 28.4216 27.5483 26.9345 26.4968 27.7075C25.4452 28.4805 26.1466 31.2209 28.0634 33.8284C29.9801 36.4358 32.3864 37.9229 33.4379 37.1499Z" fill="white"/>
<path d="M26.5498 11.625H19.8606C19.4843 11.625 19.1792 11.9301 19.1792 12.3064V18.9956C19.1792 19.372 19.4843 19.677 19.8606 19.677H26.5498C26.9261 19.677 27.2312 19.372 27.2312 18.9956V12.3064C27.2312 11.9301 26.9261 11.625 26.5498 11.625Z" fill="#263238"/>
<path d="M35.291 11.625H28.6018C28.2255 11.625 27.9204 11.9301 27.9204 12.3064V18.9956C27.9204 19.372 28.2255 19.677 28.6018 19.677H35.291C35.6674 19.677 35.9724 19.372 35.9724 18.9956V12.3064C35.9724 11.9301 35.6674 11.625 35.291 11.625Z" fill="#263238"/>
<path d="M17.8086 11.625H11.1194C10.7431 11.625 10.438 11.9301 10.438 12.3064V18.9956C10.438 19.372 10.7431 19.677 11.1194 19.677H17.8086C18.1849 19.677 18.49 19.372 18.49 18.9956V12.3064C18.49 11.9301 18.1849 11.625 17.8086 11.625Z" fill="#263238"/>
<path d="M13.2103 13.4316L12.0734 14.2298V17.8743H15.7178L16.8567 17.0761V13.4316H13.2103Z" fill="#407BFF"/>
<path opacity="0.6" d="M12.0734 14.2298L13.2103 13.4316H16.8567L15.7178 14.2298H12.0734Z" fill="white"/>
<path opacity="0.3" d="M16.8567 13.4316V17.0761L15.7178 17.8743V14.2298L16.8567 13.4316Z" fill="black"/>
<path opacity="0.2" d="M13.2103 13.4316L12.0734 14.2298V17.8743H15.7178L16.8567 17.0761V13.4316H13.2103Z" fill="white"/>
<path d="M45.8213 12.4037C44.4994 12.4033 43.207 12.7949 42.1077 13.5291C41.0084 14.2632 40.1514 15.3069 39.6453 16.5281C39.1391 17.7493 39.0065 19.0932 39.2642 20.3898C39.5218 21.6864 40.1582 22.8774 41.0928 23.8123C42.0274 24.7472 43.2183 25.3839 44.5148 25.6419C45.8113 25.9 47.1552 25.7677 48.3766 25.2619C49.5979 24.7561 50.6418 23.8995 51.3763 22.8004C52.1108 21.7013 52.5028 20.409 52.5028 19.0871C52.5007 17.3155 51.7962 15.6171 50.5437 14.3642C49.2912 13.1113 47.5929 12.4063 45.8213 12.4037ZM52.1096 18.8924H46.7928L51.6988 16.8405C51.9493 17.4967 52.0882 18.1903 52.1096 18.8924ZM51.5469 16.4803L46.016 18.7931V12.7989C47.1893 12.8367 48.3287 13.2014 49.3059 13.8518C50.283 14.5022 51.0592 15.4126 51.5469 16.4803ZM45.6267 12.7989V18.8924H39.5351C39.5862 17.2929 40.2443 15.7728 41.3758 14.6409C42.5072 13.5091 44.0271 12.8505 45.6267 12.7989ZM44.8479 19.2818L39.942 21.3337C39.6907 20.6777 39.5518 19.984 39.5312 19.2818H44.8479ZM40.0938 21.6919L45.6228 19.3791V25.3675C44.451 25.3298 43.313 24.9658 42.3369 24.3164C41.3608 23.6671 40.5853 22.7581 40.0977 21.6919H40.0938ZM46.016 25.3675V19.2818H52.1096C52.0565 20.8803 51.3972 22.3987 50.2655 23.5289C49.1339 24.6592 47.6146 25.3165 46.016 25.3675Z" fill="#407BFF"/>
<g opacity="0.6">
<path d="M45.8213 12.4037C44.4994 12.4033 43.207 12.7949 42.1077 13.5291C41.0084 14.2632 40.1514 15.3069 39.6453 16.5281C39.1391 17.7493 39.0065 19.0932 39.2642 20.3898C39.5218 21.6864 40.1582 22.8774 41.0928 23.8123C42.0274 24.7472 43.2183 25.3839 44.5148 25.6419C45.8113 25.9 47.1552 25.7677 48.3766 25.2619C49.5979 24.7561 50.6418 23.8995 51.3763 22.8004C52.1108 21.7013 52.5028 20.409 52.5028 19.0871C52.5007 17.3155 51.7962 15.6171 50.5437 14.3642C49.2912 13.1113 47.5929 12.4063 45.8213 12.4037ZM52.1096 18.8924H46.7928L51.6988 16.8405C51.9493 17.4967 52.0882 18.1903 52.1096 18.8924ZM51.5469 16.4803L46.016 18.7931V12.7989C47.1893 12.8367 48.3287 13.2014 49.3059 13.8518C50.283 14.5022 51.0592 15.4126 51.5469 16.4803ZM45.6267 12.7989V18.8924H39.5351C39.5862 17.2929 40.2443 15.7728 41.3758 14.6409C42.5072 13.5091 44.0271 12.8505 45.6267 12.7989ZM44.8479 19.2818L39.942 21.3337C39.6907 20.6777 39.5518 19.984 39.5312 19.2818H44.8479ZM40.0938 21.6919L45.6228 19.3791V25.3675C44.451 25.3298 43.313 24.9658 42.3369 24.3164C41.3608 23.6671 40.5853 22.7581 40.0977 21.6919H40.0938ZM46.016 25.3675V19.2818H52.1096C52.0565 20.8803 51.3972 22.3987 50.2655 23.5289C49.1339 24.6592 47.6146 25.3165 46.016 25.3675Z" fill="white"/>
</g>
<path d="M45.8214 11.627L45.3658 12.906H46.2789L45.8214 11.627Z" fill="#407BFF"/>
<path d="M53.2815 19.0871L52.0024 18.6296V19.5427L53.2815 19.0871Z" fill="#407BFF"/>
<path d="M39.0056 21.9802L40.3625 21.8945L40.0004 21.0535L39.0056 21.9802Z" fill="#407BFF"/>
<path d="M39.8369 21.7854C39.7912 21.7865 39.7466 21.7714 39.7109 21.7429C39.6751 21.7144 39.6506 21.6742 39.6416 21.6294C39.6325 21.5845 39.6395 21.538 39.6613 21.4978C39.6832 21.4577 39.7184 21.4265 39.761 21.4097L45.7474 18.9061C45.7952 18.8862 45.8489 18.8861 45.8967 18.9058C45.9445 18.9255 45.9826 18.9635 46.0024 19.0112C46.0223 19.059 46.0224 19.1127 46.0027 19.1605C45.983 19.2083 45.9451 19.2464 45.8973 19.2662L39.9109 21.7699C39.8875 21.7798 39.8623 21.7851 39.8369 21.7854Z" fill="#407BFF"/>
<path d="M45.8214 19.2818C45.7698 19.2818 45.7202 19.2613 45.6837 19.2248C45.6472 19.1883 45.6267 19.1387 45.6267 19.0871V12.6003C45.6267 12.5487 45.6472 12.4992 45.6837 12.4627C45.7202 12.4262 45.7698 12.4056 45.8214 12.4056C45.873 12.4056 45.9225 12.4262 45.959 12.4627C45.9956 12.4992 46.0161 12.5487 46.0161 12.6003V19.0871C46.0161 19.1387 45.9956 19.1883 45.959 19.2248C45.9225 19.2613 45.873 19.2818 45.8214 19.2818Z" fill="#407BFF"/>
<path d="M52.3082 19.2818H45.8214C45.7698 19.2818 45.7202 19.2613 45.6837 19.2248C45.6472 19.1883 45.6267 19.1388 45.6267 19.0871C45.6267 19.0355 45.6472 18.986 45.6837 18.9495C45.7202 18.913 45.7698 18.8925 45.8214 18.8925H52.3082C52.3598 18.8925 52.4093 18.913 52.4458 18.9495C52.4823 18.986 52.5028 19.0355 52.5028 19.0871C52.5028 19.1388 52.4823 19.1883 52.4458 19.2248C52.4093 19.2613 52.3598 19.2818 52.3082 19.2818Z" fill="#407BFF"/>
<path d="M21.9535 13.4316L20.8146 14.2298V17.8743H24.459L25.5979 17.0761V13.4316H21.9535Z" fill="#407BFF"/>
<path opacity="0.2" d="M24.459 14.2299H20.8146V17.8743H24.459V14.2299Z" fill="white"/>
<path opacity="0.2" d="M25.596 13.4297H21.9515V17.0741H25.596V13.4297Z" fill="white"/>
<path opacity="0.6" d="M20.8146 14.2298L21.9535 13.4316H25.5979L24.459 14.2298H20.8146Z" fill="white"/>
<path opacity="0.3" d="M25.5979 13.4316V17.0761L24.459 17.8743V14.2298L25.5979 13.4316Z" fill="black"/>
<path opacity="0.3" d="M20.8146 17.8742L21.9535 17.076H25.5979L24.459 17.8742H20.8146Z" fill="black"/>
<path opacity="0.2" d="M34.4306 13.4121C34.4306 13.4121 34.4306 13.4121 34.4306 13.4004C34.4265 13.3919 34.4213 13.3841 34.415 13.3771L34.4033 13.3654H34.3916C34.3807 13.3634 34.3695 13.3634 34.3585 13.3654H34.3449H30.6927C30.6719 13.3655 30.6516 13.3715 30.6343 13.3829L29.4973 14.1831L29.4837 14.2006C29.474 14.2139 29.4674 14.2292 29.4642 14.2454C29.4642 14.2454 29.4642 14.2454 29.4642 14.259V17.9034C29.4642 17.9151 29.4642 17.9229 29.4759 17.9326C29.4876 17.9424 29.4759 17.954 29.4759 17.9618C29.4847 17.9739 29.4961 17.9839 29.5092 17.9909C29.5224 17.998 29.5369 18.002 29.5518 18.0027H33.1963C33.2179 18.0022 33.2388 17.9955 33.2566 17.9832L34.3936 17.185L34.4033 17.1753C34.4189 17.1574 34.4278 17.1348 34.4286 17.1111V13.4316C34.4286 13.4316 34.4306 13.4199 34.4306 13.4121ZM30.5914 13.6282V14.1266H29.8809L30.5914 13.6282ZM29.6589 14.333H30.5914V17.0215L29.6589 17.6756V14.333ZM33.0989 17.7749H29.8809L30.7258 17.1909H33.0989V17.7749ZM33.0989 16.9767H30.7959V14.333H33.0989V16.9767ZM33.169 14.1305H30.7959V13.5328H34.0139L33.6986 13.7548L33.169 14.1305ZM33.3033 17.6795V17.1812H34.0139L33.3033 17.6795ZM34.2359 16.9767H33.3033V14.2823L33.6693 14.0273L34.2359 13.638V16.9767Z" fill="white"/>
<path d="M34.4403 13.4316C34.4403 13.4316 34.4403 13.4199 34.4403 13.4121C34.4403 13.4043 34.4403 13.4121 34.4403 13.4004C34.4363 13.3919 34.431 13.3841 34.4247 13.3771L34.413 13.3654H34.4014C34.3904 13.3634 34.3792 13.3634 34.3683 13.3654H34.3546H30.6927C30.6719 13.3655 30.6516 13.3715 30.6343 13.3829L29.4973 14.1831L29.4837 14.2006C29.474 14.2139 29.4674 14.2292 29.4642 14.2454C29.4642 14.2454 29.4642 14.2454 29.4642 14.259V17.9034C29.4642 17.9151 29.4642 17.9229 29.4759 17.9326C29.4876 17.9424 29.4759 17.954 29.4759 17.9618C29.4847 17.9739 29.4961 17.9839 29.5092 17.9909C29.5224 17.998 29.5369 18.002 29.5518 18.0027H33.1963C33.2179 18.0022 33.2388 17.9955 33.2566 17.9832L34.3936 17.185L34.4033 17.1753C34.4189 17.1574 34.4278 17.1348 34.4286 17.1111L34.4403 13.4316ZM33.3033 16.9728V14.2823L33.6694 14.0273L34.2359 13.638V16.9826L33.3033 16.9728ZM29.6589 14.333H30.5914V17.0215L29.6589 17.6756V14.333ZM30.7316 17.1773H33.1048V17.7613H29.8809L30.7316 17.1773ZM30.8017 16.9728V14.333H33.1048V16.9728H30.8017ZM34.0198 13.5328L33.7044 13.7548L33.1749 14.1266H30.7959V13.5328H34.0198ZM30.5973 13.6282V14.1266H29.8867L30.5973 13.6282ZM33.3092 17.1773H34.0198L33.3092 17.6756V17.1773Z" fill="#407BFF"/>
<path d="M60 30H900" stroke="#2D56B3" stroke-width="2" stroke-linecap="round"/>
<path d="M74.8066 15.9316H71.1836V13.6465H74.8066C75.3665 13.6465 75.8223 13.5553 76.1738 13.373C76.5254 13.1842 76.7826 12.9238 76.9453 12.5918C77.1081 12.2598 77.1895 11.8854 77.1895 11.4688C77.1895 11.0456 77.1081 10.6517 76.9453 10.2871C76.7826 9.92253 76.5254 9.62956 76.1738 9.4082C75.8223 9.18685 75.3665 9.07617 74.8066 9.07617H72.1992V21H69.2695V6.78125H74.8066C75.9199 6.78125 76.8737 6.98307 77.668 7.38672C78.4688 7.78385 79.0807 8.33398 79.5039 9.03711C79.9271 9.74023 80.1387 10.5443 80.1387 11.4492C80.1387 12.3672 79.9271 13.1615 79.5039 13.832C79.0807 14.5026 78.4688 15.0202 77.668 15.3848C76.8737 15.7493 75.9199 15.9316 74.8066 15.9316ZM84.7969 12.7383V21H81.9844V10.4336H84.6309L84.7969 12.7383ZM87.9805 10.3652L87.9316 12.9727C87.7949 12.9531 87.6289 12.9368 87.4336 12.9238C87.2448 12.9043 87.0723 12.8945 86.916 12.8945C86.5189 12.8945 86.1738 12.9466 85.8809 13.0508C85.5944 13.1484 85.3535 13.2949 85.1582 13.4902C84.9694 13.6855 84.8262 13.9232 84.7285 14.2031C84.6374 14.4831 84.5853 14.8021 84.5723 15.1602L84.0059 14.9844C84.0059 14.3008 84.0742 13.6725 84.2109 13.0996C84.3477 12.5202 84.5462 12.0156 84.8066 11.5859C85.0736 11.1562 85.3991 10.8242 85.7832 10.5898C86.1673 10.3555 86.6068 10.2383 87.1016 10.2383C87.2578 10.2383 87.4173 10.2513 87.5801 10.2773C87.7428 10.2969 87.8763 10.3262 87.9805 10.3652ZM88.5664 15.8242V15.6191C88.5664 14.8444 88.6771 14.1315 88.8984 13.4805C89.1198 12.8229 89.4421 12.2533 89.8652 11.7715C90.2884 11.2897 90.8092 10.9154 91.4277 10.6484C92.0462 10.375 92.7559 10.2383 93.5566 10.2383C94.3574 10.2383 95.0703 10.375 95.6953 10.6484C96.3203 10.9154 96.8444 11.2897 97.2676 11.7715C97.6973 12.2533 98.0228 12.8229 98.2441 13.4805C98.4655 14.1315 98.5762 14.8444 98.5762 15.6191V15.8242C98.5762 16.5924 98.4655 17.3053 98.2441 17.9629C98.0228 18.6139 97.6973 19.1836 97.2676 19.6719C96.8444 20.1536 96.3236 20.528 95.7051 20.7949C95.0866 21.0618 94.377 21.1953 93.5762 21.1953C92.7754 21.1953 92.0625 21.0618 91.4375 20.7949C90.819 20.528 90.2949 20.1536 89.8652 19.6719C89.4421 19.1836 89.1198 18.6139 88.8984 17.9629C88.6771 17.3053 88.5664 16.5924 88.5664 15.8242ZM91.3789 15.6191V15.8242C91.3789 16.2669 91.418 16.6803 91.4961 17.0645C91.5742 17.4486 91.6979 17.7871 91.8672 18.0801C92.043 18.3665 92.2708 18.5911 92.5508 18.7539C92.8307 18.9167 93.1725 18.998 93.5762 18.998C93.9668 18.998 94.3021 18.9167 94.582 18.7539C94.862 18.5911 95.0866 18.3665 95.2559 18.0801C95.4251 17.7871 95.5488 17.4486 95.627 17.0645C95.7116 16.6803 95.7539 16.2669 95.7539 15.8242V15.6191C95.7539 15.1895 95.7116 14.7858 95.627 14.4082C95.5488 14.0241 95.4219 13.6855 95.2461 13.3926C95.0768 13.0931 94.8522 12.8587 94.5723 12.6895C94.2923 12.5202 93.9538 12.4355 93.5566 12.4355C93.1595 12.4355 92.821 12.5202 92.541 12.6895C92.2676 12.8587 92.043 13.0931 91.8672 13.3926C91.6979 13.6855 91.5742 14.0241 91.4961 14.4082C91.418 14.7858 91.3789 15.1895 91.3789 15.6191ZM105.48 10.4336V12.4258H99.3281V10.4336H105.48ZM100.852 7.82617H103.664V17.8164C103.664 18.1224 103.703 18.3568 103.781 18.5195C103.866 18.6823 103.99 18.7962 104.152 18.8613C104.315 18.9199 104.52 18.9492 104.768 18.9492C104.943 18.9492 105.1 18.9427 105.236 18.9297C105.38 18.9102 105.5 18.8906 105.598 18.8711L105.607 20.9414C105.367 21.0195 105.106 21.0814 104.826 21.127C104.546 21.1725 104.237 21.1953 103.898 21.1953C103.28 21.1953 102.74 21.0944 102.277 20.8926C101.822 20.6842 101.47 20.3522 101.223 19.8965C100.975 19.4408 100.852 18.8418 100.852 18.0996V7.82617ZM106.379 15.8242V15.6191C106.379 14.8444 106.49 14.1315 106.711 13.4805C106.932 12.8229 107.255 12.2533 107.678 11.7715C108.101 11.2897 108.622 10.9154 109.24 10.6484C109.859 10.375 110.568 10.2383 111.369 10.2383C112.17 10.2383 112.883 10.375 113.508 10.6484C114.133 10.9154 114.657 11.2897 115.08 11.7715C115.51 12.2533 115.835 12.8229 116.057 13.4805C116.278 14.1315 116.389 14.8444 116.389 15.6191V15.8242C116.389 16.5924 116.278 17.3053 116.057 17.9629C115.835 18.6139 115.51 19.1836 115.08 19.6719C114.657 20.1536 114.136 20.528 113.518 20.7949C112.899 21.0618 112.189 21.1953 111.389 21.1953C110.588 21.1953 109.875 21.0618 109.25 20.7949C108.632 20.528 108.107 20.1536 107.678 19.6719C107.255 19.1836 106.932 18.6139 106.711 17.9629C106.49 17.3053 106.379 16.5924 106.379 15.8242ZM109.191 15.6191V15.8242C109.191 16.2669 109.23 16.6803 109.309 17.0645C109.387 17.4486 109.51 17.7871 109.68 18.0801C109.855 18.3665 110.083 18.5911 110.363 18.7539C110.643 18.9167 110.985 18.998 111.389 18.998C111.779 18.998 112.115 18.9167 112.395 18.7539C112.674 18.5911 112.899 18.3665 113.068 18.0801C113.238 17.7871 113.361 17.4486 113.439 17.0645C113.524 16.6803 113.566 16.2669 113.566 15.8242V15.6191C113.566 15.1895 113.524 14.7858 113.439 14.4082C113.361 14.0241 113.234 13.6855 113.059 13.3926C112.889 13.0931 112.665 12.8587 112.385 12.6895C112.105 12.5202 111.766 12.4355 111.369 12.4355C110.972 12.4355 110.633 12.5202 110.354 12.6895C110.08 12.8587 109.855 13.0931 109.68 13.3926C109.51 13.6855 109.387 14.0241 109.309 14.4082C109.23 14.7858 109.191 15.1895 109.191 15.6191ZM123.293 10.4336V12.4258H117.141V10.4336H123.293ZM118.664 7.82617H121.477V17.8164C121.477 18.1224 121.516 18.3568 121.594 18.5195C121.678 18.6823 121.802 18.7962 121.965 18.8613C122.128 18.9199 122.333 18.9492 122.58 18.9492C122.756 18.9492 122.912 18.9427 123.049 18.9297C123.192 18.9102 123.312 18.8906 123.41 18.8711L123.42 20.9414C123.179 21.0195 122.919 21.0814 122.639 21.127C122.359 21.1725 122.049 21.1953 121.711 21.1953C121.092 21.1953 120.552 21.0944 120.09 20.8926C119.634 20.6842 119.283 20.3522 119.035 19.8965C118.788 19.4408 118.664 18.8418 118.664 18.0996V7.82617ZM128.029 19.8086L130.832 10.4336H133.85L129.602 22.5918C129.51 22.8587 129.387 23.1452 129.23 23.4512C129.081 23.7572 128.876 24.0469 128.615 24.3203C128.361 24.6003 128.039 24.8281 127.648 25.0039C127.264 25.1797 126.792 25.2676 126.232 25.2676C125.965 25.2676 125.747 25.2513 125.578 25.2188C125.409 25.1862 125.207 25.1406 124.973 25.082V23.0215C125.044 23.0215 125.119 23.0215 125.197 23.0215C125.275 23.028 125.35 23.0312 125.422 23.0312C125.793 23.0312 126.096 22.9889 126.33 22.9043C126.564 22.8197 126.753 22.6895 126.896 22.5137C127.04 22.3444 127.154 22.123 127.238 21.8496L128.029 19.8086ZM126.857 10.4336L129.152 18.0898L129.553 21.0684L127.639 21.2734L123.84 10.4336H126.857ZM137.785 12.4648V25.0625H134.973V10.4336H137.58L137.785 12.4648ZM144.475 15.5996V15.8047C144.475 16.5729 144.383 17.2858 144.201 17.9434C144.025 18.6009 143.765 19.1738 143.42 19.6621C143.075 20.1439 142.645 20.5215 142.131 20.7949C141.623 21.0618 141.037 21.1953 140.373 21.1953C139.729 21.1953 139.169 21.0651 138.693 20.8047C138.218 20.5443 137.818 20.1797 137.492 19.7109C137.173 19.2357 136.916 18.6855 136.721 18.0605C136.525 17.4355 136.376 16.765 136.271 16.0488V15.5117C136.376 14.7435 136.525 14.0404 136.721 13.4023C136.916 12.7578 137.173 12.2012 137.492 11.7324C137.818 11.2572 138.215 10.8893 138.684 10.6289C139.159 10.3685 139.715 10.2383 140.354 10.2383C141.024 10.2383 141.613 10.3652 142.121 10.6191C142.635 10.873 143.065 11.2376 143.41 11.7129C143.762 12.1882 144.025 12.7546 144.201 13.4121C144.383 14.0697 144.475 14.7988 144.475 15.5996ZM141.652 15.8047V15.5996C141.652 15.1504 141.613 14.737 141.535 14.3594C141.464 13.9753 141.346 13.64 141.184 13.3535C141.027 13.0671 140.819 12.8457 140.559 12.6895C140.305 12.5267 139.995 12.4453 139.631 12.4453C139.247 12.4453 138.918 12.5072 138.645 12.6309C138.378 12.7546 138.16 12.9336 137.99 13.168C137.821 13.4023 137.694 13.6823 137.609 14.0078C137.525 14.3333 137.473 14.7012 137.453 15.1113V16.4688C137.486 16.9505 137.577 17.3835 137.727 17.7676C137.876 18.1452 138.107 18.4447 138.42 18.666C138.732 18.8874 139.143 18.998 139.65 18.998C140.021 18.998 140.334 18.9167 140.588 18.7539C140.842 18.5846 141.047 18.3535 141.203 18.0605C141.366 17.7676 141.48 17.429 141.545 17.0449C141.617 16.6608 141.652 16.2474 141.652 15.8047ZM149.191 10.4336V21H146.369V10.4336H149.191ZM146.193 7.67969C146.193 7.26953 146.337 6.93099 146.623 6.66406C146.91 6.39714 147.294 6.26367 147.775 6.26367C148.251 6.26367 148.632 6.39714 148.918 6.66406C149.211 6.93099 149.357 7.26953 149.357 7.67969C149.357 8.08984 149.211 8.42839 148.918 8.69531C148.632 8.96224 148.251 9.0957 147.775 9.0957C147.294 9.0957 146.91 8.96224 146.623 8.69531C146.337 8.42839 146.193 8.08984 146.193 7.67969ZM154.27 12.6895V21H151.457V10.4336H154.094L154.27 12.6895ZM153.859 15.3457H153.098C153.098 14.5645 153.199 13.8613 153.4 13.2363C153.602 12.6048 153.885 12.0677 154.25 11.625C154.615 11.1758 155.048 10.834 155.549 10.5996C156.057 10.3587 156.623 10.2383 157.248 10.2383C157.743 10.2383 158.195 10.3099 158.605 10.4531C159.016 10.5964 159.367 10.8242 159.66 11.1367C159.96 11.4492 160.188 11.8626 160.344 12.377C160.507 12.8913 160.588 13.5195 160.588 14.2617V21H157.756V14.252C157.756 13.7832 157.691 13.4186 157.561 13.1582C157.43 12.8978 157.238 12.7155 156.984 12.6113C156.737 12.5007 156.431 12.4453 156.066 12.4453C155.689 12.4453 155.36 12.5202 155.08 12.6699C154.807 12.8197 154.579 13.028 154.396 13.2949C154.221 13.5553 154.087 13.8613 153.996 14.2129C153.905 14.5645 153.859 14.9421 153.859 15.3457ZM169.416 10.4336H171.965V20.6484C171.965 21.612 171.75 22.429 171.32 23.0996C170.897 23.7767 170.305 24.2878 169.543 24.6328C168.781 24.9844 167.896 25.1602 166.887 25.1602C166.444 25.1602 165.975 25.1016 165.48 24.9844C164.992 24.8672 164.523 24.6849 164.074 24.4375C163.632 24.1901 163.26 23.8776 162.961 23.5L164.201 21.8398C164.527 22.2174 164.904 22.5104 165.334 22.7188C165.764 22.9336 166.239 23.041 166.76 23.041C167.268 23.041 167.697 22.9466 168.049 22.7578C168.4 22.5755 168.671 22.3053 168.859 21.9473C169.048 21.5957 169.143 21.1693 169.143 20.668V12.875L169.416 10.4336ZM162.307 15.8438V15.6387C162.307 14.8314 162.404 14.099 162.6 13.4414C162.801 12.7773 163.085 12.2077 163.449 11.7324C163.82 11.2572 164.27 10.8893 164.797 10.6289C165.324 10.3685 165.92 10.2383 166.584 10.2383C167.287 10.2383 167.876 10.3685 168.352 10.6289C168.827 10.8893 169.217 11.2604 169.523 11.7422C169.829 12.2174 170.067 12.7806 170.236 13.4316C170.412 14.0762 170.549 14.7826 170.646 15.5508V16C170.549 16.7357 170.402 17.4193 170.207 18.0508C170.012 18.6823 169.755 19.2357 169.436 19.7109C169.117 20.1797 168.719 20.5443 168.244 20.8047C167.775 21.0651 167.215 21.1953 166.564 21.1953C165.913 21.1953 165.324 21.0618 164.797 20.7949C164.276 20.528 163.83 20.1536 163.459 19.6719C163.088 19.1901 162.801 18.6237 162.6 17.9727C162.404 17.3216 162.307 16.612 162.307 15.8438ZM165.119 15.6387V15.8438C165.119 16.2799 165.161 16.6868 165.246 17.0645C165.331 17.4421 165.461 17.7773 165.637 18.0703C165.819 18.3568 166.044 18.5814 166.311 18.7441C166.584 18.9004 166.906 18.9785 167.277 18.9785C167.792 18.9785 168.212 18.8711 168.537 18.6562C168.863 18.4349 169.107 18.1322 169.27 17.748C169.432 17.3639 169.527 16.9212 169.553 16.4199V15.1406C169.54 14.7305 169.484 14.3626 169.387 14.0371C169.289 13.7051 169.152 13.4219 168.977 13.1875C168.801 12.9531 168.573 12.7708 168.293 12.6406C168.013 12.5104 167.681 12.4453 167.297 12.4453C166.926 12.4453 166.604 12.5299 166.33 12.6992C166.063 12.862 165.839 13.0866 165.656 13.373C165.48 13.6595 165.347 13.998 165.256 14.3887C165.165 14.7728 165.119 15.1895 165.119 15.6387Z" fill="#2D56B3"/>
</g>
<defs>
<clipPath id="clip0_8870_2690">
<rect width="900" height="60" fill="white"/>
</clipPath>
</defs>
</svg>
