<svg width="468" height="453" viewBox="0 0 468 453" fill="none" xmlns="http://www.w3.org/2000/svg">
<path fill-rule="evenodd" clip-rule="evenodd" d="M194 89.2514V355.205H349.413V89.2514H194ZM221.361 105.669C221.361 99.6242 216.461 94.7241 210.417 94.7241C204.372 94.7241 199.472 99.6242 199.472 105.669C199.472 111.713 204.372 116.613 210.417 116.613C216.461 116.613 221.361 111.713 221.361 105.669ZM332.996 94.7241C339.04 94.7241 343.94 99.6242 343.94 105.669C343.94 111.713 339.04 116.613 332.996 116.613C326.951 116.613 322.051 111.713 322.051 105.669C322.051 99.6242 326.951 94.7241 332.996 94.7241ZM343.94 338.788C343.94 332.744 339.04 327.844 332.996 327.844C326.951 327.844 322.051 332.744 322.051 338.788C322.051 344.833 326.951 349.733 332.996 349.733C339.04 349.733 343.94 344.833 343.94 338.788ZM211.511 327.844C217.556 327.844 222.456 332.744 222.456 338.788C222.456 344.833 217.556 349.733 211.511 349.733C211.331 349.733 211.152 349.729 210.974 349.72C210.79 349.729 210.604 349.734 210.417 349.734C204.372 349.734 199.472 344.834 199.472 338.789C199.472 332.745 204.372 327.845 210.417 327.845C210.597 327.845 210.776 327.849 210.954 327.858C211.139 327.848 211.324 327.844 211.511 327.844Z" fill="#434247"/>
<path fill-rule="evenodd" clip-rule="evenodd" d="M226.834 338.789C226.834 329.722 219.484 322.372 210.417 322.372C201.35 322.372 194 329.722 194 338.789C194 347.856 201.35 355.206 210.417 355.206C219.484 355.206 226.834 347.856 226.834 338.789ZM221.361 338.789C221.361 332.745 216.461 327.845 210.417 327.845C204.372 327.845 199.472 332.745 199.472 338.789C199.472 344.834 204.372 349.734 210.417 349.734C216.461 349.734 221.361 344.834 221.361 338.789Z" fill="#F6CB88"/>
<path fill-rule="evenodd" clip-rule="evenodd" d="M226.834 105.669C226.834 96.6018 219.484 89.2517 210.417 89.2517C201.35 89.2517 194 96.6018 194 105.669C194 114.735 201.35 122.085 210.417 122.085C219.484 122.085 226.834 114.735 226.834 105.669ZM221.361 105.669C221.361 99.6243 216.461 94.7243 210.417 94.7243C204.372 94.7243 199.472 99.6243 199.472 105.669C199.472 111.713 204.372 116.613 210.417 116.613C216.461 116.613 221.361 111.713 221.361 105.669Z" fill="#F6CB88"/>
<path fill-rule="evenodd" clip-rule="evenodd" d="M349.413 105.668C349.413 96.6013 342.063 89.2512 332.996 89.2512C323.929 89.2512 316.579 96.6013 316.579 105.668C316.579 114.735 323.929 122.085 332.996 122.085C342.063 122.085 349.413 114.735 349.413 105.668ZM343.94 105.668C343.94 99.6238 339.04 94.7238 332.996 94.7238C326.951 94.7238 322.051 99.6238 322.051 105.668C322.051 111.713 326.951 116.613 332.996 116.613C339.04 116.613 343.94 111.713 343.94 105.668Z" fill="#F7CB88"/>
<path fill-rule="evenodd" clip-rule="evenodd" d="M349.413 338.789C349.413 329.723 342.063 322.372 332.996 322.372C323.929 322.372 316.579 329.723 316.579 338.789C316.579 347.856 323.929 355.206 332.996 355.206C342.063 355.206 349.413 347.856 349.413 338.789ZM343.94 338.789C343.94 332.744 339.04 327.844 332.996 327.844C326.951 327.844 322.051 332.744 322.051 338.789C322.051 344.833 326.951 349.733 332.996 349.733C339.04 349.733 343.94 344.833 343.94 338.789Z" fill="#F6CB88"/>
<rect x="308.917" y="170.34" width="30.4458" height="72.7315" transform="rotate(90 308.917 170.34)" fill="#37363B"/>
<rect x="303.843" y="204.169" width="3.38286" height="10.1486" transform="rotate(-180 303.843 204.169)" fill="#D9D9D9"/>
<rect x="303.843" y="177.107" width="3.38286" height="10.1486" transform="rotate(-180 303.843 177.107)" fill="#D9D9D9"/>
<rect x="295.386" y="177.107" width="3.38286" height="10.1486" transform="rotate(-180 295.386 177.107)" fill="#D9D9D9"/>
<rect x="286.929" y="177.107" width="3.38286" height="10.1486" transform="rotate(-180 286.929 177.107)" fill="#D9D9D9"/>
<rect x="278.472" y="177.107" width="3.38286" height="10.1486" transform="rotate(-180 278.472 177.107)" fill="#D9D9D9"/>
<rect x="270.015" y="177.107" width="3.38286" height="10.1486" transform="rotate(-180 270.015 177.107)" fill="#D9D9D9"/>
<rect x="261.558" y="177.107" width="3.38286" height="10.1486" transform="rotate(-180 261.558 177.107)" fill="#D9D9D9"/>
<rect x="253.1" y="177.107" width="3.38286" height="10.1486" transform="rotate(-180 253.1 177.107)" fill="#D9D9D9"/>
<rect x="244.643" y="177.107" width="3.38286" height="10.1486" transform="rotate(-180 244.643 177.107)" fill="#D9D9D9"/>
<rect x="295.386" y="204.169" width="3.38286" height="10.1486" transform="rotate(-180 295.386 204.169)" fill="#D9D9D9"/>
<rect x="286.929" y="204.169" width="3.38286" height="10.1486" transform="rotate(-180 286.929 204.169)" fill="#D9D9D9"/>
<rect x="278.472" y="204.169" width="3.38286" height="10.1486" transform="rotate(-180 278.472 204.169)" fill="#D9D9D9"/>
<rect x="270.015" y="204.169" width="3.38286" height="10.1486" transform="rotate(-180 270.015 204.169)" fill="#D9D9D9"/>
<rect x="261.558" y="204.169" width="3.38286" height="10.1486" transform="rotate(-180 261.558 204.169)" fill="#D9D9D9"/>
<rect x="253.1" y="204.169" width="3.38286" height="10.1486" transform="rotate(-180 253.1 204.169)" fill="#D9D9D9"/>
<rect x="244.643" y="204.169" width="3.38286" height="10.1486" transform="rotate(-180 244.643 204.169)" fill="#D9D9D9"/>
<rect x="303.446" y="241.382" width="30.6448" height="63.4784" transform="rotate(90 303.446 241.382)" fill="#37363B"/>
<rect x="298.67" y="248.246" width="3.38286" height="10.1486" transform="rotate(-180 298.67 248.246)" fill="#D9D9D9"/>
<rect x="290.213" y="248.246" width="3.38286" height="10.1486" transform="rotate(-180 290.213 248.246)" fill="#D9D9D9"/>
<rect x="281.755" y="248.246" width="3.38286" height="10.1486" transform="rotate(-180 281.755 248.246)" fill="#D9D9D9"/>
<rect x="273.298" y="248.246" width="3.38286" height="10.1486" transform="rotate(-180 273.298 248.246)" fill="#D9D9D9"/>
<rect x="264.841" y="248.246" width="3.38286" height="10.1486" transform="rotate(-180 264.841 248.246)" fill="#D9D9D9"/>
<rect x="256.384" y="248.246" width="3.38286" height="10.1486" transform="rotate(-180 256.384 248.246)" fill="#D9D9D9"/>
<rect x="247.927" y="248.246" width="3.38286" height="10.1486" transform="rotate(-180 247.927 248.246)" fill="#D9D9D9"/>
<rect x="298.67" y="275.31" width="3.38286" height="10.1486" transform="rotate(-180 298.67 275.31)" fill="#D9D9D9"/>
<rect x="290.213" y="275.31" width="3.38286" height="10.1486" transform="rotate(-180 290.213 275.31)" fill="#D9D9D9"/>
<rect x="281.755" y="275.31" width="3.38286" height="10.1486" transform="rotate(-180 281.755 275.31)" fill="#D9D9D9"/>
<rect x="273.298" y="275.31" width="3.38286" height="10.1486" transform="rotate(-180 273.298 275.31)" fill="#D9D9D9"/>
<rect x="264.841" y="275.31" width="3.38286" height="10.1486" transform="rotate(-180 264.841 275.31)" fill="#D9D9D9"/>
<rect x="256.384" y="275.31" width="3.38286" height="10.1486" transform="rotate(-180 256.384 275.31)" fill="#D9D9D9"/>
<rect x="247.927" y="275.31" width="3.38286" height="10.1486" transform="rotate(-180 247.927 275.31)" fill="#D9D9D9"/>
<rect x="256.384" y="129.746" width="40.495" height="30.6447" transform="rotate(-90 256.384 129.746)" fill="#BFAC99"/>
<path d="M271.706 117.708C265.964 117.708 261.309 113.053 261.309 107.31V75.0237H282.104V107.31C282.104 113.052 277.449 117.708 271.706 117.708Z" fill="#E2E2ED"/>
<rect x="250.912" y="105.668" width="16.4169" height="5.47227" transform="rotate(-90 250.912 105.668)" fill="#BFAC99"/>
<rect x="287.029" y="105.668" width="16.4169" height="5.47227" transform="rotate(-90 287.029 105.668)" fill="#BFAC99"/>
<rect x="248.723" y="355.206" width="42.6839" height="47.0615" transform="rotate(-90 248.723 355.206)" fill="#BFAC99"/>
<path fill-rule="evenodd" clip-rule="evenodd" d="M258.573 335.357V376H287.029V335.357C287.029 329.638 283.374 324.774 278.273 322.971V354.874H267.329V322.971C262.228 324.774 258.573 329.638 258.573 335.357ZM271.646 322.223H273.956C273.936 322.223 273.916 322.223 273.896 322.223H271.707C271.686 322.223 271.666 322.223 271.646 322.223Z" fill="#E2E2ED"/>
<rect x="225.142" y="242.476" width="15.3224" height="6.96471" transform="rotate(90 225.142 242.476)" fill="#37363B"/>
<rect x="227.928" y="245.261" width="1.39295" height="4.17883" transform="rotate(90 227.928 245.261)" fill="#D9D9D9"/>
<rect x="219.57" y="245.261" width="1.39295" height="4.17883" transform="rotate(90 219.57 245.261)" fill="#D9D9D9"/>
<rect x="227.928" y="249.441" width="1.39295" height="4.17883" transform="rotate(90 227.928 249.441)" fill="#D9D9D9"/>
<rect x="227.928" y="253.619" width="1.39295" height="4.17883" transform="rotate(90 227.928 253.619)" fill="#D9D9D9"/>
<rect x="219.57" y="253.619" width="1.39295" height="4.17883" transform="rotate(90 219.57 253.619)" fill="#D9D9D9"/>
<g clip-path="url(#clip0_1125_8956)">
<rect x="227.928" y="143.914" width="5.47229" height="12.039" transform="rotate(90 227.928 143.914)" fill="#D9D9D9"/>
<rect x="227.928" y="154.873" width="5.47229" height="12.039" transform="rotate(90 227.928 154.873)" fill="#D9D9D9"/>
<rect x="227.928" y="165.833" width="5.47229" height="12.039" transform="rotate(90 227.928 165.833)" fill="#D9D9D9"/>
<rect x="227.928" y="176.792" width="5.47229" height="12.039" transform="rotate(90 227.928 176.792)" fill="#D9D9D9"/>
<rect x="227.928" y="187.752" width="5.47229" height="12.039" transform="rotate(90 227.928 187.752)" fill="#D9D9D9"/>
<rect x="227.928" y="198.711" width="5.47229" height="12.039" transform="rotate(90 227.928 198.711)" fill="#D9D9D9"/>
<rect x="227.928" y="209.67" width="5.47229" height="12.039" transform="rotate(90 227.928 209.67)" fill="#D9D9D9"/>
<rect x="227.928" y="220.63" width="5.47229" height="12.039" transform="rotate(90 227.928 220.63)" fill="#D9D9D9"/>
<rect x="227.928" y="231.59" width="5.47229" height="12.039" transform="rotate(90 227.928 231.59)" fill="#D9D9D9"/>
</g>
<rect x="341.751" y="161.485" width="5.47229" height="12.039" transform="rotate(90 341.751 161.485)" fill="#D9D9D9"/>
<rect x="341.751" y="173.524" width="5.47229" height="12.039" transform="rotate(90 341.751 173.524)" fill="#D9D9D9"/>
<rect x="341.751" y="185.563" width="5.47229" height="12.039" transform="rotate(90 341.751 185.563)" fill="#D9D9D9"/>
<rect x="341.751" y="197.602" width="5.47229" height="12.039" transform="rotate(90 341.751 197.602)" fill="#D9D9D9"/>
<rect x="341.751" y="209.641" width="5.47229" height="12.039" transform="rotate(90 341.751 209.641)" fill="#D9D9D9"/>
<rect x="341.751" y="221.68" width="5.47229" height="12.039" transform="rotate(90 341.751 221.68)" fill="#D9D9D9"/>
<rect x="341.751" y="233.719" width="5.47229" height="12.039" transform="rotate(90 341.751 233.719)" fill="#D9D9D9"/>
<rect x="341.751" y="245.758" width="5.47229" height="12.039" transform="rotate(90 341.751 245.758)" fill="#D9D9D9"/>
<rect x="341.751" y="257.797" width="5.47229" height="12.039" transform="rotate(90 341.751 257.797)" fill="#D9D9D9"/>
<rect x="341.751" y="269.836" width="5.47229" height="12.039" transform="rotate(90 341.751 269.836)" fill="#D9D9D9"/>
<rect x="341.751" y="281.875" width="5.47229" height="12.039" transform="rotate(90 341.751 281.875)" fill="#D9D9D9"/>
<g clip-path="url(#clip1_1125_8956)">
<rect x="316.579" y="133.029" width="5.47227" height="12.039" fill="#D9D9D9"/>
<rect x="316.579" y="153.824" width="5.47227" height="12.039" fill="#D9D9D9"/>
<rect x="316.579" y="174.618" width="5.47227" height="12.039" fill="#D9D9D9"/>
<rect x="316.579" y="195.413" width="5.47227" height="12.039" fill="#D9D9D9"/>
<rect x="316.579" y="216.208" width="5.47227" height="12.039" fill="#D9D9D9"/>
<rect x="316.579" y="237.003" width="5.47227" height="12.039" fill="#D9D9D9"/>
<rect x="316.579" y="257.797" width="5.47227" height="12.039" fill="#D9D9D9"/>
<rect x="316.579" y="278.592" width="5.47227" height="12.039" fill="#D9D9D9"/>
<rect x="316.579" y="299.387" width="5.47227" height="12.039" fill="#D9D9D9"/>
</g>
<rect x="227.928" y="264.364" width="5.47229" height="12.039" transform="rotate(90 227.928 264.364)" fill="#D9D9D9"/>
<rect x="227.928" y="275.309" width="5.47229" height="12.039" transform="rotate(90 227.928 275.309)" fill="#D9D9D9"/>
<rect x="227.928" y="286.254" width="5.47229" height="12.039" transform="rotate(90 227.928 286.254)" fill="#D9D9D9"/>
<rect x="227.928" y="297.198" width="5.47229" height="12.039" transform="rotate(90 227.928 297.198)" fill="#D9D9D9"/>
<rect x="280.462" y="129.748" width="10.9446" height="2.18891" transform="rotate(90 280.462 129.748)" fill="#D9D9D9"/>
<rect x="287.029" y="301.578" width="10.9446" height="2.18891" transform="rotate(90 287.029 301.578)" fill="#D9D9D9"/>
<rect x="271.707" y="301.578" width="10.9446" height="2.18891" transform="rotate(90 271.707 301.578)" fill="#D9D9D9"/>
<rect x="257.479" y="301.578" width="10.9446" height="2.18891" transform="rotate(90 257.479 301.578)" fill="#D9D9D9"/>
<rect x="265.14" y="129.748" width="10.9446" height="2.18891" transform="rotate(90 265.14 129.748)" fill="#D9D9D9"/>
<path d="M150.787 190.723C164.085 190.723 174.865 201.503 174.865 214.801L174.865 283.94C174.865 286.358 172.905 288.318 170.487 288.318L93.3755 288.318C90.9577 288.318 88.9977 286.358 88.9977 283.94L88.9977 214.801C88.9977 201.503 99.7778 190.723 113.076 190.723L150.787 190.723Z" fill="#D9D9D9"/>
<ellipse cx="131.637" cy="284.232" rx="13.6147" ry="42.6388" transform="rotate(90 131.637 284.232)" fill="#D1D1D1"/>
<path d="M143.721 283.752C146.743 283.752 149.193 286.202 149.193 289.224L149.193 415.905C149.193 416.51 148.703 417 148.098 417L115.265 417C114.66 417 114.17 416.51 114.17 415.905L114.17 289.224C114.17 286.202 116.62 283.752 119.643 283.752L143.721 283.752Z" fill="#D9D9D9"/>
<ellipse cx="131.685" cy="416.655" rx="3.74508" ry="17.5113" transform="rotate(90 131.685 416.655)" fill="#CECDCD"/>
<rect x="143.514" y="416.181" width="36.1171" height="5.47227" rx="1.09446" transform="rotate(89.8627 143.514 416.181)" fill="#B8B1AB"/>
<rect x="126.209" y="416.237" width="36.1171" height="5.47227" rx="1.09446" transform="rotate(89.8627 126.209 416.237)" fill="#B8B1AB"/>
<path d="M141.481 136C147.526 136 152.426 140.9 152.426 146.945V191.678H110.887V146.945C110.887 140.9 115.787 136 121.832 136L131.656 136L141.481 136Z" fill="#D9D9D9"/>
<line x1="131.5" y1="136.005" x2="131.5" y2="38" stroke="#D9D9D9" stroke-width="11"/>
<line x1="137" y1="43.5" x2="277" y2="43.5" stroke="#D9D9D9" stroke-width="11"/>
<line x1="271.5" y1="75" x2="271.5" y2="49" stroke="#D9D9D9" stroke-width="11"/>
<line x1="265" y1="376" x2="265" y2="426" stroke="#0047FF" stroke-width="4"/>
<line x1="273" y1="376" x2="273" y2="426" stroke="#FF0000" stroke-width="4"/>
<line x1="281" y1="376" x2="281" y2="426" stroke="black" stroke-width="4"/>
<defs>
<clipPath id="clip0_1125_8956">
<rect width="93.1483" height="14.2279" fill="white" transform="matrix(0 1 -1 0 230.117 143.914)"/>
</clipPath>
<clipPath id="clip1_1125_8956">
<rect width="178.397" height="5.47227" fill="white" transform="matrix(0 1 -1 0 322.051 133.029)"/>
</clipPath>
</defs>
</svg>
