<svg width="24" height="24" viewBox="0 0 24 24" fill="none" xmlns="http://www.w3.org/2000/svg">
<mask id="mask0_7739_29500" style="mask-type:alpha" maskUnits="userSpaceOnUse" x="0" y="0" width="24" height="24">
<rect width="24" height="24" fill="#D9D9D9"/>
</mask>
<g mask="url(#mask0_7739_29500)">
<path d="M7.72882 16.498H8.72882V11.998H7.72882V16.498ZM15.2673 16.498H16.2673V6.99805H15.2673V16.498ZM11.498 16.498H12.498V13.998H11.498V16.498ZM11.498 11.998H12.498V9.99805H11.498V11.998ZM5.61342 19.998C5.15317 19.998 4.76888 19.8439 4.46055 19.5355C4.15221 19.2272 3.99805 18.8429 3.99805 18.3827V5.61342C3.99805 5.15317 4.15221 4.76888 4.46055 4.46055C4.76888 4.15221 5.15317 3.99805 5.61342 3.99805H18.3827C18.8429 3.99805 19.2272 4.15221 19.5355 4.46055C19.8439 4.76888 19.998 5.15317 19.998 5.61342V18.3827C19.998 18.8429 19.8439 19.2272 19.5355 19.5355C19.2272 19.8439 18.8429 19.998 18.3827 19.998H5.61342ZM5.61342 18.998H18.3827C18.5365 18.998 18.6775 18.9339 18.8057 18.8057C18.9339 18.6775 18.998 18.5365 18.998 18.3827V5.61342C18.998 5.45959 18.9339 5.31856 18.8057 5.19035C18.6775 5.06215 18.5365 4.99805 18.3827 4.99805H5.61342C5.45959 4.99805 5.31856 5.06215 5.19035 5.19035C5.06215 5.31856 4.99805 5.45959 4.99805 5.61342V18.3827C4.99805 18.5365 5.06215 18.6775 5.19035 18.8057C5.31856 18.9339 5.45959 18.998 5.61342 18.998Z" fill="#1C1B1F"/>
</g>
</svg>
