<svg width="225" height="240" viewBox="0 0 225 240" fill="none" xmlns="http://www.w3.org/2000/svg">
<rect x="12" width="201" height="130" fill="#D9D9D9"/>
<rect x="213" y="15" width="6" height="31" fill="#CBC8C3"/>
<rect x="30" width="165" height="7" fill="#C1C1C1"/>
<path d="M181.666 76C181.666 76 197.495 88.5407 194.66 102.974C192.372 114.624 177.869 116.225 173.396 107.233C171.743 103.908 170.342 97.7687 176.704 90.9068C182.847 84.2816 181.666 76 181.666 76Z" fill="white" fill-opacity="0.3"/>
<rect x="23" y="17" width="48" height="13" fill="white" fill-opacity="0.3"/>
<rect x="74" y="17" width="110" height="13" fill="white" fill-opacity="0.3"/>
<rect x="23" y="32" width="110" height="13" fill="white" fill-opacity="0.3"/>
<rect x="213" y="30" width="6" height="16" fill="black" fill-opacity="0.15"/>
<rect x="12" y="60" width="201" height="70" fill="black" fill-opacity="0.15"/>
<path d="M60 95C60 90.4037 59.612 85.8525 58.8582 81.6061C58.1044 77.3597 56.9995 73.5013 55.6066 70.2513C54.2137 67.0012 52.5601 64.4231 50.7403 62.6642C48.9204 60.9053 46.9698 60 45 60C43.0302 60 41.0796 60.9053 39.2597 62.6642C37.4399 64.4231 35.7863 67.0012 34.3934 70.2513C33.0005 73.5013 31.8956 77.3597 31.1418 81.6061C30.388 85.8525 30 90.4037 30 95L45 95H60Z" fill="#A5A5A5"/>
<path d="M45 60C43.0302 60 41.0796 60.9053 39.2597 62.6642C37.4399 64.4231 35.7863 67.0012 34.3934 70.2513C33.0005 73.5013 31.8956 77.3597 31.1418 81.6061C30.388 85.8525 30 90.4037 30 95L45 95L45 60Z" fill="black" fill-opacity="0.15"/>
<rect x="30" y="95" width="30" height="58" fill="#A5A5A5"/>
<path d="M30 95H45V153H30V95Z" fill="black" fill-opacity="0.15"/>
<path d="M45.4131 105.5C45.4131 105.5 45.4131 143.5 45.4131 165C45.4131 186.5 93 257.5 165 165" stroke="#3E69D8" stroke-opacity="0.5" stroke-width="34"/>
<path d="M45.4131 105.5C45.4131 105.5 45.4131 143.5 45.4131 165C45.4131 186.5 93 257.5 165 165" stroke="#5282FF" stroke-opacity="0.4" stroke-width="30"/>
</svg>
