<svg width="1201" height="60" viewBox="0 0 1201 60" fill="none" xmlns="http://www.w3.org/2000/svg">
<g clip-path="url(#clip0_8870_2690)">
<rect x="1.5" y="1" width="58" height="58" rx="29" fill="#186DBF" fill-opacity="0.1"/>
<rect x="1.5" y="1" width="58" height="58" rx="29" stroke="#2D56B3" stroke-width="2"/>
<path d="M24.3842 36.9025C22.468 34.2955 20.0626 32.8131 19.011 33.5813L14.1913 37.1245C13.1398 37.8971 13.8408 40.637 15.757 43.244C17.6732 45.8511 20.0801 47.3335 21.1317 46.5667L25.9513 43.0235C27.0029 42.2509 26.3019 39.511 24.3842 36.9025Z" fill="#407BFF"/>
<path opacity="0.4" d="M25.9524 43.0205C27.0039 42.2475 26.3025 39.5071 24.3858 36.8997C22.469 34.2922 20.0627 32.8051 19.0112 33.5781C17.9596 34.3511 18.661 37.0915 20.5778 39.699C22.4945 42.3064 24.9008 43.7935 25.9524 43.0205Z" fill="white"/>
<path d="M18.6371 41.1321C17.679 39.8279 16.4756 39.0874 15.9498 39.4715L9.75283 44.0254C9.22705 44.4124 9.57757 45.778 10.5357 47.0924C11.4938 48.4069 12.6972 49.1371 13.223 48.753L19.4199 44.1977C19.9399 43.8063 19.5894 42.4363 18.6371 41.1321Z" fill="#407BFF"/>
<path opacity="0.3" d="M19.4126 44.1919L17.7462 45.4173C16.2638 44.1117 15.0807 42.5016 14.2775 40.6969L15.9439 39.4716C16.4697 39.0845 17.6732 39.8279 18.6313 41.1322C19.5894 42.4364 19.9384 43.8049 19.4126 44.1919Z" fill="black"/>
<path opacity="0.3" d="M19.4146 44.1886C19.9404 43.8021 19.5897 42.4319 18.6313 41.1282C17.6729 39.8245 16.4698 39.0809 15.944 39.4674C15.4182 39.8539 15.7689 41.2241 16.7273 42.5278C17.6857 43.8315 18.8888 44.5751 19.4146 44.1886Z" fill="white"/>
<path opacity="0.3" d="M13.2172 48.7472C12.6914 49.1327 11.4879 48.3893 10.5298 47.0866C9.57174 45.7838 9.21538 44.4124 9.747 44.0195C10.2786 43.6266 11.4762 44.3773 12.4343 45.6801C13.3924 46.9829 13.743 48.3601 13.2172 48.7472Z" fill="black"/>
<path opacity="0.3" d="M21.1333 46.563C22.1849 45.79 21.4835 43.0496 19.5667 40.4421C17.65 37.8347 15.2437 36.3476 14.1922 37.1206C13.1406 37.8936 13.842 40.634 15.7587 43.2414C17.6755 45.8489 20.0818 47.336 21.1333 46.563Z" fill="black"/>
<path d="M28.3948 33.9551C25.0853 29.4524 20.9316 26.8848 19.1147 28.2197L16.4464 30.1841C14.6309 31.5175 15.8417 36.2496 19.1498 40.7523C22.4578 45.2551 26.6115 47.8227 28.4225 46.4877L31.0953 44.5234C32.915 43.1885 31.7043 38.4579 28.3948 33.9551Z" fill="#407BFF"/>
<path opacity="0.3" d="M28.4288 46.4831C30.2446 45.1482 29.0339 40.4166 25.7245 35.9147C22.4151 31.4128 18.2602 28.8454 16.4444 30.1802C14.6285 31.5151 15.8393 36.2467 19.1487 40.7486C22.4581 45.2505 26.6129 47.8179 28.4288 46.4831Z" fill="black"/>
<path opacity="0.4" d="M31.0995 44.52C32.9153 43.1851 31.7046 38.4535 28.3952 33.9516C25.0858 29.4497 20.9309 26.8822 19.1151 28.2171C17.2992 29.5519 18.51 34.2836 21.8194 38.7855C25.1288 43.2874 29.2837 45.8548 31.0995 44.52Z" fill="white"/>
<path d="M32.3659 31.0326C30.4497 28.4256 28.0428 26.9432 26.9912 27.7114L22.1716 31.2532C21.12 32.0258 21.821 34.7672 23.7372 37.3742C25.6534 39.9812 28.0603 41.4636 29.1119 40.6954L33.9316 37.1536C34.9948 36.381 34.2879 33.6397 32.3659 31.0326Z" fill="#407BFF"/>
<path opacity="0.3" d="M29.1183 40.6933C30.1699 39.9203 29.4685 37.1799 27.5517 34.5725C25.635 31.9651 23.2287 30.478 22.1771 31.251C21.1256 32.024 21.827 34.7644 23.7437 37.3718C25.6605 39.9792 28.0668 41.4663 29.1183 40.6933Z" fill="black"/>
<path opacity="0.4" d="M33.9379 37.1499C34.9895 36.3769 34.2881 33.6365 32.3714 31.029C30.4546 28.4216 28.0483 26.9345 26.9968 27.7075C25.9452 28.4805 26.6466 31.2209 28.5634 33.8284C30.4801 36.4358 32.8864 37.9229 33.9379 37.1499Z" fill="white"/>
<path d="M27.0499 11.625H20.3606C19.9843 11.625 19.6792 11.9301 19.6792 12.3064V18.9956C19.6792 19.372 19.9843 19.677 20.3606 19.677H27.0499C27.4262 19.677 27.7312 19.372 27.7312 18.9956V12.3064C27.7312 11.9301 27.4262 11.625 27.0499 11.625Z" fill="#263238"/>
<path d="M35.791 11.625H29.1018C28.7255 11.625 28.4204 11.9301 28.4204 12.3064V18.9956C28.4204 19.372 28.7255 19.677 29.1018 19.677H35.791C36.1674 19.677 36.4724 19.372 36.4724 18.9956V12.3064C36.4724 11.9301 36.1674 11.625 35.791 11.625Z" fill="#263238"/>
<path d="M18.3087 11.625H11.6194C11.2431 11.625 10.938 11.9301 10.938 12.3064V18.9956C10.938 19.372 11.2431 19.677 11.6194 19.677H18.3087C18.685 19.677 18.9901 19.372 18.9901 18.9956V12.3064C18.9901 11.9301 18.685 11.625 18.3087 11.625Z" fill="#263238"/>
<path d="M13.7103 13.4316L12.5733 14.2298V17.8743H16.2178L17.3567 17.0761V13.4316H13.7103Z" fill="#407BFF"/>
<path opacity="0.6" d="M12.5733 14.2298L13.7103 13.4316H17.3567L16.2178 14.2298H12.5733Z" fill="white"/>
<path opacity="0.3" d="M17.3567 13.4316V17.0761L16.2178 17.8743V14.2298L17.3567 13.4316Z" fill="black"/>
<path opacity="0.2" d="M13.7103 13.4316L12.5733 14.2298V17.8743H16.2178L17.3567 17.0761V13.4316H13.7103Z" fill="white"/>
<path d="M46.3213 12.4038C44.9994 12.4034 43.707 12.7951 42.6077 13.5292C41.5084 14.2634 40.6514 15.307 40.1453 16.5282C39.6391 17.7494 39.5065 19.0933 39.7642 20.3899C40.0218 21.6865 40.6582 22.8775 41.5928 23.8124C42.5274 24.7473 43.7183 25.384 45.0148 25.6421C46.3113 25.9001 47.6552 25.7679 48.8766 25.2621C50.0979 24.7563 51.1418 23.8996 51.8763 22.8005C52.6108 21.7014 53.0028 20.4092 53.0028 19.0872C53.0007 17.3156 52.2962 15.6172 51.0437 14.3643C49.7912 13.1114 48.0929 12.4064 46.3213 12.4038ZM52.6096 18.8925H47.2928L52.1988 16.8406C52.4493 17.4968 52.5882 18.1904 52.6096 18.8925ZM52.0469 16.4804L46.516 18.7932V12.799C47.6893 12.8368 48.8287 13.2015 49.8059 13.8519C50.783 14.5023 51.5592 15.4127 52.0469 16.4804ZM46.1267 12.799V18.8925H40.0351C40.0862 17.293 40.7443 15.7729 41.8758 14.6411C43.0072 13.5093 44.5271 12.8506 46.1267 12.799ZM45.3479 19.2819L40.442 21.3338C40.1907 20.6778 40.0518 19.9841 40.0312 19.2819H45.3479ZM40.5938 21.692L46.1228 19.3792V25.3676C44.951 25.3299 43.813 24.9659 42.8369 24.3166C41.8608 23.6672 41.0853 22.7582 40.5977 21.692H40.5938ZM46.516 25.3676V19.2819H52.6096C52.5565 20.8804 51.8972 22.3988 50.7655 23.5291C49.6339 24.6593 48.1146 25.3166 46.516 25.3676Z" fill="#407BFF"/>
<g opacity="0.6">
<path d="M46.3213 12.4038C44.9994 12.4034 43.707 12.7951 42.6077 13.5292C41.5084 14.2634 40.6514 15.307 40.1453 16.5282C39.6391 17.7494 39.5065 19.0933 39.7642 20.3899C40.0218 21.6865 40.6582 22.8775 41.5928 23.8124C42.5274 24.7473 43.7183 25.384 45.0148 25.6421C46.3113 25.9001 47.6552 25.7679 48.8766 25.2621C50.0979 24.7563 51.1418 23.8996 51.8763 22.8005C52.6108 21.7014 53.0028 20.4092 53.0028 19.0872C53.0007 17.3156 52.2962 15.6172 51.0437 14.3643C49.7912 13.1114 48.0929 12.4064 46.3213 12.4038ZM52.6096 18.8925H47.2928L52.1988 16.8406C52.4493 17.4968 52.5882 18.1904 52.6096 18.8925ZM52.0469 16.4804L46.516 18.7932V12.799C47.6893 12.8368 48.8287 13.2015 49.8059 13.8519C50.783 14.5023 51.5592 15.4127 52.0469 16.4804ZM46.1267 12.799V18.8925H40.0351C40.0862 17.293 40.7443 15.7729 41.8758 14.6411C43.0072 13.5093 44.5271 12.8506 46.1267 12.799ZM45.3479 19.2819L40.442 21.3338C40.1907 20.6778 40.0518 19.9841 40.0312 19.2819H45.3479ZM40.5938 21.692L46.1228 19.3792V25.3676C44.951 25.3299 43.813 24.9659 42.8369 24.3166C41.8608 23.6672 41.0853 22.7582 40.5977 21.692H40.5938ZM46.516 25.3676V19.2819H52.6096C52.5565 20.8804 51.8972 22.3988 50.7655 23.5291C49.6339 24.6593 48.1146 25.3166 46.516 25.3676Z" fill="white"/>
</g>
<path d="M46.3214 11.627L45.8658 12.906H46.7789L46.3214 11.627Z" fill="#407BFF"/>
<path d="M53.7815 19.0871L52.5025 18.6296V19.5427L53.7815 19.0871Z" fill="#407BFF"/>
<path d="M39.5056 21.9802L40.8625 21.8945L40.5004 21.0535L39.5056 21.9802Z" fill="#407BFF"/>
<path d="M40.3369 21.7854C40.2912 21.7865 40.2466 21.7714 40.2109 21.7429C40.1751 21.7144 40.1506 21.6742 40.1416 21.6294C40.1325 21.5845 40.1395 21.538 40.1613 21.4978C40.1832 21.4577 40.2184 21.4265 40.261 21.4097L46.2474 18.9061C46.2952 18.8862 46.3489 18.8861 46.3967 18.9058C46.4445 18.9255 46.4826 18.9635 46.5024 19.0112C46.5223 19.059 46.5224 19.1127 46.5027 19.1605C46.483 19.2083 46.4451 19.2464 46.3973 19.2662L40.4109 21.7699C40.3875 21.7798 40.3623 21.7851 40.3369 21.7854Z" fill="#407BFF"/>
<path d="M46.3214 19.2819C46.2697 19.2819 46.2202 19.2614 46.1837 19.2249C46.1472 19.1884 46.1267 19.1389 46.1267 19.0872V12.6004C46.1267 12.5488 46.1472 12.4993 46.1837 12.4628C46.2202 12.4263 46.2697 12.4058 46.3214 12.4058C46.373 12.4058 46.4225 12.4263 46.459 12.4628C46.4955 12.4993 46.516 12.5488 46.516 12.6004V19.0872C46.516 19.1389 46.4955 19.1884 46.459 19.2249C46.4225 19.2614 46.373 19.2819 46.3214 19.2819Z" fill="#407BFF"/>
<path d="M52.8081 19.2817H46.3214C46.2697 19.2817 46.2202 19.2612 46.1837 19.2247C46.1472 19.1882 46.1267 19.1386 46.1267 19.087C46.1267 19.0354 46.1472 18.9859 46.1837 18.9494C46.2202 18.9128 46.2697 18.8923 46.3214 18.8923H52.8081C52.8598 18.8923 52.9093 18.9128 52.9458 18.9494C52.9823 18.9859 53.0028 19.0354 53.0028 19.087C53.0028 19.1386 52.9823 19.1882 52.9458 19.2247C52.9093 19.2612 52.8598 19.2817 52.8081 19.2817Z" fill="#407BFF"/>
<path d="M22.4534 13.4316L21.3145 14.2298V17.8743H24.959L26.0979 17.0761V13.4316H22.4534Z" fill="#407BFF"/>
<path opacity="0.2" d="M24.959 14.2297H21.3145V17.8742H24.959V14.2297Z" fill="white"/>
<path opacity="0.2" d="M26.0959 13.4297H22.4515V17.0741H26.0959V13.4297Z" fill="white"/>
<path opacity="0.6" d="M21.3145 14.2298L22.4534 13.4316H26.0979L24.959 14.2298H21.3145Z" fill="white"/>
<path opacity="0.3" d="M26.0979 13.4316V17.0761L24.959 17.8743V14.2298L26.0979 13.4316Z" fill="black"/>
<path opacity="0.3" d="M21.3145 17.8744L22.4534 17.0762H26.0979L24.959 17.8744H21.3145Z" fill="black"/>
<path opacity="0.2" d="M34.9306 13.4122C34.9306 13.4122 34.9306 13.4122 34.9306 13.4006C34.9265 13.3921 34.9213 13.3842 34.915 13.3772L34.9033 13.3655H34.8916C34.8807 13.3635 34.8695 13.3635 34.8585 13.3655H34.8449H31.1927C31.1719 13.3656 31.1516 13.3717 31.1343 13.383L29.9973 14.1832L29.9837 14.2007C29.974 14.214 29.9674 14.2293 29.9642 14.2455C29.9642 14.2455 29.9642 14.2455 29.9642 14.2591V17.9035C29.9642 17.9152 29.9642 17.923 29.9759 17.9327C29.9876 17.9425 29.9759 17.9542 29.9759 17.9619C29.9847 17.974 29.9961 17.984 30.0092 17.9911C30.0224 17.9981 30.0369 18.0022 30.0518 18.0028H33.6963C33.7179 18.0023 33.7388 17.9956 33.7566 17.9834L34.8936 17.1852L34.9033 17.1754C34.9189 17.1576 34.9278 17.1349 34.9286 17.1112V13.4317C34.9286 13.4317 34.9306 13.42 34.9306 13.4122ZM31.0914 13.6283V14.1267H30.3809L31.0914 13.6283ZM30.1589 14.3331H31.0914V17.0216L30.1589 17.6758V14.3331ZM33.5989 17.7751H30.3809L31.2258 17.191H33.5989V17.7751ZM33.5989 16.9769H31.2959V14.3331H33.5989V16.9769ZM33.669 14.1306H31.2959V13.5329H34.5139L34.1986 13.7549L33.669 14.1306ZM33.8033 17.6797V17.1813H34.5139L33.8033 17.6797ZM34.7359 16.9769H33.8033V14.2825L34.1693 14.0274L34.7359 13.6381V16.9769Z" fill="white"/>
<path d="M34.9403 13.4317C34.9403 13.4317 34.9403 13.42 34.9403 13.4122C34.9403 13.4045 34.9403 13.4122 34.9403 13.4006C34.9363 13.3921 34.931 13.3842 34.9247 13.3772L34.913 13.3655H34.9014C34.8904 13.3635 34.8792 13.3635 34.8683 13.3655H34.8546H31.1927C31.1719 13.3656 31.1516 13.3717 31.1343 13.383L29.9973 14.1832L29.9837 14.2007C29.974 14.214 29.9674 14.2293 29.9642 14.2455C29.9642 14.2455 29.9642 14.2455 29.9642 14.2591V17.9035C29.9642 17.9152 29.9642 17.923 29.9759 17.9327C29.9876 17.9425 29.9759 17.9542 29.9759 17.9619C29.9847 17.974 29.9961 17.984 30.0092 17.9911C30.0224 17.9981 30.0369 18.0022 30.0518 18.0028H33.6963C33.7179 18.0023 33.7388 17.9956 33.7566 17.9834L34.8936 17.1852L34.9033 17.1754C34.9189 17.1576 34.9278 17.1349 34.9286 17.1112L34.9403 13.4317ZM33.8033 16.973V14.2825L34.1694 14.0274L34.7359 13.6381V16.9827L33.8033 16.973ZM30.1589 14.3331H31.0914V17.0216L30.1589 17.6758V14.3331ZM31.2316 17.1774H33.6048V17.7614H30.3809L31.2316 17.1774ZM31.3017 16.973V14.3331H33.6048V16.973H31.3017ZM34.5198 13.5329L34.2044 13.7549L33.6749 14.1267H31.2959V13.5329H34.5198ZM31.0973 13.6283V14.1267H30.3867L31.0973 13.6283ZM33.8092 17.1774H34.5198L33.8092 17.6758V17.1774Z" fill="#407BFF"/>
<path d="M60.5 30H1200.5" stroke="#2D56B3" stroke-width="2" stroke-linecap="round"/>
<path d="M75.3066 15.9316H71.6836V13.6465H75.3066C75.8665 13.6465 76.3223 13.5553 76.6738 13.373C77.0254 13.1842 77.2826 12.9238 77.4453 12.5918C77.6081 12.2598 77.6895 11.8854 77.6895 11.4688C77.6895 11.0456 77.6081 10.6517 77.4453 10.2871C77.2826 9.92253 77.0254 9.62956 76.6738 9.4082C76.3223 9.18685 75.8665 9.07617 75.3066 9.07617H72.6992V21H69.7695V6.78125H75.3066C76.4199 6.78125 77.3737 6.98307 78.168 7.38672C78.9688 7.78385 79.5807 8.33398 80.0039 9.03711C80.4271 9.74023 80.6387 10.5443 80.6387 11.4492C80.6387 12.3672 80.4271 13.1615 80.0039 13.832C79.5807 14.5026 78.9688 15.0202 78.168 15.3848C77.3737 15.7493 76.4199 15.9316 75.3066 15.9316ZM85.2969 12.7383V21H82.4844V10.4336H85.1309L85.2969 12.7383ZM88.4805 10.3652L88.4316 12.9727C88.2949 12.9531 88.1289 12.9368 87.9336 12.9238C87.7448 12.9043 87.5723 12.8945 87.416 12.8945C87.0189 12.8945 86.6738 12.9466 86.3809 13.0508C86.0944 13.1484 85.8535 13.2949 85.6582 13.4902C85.4694 13.6855 85.3262 13.9232 85.2285 14.2031C85.1374 14.4831 85.0853 14.8021 85.0723 15.1602L84.5059 14.9844C84.5059 14.3008 84.5742 13.6725 84.7109 13.0996C84.8477 12.5202 85.0462 12.0156 85.3066 11.5859C85.5736 11.1562 85.8991 10.8242 86.2832 10.5898C86.6673 10.3555 87.1068 10.2383 87.6016 10.2383C87.7578 10.2383 87.9173 10.2513 88.0801 10.2773C88.2428 10.2969 88.3763 10.3262 88.4805 10.3652ZM89.0664 15.8242V15.6191C89.0664 14.8444 89.1771 14.1315 89.3984 13.4805C89.6198 12.8229 89.9421 12.2533 90.3652 11.7715C90.7884 11.2897 91.3092 10.9154 91.9277 10.6484C92.5462 10.375 93.2559 10.2383 94.0566 10.2383C94.8574 10.2383 95.5703 10.375 96.1953 10.6484C96.8203 10.9154 97.3444 11.2897 97.7676 11.7715C98.1973 12.2533 98.5228 12.8229 98.7441 13.4805C98.9655 14.1315 99.0762 14.8444 99.0762 15.6191V15.8242C99.0762 16.5924 98.9655 17.3053 98.7441 17.9629C98.5228 18.6139 98.1973 19.1836 97.7676 19.6719C97.3444 20.1536 96.8236 20.528 96.2051 20.7949C95.5866 21.0618 94.877 21.1953 94.0762 21.1953C93.2754 21.1953 92.5625 21.0618 91.9375 20.7949C91.319 20.528 90.7949 20.1536 90.3652 19.6719C89.9421 19.1836 89.6198 18.6139 89.3984 17.9629C89.1771 17.3053 89.0664 16.5924 89.0664 15.8242ZM91.8789 15.6191V15.8242C91.8789 16.2669 91.918 16.6803 91.9961 17.0645C92.0742 17.4486 92.1979 17.7871 92.3672 18.0801C92.543 18.3665 92.7708 18.5911 93.0508 18.7539C93.3307 18.9167 93.6725 18.998 94.0762 18.998C94.4668 18.998 94.8021 18.9167 95.082 18.7539C95.362 18.5911 95.5866 18.3665 95.7559 18.0801C95.9251 17.7871 96.0488 17.4486 96.127 17.0645C96.2116 16.6803 96.2539 16.2669 96.2539 15.8242V15.6191C96.2539 15.1895 96.2116 14.7858 96.127 14.4082C96.0488 14.0241 95.9219 13.6855 95.7461 13.3926C95.5768 13.0931 95.3522 12.8587 95.0723 12.6895C94.7923 12.5202 94.4538 12.4355 94.0566 12.4355C93.6595 12.4355 93.321 12.5202 93.041 12.6895C92.7676 12.8587 92.543 13.0931 92.3672 13.3926C92.1979 13.6855 92.0742 14.0241 91.9961 14.4082C91.918 14.7858 91.8789 15.1895 91.8789 15.6191ZM105.98 10.4336V12.4258H99.8281V10.4336H105.98ZM101.352 7.82617H104.164V17.8164C104.164 18.1224 104.203 18.3568 104.281 18.5195C104.366 18.6823 104.49 18.7962 104.652 18.8613C104.815 18.9199 105.02 18.9492 105.268 18.9492C105.443 18.9492 105.6 18.9427 105.736 18.9297C105.88 18.9102 106 18.8906 106.098 18.8711L106.107 20.9414C105.867 21.0195 105.606 21.0814 105.326 21.127C105.046 21.1725 104.737 21.1953 104.398 21.1953C103.78 21.1953 103.24 21.0944 102.777 20.8926C102.322 20.6842 101.97 20.3522 101.723 19.8965C101.475 19.4408 101.352 18.8418 101.352 18.0996V7.82617ZM106.879 15.8242V15.6191C106.879 14.8444 106.99 14.1315 107.211 13.4805C107.432 12.8229 107.755 12.2533 108.178 11.7715C108.601 11.2897 109.122 10.9154 109.74 10.6484C110.359 10.375 111.068 10.2383 111.869 10.2383C112.67 10.2383 113.383 10.375 114.008 10.6484C114.633 10.9154 115.157 11.2897 115.58 11.7715C116.01 12.2533 116.335 12.8229 116.557 13.4805C116.778 14.1315 116.889 14.8444 116.889 15.6191V15.8242C116.889 16.5924 116.778 17.3053 116.557 17.9629C116.335 18.6139 116.01 19.1836 115.58 19.6719C115.157 20.1536 114.636 20.528 114.018 20.7949C113.399 21.0618 112.689 21.1953 111.889 21.1953C111.088 21.1953 110.375 21.0618 109.75 20.7949C109.132 20.528 108.607 20.1536 108.178 19.6719C107.755 19.1836 107.432 18.6139 107.211 17.9629C106.99 17.3053 106.879 16.5924 106.879 15.8242ZM109.691 15.6191V15.8242C109.691 16.2669 109.73 16.6803 109.809 17.0645C109.887 17.4486 110.01 17.7871 110.18 18.0801C110.355 18.3665 110.583 18.5911 110.863 18.7539C111.143 18.9167 111.485 18.998 111.889 18.998C112.279 18.998 112.615 18.9167 112.895 18.7539C113.174 18.5911 113.399 18.3665 113.568 18.0801C113.738 17.7871 113.861 17.4486 113.939 17.0645C114.024 16.6803 114.066 16.2669 114.066 15.8242V15.6191C114.066 15.1895 114.024 14.7858 113.939 14.4082C113.861 14.0241 113.734 13.6855 113.559 13.3926C113.389 13.0931 113.165 12.8587 112.885 12.6895C112.605 12.5202 112.266 12.4355 111.869 12.4355C111.472 12.4355 111.133 12.5202 110.854 12.6895C110.58 12.8587 110.355 13.0931 110.18 13.3926C110.01 13.6855 109.887 14.0241 109.809 14.4082C109.73 14.7858 109.691 15.1895 109.691 15.6191ZM123.793 10.4336V12.4258H117.641V10.4336H123.793ZM119.164 7.82617H121.977V17.8164C121.977 18.1224 122.016 18.3568 122.094 18.5195C122.178 18.6823 122.302 18.7962 122.465 18.8613C122.628 18.9199 122.833 18.9492 123.08 18.9492C123.256 18.9492 123.412 18.9427 123.549 18.9297C123.692 18.9102 123.812 18.8906 123.91 18.8711L123.92 20.9414C123.679 21.0195 123.419 21.0814 123.139 21.127C122.859 21.1725 122.549 21.1953 122.211 21.1953C121.592 21.1953 121.052 21.0944 120.59 20.8926C120.134 20.6842 119.783 20.3522 119.535 19.8965C119.288 19.4408 119.164 18.8418 119.164 18.0996V7.82617ZM128.529 19.8086L131.332 10.4336H134.35L130.102 22.5918C130.01 22.8587 129.887 23.1452 129.73 23.4512C129.581 23.7572 129.376 24.0469 129.115 24.3203C128.861 24.6003 128.539 24.8281 128.148 25.0039C127.764 25.1797 127.292 25.2676 126.732 25.2676C126.465 25.2676 126.247 25.2513 126.078 25.2188C125.909 25.1862 125.707 25.1406 125.473 25.082V23.0215C125.544 23.0215 125.619 23.0215 125.697 23.0215C125.775 23.028 125.85 23.0312 125.922 23.0312C126.293 23.0312 126.596 22.9889 126.83 22.9043C127.064 22.8197 127.253 22.6895 127.396 22.5137C127.54 22.3444 127.654 22.123 127.738 21.8496L128.529 19.8086ZM127.357 10.4336L129.652 18.0898L130.053 21.0684L128.139 21.2734L124.34 10.4336H127.357ZM138.285 12.4648V25.0625H135.473V10.4336H138.08L138.285 12.4648ZM144.975 15.5996V15.8047C144.975 16.5729 144.883 17.2858 144.701 17.9434C144.525 18.6009 144.265 19.1738 143.92 19.6621C143.575 20.1439 143.145 20.5215 142.631 20.7949C142.123 21.0618 141.537 21.1953 140.873 21.1953C140.229 21.1953 139.669 21.0651 139.193 20.8047C138.718 20.5443 138.318 20.1797 137.992 19.7109C137.673 19.2357 137.416 18.6855 137.221 18.0605C137.025 17.4355 136.876 16.765 136.771 16.0488V15.5117C136.876 14.7435 137.025 14.0404 137.221 13.4023C137.416 12.7578 137.673 12.2012 137.992 11.7324C138.318 11.2572 138.715 10.8893 139.184 10.6289C139.659 10.3685 140.215 10.2383 140.854 10.2383C141.524 10.2383 142.113 10.3652 142.621 10.6191C143.135 10.873 143.565 11.2376 143.91 11.7129C144.262 12.1882 144.525 12.7546 144.701 13.4121C144.883 14.0697 144.975 14.7988 144.975 15.5996ZM142.152 15.8047V15.5996C142.152 15.1504 142.113 14.737 142.035 14.3594C141.964 13.9753 141.846 13.64 141.684 13.3535C141.527 13.0671 141.319 12.8457 141.059 12.6895C140.805 12.5267 140.495 12.4453 140.131 12.4453C139.747 12.4453 139.418 12.5072 139.145 12.6309C138.878 12.7546 138.66 12.9336 138.49 13.168C138.321 13.4023 138.194 13.6823 138.109 14.0078C138.025 14.3333 137.973 14.7012 137.953 15.1113V16.4688C137.986 16.9505 138.077 17.3835 138.227 17.7676C138.376 18.1452 138.607 18.4447 138.92 18.666C139.232 18.8874 139.643 18.998 140.15 18.998C140.521 18.998 140.834 18.9167 141.088 18.7539C141.342 18.5846 141.547 18.3535 141.703 18.0605C141.866 17.7676 141.98 17.429 142.045 17.0449C142.117 16.6608 142.152 16.2474 142.152 15.8047ZM149.691 10.4336V21H146.869V10.4336H149.691ZM146.693 7.67969C146.693 7.26953 146.837 6.93099 147.123 6.66406C147.41 6.39714 147.794 6.26367 148.275 6.26367C148.751 6.26367 149.132 6.39714 149.418 6.66406C149.711 6.93099 149.857 7.26953 149.857 7.67969C149.857 8.08984 149.711 8.42839 149.418 8.69531C149.132 8.96224 148.751 9.0957 148.275 9.0957C147.794 9.0957 147.41 8.96224 147.123 8.69531C146.837 8.42839 146.693 8.08984 146.693 7.67969ZM154.77 12.6895V21H151.957V10.4336H154.594L154.77 12.6895ZM154.359 15.3457H153.598C153.598 14.5645 153.699 13.8613 153.9 13.2363C154.102 12.6048 154.385 12.0677 154.75 11.625C155.115 11.1758 155.548 10.834 156.049 10.5996C156.557 10.3587 157.123 10.2383 157.748 10.2383C158.243 10.2383 158.695 10.3099 159.105 10.4531C159.516 10.5964 159.867 10.8242 160.16 11.1367C160.46 11.4492 160.688 11.8626 160.844 12.377C161.007 12.8913 161.088 13.5195 161.088 14.2617V21H158.256V14.252C158.256 13.7832 158.191 13.4186 158.061 13.1582C157.93 12.8978 157.738 12.7155 157.484 12.6113C157.237 12.5007 156.931 12.4453 156.566 12.4453C156.189 12.4453 155.86 12.5202 155.58 12.6699C155.307 12.8197 155.079 13.028 154.896 13.2949C154.721 13.5553 154.587 13.8613 154.496 14.2129C154.405 14.5645 154.359 14.9421 154.359 15.3457ZM169.916 10.4336H172.465V20.6484C172.465 21.612 172.25 22.429 171.82 23.0996C171.397 23.7767 170.805 24.2878 170.043 24.6328C169.281 24.9844 168.396 25.1602 167.387 25.1602C166.944 25.1602 166.475 25.1016 165.98 24.9844C165.492 24.8672 165.023 24.6849 164.574 24.4375C164.132 24.1901 163.76 23.8776 163.461 23.5L164.701 21.8398C165.027 22.2174 165.404 22.5104 165.834 22.7188C166.264 22.9336 166.739 23.041 167.26 23.041C167.768 23.041 168.197 22.9466 168.549 22.7578C168.9 22.5755 169.171 22.3053 169.359 21.9473C169.548 21.5957 169.643 21.1693 169.643 20.668V12.875L169.916 10.4336ZM162.807 15.8438V15.6387C162.807 14.8314 162.904 14.099 163.1 13.4414C163.301 12.7773 163.585 12.2077 163.949 11.7324C164.32 11.2572 164.77 10.8893 165.297 10.6289C165.824 10.3685 166.42 10.2383 167.084 10.2383C167.787 10.2383 168.376 10.3685 168.852 10.6289C169.327 10.8893 169.717 11.2604 170.023 11.7422C170.329 12.2174 170.567 12.7806 170.736 13.4316C170.912 14.0762 171.049 14.7826 171.146 15.5508V16C171.049 16.7357 170.902 17.4193 170.707 18.0508C170.512 18.6823 170.255 19.2357 169.936 19.7109C169.617 20.1797 169.219 20.5443 168.744 20.8047C168.275 21.0651 167.715 21.1953 167.064 21.1953C166.413 21.1953 165.824 21.0618 165.297 20.7949C164.776 20.528 164.33 20.1536 163.959 19.6719C163.588 19.1901 163.301 18.6237 163.1 17.9727C162.904 17.3216 162.807 16.612 162.807 15.8438ZM165.619 15.6387V15.8438C165.619 16.2799 165.661 16.6868 165.746 17.0645C165.831 17.4421 165.961 17.7773 166.137 18.0703C166.319 18.3568 166.544 18.5814 166.811 18.7441C167.084 18.9004 167.406 18.9785 167.777 18.9785C168.292 18.9785 168.712 18.8711 169.037 18.6562C169.363 18.4349 169.607 18.1322 169.77 17.748C169.932 17.3639 170.027 16.9212 170.053 16.4199V15.1406C170.04 14.7305 169.984 14.3626 169.887 14.0371C169.789 13.7051 169.652 13.4219 169.477 13.1875C169.301 12.9531 169.073 12.7708 168.793 12.6406C168.513 12.5104 168.181 12.4453 167.797 12.4453C167.426 12.4453 167.104 12.5299 166.83 12.6992C166.563 12.862 166.339 13.0866 166.156 13.373C165.98 13.6595 165.847 13.998 165.756 14.3887C165.665 14.7728 165.619 15.1895 165.619 15.6387Z" fill="#2D56B3"/>
</g>
<defs>
<clipPath id="clip0_8870_2690">
<rect width="1200" height="60" fill="white" transform="translate(0.5)"/>
</clipPath>
</defs>
</svg>
