<svg width="900" height="60" viewBox="0 0 900 60" fill="none" xmlns="http://www.w3.org/2000/svg">
<g clip-path="url(#clip0_8870_2849)">
<rect x="1" y="1" width="58" height="58" rx="29" fill="#455A64" fill-opacity="0.14"/>
<rect x="1" y="1" width="58" height="58" rx="29" stroke="#455A64" stroke-width="2"/>
<path d="M30.2442 32.9906H23.3684V51H30.2442V32.9906Z" fill="#FFC727"/>
<g opacity="0.1">
<path d="M30.2443 32.9906H28.6697V51H30.2443V32.9906Z" fill="black"/>
</g>
<path d="M39.3035 26.1842H32.4277V51H39.3035V26.1842Z" fill="#FFC727"/>
<g opacity="0.1">
<path d="M39.302 26.1842H37.7274V51H39.302V26.1842Z" fill="black"/>
</g>
<path d="M21.206 37.0455H14.3302V50.9986H21.206V37.0455Z" fill="#FFC727"/>
<g opacity="0.1">
<path d="M21.206 37.0455H19.6313V50.9986H21.206V37.0455Z" fill="black"/>
</g>
<path d="M48.3613 17.1193H41.4855V50.9986H48.3613V17.1193Z" fill="#FFC727"/>
<g opacity="0.1">
<path d="M48.3612 17.1193H46.7866V50.9986H48.3612V17.1193Z" fill="black"/>
</g>
<path d="M11.8948 45.5896V42.1171C11.8948 42.1171 36.9385 40.1274 47.055 14.2236L48.0613 14.4659C48.0613 14.4659 41.3414 41.0165 11.8948 45.5896Z" fill="#37474F"/>
<path d="M49 15.3368L45.8358 14.3595L48.4572 11.9189L49 15.3368Z" fill="#37474F"/>
<path d="M16.0428 11.1349L11.4 23.282L32.8747 30.4376L37.5175 18.2905L16.0428 11.1349Z" fill="#455A64"/>
<path d="M16.0437 11.133L13.8573 16.8534L35.332 24.009L37.5184 18.2886L16.0437 11.133Z" fill="#37474F"/>
<path d="M14.0526 14.8436L36.5433 22.3378L38.71 16.669L16.2193 9.1748L14.0526 14.8436Z" fill="#455A64"/>
<path d="M23.9643 8.11255L22.7272 11.3451L24.3571 11.8871L25.0606 10.0477L31.2725 12.1197L30.5689 13.9591L32.1988 14.501L33.433 11.2657L23.9643 8.11255Z" fill="#263238"/>
<path d="M31.4755 22.1731L32.9415 22.6616L33.9761 19.9548L32.51 19.4663L31.4755 22.1731Z" fill="#263238"/>
<path d="M16.6204 17.2287L18.0864 17.7172L19.121 15.0104L17.6549 14.5219L16.6204 17.2287Z" fill="#263238"/>
<path d="M60 30H900" stroke="#455A64" stroke-width="2" stroke-linecap="round"/>
<path d="M74.8359 14.7598H71.1836L71.1641 12.748H74.2305C74.7708 12.748 75.2135 12.6797 75.5586 12.543C75.9036 12.3997 76.1608 12.1947 76.3301 11.9277C76.5059 11.6543 76.5938 11.3223 76.5938 10.9316C76.5938 10.4889 76.5091 10.1309 76.3398 9.85742C76.1771 9.58398 75.9199 9.38542 75.5684 9.26172C75.2233 9.13802 74.7773 9.07617 74.2305 9.07617H72.1992V21H69.2695V6.78125H74.2305C75.0573 6.78125 75.7962 6.85938 76.4473 7.01562C77.1048 7.17188 77.6615 7.40951 78.1172 7.72852C78.5729 8.04753 78.9212 8.45117 79.1621 8.93945C79.403 9.42122 79.5234 9.99414 79.5234 10.6582C79.5234 11.2441 79.39 11.7845 79.123 12.2793C78.8626 12.7741 78.4492 13.1777 77.8828 13.4902C77.3229 13.8027 76.5905 13.9753 75.6855 14.0078L74.8359 14.7598ZM74.709 21H70.3828L71.5254 18.7148H74.709C75.2233 18.7148 75.6432 18.6335 75.9688 18.4707C76.2943 18.3014 76.5352 18.0736 76.6914 17.7871C76.8477 17.5007 76.9258 17.1719 76.9258 16.8008C76.9258 16.3841 76.8542 16.0228 76.7109 15.7168C76.5742 15.4108 76.3529 15.1764 76.0469 15.0137C75.7409 14.8444 75.3372 14.7598 74.8359 14.7598H72.0137L72.0332 12.748H75.5488L76.2227 13.5391C77.0885 13.526 77.7852 13.679 78.3125 13.998C78.8464 14.3105 79.2337 14.7174 79.4746 15.2188C79.722 15.7201 79.8457 16.2572 79.8457 16.8301C79.8457 17.7415 79.6471 18.5098 79.25 19.1348C78.8529 19.7533 78.2702 20.2188 77.502 20.5312C76.7402 20.8438 75.8092 21 74.709 21ZM88.1172 18.4707V10.4336H90.9297V21H88.2832L88.1172 18.4707ZM88.4297 16.3027L89.2598 16.2832C89.2598 16.9863 89.1784 17.6406 89.0156 18.2461C88.8529 18.8451 88.6087 19.3659 88.2832 19.8086C87.9577 20.2448 87.5475 20.5866 87.0527 20.834C86.5579 21.0749 85.9753 21.1953 85.3047 21.1953C84.7904 21.1953 84.3151 21.1237 83.8789 20.9805C83.4492 20.8307 83.0781 20.5996 82.7656 20.2871C82.4596 19.9681 82.2188 19.5612 82.043 19.0664C81.8737 18.5651 81.7891 17.9629 81.7891 17.2598V10.4336H84.6016V17.2793C84.6016 17.5918 84.6374 17.8555 84.709 18.0703C84.7871 18.2852 84.8945 18.4609 85.0312 18.5977C85.168 18.7344 85.3275 18.832 85.5098 18.8906C85.6986 18.9492 85.9069 18.9785 86.1348 18.9785C86.7142 18.9785 87.1699 18.8613 87.502 18.627C87.8405 18.3926 88.0781 18.0736 88.2148 17.6699C88.3581 17.2598 88.4297 16.804 88.4297 16.3027ZM98.791 18.0801C98.791 17.8783 98.7324 17.696 98.6152 17.5332C98.498 17.3704 98.2799 17.2207 97.9609 17.084C97.6484 16.9408 97.196 16.8105 96.6035 16.6934C96.0697 16.5762 95.5716 16.4297 95.1094 16.2539C94.6536 16.0716 94.2565 15.8535 93.918 15.5996C93.5859 15.3457 93.3255 15.0462 93.1367 14.7012C92.9479 14.3496 92.8535 13.9492 92.8535 13.5C92.8535 13.0573 92.9479 12.6406 93.1367 12.25C93.332 11.8594 93.6087 11.5143 93.9668 11.2148C94.3314 10.9089 94.7741 10.6712 95.2949 10.502C95.8223 10.3262 96.4147 10.2383 97.0723 10.2383C97.9902 10.2383 98.778 10.3848 99.4355 10.6777C100.1 10.9707 100.607 11.3743 100.959 11.8887C101.317 12.3965 101.496 12.9759 101.496 13.627H98.6836C98.6836 13.3535 98.625 13.1094 98.5078 12.8945C98.3971 12.6732 98.2214 12.5007 97.9805 12.377C97.7461 12.2467 97.4401 12.1816 97.0625 12.1816C96.75 12.1816 96.4798 12.237 96.252 12.3477C96.0241 12.4518 95.8483 12.5951 95.7246 12.7773C95.6074 12.9531 95.5488 13.1484 95.5488 13.3633C95.5488 13.526 95.5814 13.6725 95.6465 13.8027C95.7181 13.9264 95.832 14.0404 95.9883 14.1445C96.1445 14.2487 96.3464 14.3464 96.5938 14.4375C96.8477 14.5221 97.1602 14.6003 97.5312 14.6719C98.293 14.8281 98.9733 15.0332 99.5723 15.2871C100.171 15.5345 100.646 15.873 100.998 16.3027C101.35 16.7259 101.525 17.2826 101.525 17.9727C101.525 18.4414 101.421 18.8711 101.213 19.2617C101.005 19.6523 100.705 19.9941 100.314 20.2871C99.9238 20.5736 99.4551 20.7982 98.9082 20.9609C98.3678 21.1172 97.7591 21.1953 97.082 21.1953C96.099 21.1953 95.2656 21.0195 94.582 20.668C93.9049 20.3164 93.3906 19.8704 93.0391 19.3301C92.694 18.7832 92.5215 18.2233 92.5215 17.6504H95.1875C95.2005 18.0345 95.2982 18.3438 95.4805 18.5781C95.6693 18.8125 95.9069 18.9818 96.1934 19.0859C96.4863 19.1901 96.8021 19.2422 97.1406 19.2422C97.5052 19.2422 97.8079 19.1934 98.0488 19.0957C98.2897 18.9915 98.472 18.8548 98.5957 18.6855C98.7259 18.5098 98.791 18.3079 98.791 18.0801ZM106.32 10.4336V21H103.498V10.4336H106.32ZM103.322 7.67969C103.322 7.26953 103.465 6.93099 103.752 6.66406C104.038 6.39714 104.423 6.26367 104.904 6.26367C105.38 6.26367 105.76 6.39714 106.047 6.66406C106.34 6.93099 106.486 7.26953 106.486 7.67969C106.486 8.08984 106.34 8.42839 106.047 8.69531C105.76 8.96224 105.38 9.0957 104.904 9.0957C104.423 9.0957 104.038 8.96224 103.752 8.69531C103.465 8.42839 103.322 8.08984 103.322 7.67969ZM111.398 12.6895V21H108.586V10.4336H111.223L111.398 12.6895ZM110.988 15.3457H110.227C110.227 14.5645 110.327 13.8613 110.529 13.2363C110.731 12.6048 111.014 12.0677 111.379 11.625C111.743 11.1758 112.176 10.834 112.678 10.5996C113.186 10.3587 113.752 10.2383 114.377 10.2383C114.872 10.2383 115.324 10.3099 115.734 10.4531C116.145 10.5964 116.496 10.8242 116.789 11.1367C117.089 11.4492 117.316 11.8626 117.473 12.377C117.635 12.8913 117.717 13.5195 117.717 14.2617V21H114.885V14.252C114.885 13.7832 114.82 13.4186 114.689 13.1582C114.559 12.8978 114.367 12.7155 114.113 12.6113C113.866 12.5007 113.56 12.4453 113.195 12.4453C112.818 12.4453 112.489 12.5202 112.209 12.6699C111.936 12.8197 111.708 13.028 111.525 13.2949C111.35 13.5553 111.216 13.8613 111.125 14.2129C111.034 14.5645 110.988 14.9421 110.988 15.3457ZM124.719 21.1953C123.898 21.1953 123.163 21.0651 122.512 20.8047C121.861 20.5378 121.307 20.1699 120.852 19.7012C120.402 19.2324 120.057 18.6888 119.816 18.0703C119.576 17.4453 119.455 16.7812 119.455 16.0781V15.6875C119.455 14.8867 119.569 14.1543 119.797 13.4902C120.025 12.8262 120.35 12.25 120.773 11.7617C121.203 11.2734 121.724 10.8991 122.336 10.6387C122.948 10.3717 123.638 10.2383 124.406 10.2383C125.155 10.2383 125.819 10.362 126.398 10.6094C126.978 10.8568 127.463 11.2083 127.854 11.6641C128.251 12.1198 128.55 12.6667 128.752 13.3047C128.954 13.9362 129.055 14.6393 129.055 15.4141V16.5859H120.656V14.7109H126.291V14.4961C126.291 14.1055 126.219 13.7572 126.076 13.4512C125.939 13.1387 125.731 12.8913 125.451 12.709C125.171 12.5267 124.813 12.4355 124.377 12.4355C124.006 12.4355 123.687 12.5169 123.42 12.6797C123.153 12.8424 122.935 13.0703 122.766 13.3633C122.603 13.6562 122.479 14.0013 122.395 14.3984C122.316 14.7891 122.277 15.2188 122.277 15.6875V16.0781C122.277 16.5013 122.336 16.8919 122.453 17.25C122.577 17.6081 122.749 17.9173 122.971 18.1777C123.199 18.4382 123.472 18.64 123.791 18.7832C124.117 18.9264 124.484 18.998 124.895 18.998C125.402 18.998 125.874 18.9004 126.311 18.7051C126.753 18.5033 127.134 18.2005 127.453 17.7969L128.82 19.2812C128.599 19.6003 128.296 19.9062 127.912 20.1992C127.535 20.4922 127.079 20.7331 126.545 20.9219C126.011 21.1042 125.402 21.1953 124.719 21.1953ZM136.369 18.0801C136.369 17.8783 136.311 17.696 136.193 17.5332C136.076 17.3704 135.858 17.2207 135.539 17.084C135.227 16.9408 134.774 16.8105 134.182 16.6934C133.648 16.5762 133.15 16.4297 132.688 16.2539C132.232 16.0716 131.835 15.8535 131.496 15.5996C131.164 15.3457 130.904 15.0462 130.715 14.7012C130.526 14.3496 130.432 13.9492 130.432 13.5C130.432 13.0573 130.526 12.6406 130.715 12.25C130.91 11.8594 131.187 11.5143 131.545 11.2148C131.91 10.9089 132.352 10.6712 132.873 10.502C133.4 10.3262 133.993 10.2383 134.65 10.2383C135.568 10.2383 136.356 10.3848 137.014 10.6777C137.678 10.9707 138.186 11.3743 138.537 11.8887C138.895 12.3965 139.074 12.9759 139.074 13.627H136.262C136.262 13.3535 136.203 13.1094 136.086 12.8945C135.975 12.6732 135.799 12.5007 135.559 12.377C135.324 12.2467 135.018 12.1816 134.641 12.1816C134.328 12.1816 134.058 12.237 133.83 12.3477C133.602 12.4518 133.426 12.5951 133.303 12.7773C133.186 12.9531 133.127 13.1484 133.127 13.3633C133.127 13.526 133.16 13.6725 133.225 13.8027C133.296 13.9264 133.41 14.0404 133.566 14.1445C133.723 14.2487 133.924 14.3464 134.172 14.4375C134.426 14.5221 134.738 14.6003 135.109 14.6719C135.871 14.8281 136.551 15.0332 137.15 15.2871C137.749 15.5345 138.225 15.873 138.576 16.3027C138.928 16.7259 139.104 17.2826 139.104 17.9727C139.104 18.4414 138.999 18.8711 138.791 19.2617C138.583 19.6523 138.283 19.9941 137.893 20.2871C137.502 20.5736 137.033 20.7982 136.486 20.9609C135.946 21.1172 135.337 21.1953 134.66 21.1953C133.677 21.1953 132.844 21.0195 132.16 20.668C131.483 20.3164 130.969 19.8704 130.617 19.3301C130.272 18.7832 130.1 18.2233 130.1 17.6504H132.766C132.779 18.0345 132.876 18.3438 133.059 18.5781C133.247 18.8125 133.485 18.9818 133.771 19.0859C134.064 19.1901 134.38 19.2422 134.719 19.2422C135.083 19.2422 135.386 19.1934 135.627 19.0957C135.868 18.9915 136.05 18.8548 136.174 18.6855C136.304 18.5098 136.369 18.3079 136.369 18.0801ZM146.643 18.0801C146.643 17.8783 146.584 17.696 146.467 17.5332C146.35 17.3704 146.132 17.2207 145.812 17.084C145.5 16.9408 145.048 16.8105 144.455 16.6934C143.921 16.5762 143.423 16.4297 142.961 16.2539C142.505 16.0716 142.108 15.8535 141.77 15.5996C141.438 15.3457 141.177 15.0462 140.988 14.7012C140.799 14.3496 140.705 13.9492 140.705 13.5C140.705 13.0573 140.799 12.6406 140.988 12.25C141.184 11.8594 141.46 11.5143 141.818 11.2148C142.183 10.9089 142.626 10.6712 143.146 10.502C143.674 10.3262 144.266 10.2383 144.924 10.2383C145.842 10.2383 146.63 10.3848 147.287 10.6777C147.951 10.9707 148.459 11.3743 148.811 11.8887C149.169 12.3965 149.348 12.9759 149.348 13.627H146.535C146.535 13.3535 146.477 13.1094 146.359 12.8945C146.249 12.6732 146.073 12.5007 145.832 12.377C145.598 12.2467 145.292 12.1816 144.914 12.1816C144.602 12.1816 144.331 12.237 144.104 12.3477C143.876 12.4518 143.7 12.5951 143.576 12.7773C143.459 12.9531 143.4 13.1484 143.4 13.3633C143.4 13.526 143.433 13.6725 143.498 13.8027C143.57 13.9264 143.684 14.0404 143.84 14.1445C143.996 14.2487 144.198 14.3464 144.445 14.4375C144.699 14.5221 145.012 14.6003 145.383 14.6719C146.145 14.8281 146.825 15.0332 147.424 15.2871C148.023 15.5345 148.498 15.873 148.85 16.3027C149.201 16.7259 149.377 17.2826 149.377 17.9727C149.377 18.4414 149.273 18.8711 149.064 19.2617C148.856 19.6523 148.557 19.9941 148.166 20.2871C147.775 20.5736 147.307 20.7982 146.76 20.9609C146.219 21.1172 145.611 21.1953 144.934 21.1953C143.951 21.1953 143.117 21.0195 142.434 20.668C141.757 20.3164 141.242 19.8704 140.891 19.3301C140.546 18.7832 140.373 18.2233 140.373 17.6504H143.039C143.052 18.0345 143.15 18.3438 143.332 18.5781C143.521 18.8125 143.758 18.9818 144.045 19.0859C144.338 19.1901 144.654 19.2422 144.992 19.2422C145.357 19.2422 145.66 19.1934 145.9 19.0957C146.141 18.9915 146.324 18.8548 146.447 18.6855C146.577 18.5098 146.643 18.3079 146.643 18.0801ZM161.896 15.9316H158.273V13.6465H161.896C162.456 13.6465 162.912 13.5553 163.264 13.373C163.615 13.1842 163.872 12.9238 164.035 12.5918C164.198 12.2598 164.279 11.8854 164.279 11.4688C164.279 11.0456 164.198 10.6517 164.035 10.2871C163.872 9.92253 163.615 9.62956 163.264 9.4082C162.912 9.18685 162.456 9.07617 161.896 9.07617H159.289V21H156.359V6.78125H161.896C163.01 6.78125 163.964 6.98307 164.758 7.38672C165.559 7.78385 166.171 8.33398 166.594 9.03711C167.017 9.74023 167.229 10.5443 167.229 11.4492C167.229 12.3672 167.017 13.1615 166.594 13.832C166.171 14.5026 165.559 15.0202 164.758 15.3848C163.964 15.7493 163.01 15.9316 161.896 15.9316ZM172.043 6V21H169.221V6H172.043ZM180.07 18.6172V13.9102C180.07 13.5716 180.015 13.2819 179.904 13.041C179.794 12.7936 179.621 12.6016 179.387 12.4648C179.159 12.3281 178.863 12.2598 178.498 12.2598C178.186 12.2598 177.915 12.3151 177.688 12.4258C177.46 12.5299 177.284 12.6829 177.16 12.8848C177.036 13.0801 176.975 13.3112 176.975 13.5781H174.162C174.162 13.1289 174.266 12.7025 174.475 12.2988C174.683 11.8952 174.986 11.5404 175.383 11.2344C175.78 10.9219 176.252 10.6777 176.799 10.502C177.352 10.3262 177.971 10.2383 178.654 10.2383C179.475 10.2383 180.204 10.375 180.842 10.6484C181.48 10.9219 181.981 11.332 182.346 11.8789C182.717 12.4258 182.902 13.1094 182.902 13.9297V18.4512C182.902 19.0306 182.938 19.5059 183.01 19.877C183.081 20.2415 183.186 20.5605 183.322 20.834V21H180.48C180.344 20.7135 180.24 20.3555 180.168 19.9258C180.103 19.4896 180.07 19.0534 180.07 18.6172ZM180.441 14.5645L180.461 16.1562H178.889C178.518 16.1562 178.195 16.1986 177.922 16.2832C177.648 16.3678 177.424 16.4883 177.248 16.6445C177.072 16.7943 176.942 16.9701 176.857 17.1719C176.779 17.3737 176.74 17.5951 176.74 17.8359C176.74 18.0768 176.796 18.2949 176.906 18.4902C177.017 18.679 177.176 18.8288 177.385 18.9395C177.593 19.0436 177.837 19.0957 178.117 19.0957C178.54 19.0957 178.908 19.0111 179.221 18.8418C179.533 18.6725 179.774 18.4642 179.943 18.2168C180.119 17.9694 180.21 17.735 180.217 17.5137L180.959 18.7051C180.855 18.972 180.712 19.2487 180.529 19.5352C180.354 19.8216 180.129 20.0918 179.855 20.3457C179.582 20.5931 179.253 20.7982 178.869 20.9609C178.485 21.1172 178.029 21.1953 177.502 21.1953C176.831 21.1953 176.223 21.0618 175.676 20.7949C175.135 20.5215 174.706 20.1471 174.387 19.6719C174.074 19.1901 173.918 18.6432 173.918 18.0312C173.918 17.4779 174.022 16.9863 174.23 16.5566C174.439 16.127 174.745 15.7656 175.148 15.4727C175.559 15.1732 176.07 14.9486 176.682 14.7988C177.294 14.6426 178.003 14.5645 178.811 14.5645H180.441ZM187.824 12.6895V21H185.012V10.4336H187.648L187.824 12.6895ZM187.414 15.3457H186.652C186.652 14.5645 186.753 13.8613 186.955 13.2363C187.157 12.6048 187.44 12.0677 187.805 11.625C188.169 11.1758 188.602 10.834 189.104 10.5996C189.611 10.3587 190.178 10.2383 190.803 10.2383C191.298 10.2383 191.75 10.3099 192.16 10.4531C192.57 10.5964 192.922 10.8242 193.215 11.1367C193.514 11.4492 193.742 11.8626 193.898 12.377C194.061 12.8913 194.143 13.5195 194.143 14.2617V21H191.311V14.252C191.311 13.7832 191.245 13.4186 191.115 13.1582C190.985 12.8978 190.793 12.7155 190.539 12.6113C190.292 12.5007 189.986 12.4453 189.621 12.4453C189.243 12.4453 188.915 12.5202 188.635 12.6699C188.361 12.8197 188.133 13.028 187.951 13.2949C187.775 13.5553 187.642 13.8613 187.551 14.2129C187.46 14.5645 187.414 14.9421 187.414 15.3457Z" fill="#455A64"/>
</g>
<defs>
<clipPath id="clip0_8870_2849">
<rect width="900" height="60" fill="white"/>
</clipPath>
</defs>
</svg>
