<svg width="171" height="171" viewBox="0 0 171 171" fill="none" xmlns="http://www.w3.org/2000/svg">
<path d="M161.29 128.214C160.359 137.371 153.056 146.465 139.814 153.505C132.935 157.162 124.728 158.676 115.553 159.247C109.022 159.654 102.15 159.579 95.0088 159.501C92.0821 159.469 89.1105 159.436 86.099 159.436C83.0874 159.436 80.1158 159.469 77.1891 159.501C70.0484 159.579 63.1755 159.654 56.6447 159.247C47.47 158.676 39.263 157.162 32.3839 153.505C19.1415 146.465 11.8385 137.371 10.9083 128.214L86.099 128.214H161.29Z" fill="#FFC700" stroke="#E6B300" stroke-width="4"/>
<mask id="path-2-inside-1_1062_5732" fill="white">
<path fill-rule="evenodd" clip-rule="evenodd" d="M170.486 0H0V170.487H35.0106V156.787H50.2326V144.102H121.776V156.787H134.968V170.487H170.486V0ZM23.3464 13.1946C23.3464 18.7992 18.803 23.3426 13.1984 23.3426C7.59383 23.3426 3.05042 18.7992 3.05042 13.1946C3.05042 7.59001 7.59383 3.0466 13.1984 3.0466C18.803 3.0466 23.3464 7.59001 23.3464 13.1946ZM25.3701 157.333C25.3701 162.938 20.8267 167.481 15.2221 167.481C9.61755 167.481 5.07413 162.938 5.07413 157.333C5.07413 151.729 9.61755 147.185 15.2221 147.185C20.8267 147.185 25.3701 151.729 25.3701 157.333ZM156.319 167.481C161.924 167.481 166.467 162.938 166.467 157.333C166.467 151.729 161.924 147.185 156.319 147.185C150.715 147.185 146.171 151.729 146.171 157.333C146.171 162.938 150.715 167.481 156.319 167.481ZM167.448 13.1946C167.448 18.7992 162.904 23.3426 157.3 23.3426C151.695 23.3426 147.152 18.7992 147.152 13.1946C147.152 7.59001 151.695 3.0466 157.3 3.0466C162.904 3.0466 167.448 7.59001 167.448 13.1946Z"/>
</mask>
<path fill-rule="evenodd" clip-rule="evenodd" d="M170.486 0H0V170.487H35.0106V156.787H50.2326V144.102H121.776V156.787H134.968V170.487H170.486V0ZM23.3464 13.1946C23.3464 18.7992 18.803 23.3426 13.1984 23.3426C7.59383 23.3426 3.05042 18.7992 3.05042 13.1946C3.05042 7.59001 7.59383 3.0466 13.1984 3.0466C18.803 3.0466 23.3464 7.59001 23.3464 13.1946ZM25.3701 157.333C25.3701 162.938 20.8267 167.481 15.2221 167.481C9.61755 167.481 5.07413 162.938 5.07413 157.333C5.07413 151.729 9.61755 147.185 15.2221 147.185C20.8267 147.185 25.3701 151.729 25.3701 157.333ZM156.319 167.481C161.924 167.481 166.467 162.938 166.467 157.333C166.467 151.729 161.924 147.185 156.319 147.185C150.715 147.185 146.171 151.729 146.171 157.333C146.171 162.938 150.715 167.481 156.319 167.481ZM167.448 13.1946C167.448 18.7992 162.904 23.3426 157.3 23.3426C151.695 23.3426 147.152 18.7992 147.152 13.1946C147.152 7.59001 151.695 3.0466 157.3 3.0466C162.904 3.0466 167.448 7.59001 167.448 13.1946Z" fill="#005596"/>
<path d="M0 0V-0.3H-0.3V0H0ZM170.486 0H170.786V-0.3H170.486V0ZM0 170.487H-0.3V170.787H0V170.487ZM35.0106 170.487V170.787H35.3106V170.487H35.0106ZM35.0106 156.787V156.487H34.7106V156.787H35.0106ZM50.2326 156.787V157.087H50.5326V156.787H50.2326ZM50.2326 144.102V143.802H49.9326V144.102H50.2326ZM121.776 144.102H122.076V143.802H121.776V144.102ZM121.776 156.787H121.476V157.087H121.776V156.787ZM134.968 156.787H135.268V156.487H134.968V156.787ZM134.968 170.487H134.668V170.787H134.968V170.487ZM170.486 170.487V170.787H170.786V170.487H170.486ZM0 0.3H170.486V-0.3H0V0.3ZM0.3 170.487V0H-0.3V170.487H0.3ZM35.0106 170.187H0V170.787H35.0106V170.187ZM34.7106 156.787V170.487H35.3106V156.787H34.7106ZM50.2326 156.487H35.0106V157.087H50.2326V156.487ZM49.9326 144.102V156.787H50.5326V144.102H49.9326ZM121.776 143.802H50.2326V144.402H121.776V143.802ZM122.076 156.787V144.102H121.476V156.787H122.076ZM134.968 156.487H121.776V157.087H134.968V156.487ZM135.268 170.487V156.787H134.668V170.487H135.268ZM170.486 170.187H134.968V170.787H170.486V170.187ZM170.186 0V170.487H170.786V0H170.186ZM13.1984 23.6426C18.9687 23.6426 23.6464 18.9649 23.6464 13.1946H23.0464C23.0464 18.6335 18.6373 23.0426 13.1984 23.0426V23.6426ZM2.75042 13.1946C2.75042 18.9649 7.42815 23.6426 13.1984 23.6426V23.0426C7.75952 23.0426 3.35042 18.6335 3.35042 13.1946H2.75042ZM13.1984 2.7466C7.42815 2.7466 2.75042 7.42432 2.75042 13.1946H3.35042C3.35042 7.75569 7.75952 3.3466 13.1984 3.3466V2.7466ZM23.6464 13.1946C23.6464 7.42432 18.9687 2.7466 13.1984 2.7466V3.3466C18.6373 3.3466 23.0464 7.75569 23.0464 13.1946H23.6464ZM15.2221 167.781C20.9924 167.781 25.6701 163.104 25.6701 157.333H25.0701C25.0701 162.772 20.661 167.181 15.2221 167.181V167.781ZM4.77413 157.333C4.77413 163.104 9.45186 167.781 15.2221 167.781V167.181C9.78323 167.181 5.37413 162.772 5.37413 157.333H4.77413ZM15.2221 146.885C9.45186 146.885 4.77413 151.563 4.77413 157.333H5.37413C5.37413 151.895 9.78323 147.485 15.2221 147.485V146.885ZM25.6701 157.333C25.6701 151.563 20.9924 146.885 15.2221 146.885V147.485C20.661 147.485 25.0701 151.895 25.0701 157.333H25.6701ZM166.167 157.333C166.167 162.772 161.758 167.181 156.319 167.181V167.781C162.089 167.781 166.767 163.104 166.767 157.333H166.167ZM156.319 147.485C161.758 147.485 166.167 151.895 166.167 157.333H166.767C166.767 151.563 162.089 146.885 156.319 146.885V147.485ZM146.471 157.333C146.471 151.895 150.88 147.485 156.319 147.485V146.885C150.549 146.885 145.871 151.563 145.871 157.333H146.471ZM156.319 167.181C150.88 167.181 146.471 162.772 146.471 157.333H145.871C145.871 163.104 150.549 167.781 156.319 167.781V167.181ZM157.3 23.6426C163.07 23.6426 167.748 18.9649 167.748 13.1946H167.148C167.148 18.6335 162.738 23.0426 157.3 23.0426V23.6426ZM146.852 13.1946C146.852 18.9649 151.529 23.6426 157.3 23.6426V23.0426C151.861 23.0426 147.452 18.6335 147.452 13.1946H146.852ZM157.3 2.7466C151.529 2.7466 146.852 7.42432 146.852 13.1946H147.452C147.452 7.75569 151.861 3.3466 157.3 3.3466V2.7466ZM167.748 13.1946C167.748 7.42432 163.07 2.7466 157.3 2.7466V3.3466C162.738 3.3466 167.148 7.75569 167.148 13.1946H167.748Z" fill="#D9D9D9" mask="url(#path-2-inside-1_1062_5732)"/>
<rect x="0.500488" y="121.252" width="169.486" height="22.3404" fill="#070F18" stroke="#D9D9D9"/>
<rect x="0.500488" y="26.886" width="169.486" height="94.3912" fill="url(#paint0_linear_1062_5732)" stroke="#D9D9D9"/>
<circle cx="65.9043" cy="8.06496" r="4" fill="#D9D9D9"/>
<circle cx="78.9043" cy="8.06496" r="4" fill="#D9D9D9"/>
<circle cx="91.9043" cy="8.06496" r="4" fill="#D9D9D9"/>
<circle cx="104.904" cy="8.06496" r="4" fill="#D9D9D9"/>
<rect x="56.8311" y="16.2418" width="57.8436" height="6.0888" fill="#D9D9D9" fill-opacity="0.51"/>
<path fill-rule="evenodd" clip-rule="evenodd" d="M50.2119 159.965V143.276H121.811V159.965H50.2119Z" fill="#949E9A"/>
<path d="M50.2119 162.411H121.811V159.965H50.2119V162.411Z" fill="#070F18"/>
<defs>
<linearGradient id="paint0_linear_1062_5732" x1="50.7405" y1="85.2443" x2="247.612" y2="84.2295" gradientUnits="userSpaceOnUse">
<stop stop-color="#17183E"/>
<stop offset="1" stop-color="#040A1C"/>
</linearGradient>
</defs>
</svg>
