<svg width="24" height="24" viewBox="0 0 24 24" fill="none" xmlns="http://www.w3.org/2000/svg">
<mask id="mask0_9237_29927" style="mask-type:alpha" maskUnits="userSpaceOnUse" x="0" y="0" width="24" height="24">
<rect width="24" height="24" fill="#D9D9D9"/>
</mask>
<g mask="url(#mask0_9237_29927)">
<path d="M5.18859 16.8105C4.25142 15.8426 3.54982 14.7759 3.08379 13.6105C2.61777 12.4452 2.38477 11.2413 2.38477 9.99902C2.38477 8.75672 2.61777 7.55288 3.08379 6.3875C3.54982 5.22212 4.25142 4.15545 5.18859 3.1875L6.11934 4.11825C5.30652 4.93748 4.70012 5.85992 4.30012 6.88557C3.90012 7.91121 3.70012 8.94902 3.70012 9.99902C3.70012 11.049 3.90012 12.0868 4.30012 13.1125C4.70012 14.1381 5.30652 15.0606 6.11934 15.8798L5.18859 16.8105ZM7.55014 14.449C6.93861 13.8247 6.47482 13.1266 6.15879 12.3548C5.84277 11.583 5.68477 10.7977 5.68477 9.99902C5.68477 9.20031 5.84277 8.41506 6.15879 7.64328C6.47482 6.87148 6.93861 6.1734 7.55014 5.54905L8.48089 6.4798C7.98729 6.94262 7.6171 7.48396 7.37032 8.10383C7.12352 8.72371 7.00012 9.35544 7.00012 9.99902C7.00012 10.6118 7.12191 11.2266 7.36549 11.8433C7.60909 12.4599 7.98089 13.0183 8.48089 13.5183L7.55014 14.449ZM7.53862 21.1721L10.6828 11.7394C10.4033 11.5381 10.1844 11.2839 10.0261 10.9769C9.86776 10.6698 9.78859 10.3439 9.78859 9.99902C9.78859 9.38236 10.003 8.85961 10.4319 8.43078C10.8607 8.00193 11.3834 7.7875 12.0001 7.7875C12.6168 7.7875 13.1395 8.00193 13.5684 8.43078C13.9972 8.85961 14.2116 9.38236 14.2116 9.99902C14.2116 10.3439 14.1357 10.6667 13.9837 10.9673C13.8318 11.2679 13.6097 11.5253 13.3174 11.7394L16.4616 21.1721H14.9424L14.2924 19.1721H9.72319L9.06744 21.1721H7.53862ZM10.2193 17.6721H13.7809L12.0001 12.3259L10.2193 17.6721ZM16.4501 14.449L15.5193 13.5183C16.0129 13.0554 16.3831 12.5141 16.6299 11.8942C16.8767 11.2743 17.0001 10.6426 17.0001 9.99902C17.0001 9.40544 16.8767 8.79711 16.6299 8.17403C16.3831 7.55094 16.0129 6.9862 15.5193 6.4798L16.4501 5.54905C17.0616 6.1734 17.5177 6.87467 17.8184 7.65287C18.119 8.43107 18.2847 9.21633 18.3155 10.0087C18.3155 10.8074 18.1591 11.591 17.8462 12.3596C17.5334 13.1282 17.068 13.8247 16.4501 14.449ZM18.8116 16.8105L17.8809 15.8798C18.6937 15.0606 19.3001 14.1381 19.7001 13.1125C20.1001 12.0868 20.3001 11.049 20.3001 9.99902C20.3001 8.94902 20.1001 7.91121 19.7001 6.88557C19.3001 5.85992 18.6937 4.93748 17.8809 4.11825L18.8116 3.1875C19.7424 4.15545 20.4424 5.22212 20.9116 6.3875C21.3809 7.55288 21.6155 8.75672 21.6155 9.99902C21.6155 11.2413 21.3918 12.4452 20.9443 13.6105C20.4969 14.7759 19.786 15.8426 18.8116 16.8105Z" fill="#1C1B1F"/>
</g>
</svg>
