<svg width="900" height="60" viewBox="0 0 900 60" fill="none" xmlns="http://www.w3.org/2000/svg">
<g clip-path="url(#clip0_8870_2893)">
<g clip-path="url(#clip1_8870_2893)">
<rect width="60" height="60" rx="30" fill="#407BFF" fill-opacity="0.23"/>
<path d="M49.6654 33.1277L49.1987 36.7442L48.0996 35.6721L37.2367 46.2665H26.0603L21.2201 50.9866H19.3053L25.4988 44.9455H36.6762L47.1411 34.7373L45.9576 33.5829L49.6654 33.1277Z" fill="#407BFF"/>
<path d="M62.2965 40.3607H39.0212C38.8212 40.3603 38.6294 40.2808 38.4879 40.1396C38.3464 39.9983 38.2668 39.8069 38.2665 39.6071V5.75356C38.2672 5.55405 38.3469 5.36292 38.4884 5.22196C38.6298 5.081 38.8214 5.00168 39.0212 5.00134H62.2965C62.4963 5.00168 62.6879 5.081 62.8294 5.22196C62.9708 5.36292 63.0506 5.55405 63.0513 5.75356V39.6071C63.0509 39.8069 62.9713 39.9983 62.8298 40.1396C62.6884 40.2808 62.4966 40.3603 62.2965 40.3607ZM39.0212 5.03349C38.926 5.03281 38.8316 5.05093 38.7434 5.08679C38.6553 5.12266 38.5751 5.17557 38.5074 5.24249C38.4398 5.3094 38.3861 5.389 38.3494 5.47671C38.3127 5.56442 38.2937 5.6585 38.2935 5.75356V39.6071C38.2935 39.7985 38.3697 39.9819 38.5052 40.1172C38.6407 40.2525 38.8245 40.3285 39.0161 40.3285H62.2965C62.4881 40.3285 62.6719 40.2525 62.8074 40.1172C62.9429 39.9819 63.0191 39.7985 63.0191 39.6071V5.75356C63.0191 5.56224 62.9429 5.37876 62.8074 5.24348C62.6719 5.1082 62.4881 5.0322 62.2965 5.0322L39.0212 5.03349Z" fill="#F0F0F0"/>
<path d="M35.4509 40.3606H12.1705C11.9705 40.3602 11.7787 40.2807 11.6372 40.1395C11.4957 39.9983 11.4161 39.8068 11.4158 39.6071V5.7535C11.4161 5.55377 11.4957 5.36231 11.6372 5.22107C11.7787 5.07984 11.9705 5.00034 12.1705 5H35.4509C35.651 5.00034 35.8428 5.07984 35.9843 5.22107C36.1257 5.36231 36.2054 5.55377 36.2057 5.7535V39.6071C36.2054 39.8068 36.1257 39.9983 35.9843 40.1395C35.8428 40.2807 35.651 40.3602 35.4509 40.3606ZM12.1705 5.03343C11.9791 5.03343 11.7955 5.10926 11.6601 5.24426C11.5246 5.37926 11.4483 5.56241 11.448 5.7535V39.6071C11.448 39.7984 11.5241 39.9819 11.6596 40.1172C11.7951 40.2524 11.9789 40.3284 12.1705 40.3284H35.4509C35.6426 40.3284 35.8264 40.2524 35.9619 40.1172C36.0974 39.9819 36.1735 39.7984 36.1735 39.6071V5.7535C36.1735 5.56219 36.0974 5.37871 35.9619 5.24343C35.8264 5.10815 35.6426 5.03215 35.4509 5.03215L12.1705 5.03343Z" fill="#F0F0F0"/>
<path d="M69.4178 48.2132H5.01831V48.2453H69.4178V48.2132Z" fill="#F0F0F0"/>
<path d="M38.2586 20.1603L37.6829 24.7366L33.6747 20.735L38.2586 20.1603Z" fill="#F5F5F5"/>
<path d="M29.0378 30.5022L37.1444 22.4092L35.9608 21.2262L29.0378 28.1389V30.5022Z" fill="#F5F5F5"/>
<path d="M19.248 33.7926C19.4739 34.2258 19.5992 34.7042 19.6147 35.1924C19.6301 35.6805 19.5354 36.1659 19.3375 36.6126C19.1396 37.0592 18.8436 37.4557 18.4714 37.7726C18.0991 38.0896 17.6603 38.3188 17.1873 38.4434C16.6533 38.5846 16.0921 38.5877 15.5567 38.4524C15.482 38.4332 15.406 38.4113 15.3325 38.3869C15.0056 38.2785 14.6978 38.1192 14.4207 37.915C14.3666 37.8751 14.3125 37.8327 14.2609 37.7864C13.9328 37.512 13.6623 37.1755 13.465 36.7963C13.4469 36.7603 13.4289 36.7243 13.4122 36.687C13.1895 36.2147 13.0837 35.6959 13.1039 35.1743C13.124 34.6527 13.2694 34.1436 13.5279 33.6898C13.7863 33.2361 14.1502 32.851 14.5889 32.567C15.0276 32.283 15.5283 32.1084 16.0487 32.058C16.1272 32.0503 16.2058 32.0464 16.2844 32.0438C16.6247 32.0373 16.964 32.0833 17.2903 32.1801C17.3624 32.202 17.4333 32.2251 17.5028 32.2508C17.7526 32.3449 17.99 32.4688 18.2099 32.6199C18.6146 32.8979 18.9507 33.2642 19.1927 33.691C19.2107 33.7218 19.23 33.7566 19.248 33.7926Z" fill="#F5F5F5"/>
<path d="M18.7213 34.2014C18.6878 34.1448 18.653 34.0896 18.6156 34.0356C18.4516 33.797 18.2488 33.5875 18.0154 33.4158C17.7816 33.2445 17.5203 33.114 17.2427 33.03C17.172 33.007 17.1002 32.9877 17.0276 32.9722C16.6889 32.8967 16.3386 32.8897 15.9972 32.9516C15.9103 32.9669 15.8244 32.9866 15.7396 33.0107C15.3778 33.1149 15.0429 33.296 14.7579 33.5416C14.4728 33.7872 14.2444 34.0915 14.0883 34.4335C13.9321 34.7755 13.852 35.1473 13.8533 35.5231C13.8547 35.899 13.9375 36.2702 14.0961 36.6111L14.0381 36.5056C13.8796 36.202 13.7825 35.8701 13.7524 35.5289C13.7223 35.1877 13.7598 34.844 13.8628 34.5173C13.9658 34.1906 14.1322 33.8874 14.3525 33.6249C14.5729 33.3625 14.8429 33.1459 15.1471 32.9876C15.4513 32.8293 15.7837 32.7323 16.1255 32.7023C16.4672 32.6723 16.8115 32.7097 17.1387 32.8125C17.466 32.9153 17.7697 33.0815 18.0326 33.3015C18.2955 33.5215 18.5125 33.791 18.671 34.0947C18.6865 34.1294 18.7032 34.1706 18.7213 34.2014Z" fill="#E0E0E0"/>
<g opacity="0.3">
<path d="M17.5582 37.6038C17.5312 37.6179 17.5041 37.6321 17.4758 37.6449C17.4475 37.6591 17.4204 37.6719 17.3908 37.6835L17.3702 37.6925C17.338 37.7066 17.3071 37.7182 17.2762 37.7298H17.2633C17.1619 37.7677 17.0583 37.799 16.9529 37.8236C16.9181 37.8314 16.882 37.8404 16.8473 37.8455C16.7764 37.8596 16.7056 37.8699 16.6335 37.8776L16.5639 37.8841H16.5266H16.4712C16.4428 37.8841 16.4145 37.8841 16.3849 37.8841C16.3553 37.8841 16.3115 37.8841 16.2741 37.8841C16.2368 37.8841 16.2007 37.8841 16.1646 37.8776C16.1286 37.8712 16.1041 37.8776 16.0745 37.8699L16.0152 37.8622L15.9676 37.8558L15.9135 37.8468L15.8246 37.8301L15.7486 37.8121H15.7319L15.6237 37.7838L15.5232 37.7516L15.464 37.7298L15.4047 37.7079L15.348 37.6848L15.2875 37.6578L15.2296 37.6308L15.1729 37.6025C15.1342 37.5832 15.0956 37.5626 15.057 37.5395L15.0106 37.5125C14.972 37.4893 14.9359 37.4662 14.8985 37.4405L14.847 37.4045C14.7916 37.3659 14.7375 37.3235 14.686 37.2759L14.6448 37.2399C14.6139 37.2129 14.5843 37.1872 14.5559 37.1589C14.5263 37.1306 14.498 37.101 14.4696 37.0714L14.431 37.0303L14.413 37.0097L14.373 36.9647V36.957C14.3578 36.9403 14.3436 36.9227 14.3305 36.9043C14.314 36.8854 14.2985 36.8657 14.2842 36.8451C14.2687 36.8258 14.2545 36.8053 14.2404 36.7847C14.2262 36.7641 14.2172 36.7525 14.2069 36.7358L14.185 36.7037L14.1567 36.6587L14.118 36.5944C13.9594 36.2535 13.8766 35.8823 13.8753 35.5064C13.8739 35.1306 13.9541 34.7588 14.1102 34.4168C14.2663 34.0747 14.4947 33.7705 14.7798 33.5249C15.0648 33.2793 15.3997 33.0982 15.7615 32.994C15.8463 32.9699 15.9323 32.9501 16.0191 32.9349C16.3605 32.873 16.7108 32.88 17.0495 32.9555C17.1221 32.971 17.1939 32.9903 17.2646 33.0133C17.5422 33.0973 17.8035 33.2278 18.0374 33.3991C18.2707 33.5708 18.4736 33.7803 18.6376 34.0188C18.6749 34.0728 18.7097 34.1281 18.7432 34.1847C19.0274 34.7969 19.0627 35.4953 18.8417 36.1329C18.6207 36.7706 18.1606 37.2978 17.5582 37.6038Z" fill="black"/>
</g>
<path d="M17.5581 37.6037C17.531 37.6179 17.504 37.632 17.4756 37.6449C17.4473 37.659 17.4202 37.6719 17.3906 37.6834L17.37 37.6924C17.3378 37.7066 17.3069 37.7182 17.276 37.7297H17.2631C17.1618 37.7676 17.0581 37.799 16.9527 37.8236C16.9179 37.8313 16.8819 37.8403 16.8471 37.8455C16.7763 37.8596 16.7054 37.8699 16.6333 37.8776H16.6049H16.5624H16.5251H16.4697C16.4414 37.8776 16.413 37.8776 16.3834 37.8776C16.3538 37.8776 16.31 37.8776 16.2726 37.8776C16.2353 37.8776 16.1992 37.8776 16.1632 37.8712C16.1271 37.8648 16.1026 37.8712 16.073 37.8635L16.0138 37.8557L15.9661 37.8493L15.912 37.8403L15.8231 37.8236L15.7471 37.8056H15.7304L15.6222 37.7773L15.5218 37.7452L15.4625 37.7233L15.4033 37.7014L15.3466 37.6783L15.286 37.6513L15.2281 37.6243L15.1714 37.596C15.1328 37.5767 15.0941 37.5561 15.0555 37.533L15.0091 37.506C14.9705 37.4829 14.9344 37.4597 14.8971 37.434L14.8456 37.398C14.7902 37.3594 14.7361 37.317 14.6846 37.2694L14.6433 37.2334C14.6124 37.2064 14.5828 37.1807 14.5545 37.1524C14.5248 37.1241 14.4965 37.0945 14.4682 37.065L14.4295 37.0238L14.4115 37.0032L14.3716 36.9582V36.9505C14.3563 36.9338 14.3421 36.9162 14.3291 36.8978C14.3125 36.879 14.297 36.8592 14.2827 36.8387C14.2672 36.8194 14.2531 36.7988 14.2389 36.7782C14.2247 36.7576 14.2157 36.7461 14.2054 36.7294L14.1835 36.6972L14.1552 36.6522L14.1166 36.5879C13.958 36.247 13.8751 35.8759 13.8738 35.5C13.8724 35.1241 13.9526 34.7524 14.1087 34.4103C14.2649 34.0683 14.4933 33.764 14.7783 33.5184C15.0634 33.2728 15.3983 33.0917 15.76 32.9876C15.8448 32.9634 15.9308 32.9437 16.0176 32.9284C16.359 32.8665 16.7094 32.8735 17.048 32.949C17.1207 32.9645 17.1925 32.9838 17.2631 33.0068C17.5407 33.0908 17.802 33.2213 18.0359 33.3926C18.2692 33.5643 18.4721 33.7738 18.6361 34.0124C18.6735 34.0664 18.7082 34.1217 18.7417 34.1782C19.028 34.791 19.0645 35.4908 18.8437 36.1299C18.6228 36.7691 18.1619 37.2975 17.5581 37.6037Z" fill="#F0F0F0"/>
<path d="M17.3597 36.4388L17.5594 36.8245L17.0712 37.0817L16.8806 36.7152C16.5638 36.8656 16.2164 36.9408 15.8657 36.9351L15.818 36.2048C16.1371 36.2177 16.4542 36.1486 16.7389 36.0042C16.9708 35.8833 17.0274 35.792 16.9849 35.7097C16.8265 35.405 15.6145 36.3462 15.1444 35.4448C14.9409 35.0591 15.0542 34.5782 15.5797 34.204L15.384 33.8272L15.8721 33.5701L16.064 33.9404C16.3185 33.8343 16.592 33.7813 16.8677 33.7848L16.9296 34.5023C16.6621 34.4977 16.3973 34.5563 16.1568 34.6733C15.9172 34.8019 15.8773 34.9061 15.9211 34.9896C16.0717 35.2802 17.285 34.3467 17.75 35.2327C17.9483 35.6017 17.8479 36.0659 17.3597 36.4388Z" fill="#E0E0E0"/>
<path d="M17.2786 36.318L17.4783 36.7037L16.9914 36.9609L16.7995 36.5957C16.4822 36.7447 16.1352 36.8199 15.7846 36.8156L15.7382 36.0852C16.0545 36.098 16.3689 36.0312 16.6527 35.8911C16.8845 35.7702 16.9425 35.6789 16.8987 35.5953C16.739 35.2854 15.5295 36.228 15.0646 35.3279C14.8611 34.9421 14.9731 34.4625 15.4999 34.0883L15.3028 33.7116L15.791 33.4544L15.9842 33.8234C16.2373 33.7146 16.5098 33.6578 16.7853 33.6563L16.8484 34.3751C16.5809 34.3699 16.3159 34.4285 16.0756 34.5461C15.8374 34.6747 15.7961 34.7788 15.8399 34.8611C15.9906 35.1517 17.2039 34.2182 17.6689 35.1054C17.8672 35.4809 17.7694 35.9464 17.2786 36.318Z" fill="#F5F5F5"/>
<path d="M47.1302 26.7386C46.9622 27.3437 46.6223 27.8874 46.1516 28.3039C45.6809 28.7205 45.0995 28.9921 44.4775 29.086C43.8556 29.18 43.2197 29.0922 42.6466 28.8333C42.0736 28.5745 41.5878 28.1555 41.248 27.6271C41.2055 27.5615 41.1655 27.4985 41.1282 27.4252C40.9625 27.1226 40.8456 26.7959 40.7817 26.457C40.7701 26.3901 40.7598 26.3284 40.7508 26.2551C40.6997 25.831 40.733 25.4011 40.8487 24.9898C40.859 24.9513 40.8706 24.9127 40.8835 24.8741C41.0428 24.3759 41.3201 23.9233 41.6918 23.5547C42.0634 23.1861 42.5186 22.9123 43.0187 22.7565C43.5188 22.6008 44.0492 22.5676 44.5649 22.6597C45.0806 22.7519 45.5664 22.9668 45.9813 23.2861C46.0431 23.3337 46.1037 23.3838 46.1616 23.4366C46.4163 23.6631 46.6336 23.9282 46.8056 24.2222C46.843 24.2865 46.8791 24.3508 46.9125 24.4189C47.031 24.6571 47.1197 24.9088 47.1766 25.1686C47.2368 25.4411 47.2611 25.7204 47.2487 25.9992C47.2398 26.209 47.2105 26.4175 47.1611 26.6216C47.1508 26.6614 47.1405 26.7 47.1302 26.7386Z" fill="#F5F5F5"/>
<path d="M46.4656 26.6782C46.4797 26.6139 46.4926 26.5496 46.5016 26.4853C46.546 26.1995 46.5412 25.9081 46.4875 25.6238C46.435 25.3387 46.3349 25.0644 46.1912 24.8125C46.1552 24.7482 46.1152 24.6839 46.074 24.6234C45.8776 24.3374 45.6263 24.0931 45.3347 23.9047C45.2613 23.8597 45.1866 23.8159 45.1093 23.7761C44.9545 23.6978 44.7922 23.6349 44.625 23.5883C43.9791 23.4089 43.2887 23.4848 42.6973 23.8001C42.1058 24.1154 41.6587 24.6461 41.4489 25.2818C41.4592 25.2432 41.4682 25.2046 41.4785 25.1661C41.6641 24.5011 42.1068 23.9369 42.7091 23.5978C43.3114 23.2586 44.024 23.1722 44.6901 23.3575C45.3562 23.5429 45.9213 23.9848 46.261 24.5861C46.6007 25.1874 46.6873 25.8988 46.5016 26.5638L46.4656 26.6782Z" fill="#E0E0E0"/>
<g opacity="0.3">
<path d="M43.2894 28.3704L43.2005 28.3447L43.1117 28.3151L43.0898 28.3074L42.997 28.2714H42.9829C42.8833 28.2296 42.7865 28.1815 42.6931 28.1274C42.6622 28.1094 42.63 28.0914 42.6003 28.0721C42.5385 28.0335 42.4806 27.9924 42.4226 27.9499L42.3685 27.9075L42.3389 27.8831L42.2977 27.8432C42.2758 27.8239 42.2539 27.8059 42.2333 27.7853L42.1534 27.7095C42.1276 27.6838 42.1019 27.6568 42.0774 27.6298C42.0529 27.6028 42.0362 27.586 42.0169 27.5616C41.9976 27.5372 41.9911 27.532 41.9795 27.5166L41.9486 27.4793L41.9151 27.4356C41.8971 27.4125 41.8791 27.388 41.8623 27.3636C41.8456 27.3392 41.8327 27.3212 41.8185 27.298L41.8082 27.2839L41.749 27.1887L41.6987 27.0974C41.6884 27.0781 41.6794 27.0588 41.6704 27.0408C41.6614 27.0228 41.6511 27.0023 41.6421 26.983C41.6331 26.9637 41.6253 26.947 41.6163 26.9277C41.6073 26.9084 41.5983 26.8878 41.5906 26.8673L41.5674 26.8081C41.5596 26.7888 41.5519 26.7695 41.5455 26.749C41.53 26.7078 41.5159 26.6667 41.503 26.6204L41.4875 26.5677C41.4759 26.5265 41.4656 26.4828 41.4553 26.4391C41.4553 26.4185 41.4463 26.3979 41.4424 26.3774C41.4283 26.3105 41.418 26.2488 41.409 26.1768C41.409 26.1588 41.409 26.1408 41.409 26.1228C41.409 26.0829 41.4012 26.043 41.3999 26.0019C41.3999 25.9607 41.3999 25.9209 41.3999 25.881V25.8244C41.3999 25.8142 41.3999 25.8052 41.3999 25.7962C41.3999 25.7871 41.3999 25.7563 41.3999 25.7357C41.3994 25.7327 41.3994 25.7297 41.3999 25.7267C41.3999 25.7049 41.3999 25.6817 41.3999 25.6599L41.4077 25.5853C41.4077 25.5596 41.4077 25.5351 41.4167 25.5107C41.4257 25.4863 41.4167 25.4721 41.4257 25.4515C41.4347 25.431 41.4257 25.4271 41.4257 25.4143C41.4257 25.4014 41.4321 25.3795 41.436 25.3615L41.4515 25.2882C41.6613 24.6525 42.1084 24.1219 42.6999 23.8065C43.2913 23.4912 43.9817 23.4154 44.6276 23.5948C44.7948 23.6413 44.9571 23.7042 45.1119 23.7825C45.1892 23.8224 45.2639 23.8661 45.3373 23.9111C45.6289 24.0995 45.8802 24.3438 46.0766 24.6299C46.1178 24.6903 46.1578 24.7585 46.1938 24.8189C46.3375 25.0709 46.4376 25.3451 46.4901 25.6303C46.5438 25.9146 46.5486 26.2059 46.5042 26.4918C46.4952 26.5561 46.4823 26.6204 46.4682 26.6847C46.2565 27.3194 45.8083 27.8484 45.2165 28.1623C44.6247 28.4761 43.9347 28.5506 43.2894 28.3704Z" fill="black"/>
</g>
<path d="M43.2894 28.3704L43.2005 28.3447L43.1117 28.3151L43.0898 28.3074L42.997 28.2714H42.9829C42.8833 28.2296 42.7865 28.1815 42.6931 28.1274C42.6622 28.1094 42.63 28.0914 42.6003 28.0721C42.5385 28.0335 42.4806 27.9924 42.4226 27.9499L42.3994 27.9319C42.3881 27.9241 42.3774 27.9155 42.3672 27.9062L42.3376 27.8818L42.2977 27.8432C42.2758 27.8239 42.2539 27.8059 42.2333 27.7853L42.1534 27.7095C42.1276 27.6838 42.1019 27.6568 42.0774 27.6298C42.0529 27.6028 42.0362 27.586 42.0169 27.5616C41.9976 27.5372 41.9911 27.532 41.9795 27.5166L41.9486 27.4793L41.9151 27.4356C41.8971 27.4125 41.8791 27.388 41.8623 27.3636C41.8456 27.3392 41.8327 27.3212 41.8185 27.298L41.8082 27.2839L41.749 27.1887L41.6987 27.0974C41.6884 27.0781 41.6794 27.0588 41.6704 27.0408C41.6614 27.0228 41.6511 27.0023 41.6421 26.983C41.6331 26.9637 41.6253 26.947 41.6163 26.9277C41.6073 26.9084 41.5983 26.8878 41.5906 26.8673L41.5674 26.8081C41.5596 26.7888 41.5519 26.7695 41.5455 26.749C41.53 26.7078 41.5159 26.6667 41.503 26.6204L41.4875 26.5677C41.4759 26.5265 41.4656 26.4828 41.4553 26.4391C41.4553 26.4185 41.4463 26.3979 41.4424 26.3774C41.4283 26.3105 41.418 26.2488 41.409 26.1768C41.409 26.1588 41.409 26.1408 41.409 26.1228C41.409 26.0829 41.4012 26.043 41.3999 26.0019C41.3999 25.9607 41.3999 25.9209 41.3999 25.881V25.8244C41.3999 25.8142 41.3999 25.8052 41.3999 25.7962C41.3999 25.7871 41.3999 25.7563 41.3999 25.7357C41.3994 25.7327 41.3994 25.7297 41.3999 25.7267C41.3999 25.7049 41.3999 25.6817 41.3999 25.6599L41.4077 25.5853C41.4077 25.5596 41.4077 25.5351 41.4167 25.5107C41.4257 25.4863 41.4167 25.4721 41.4257 25.4515C41.4347 25.431 41.4257 25.4271 41.4257 25.4143C41.4257 25.4014 41.4321 25.3795 41.436 25.3615L41.4515 25.2882C41.6613 24.6525 42.1084 24.1219 42.6999 23.8065C43.2913 23.4912 43.9817 23.4154 44.6276 23.5948C44.7948 23.6413 44.9571 23.7042 45.1119 23.7825C45.1892 23.8224 45.2639 23.8661 45.3373 23.9111C45.6289 24.0995 45.8802 24.3438 46.0766 24.6299C46.1178 24.6903 46.1578 24.7585 46.1938 24.8189C46.3375 25.0709 46.4376 25.3451 46.4901 25.6303C46.5438 25.9146 46.5486 26.2059 46.5042 26.4918C46.4952 26.5561 46.4823 26.6204 46.4682 26.6847C46.2565 27.3194 45.8083 27.8484 45.2165 28.1623C44.6247 28.4761 43.9347 28.5506 43.2894 28.3704Z" fill="#F0F0F0"/>
<path d="M43.9411 27.384L43.8252 27.7994L43.2946 27.6528L43.4066 27.2555C43.0722 27.1485 42.7669 26.9664 42.514 26.7231L42.979 26.1574C43.2011 26.3829 43.4766 26.5488 43.7801 26.6395C44.0377 26.709 44.1369 26.682 44.1665 26.592C44.258 26.2615 42.7291 26.1239 43.0073 25.1441C43.1258 24.7198 43.5328 24.4498 44.173 24.5346L44.2876 24.1257L44.817 24.2736L44.7049 24.6748C44.9659 24.7689 45.2049 24.9155 45.4069 25.1055L44.9612 25.6726C44.7704 25.4875 44.5382 25.3504 44.2837 25.2727C44.0261 25.2007 43.9205 25.2534 43.8973 25.3434C43.8098 25.6585 45.3373 25.7999 45.0668 26.7681C44.9432 27.1732 44.5516 27.4445 43.9411 27.384Z" fill="#E0E0E0"/>
<path d="M43.9643 27.2414L43.8484 27.6567L43.3178 27.5101L43.4298 27.1115C43.0953 27.0055 42.7898 26.8237 42.5372 26.5804L43.0035 26.0147C43.2249 26.2405 43.5001 26.4064 43.8033 26.4968C44.0609 26.5663 44.1601 26.5393 44.1897 26.4493C44.2812 26.1188 42.7536 25.9812 43.0305 25.0014C43.149 24.5771 43.556 24.3071 44.1975 24.3919L44.3108 23.983L44.8414 24.1309L44.7281 24.5321C44.9894 24.6265 45.2287 24.7731 45.4313 24.9628L44.9767 25.5286C44.7859 25.3435 44.5537 25.2064 44.2992 25.1287C44.0416 25.0567 43.936 25.1094 43.9128 25.1994C43.8252 25.5145 45.3528 25.6559 45.0823 26.6241C44.9664 27.0305 44.5748 27.3018 43.9643 27.2414Z" fill="#F5F5F5"/>
<path d="M24.6021 12.0914L24.0251 16.6677L20.0182 12.6675L24.6021 12.0914Z" fill="#F5F5F5"/>
<path d="M11.4506 26.3578L23.4881 14.3404L22.3045 13.1587L11.4506 23.9945V26.3578Z" fill="#F5F5F5"/>
<path d="M16.3525 8.28923C16.3525 8.31196 16.348 8.33447 16.3393 8.35546C16.3305 8.37645 16.3177 8.3955 16.3015 8.41152C16.2854 8.42754 16.2662 8.4402 16.2451 8.44878C16.224 8.45737 16.2014 8.4617 16.1787 8.46153H15.4934V9.14817C15.4897 9.19146 15.4698 9.23178 15.4378 9.26115C15.4057 9.29053 15.3637 9.30683 15.3202 9.30683C15.2767 9.30683 15.2347 9.29053 15.2027 9.26115C15.1706 9.23178 15.1507 9.19146 15.147 9.14817V8.46153H14.4592C14.4145 8.4602 14.3721 8.44163 14.3409 8.40974C14.3097 8.37785 14.2921 8.33511 14.2917 8.29051C14.2917 8.24481 14.3099 8.20099 14.3423 8.16868C14.3747 8.13636 14.4186 8.11821 14.4643 8.11821H15.1521V7.42514C15.1559 7.38185 15.1757 7.34153 15.2078 7.31215C15.2399 7.28278 15.2818 7.26648 15.3254 7.26648C15.3689 7.26648 15.4108 7.28278 15.4429 7.31215C15.475 7.34153 15.4949 7.38185 15.4986 7.42514V8.11178H16.1864C16.2319 8.11346 16.275 8.13306 16.3061 8.1663C16.3372 8.19955 16.3539 8.24374 16.3525 8.28923Z" fill="#F5F5F5"/>
<path d="M59.8261 9.88741C59.8261 9.91015 59.8216 9.93266 59.8128 9.95365C59.8041 9.97464 59.7912 9.99369 59.7751 10.0097C59.7589 10.0257 59.7397 10.0384 59.7186 10.047C59.6976 10.0556 59.675 10.0599 59.6522 10.0597H58.9644V10.7464C58.9665 10.7703 58.9635 10.7945 58.9558 10.8172C58.948 10.84 58.9356 10.8609 58.9193 10.8786C58.903 10.8964 58.8832 10.9105 58.8612 10.9202C58.8391 10.9299 58.8153 10.9349 58.7912 10.9349C58.7671 10.9349 58.7433 10.9299 58.7212 10.9202C58.6991 10.9105 58.6793 10.8964 58.6631 10.8786C58.6468 10.8609 58.6343 10.84 58.6266 10.8172C58.6188 10.7945 58.6159 10.7703 58.6179 10.7464V10.061H57.9302C57.8844 10.061 57.8405 10.0428 57.8081 10.0105C57.7758 9.97822 57.7576 9.93439 57.7576 9.8887C57.7579 9.8431 57.7762 9.79947 57.8085 9.76723C57.8408 9.73499 57.8845 9.71673 57.9302 9.71639H58.6179V9.02976C58.6217 8.98646 58.6416 8.94615 58.6736 8.91677C58.7057 8.88739 58.7477 8.87109 58.7912 8.87109C58.8347 8.87109 58.8767 8.88739 58.9087 8.91677C58.9408 8.94615 58.9607 8.98646 58.9644 9.02976V9.71639H59.6522C59.6979 9.71639 59.7417 9.73432 59.7743 9.76632C59.8068 9.79832 59.8254 9.84182 59.8261 9.88741Z" fill="#F5F5F5"/>
<path d="M35.2138 35.8154C35.2134 35.8612 35.195 35.905 35.1624 35.9373C35.1298 35.9696 35.0858 35.9877 35.0399 35.9877H34.3508V36.6743C34.3529 36.6983 34.35 36.7224 34.3422 36.7452C34.3344 36.768 34.322 36.7889 34.3057 36.8066C34.2894 36.8243 34.2696 36.8385 34.2476 36.8482C34.2255 36.8578 34.2017 36.8628 34.1776 36.8628C34.1535 36.8628 34.1297 36.8578 34.1076 36.8482C34.0856 36.8385 34.0658 36.8243 34.0495 36.8066C34.0332 36.7889 34.0208 36.768 34.013 36.7452C34.0052 36.7224 34.0023 36.6983 34.0044 36.6743V35.9877H33.3166C33.2707 35.9877 33.2267 35.9696 33.1941 35.9373C33.1615 35.905 33.143 35.8612 33.1427 35.8154C33.1434 35.7697 33.1619 35.726 33.1944 35.6938C33.2269 35.6616 33.2708 35.6434 33.3166 35.6431H34.0044V34.9565C34.0081 34.9132 34.028 34.8728 34.0601 34.8435C34.0921 34.8141 34.1341 34.7978 34.1776 34.7978C34.2211 34.7978 34.2631 34.8141 34.2951 34.8435C34.3272 34.8728 34.3471 34.9132 34.3508 34.9565V35.6431H35.0386C35.0846 35.6431 35.1288 35.6612 35.1616 35.6934C35.1944 35.7256 35.2131 35.7695 35.2138 35.8154Z" fill="#F5F5F5"/>
<path d="M48.3667 19.0994C48.122 18.5285 47.5038 17.4612 46.2261 17.1706C45.0579 16.9045 44.1743 18.3793 43.4505 18.4873C42.7266 18.5953 42.8065 18.27 41.3562 17.7274C40.1172 17.2619 39.2864 18.4706 38.9915 19.0994H48.3667Z" fill="#F5F5F5"/>
<path d="M33.9027 9.18543C33.9027 9.18543 33.9027 7.88674 32.625 7.83144C32.0132 7.80573 31.2675 8.30463 30.7961 7.51513C30.2487 6.59832 29.2917 6.05184 28.43 6.40673C27.4782 6.79249 26.9385 8.30206 26.0086 8.17862C25.0787 8.05518 23.3038 7.43798 22.3881 9.18543H33.9027Z" fill="#F5F5F5"/>
<path d="M28.8746 52C39.5298 52 48.1675 51.6505 48.1675 51.2195C48.1675 50.7884 39.5298 50.439 28.8746 50.439C18.2194 50.439 9.58167 50.7884 9.58167 51.2195C9.58167 51.6505 18.2194 52 28.8746 52Z" fill="#F0F0F0"/>
<path d="M26.9468 25.7907C26.7865 26.4777 26.4741 27.1199 26.0325 27.67C25.5909 28.2201 25.0315 28.6641 24.3954 28.9692C23.7594 29.2743 23.063 29.4326 22.3575 29.4327C21.6521 29.4327 20.9557 29.2743 20.3196 28.9693C19.938 28.7867 19.5832 28.5526 19.2652 28.2736C18.9862 28.0288 18.7367 27.7522 18.522 27.4494C18.4564 27.3568 18.3934 27.2617 18.3368 27.1652C18.0784 26.7387 17.8891 26.2739 17.7762 25.7881C17.7543 25.6917 17.7351 25.5965 17.7183 25.4988C17.6169 24.8892 17.637 24.2656 17.7775 23.6639C17.7903 23.6073 17.8045 23.5507 17.8212 23.4954C18.0194 22.7655 18.3905 22.094 18.9031 21.5377C19.4156 20.9815 20.0546 20.5569 20.766 20.2999C21.4774 20.0428 22.2402 19.9609 22.99 20.061C23.7397 20.161 24.4543 20.4402 25.0733 20.8749C25.1659 20.9405 25.2559 21.0035 25.3434 21.0806C25.7246 21.3918 26.0544 21.7611 26.3206 22.1749C26.3785 22.2649 26.435 22.3575 26.4865 22.4513C26.8692 23.1444 27.0713 23.9227 27.0741 24.7144C27.0736 25.0165 27.0448 25.3178 26.988 25.6145C26.9712 25.6762 26.9597 25.7341 26.9468 25.7907Z" fill="#407BFF"/>
<path d="M26.9468 25.7907C26.7865 26.4777 26.4741 27.1199 26.0325 27.67C25.5909 28.2201 25.0315 28.6641 24.3954 28.9692C23.7594 29.2743 23.063 29.4326 22.3575 29.4327C21.6521 29.4327 20.9557 29.2743 20.3196 28.9693C19.938 28.7867 19.5832 28.5526 19.2652 28.2736C18.9862 28.0288 18.7367 27.7522 18.522 27.4494C18.4564 27.3568 18.3934 27.2617 18.3368 27.1652C18.0784 26.7387 17.8891 26.2739 17.7762 25.7881C17.7543 25.6917 17.7351 25.5965 17.7183 25.4988C17.6169 24.8892 17.637 24.2656 17.7775 23.6639C17.7903 23.6073 17.8045 23.5507 17.8212 23.4954C18.0194 22.7655 18.3905 22.094 18.9031 21.5377C19.4156 20.9815 20.0546 20.5569 20.766 20.2999C21.4774 20.0428 22.2402 19.9609 22.99 20.061C23.7397 20.161 24.4543 20.4402 25.0733 20.8749C25.1659 20.9405 25.2559 21.0035 25.3434 21.0806C25.7246 21.3918 26.0544 21.7611 26.3206 22.1749C26.3785 22.2649 26.435 22.3575 26.4865 22.4513C26.8692 23.1444 27.0713 23.9227 27.0741 24.7144C27.0736 25.0165 27.0448 25.3178 26.988 25.6145C26.9712 25.6762 26.9597 25.7341 26.9468 25.7907Z" fill="#407BFF"/>
<path opacity="0.6" d="M25.9838 25.7444C26.0006 25.6519 26.0147 25.558 26.0237 25.4641C26.1108 24.6249 25.9134 23.7808 25.4631 23.0673C25.4065 22.9756 25.3461 22.8869 25.2818 22.8012C24.9808 22.4002 24.6026 22.0635 24.1695 21.8111C24.0615 21.7481 23.9503 21.6905 23.8365 21.6388C23.3423 21.4133 22.8052 21.2976 22.262 21.2994C21.7188 21.3013 21.1825 21.4208 20.6899 21.6496C20.1973 21.8784 19.76 22.2112 19.4082 22.6251C19.0565 23.039 18.7985 23.5241 18.652 24.0471C18.6636 23.9906 18.6751 23.934 18.688 23.8774C18.9379 22.9315 19.5463 22.12 20.3843 21.6151C21.2223 21.1101 22.224 20.9514 23.1771 21.1724C24.1302 21.3935 24.9598 21.977 25.4899 22.7992C26.0201 23.6215 26.2093 24.6179 26.0173 25.5773C26.0134 25.6339 25.998 25.6904 25.9838 25.7444Z" fill="black"/>
<g opacity="0.3">
<path d="M21.5092 28.3933C21.4654 28.3843 21.423 28.3727 21.3806 28.3611L21.252 28.3238L21.2198 28.3135L21.0823 28.2672L21.063 28.2595C20.9165 28.2059 20.7735 28.1432 20.6348 28.0718C20.5885 28.0474 20.5422 28.0229 20.4972 27.9959C20.4059 27.9445 20.3185 27.8905 20.24 27.8313L20.159 27.7735L20.114 27.74L20.051 27.6912C20.0189 27.6668 19.9867 27.641 19.9546 27.6127C19.9224 27.5845 19.8736 27.5446 19.835 27.5073C19.7964 27.47 19.7566 27.4353 19.7193 27.398C19.682 27.3607 19.6588 27.3363 19.6293 27.3041C19.5997 27.272 19.5894 27.263 19.5714 27.2411C19.5534 27.2193 19.5405 27.2064 19.5251 27.1897L19.4737 27.128L19.3927 27.0264C19.3695 26.9968 19.3464 26.9673 19.3258 26.9364L19.3104 26.9158C19.2795 26.8721 19.2487 26.8271 19.2191 26.7872C19.1895 26.7474 19.1651 26.7024 19.1394 26.6587V26.6522C19.1239 26.6265 19.1085 26.5995 19.0944 26.5725C19.0802 26.5455 19.0648 26.5185 19.0506 26.4915L19.0095 26.4131C18.9966 26.3848 18.9812 26.3565 18.9683 26.3282L18.9311 26.2433C18.9182 26.2163 18.9066 26.188 18.8951 26.1597C18.8706 26.1019 18.8488 26.0427 18.8269 25.981L18.8012 25.9077C18.7806 25.8473 18.7626 25.7856 18.7472 25.7251C18.7382 25.6943 18.7305 25.6647 18.7227 25.6351C18.6996 25.54 18.6803 25.4448 18.6636 25.3484L18.652 25.2712C18.643 25.2134 18.6366 25.1555 18.6302 25.0976V25.0886C18.6302 25.0308 18.6199 24.9716 18.6173 24.9138V24.8328V24.7839C18.6173 24.7556 18.6173 24.726 18.6173 24.6977V24.6849C18.6173 24.6515 18.6173 24.6193 18.6173 24.5859C18.6173 24.5524 18.6173 24.5139 18.6173 24.4779C18.6173 24.4419 18.6173 24.4059 18.625 24.3711C18.6327 24.3364 18.625 24.3133 18.6353 24.285C18.6456 24.2567 18.6353 24.2477 18.6353 24.2297C18.6353 24.2117 18.6417 24.1796 18.6456 24.1538C18.6495 24.1281 18.6572 24.0818 18.6636 24.0458C18.8101 23.5228 19.0681 23.0376 19.4199 22.6238C19.7717 22.2099 20.2089 21.8771 20.7015 21.6483C21.1941 21.4194 21.7304 21.3 22.2736 21.2981C22.8168 21.2962 23.3539 21.412 23.8481 21.6375C23.9619 21.6892 24.0731 21.7467 24.1811 21.8098C24.6143 22.0622 24.9925 22.3989 25.2934 22.7998C25.3577 22.8856 25.4181 22.9743 25.4747 23.066C25.9232 23.7801 26.1189 24.6242 26.0302 25.4628C26.0212 25.5567 26.007 25.6506 25.9903 25.7431C25.7277 26.6765 25.1154 27.4727 24.2809 27.9663C23.4463 28.4598 22.4536 28.6128 21.5092 28.3933Z" fill="black"/>
</g>
<g opacity="0.6">
<path d="M22.3873 26.9262L22.2459 27.5344L21.4769 27.3557L21.6055 26.7745C21.1179 26.6431 20.6666 26.4021 20.2863 26.0698L20.9215 25.2225C21.2563 25.5338 21.6646 25.755 22.1083 25.8654C22.476 25.9515 22.6226 25.9052 22.6561 25.7728C22.7679 25.2906 20.5537 25.1877 20.8855 23.7553C21.0295 23.1355 21.6004 22.7189 22.5288 22.8012L22.6676 22.202L23.4391 22.382L23.3028 22.9697C23.6852 23.0889 24.0392 23.2849 24.3431 23.5457L23.7362 24.3931C23.4479 24.1392 23.1039 23.9568 22.7319 23.8608C22.3539 23.772 22.2073 23.8543 22.1764 23.9893C22.0697 24.451 24.2826 24.559 23.9548 25.9747C23.8197 26.5585 23.2771 26.9699 22.3873 26.9262Z" fill="black"/>
</g>
<path d="M22.4118 26.7128L22.2704 27.3223L21.4989 27.1422L21.6274 26.5611C21.1387 26.4279 20.687 26.1847 20.3069 25.85L20.9421 25.0026C21.2769 25.3139 21.6853 25.5352 22.1289 25.6455C22.4967 25.7304 22.6433 25.6841 22.6767 25.553C22.7886 25.0695 20.5743 24.9666 20.9061 23.5342C21.0501 22.9144 21.621 22.4978 22.5494 22.5801L22.6883 21.9822L23.4598 22.1609L23.3235 22.7485C23.7058 22.8677 24.0598 23.0638 24.3637 23.3246L23.7568 24.1732C23.469 23.9184 23.1248 23.7355 22.7526 23.6396C22.3745 23.5522 22.2279 23.6396 22.1971 23.7682C22.0903 24.2285 24.3033 24.3365 23.9754 25.7523C23.8442 26.3502 23.2965 26.7668 22.4118 26.7128Z" fill="#407BFF"/>
<path d="M50.9211 46.0424C50.7608 46.7294 50.4483 47.3717 50.0068 47.9218C49.5652 48.4719 49.0057 48.9159 48.3697 49.221C47.7336 49.526 47.0372 49.6844 46.3318 49.6844C45.6263 49.6844 44.9299 49.5261 44.2938 49.221C43.9122 49.0384 43.5575 48.8044 43.2394 48.5254C42.9604 48.2806 42.711 48.004 42.4962 47.7012C42.4307 47.6086 42.3676 47.5134 42.3111 47.417C42.0526 46.9905 41.8634 46.5257 41.7504 46.0399C41.7286 45.9434 41.7093 45.8483 41.6926 45.7506C41.5912 45.141 41.6113 44.5174 41.7517 43.9157C41.7646 43.8591 41.7787 43.8025 41.7954 43.7472C41.9936 43.0172 42.3647 42.3457 42.8773 41.7895C43.3899 41.2333 44.0289 40.8087 44.7403 40.5516C45.4516 40.2946 46.2145 40.2126 46.9642 40.3127C47.7139 40.4128 48.4286 40.692 49.0476 41.1267C49.1402 41.1923 49.2302 41.2553 49.3176 41.3324C49.6988 41.6435 50.0286 42.0128 50.2948 42.4267C50.3527 42.5167 50.4093 42.6092 50.4607 42.7031C50.8435 43.3962 51.0456 44.1745 51.0483 44.9662C51.0479 45.2683 51.019 45.5696 50.9622 45.8663C50.9455 45.928 50.9339 45.9859 50.9211 46.0424Z" fill="#407BFF"/>
<path d="M50.9211 46.0424C50.7608 46.7294 50.4483 47.3717 50.0068 47.9218C49.5652 48.4719 49.0057 48.9159 48.3697 49.221C47.7336 49.526 47.0372 49.6844 46.3318 49.6844C45.6263 49.6844 44.9299 49.5261 44.2938 49.221C43.9122 49.0384 43.5575 48.8044 43.2394 48.5254C42.9604 48.2806 42.711 48.004 42.4962 47.7012C42.4307 47.6086 42.3676 47.5134 42.3111 47.417C42.0526 46.9905 41.8634 46.5257 41.7504 46.0399C41.7286 45.9434 41.7093 45.8483 41.6926 45.7506C41.5912 45.141 41.6113 44.5174 41.7517 43.9157C41.7646 43.8591 41.7787 43.8025 41.7954 43.7472C41.9936 43.0172 42.3647 42.3457 42.8773 41.7895C43.3899 41.2333 44.0289 40.8087 44.7403 40.5516C45.4516 40.2946 46.2145 40.2126 46.9642 40.3127C47.7139 40.4128 48.4286 40.692 49.0476 41.1267C49.1402 41.1923 49.2302 41.2553 49.3176 41.3324C49.6988 41.6435 50.0286 42.0128 50.2948 42.4267C50.3527 42.5167 50.4093 42.6092 50.4607 42.7031C50.8435 43.3962 51.0456 44.1745 51.0483 44.9662C51.0479 45.2683 51.019 45.5696 50.9622 45.8663C50.9455 45.928 50.9339 45.9859 50.9211 46.0424Z" fill="#407BFF"/>
<path opacity="0.6" d="M49.9578 45.9962C49.9745 45.9036 49.9887 45.8097 49.9977 45.7158C50.0848 44.8766 49.8874 44.0325 49.4371 43.319C49.3805 43.2273 49.3201 43.1386 49.2558 43.0529C48.9548 42.6519 48.5766 42.3152 48.1435 42.0628C48.0355 41.9998 47.9243 41.9423 47.8105 41.8905C47.3163 41.665 46.7792 41.5493 46.236 41.5511C45.6928 41.553 45.1565 41.6725 44.6639 41.9013C44.1713 42.1301 43.734 42.4629 43.3822 42.8768C43.0305 43.2907 42.7725 43.7758 42.626 44.2988C42.6375 44.2423 42.6491 44.1857 42.662 44.1291C42.9119 43.1832 43.5203 42.3718 44.3583 41.8668C45.1963 41.3618 46.198 41.2031 47.1511 41.4241C48.1042 41.6452 48.9338 42.2287 49.4639 43.0509C49.9941 43.8732 50.1833 44.8696 49.9913 45.829C49.9874 45.8856 49.972 45.9421 49.9578 45.9962Z" fill="black"/>
<g opacity="0.3">
<path d="M45.4832 48.645C45.4394 48.636 45.397 48.6244 45.3546 48.6128L45.226 48.5755L45.1938 48.5652L45.0563 48.5189L45.037 48.5112C44.8905 48.4576 44.7475 48.3949 44.6088 48.3235C44.5625 48.2991 44.5162 48.2746 44.4712 48.2476C44.3799 48.1962 44.2925 48.1422 44.214 48.083L44.133 48.0252L44.088 47.9918L44.025 47.9429C43.9929 47.9185 43.9607 47.8927 43.9286 47.8645C43.8964 47.8362 43.8476 47.7963 43.809 47.759C43.7704 47.7217 43.7306 47.687 43.6933 47.6497C43.656 47.6124 43.6328 47.588 43.6033 47.5559C43.5737 47.5237 43.5634 47.5147 43.5454 47.4928C43.5274 47.471 43.5145 47.4581 43.4991 47.4414L43.4477 47.3797L43.3667 47.2781C43.3435 47.2485 43.3204 47.219 43.2998 47.1881L43.2844 47.1675C43.2535 47.1238 43.2227 47.0788 43.1931 47.0389C43.1635 46.9991 43.1391 46.9541 43.1134 46.9104V46.9039C43.0979 46.8782 43.0825 46.8512 43.0684 46.8242C43.0542 46.7972 43.0388 46.7702 43.0246 46.7432L42.9835 46.6648C42.9706 46.6365 42.9552 46.6082 42.9423 46.5799L42.9051 46.495C42.8922 46.468 42.8806 46.4397 42.869 46.4115C42.8446 46.3536 42.8228 46.2944 42.8009 46.2327L42.7752 46.1594C42.7546 46.099 42.7366 46.0373 42.7212 45.9768C42.7122 45.946 42.7045 45.9164 42.6967 45.8868C42.6736 45.7917 42.6543 45.6965 42.6376 45.6001L42.626 45.5229C42.617 45.4651 42.6106 45.4072 42.6042 45.3494V45.3404C42.6042 45.2825 42.5939 45.2233 42.5913 45.1655V45.0845V45.0356C42.5913 45.0073 42.5913 44.9777 42.5913 44.9495V44.9366C42.5913 44.9032 42.5913 44.871 42.5913 44.8376C42.5913 44.8042 42.5913 44.7656 42.5913 44.7296C42.5913 44.6936 42.5913 44.6576 42.599 44.6229C42.6067 44.5881 42.599 44.565 42.6093 44.5367C42.6196 44.5084 42.6093 44.4994 42.6093 44.4814C42.6093 44.4634 42.6157 44.4313 42.6196 44.4055C42.6235 44.3798 42.6312 44.3335 42.6376 44.2975C42.7841 43.7745 43.0421 43.2894 43.3939 42.8755C43.7457 42.4616 44.1829 42.1288 44.6755 41.9C45.1681 41.6712 45.7044 41.5517 46.2476 41.5498C46.7908 41.548 47.3279 41.6637 47.8221 41.8892C47.9359 41.9409 48.0471 41.9984 48.1551 42.0615C48.5883 42.3139 48.9665 42.6506 49.2674 43.0516C49.3317 43.1373 49.3921 43.226 49.4487 43.3177C49.8972 44.0318 50.0929 44.8759 50.0042 45.7145C49.9952 45.8084 49.981 45.9023 49.9643 45.9948C49.7017 46.9282 49.0894 47.7244 48.2549 48.218C47.4203 48.7116 46.4276 48.8645 45.4832 48.645Z" fill="black"/>
</g>
<g opacity="0.6">
<path d="M46.3614 47.1778L46.22 47.786L45.4511 47.6073L45.5796 47.0261C45.092 46.8947 44.6408 46.6537 44.2604 46.3214L44.8956 45.4741C45.2304 45.7854 45.6388 46.0066 46.0824 46.117C46.4502 46.2031 46.5967 46.1568 46.6302 46.0244C46.742 45.5422 44.5278 45.4393 44.8596 44.0069C45.0036 43.3871 45.5745 42.9705 46.5029 43.0528L46.6417 42.4536L47.4133 42.6336L47.277 43.2213C47.6593 43.3405 48.0133 43.5365 48.3172 43.7973L47.7103 44.6447C47.422 44.3908 47.078 44.2084 46.706 44.1123C46.328 44.0236 46.1814 44.1059 46.1506 44.2409C46.0438 44.7025 48.2568 44.8106 47.9289 46.2263C47.7939 46.81 47.2512 47.2215 46.3614 47.1778Z" fill="black"/>
</g>
<path d="M46.3858 46.9644L46.2444 47.5739L45.4729 47.3938L45.6014 46.8126C45.1127 46.6795 44.661 46.4363 44.2809 46.1016L44.9161 45.2542C45.2509 45.5655 45.6593 45.7867 46.1029 45.8971C46.4707 45.982 46.6173 45.9357 46.6507 45.8045C46.7626 45.3211 44.5483 45.2182 44.8801 43.7858C45.0241 43.166 45.595 42.7494 46.5234 42.8317L46.6623 42.2338L47.4338 42.4125L47.2975 43.0001C47.6798 43.1193 48.0338 43.3154 48.3377 43.5762L47.7308 44.4248C47.443 44.17 47.0988 43.9871 46.7265 43.8912C46.3485 43.8038 46.2019 43.8912 46.1711 44.0198C46.0643 44.4801 48.2773 44.5881 47.9494 46.0038C47.8182 46.6018 47.2705 47.0184 46.3858 46.9644Z" fill="#407BFF"/>
<path d="M24.2582 36.6214L25.6443 38.0088L12.5172 51.1347H14.8819L26.8273 39.1918L28.2597 40.6229L28.8358 36.0453L24.2582 36.6214Z" fill="#407BFF"/>
<g opacity="0.3">
<path d="M24.2582 36.6214L25.6443 38.0088L12.5172 51.1347H14.8819L26.8273 39.1918L28.2597 40.6229L28.8358 36.0453L24.2582 36.6214Z" fill="white"/>
</g>
<path d="M29.8091 12.1402L30.1833 12.0335L29.9441 11.2029L29.5121 11.3314C29.3884 11.1914 29.2333 11.0826 29.0595 11.0138V10.5767H28.1954V11.0138C28.0598 11.0676 27.9352 11.1456 27.8276 11.244L27.4419 11.0588L27.0638 11.8304L27.4432 12.0155C27.4432 12.0464 27.4432 12.0785 27.4432 12.1094C27.4432 12.3115 27.495 12.5103 27.5936 12.6867L27.3094 13.0429L27.9845 13.5817L28.261 13.2358C28.3793 13.2741 28.503 13.2937 28.6274 13.2936C28.7184 13.2935 28.809 13.2827 28.8975 13.2615L29.1469 13.6125L29.8515 13.1123L29.6085 12.7703C29.7344 12.5839 29.8041 12.3652 29.8091 12.1402ZM27.8495 12.1094C27.8495 11.9571 27.8946 11.8082 27.9791 11.6814C28.0636 11.5547 28.1837 11.4558 28.3243 11.3972C28.4649 11.3387 28.6197 11.323 28.7692 11.3523C28.9186 11.3815 29.0561 11.4544 29.1643 11.5616C29.2724 11.6689 29.3464 11.8057 29.3769 11.955C29.4074 12.1042 29.393 12.2591 29.3356 12.4002C29.2782 12.5413 29.1803 12.6622 29.0543 12.7477C28.9283 12.8333 28.7797 12.8796 28.6274 12.8809C28.4223 12.8806 28.2256 12.7994 28.08 12.6549C27.9343 12.5105 27.8515 12.3145 27.8495 12.1094Z" fill="#407BFF"/>
<path opacity="0.6" d="M29.8091 12.1402L30.1833 12.0335L29.9441 11.2029L29.5121 11.3314C29.3884 11.1914 29.2333 11.0826 29.0595 11.0138V10.5767H28.1954V11.0138C28.0598 11.0676 27.9352 11.1456 27.8276 11.244L27.4419 11.0588L27.0638 11.8304L27.4432 12.0155C27.4432 12.0464 27.4432 12.0785 27.4432 12.1094C27.4432 12.3115 27.495 12.5103 27.5936 12.6867L27.3094 13.0429L27.9845 13.5817L28.261 13.2358C28.3793 13.2741 28.503 13.2937 28.6274 13.2936C28.7184 13.2935 28.809 13.2827 28.8975 13.2615L29.1469 13.6125L29.8515 13.1123L29.6085 12.7703C29.7344 12.5839 29.8041 12.3652 29.8091 12.1402ZM27.8495 12.1094C27.8495 11.9571 27.8946 11.8082 27.9791 11.6814C28.0636 11.5547 28.1837 11.4558 28.3243 11.3972C28.4649 11.3387 28.6197 11.323 28.7692 11.3523C28.9186 11.3815 29.0561 11.4544 29.1643 11.5616C29.2724 11.6689 29.3464 11.8057 29.3769 11.955C29.4074 12.1042 29.393 12.2591 29.3356 12.4002C29.2782 12.5413 29.1803 12.6622 29.0543 12.7477C28.9283 12.8333 28.7797 12.8796 28.6274 12.8809C28.4223 12.8806 28.2256 12.7994 28.08 12.6549C27.9343 12.5105 27.8515 12.3145 27.8495 12.1094Z" fill="white"/>
<path d="M36.781 31.7315L37.1539 31.6247L36.916 30.8005L36.484 30.9291C36.3602 30.789 36.2051 30.6802 36.0313 30.6115V30.1576H35.1634V30.5948C35.0277 30.6482 34.903 30.7262 34.7956 30.8249L34.4099 30.6398L34.0319 31.4113L34.4176 31.5964C34.4176 31.6273 34.4176 31.6582 34.4176 31.6903C34.417 31.8925 34.4689 32.0914 34.5681 32.2677L34.2826 32.6238L34.9589 33.1626L35.2354 32.8167C35.3538 32.8551 35.4774 32.8746 35.6019 32.8746C35.6928 32.8743 35.7834 32.8636 35.8719 32.8424L36.1213 33.1935L36.826 32.6933L36.5778 32.3602C36.7044 32.1745 36.7749 31.9562 36.781 31.7315ZM34.8214 31.7006C34.8226 31.5486 34.8688 31.4003 34.9541 31.2744C35.0393 31.1485 35.1599 31.0506 35.3006 30.9931C35.4413 30.9355 35.5959 30.9207 35.7449 30.9507C35.894 30.9807 36.0309 31.054 36.1384 31.1615C36.2459 31.269 36.3192 31.4059 36.3492 31.555C36.3792 31.704 36.3644 31.8586 36.3068 31.9993C36.2493 32.14 36.1514 32.2606 36.0255 32.3458C35.8996 32.4311 35.7513 32.4773 35.5993 32.4785C35.4969 32.4794 35.3954 32.4599 35.3006 32.4211C35.2058 32.3823 35.1197 32.325 35.0473 32.2526C34.9749 32.1802 34.9176 32.0941 34.8788 31.9993C34.84 31.9045 34.8205 31.803 34.8214 31.7006Z" fill="#407BFF"/>
<path opacity="0.6" d="M36.781 31.7315L37.1539 31.6247L36.916 30.8005L36.484 30.9291C36.3602 30.789 36.2051 30.6802 36.0313 30.6115V30.1576H35.1634V30.5948C35.0277 30.6482 34.903 30.7262 34.7956 30.8249L34.4099 30.6398L34.0319 31.4113L34.4176 31.5964C34.4176 31.6273 34.4176 31.6582 34.4176 31.6903C34.417 31.8925 34.4689 32.0914 34.5681 32.2677L34.2826 32.6238L34.9589 33.1626L35.2354 32.8167C35.3538 32.8551 35.4774 32.8746 35.6019 32.8746C35.6928 32.8743 35.7834 32.8636 35.8719 32.8424L36.1213 33.1935L36.826 32.6933L36.5778 32.3602C36.7044 32.1745 36.7749 31.9562 36.781 31.7315ZM34.8214 31.7006C34.8226 31.5486 34.8688 31.4003 34.9541 31.2744C35.0393 31.1485 35.1599 31.0506 35.3006 30.9931C35.4413 30.9355 35.5959 30.9207 35.7449 30.9507C35.894 30.9807 36.0309 31.054 36.1384 31.1615C36.2459 31.269 36.3192 31.4059 36.3492 31.555C36.3792 31.704 36.3644 31.8586 36.3068 31.9993C36.2493 32.14 36.1514 32.2606 36.0255 32.3458C35.8996 32.4311 35.7513 32.4773 35.5993 32.4785C35.4969 32.4794 35.3954 32.4599 35.3006 32.4211C35.2058 32.3823 35.1197 32.325 35.0473 32.2526C34.9749 32.1802 34.9176 32.0941 34.8788 31.9993C34.84 31.9045 34.8205 31.803 34.8214 31.7006Z" fill="white"/>
</g>
<rect x="1" y="1" width="58" height="58" rx="29" stroke="#407BFF" stroke-width="2"/>
<path d="M60 30H900" stroke="#407BFF" stroke-width="2" stroke-linecap="round"/>
<path d="M80.5391 13.5684V19.2031C80.3177 19.4701 79.9759 19.7598 79.5137 20.0723C79.0514 20.3783 78.4557 20.6419 77.7266 20.8633C76.9974 21.0846 76.1152 21.1953 75.0801 21.1953C74.1621 21.1953 73.3255 21.0456 72.5703 20.7461C71.8151 20.4401 71.1641 19.9941 70.6172 19.4082C70.0768 18.8223 69.6602 18.1061 69.3672 17.2598C69.0742 16.4069 68.9277 15.4336 68.9277 14.3398V13.4512C68.9277 12.3574 69.0677 11.3841 69.3477 10.5312C69.6341 9.67839 70.041 8.95898 70.5684 8.37305C71.0957 7.78711 71.724 7.34115 72.4531 7.03516C73.1823 6.72917 73.9928 6.57617 74.8848 6.57617C76.1217 6.57617 77.1374 6.77799 77.9316 7.18164C78.7259 7.57878 79.3314 8.13216 79.748 8.8418C80.1712 9.54492 80.4316 10.3522 80.5293 11.2637H77.6875C77.6159 10.7819 77.4792 10.362 77.2773 10.0039C77.0755 9.64583 76.7858 9.36589 76.4082 9.16406C76.0371 8.96224 75.5553 8.86133 74.9629 8.86133C74.4746 8.86133 74.0384 8.96224 73.6543 9.16406C73.2767 9.35938 72.9577 9.64909 72.6973 10.0332C72.4368 10.4173 72.2383 10.8926 72.1016 11.459C71.9648 12.0254 71.8965 12.6829 71.8965 13.4316V14.3398C71.8965 15.082 71.9681 15.7396 72.1113 16.3125C72.2546 16.8789 72.4661 17.3574 72.7461 17.748C73.0326 18.1322 73.3841 18.4219 73.8008 18.6172C74.2174 18.8125 74.7025 18.9102 75.2559 18.9102C75.7181 18.9102 76.1022 18.8711 76.4082 18.793C76.7207 18.7148 76.9714 18.6204 77.1602 18.5098C77.3555 18.3926 77.5052 18.2819 77.6094 18.1777V15.6582H74.9336V13.5684H80.5391ZM82.2773 15.8242V15.6191C82.2773 14.8444 82.388 14.1315 82.6094 13.4805C82.8307 12.8229 83.153 12.2533 83.5762 11.7715C83.9993 11.2897 84.5202 10.9154 85.1387 10.6484C85.7572 10.375 86.4668 10.2383 87.2676 10.2383C88.0684 10.2383 88.7812 10.375 89.4062 10.6484C90.0312 10.9154 90.5553 11.2897 90.9785 11.7715C91.4082 12.2533 91.7337 12.8229 91.9551 13.4805C92.1764 14.1315 92.2871 14.8444 92.2871 15.6191V15.8242C92.2871 16.5924 92.1764 17.3053 91.9551 17.9629C91.7337 18.6139 91.4082 19.1836 90.9785 19.6719C90.5553 20.1536 90.0345 20.528 89.416 20.7949C88.7975 21.0618 88.0879 21.1953 87.2871 21.1953C86.4863 21.1953 85.7734 21.0618 85.1484 20.7949C84.5299 20.528 84.0059 20.1536 83.5762 19.6719C83.153 19.1836 82.8307 18.6139 82.6094 17.9629C82.388 17.3053 82.2773 16.5924 82.2773 15.8242ZM85.0898 15.6191V15.8242C85.0898 16.2669 85.1289 16.6803 85.207 17.0645C85.2852 17.4486 85.4089 17.7871 85.5781 18.0801C85.7539 18.3665 85.9818 18.5911 86.2617 18.7539C86.5417 18.9167 86.8835 18.998 87.2871 18.998C87.6777 18.998 88.013 18.9167 88.293 18.7539C88.5729 18.5911 88.7975 18.3665 88.9668 18.0801C89.1361 17.7871 89.2598 17.4486 89.3379 17.0645C89.4225 16.6803 89.4648 16.2669 89.4648 15.8242V15.6191C89.4648 15.1895 89.4225 14.7858 89.3379 14.4082C89.2598 14.0241 89.1328 13.6855 88.957 13.3926C88.7878 13.0931 88.5632 12.8587 88.2832 12.6895C88.0033 12.5202 87.6647 12.4355 87.2676 12.4355C86.8704 12.4355 86.5319 12.5202 86.252 12.6895C85.9785 12.8587 85.7539 13.0931 85.5781 13.3926C85.4089 13.6855 85.2852 14.0241 85.207 14.4082C85.1289 14.7858 85.0898 15.1895 85.0898 15.6191ZM104.172 10.4336V12.4258H98.0195V10.4336H104.172ZM99.543 7.82617H102.355V17.8164C102.355 18.1224 102.395 18.3568 102.473 18.5195C102.557 18.6823 102.681 18.7962 102.844 18.8613C103.007 18.9199 103.212 18.9492 103.459 18.9492C103.635 18.9492 103.791 18.9427 103.928 18.9297C104.071 18.9102 104.191 18.8906 104.289 18.8711L104.299 20.9414C104.058 21.0195 103.798 21.0814 103.518 21.127C103.238 21.1725 102.928 21.1953 102.59 21.1953C101.971 21.1953 101.431 21.0944 100.969 20.8926C100.513 20.6842 100.161 20.3522 99.9141 19.8965C99.6667 19.4408 99.543 18.8418 99.543 18.0996V7.82617ZM105.07 15.8242V15.6191C105.07 14.8444 105.181 14.1315 105.402 13.4805C105.624 12.8229 105.946 12.2533 106.369 11.7715C106.792 11.2897 107.313 10.9154 107.932 10.6484C108.55 10.375 109.26 10.2383 110.061 10.2383C110.861 10.2383 111.574 10.375 112.199 10.6484C112.824 10.9154 113.348 11.2897 113.771 11.7715C114.201 12.2533 114.527 12.8229 114.748 13.4805C114.969 14.1315 115.08 14.8444 115.08 15.6191V15.8242C115.08 16.5924 114.969 17.3053 114.748 17.9629C114.527 18.6139 114.201 19.1836 113.771 19.6719C113.348 20.1536 112.827 20.528 112.209 20.7949C111.59 21.0618 110.881 21.1953 110.08 21.1953C109.279 21.1953 108.566 21.0618 107.941 20.7949C107.323 20.528 106.799 20.1536 106.369 19.6719C105.946 19.1836 105.624 18.6139 105.402 17.9629C105.181 17.3053 105.07 16.5924 105.07 15.8242ZM107.883 15.6191V15.8242C107.883 16.2669 107.922 16.6803 108 17.0645C108.078 17.4486 108.202 17.7871 108.371 18.0801C108.547 18.3665 108.775 18.5911 109.055 18.7539C109.335 18.9167 109.676 18.998 110.08 18.998C110.471 18.998 110.806 18.9167 111.086 18.7539C111.366 18.5911 111.59 18.3665 111.76 18.0801C111.929 17.7871 112.053 17.4486 112.131 17.0645C112.215 16.6803 112.258 16.2669 112.258 15.8242V15.6191C112.258 15.1895 112.215 14.7858 112.131 14.4082C112.053 14.0241 111.926 13.6855 111.75 13.3926C111.581 13.0931 111.356 12.8587 111.076 12.6895C110.796 12.5202 110.458 12.4355 110.061 12.4355C109.663 12.4355 109.325 12.5202 109.045 12.6895C108.771 12.8587 108.547 13.0931 108.371 13.3926C108.202 13.6855 108.078 14.0241 108 14.4082C107.922 14.7858 107.883 15.1895 107.883 15.6191ZM123.303 6.78125H125.783L129.436 17.2207L133.088 6.78125H135.568L130.432 21H128.439L123.303 6.78125ZM121.965 6.78125H124.436L124.885 16.957V21H121.965V6.78125ZM134.436 6.78125H136.916V21H133.986V16.957L134.436 6.78125ZM145.012 18.6172V13.9102C145.012 13.5716 144.956 13.2819 144.846 13.041C144.735 12.7936 144.562 12.6016 144.328 12.4648C144.1 12.3281 143.804 12.2598 143.439 12.2598C143.127 12.2598 142.857 12.3151 142.629 12.4258C142.401 12.5299 142.225 12.6829 142.102 12.8848C141.978 13.0801 141.916 13.3112 141.916 13.5781H139.104C139.104 13.1289 139.208 12.7025 139.416 12.2988C139.624 11.8952 139.927 11.5404 140.324 11.2344C140.721 10.9219 141.193 10.6777 141.74 10.502C142.294 10.3262 142.912 10.2383 143.596 10.2383C144.416 10.2383 145.145 10.375 145.783 10.6484C146.421 10.9219 146.923 11.332 147.287 11.8789C147.658 12.4258 147.844 13.1094 147.844 13.9297V18.4512C147.844 19.0306 147.88 19.5059 147.951 19.877C148.023 20.2415 148.127 20.5605 148.264 20.834V21H145.422C145.285 20.7135 145.181 20.3555 145.109 19.9258C145.044 19.4896 145.012 19.0534 145.012 18.6172ZM145.383 14.5645L145.402 16.1562H143.83C143.459 16.1562 143.137 16.1986 142.863 16.2832C142.59 16.3678 142.365 16.4883 142.189 16.6445C142.014 16.7943 141.883 16.9701 141.799 17.1719C141.721 17.3737 141.682 17.5951 141.682 17.8359C141.682 18.0768 141.737 18.2949 141.848 18.4902C141.958 18.679 142.118 18.8288 142.326 18.9395C142.535 19.0436 142.779 19.0957 143.059 19.0957C143.482 19.0957 143.85 19.0111 144.162 18.8418C144.475 18.6725 144.715 18.4642 144.885 18.2168C145.061 17.9694 145.152 17.735 145.158 17.5137L145.9 18.7051C145.796 18.972 145.653 19.2487 145.471 19.5352C145.295 19.8216 145.07 20.0918 144.797 20.3457C144.523 20.5931 144.195 20.7982 143.811 20.9609C143.426 21.1172 142.971 21.1953 142.443 21.1953C141.773 21.1953 141.164 21.0618 140.617 20.7949C140.077 20.5215 139.647 20.1471 139.328 19.6719C139.016 19.1901 138.859 18.6432 138.859 18.0312C138.859 17.4779 138.964 16.9863 139.172 16.5566C139.38 16.127 139.686 15.7656 140.09 15.4727C140.5 15.1732 141.011 14.9486 141.623 14.7988C142.235 14.6426 142.945 14.5645 143.752 14.5645H145.383ZM152.824 12.7383V21H150.012V10.4336H152.658L152.824 12.7383ZM156.008 10.3652L155.959 12.9727C155.822 12.9531 155.656 12.9368 155.461 12.9238C155.272 12.9043 155.1 12.8945 154.943 12.8945C154.546 12.8945 154.201 12.9466 153.908 13.0508C153.622 13.1484 153.381 13.2949 153.186 13.4902C152.997 13.6855 152.854 13.9232 152.756 14.2031C152.665 14.4831 152.613 14.8021 152.6 15.1602L152.033 14.9844C152.033 14.3008 152.102 13.6725 152.238 13.0996C152.375 12.5202 152.574 12.0156 152.834 11.5859C153.101 11.1562 153.426 10.8242 153.811 10.5898C154.195 10.3555 154.634 10.2383 155.129 10.2383C155.285 10.2383 155.445 10.2513 155.607 10.2773C155.77 10.2969 155.904 10.3262 156.008 10.3652ZM160.148 5.99023V21H157.336V5.99023H160.148ZM166.809 10.4336L162.219 15.668L159.758 18.1582L158.732 16.127L160.686 13.6465L163.43 10.4336H166.809ZM163.889 21L160.764 16.1172L162.707 14.418L167.131 21H163.889ZM172.688 21.1953C171.867 21.1953 171.132 21.0651 170.48 20.8047C169.829 20.5378 169.276 20.1699 168.82 19.7012C168.371 19.2324 168.026 18.6888 167.785 18.0703C167.544 17.4453 167.424 16.7812 167.424 16.0781V15.6875C167.424 14.8867 167.538 14.1543 167.766 13.4902C167.993 12.8262 168.319 12.25 168.742 11.7617C169.172 11.2734 169.693 10.8991 170.305 10.6387C170.917 10.3717 171.607 10.2383 172.375 10.2383C173.124 10.2383 173.788 10.362 174.367 10.6094C174.947 10.8568 175.432 11.2083 175.822 11.6641C176.219 12.1198 176.519 12.6667 176.721 13.3047C176.923 13.9362 177.023 14.6393 177.023 15.4141V16.5859H168.625V14.7109H174.26V14.4961C174.26 14.1055 174.188 13.7572 174.045 13.4512C173.908 13.1387 173.7 12.8913 173.42 12.709C173.14 12.5267 172.782 12.4355 172.346 12.4355C171.975 12.4355 171.656 12.5169 171.389 12.6797C171.122 12.8424 170.904 13.0703 170.734 13.3633C170.572 13.6562 170.448 14.0013 170.363 14.3984C170.285 14.7891 170.246 15.2188 170.246 15.6875V16.0781C170.246 16.5013 170.305 16.8919 170.422 17.25C170.546 17.6081 170.718 17.9173 170.939 18.1777C171.167 18.4382 171.441 18.64 171.76 18.7832C172.085 18.9264 172.453 18.998 172.863 18.998C173.371 18.998 173.843 18.9004 174.279 18.7051C174.722 18.5033 175.103 18.2005 175.422 17.7969L176.789 19.2812C176.568 19.6003 176.265 19.9062 175.881 20.1992C175.503 20.4922 175.048 20.7331 174.514 20.9219C173.98 21.1042 173.371 21.1953 172.688 21.1953ZM183.801 10.4336V12.4258H177.648V10.4336H183.801ZM179.172 7.82617H181.984V17.8164C181.984 18.1224 182.023 18.3568 182.102 18.5195C182.186 18.6823 182.31 18.7962 182.473 18.8613C182.635 18.9199 182.84 18.9492 183.088 18.9492C183.264 18.9492 183.42 18.9427 183.557 18.9297C183.7 18.9102 183.82 18.8906 183.918 18.8711L183.928 20.9414C183.687 21.0195 183.426 21.0814 183.146 21.127C182.867 21.1725 182.557 21.1953 182.219 21.1953C181.6 21.1953 181.06 21.0944 180.598 20.8926C180.142 20.6842 179.79 20.3522 179.543 19.8965C179.296 19.4408 179.172 18.8418 179.172 18.0996V7.82617Z" fill="#407BFF"/>
</g>
<defs>
<clipPath id="clip0_8870_2893">
<rect width="900" height="60" fill="white"/>
</clipPath>
<clipPath id="clip1_8870_2893">
<rect width="60" height="60" rx="30" fill="white"/>
</clipPath>
</defs>
</svg>
