<svg width="210" height="285" viewBox="0 0 210 285" fill="none" xmlns="http://www.w3.org/2000/svg">
<g clip-path="url(#clip0_99_2536)">
<rect width="210" height="285" fill="white"/>
<rect width="210" height="285" rx="8" fill="#D2D2D2"/>
<path d="M0 8C0 3.58172 3.58172 0 8 0H202C206.418 0 210 3.58172 210 8V45H0V8Z" fill="#AE8B0A"/>
<rect y="45" width="210" height="15" fill="#FFC900"/>
<path d="M0 7.99999C0 3.58172 3.58172 0 8 0H15V285H8C3.58172 285 0 281.418 0 277V7.99999Z" fill="black" fill-opacity="0.2"/>
<path d="M202 0V0C206.418 0 210 3.58172 210 8V277C210 281.418 206.418 285 202 285V285V0Z" fill="white" fill-opacity="0.2"/>
<rect x="147" y="75" width="18" height="139" fill="white" fill-opacity="0.3"/>
<rect x="123" y="75" width="18" height="99" fill="white" fill-opacity="0.3"/>
<rect x="99" y="75" width="18" height="120" fill="white" fill-opacity="0.3"/>
</g>
<defs>
<clipPath id="clip0_99_2536">
<rect width="210" height="285" fill="white"/>
</clipPath>
</defs>
</svg>
