<svg width="80" height="485" viewBox="0 0 80 485" fill="none" xmlns="http://www.w3.org/2000/svg">
<path fill-rule="evenodd" clip-rule="evenodd" d="M8.19312 288.181V417.99L40.0094 484.073L71.8257 417.99V288.181H8.19312Z" fill="#2A2A2A"/>
<path d="M8.17871 116.364H71.8116V288.181H8.17871V116.364Z" fill="#2A2A2A"/>
<path fill-rule="evenodd" clip-rule="evenodd" d="M17.2815 354.545L40.0075 399.997L62.7335 354.545V405.455L40.0075 450.906L17.2815 405.455V354.545Z" fill="#C0C8BD"/>
<path fill-rule="evenodd" clip-rule="evenodd" d="M17.2815 274.545L40.0075 319.997L62.7335 274.545V325.454L40.0075 370.906L17.2815 325.454V274.545Z" fill="#C0C8BD"/>
<path fill-rule="evenodd" clip-rule="evenodd" d="M17.2815 196.364L40.0075 241.815L62.7335 196.364V247.273L40.0075 292.724L17.2815 247.273V196.364Z" fill="#C0C8BD"/>
<path fill-rule="evenodd" clip-rule="evenodd" d="M17.2815 116.364L40.0075 161.815L62.7335 116.364V167.273L40.0075 212.724L17.2815 167.273V116.364Z" fill="#C0C8BD"/>
<path d="M0 26.3638C0 15.3181 8.95431 6.3638 20 6.3638H60C71.0457 6.3638 80 15.3181 80 26.3638V111.364C80 114.125 77.7614 116.364 75 116.364H5C2.23858 116.364 0 114.125 0 111.364V26.3638Z" fill="#2A2A2A"/>
<path d="M29.0916 3C29.0916 1.34315 30.4347 0 32.0916 0H48.8188C50.4757 0 51.8188 1.34315 51.8188 3V6.36363H29.0916V3Z" fill="#2A2A2A"/>
</svg>
