<svg width="405" height="240" viewBox="0 0 405 240" fill="none" xmlns="http://www.w3.org/2000/svg">
<rect x="255" width="150" height="210" fill="#557DD4"/>
<rect x="310" y="44" width="8" height="13" fill="#1A1A1A"/>
<rect x="262" y="100" width="19" height="26" fill="#1A1A1A"/>
<rect x="329" y="44" width="8" height="13" fill="#1A1A1A"/>
<rect x="348" y="44" width="8" height="13" fill="#1A1A1A"/>
<rect x="382" y="32" width="11" height="22" fill="#1A1A1A"/>
<circle cx="307.5" cy="7.5" r="6.5" fill="#D9D9D9"/>
<circle cx="307.5" cy="7.5" r="5.5" fill="white"/>
<circle cx="268.5" cy="13.5" r="11.5" fill="#D9D9D9"/>
<circle cx="268.5" cy="13.5" r="10.5" fill="white"/>
<circle cx="391.5" cy="13.5" r="11.5" fill="#D9D9D9"/>
<circle cx="391.5" cy="13.5" r="10.5" fill="white"/>
<circle cx="391.5" cy="196.5" r="11.5" fill="#D9D9D9"/>
<circle cx="391.5" cy="196.5" r="10.5" fill="white"/>
<circle cx="268.5" cy="196.5" r="11.5" fill="#D9D9D9"/>
<circle cx="268.5" cy="196.5" r="10.5" fill="white"/>
<circle cx="322.5" cy="7.5" r="6.5" fill="#D9D9D9"/>
<circle cx="322.5" cy="7.5" r="5.5" fill="white"/>
<circle cx="337.5" cy="7.5" r="6.5" fill="#D9D9D9"/>
<circle cx="337.5" cy="7.5" r="5.5" fill="white"/>
<circle cx="352.5" cy="7.5" r="6.5" fill="#D9D9D9"/>
<circle cx="352.5" cy="7.5" r="5.5" fill="white"/>
<rect x="292" y="65" width="101" height="78" fill="#D9D9D9"/>
<rect x="292" y="172" width="8" height="35" fill="#D9D9D9"/>
<rect x="304" y="172" width="8" height="35" fill="#D9D9D9"/>
<rect x="316" y="172" width="8" height="35" fill="#D9D9D9"/>
<rect x="295" y="68" width="95" height="72" rx="4" fill="white"/>
<rect x="321" y="85" width="34" height="5" fill="black" fill-opacity="0.3"/>
<rect x="306" y="93" width="42" height="5" fill="black" fill-opacity="0.3"/>
<rect x="304" y="101" width="19" height="5" fill="black" fill-opacity="0.3"/>
<rect x="304" y="109" width="28" height="5" fill="black" fill-opacity="0.3"/>
<rect x="352" y="97" width="28" height="28" fill="black" fill-opacity="0.3"/>
<rect x="303" y="122" width="9" height="9" fill="black" fill-opacity="0.3"/>
<rect x="262" y="27" width="36" height="36" fill="#CACACA"/>
<circle cx="280" cy="45" r="16" fill="#F0F0F0"/>
<rect x="68" y="44" width="30" height="30" fill="#D9D9D9"/>
<path d="M90.0696 155.505C150.655 241.524 208.805 247.88 336.5 190" stroke="#404040" stroke-width="8"/>
<rect width="165" height="165" rx="10" fill="#007300"/>
<rect x="331" y="181" width="22" height="18" fill="#D9D9D9"/>
<rect x="1" y="1" width="163" height="163" rx="20" fill="#E4D3C3"/>
<rect x="15" y="15" width="120" height="135" fill="#FDF4EC"/>
<circle cx="83" cy="57" r="15" fill="#C9C9C9"/>
</svg>
