<svg width="24" height="24" viewBox="0 0 24 24" fill="none" xmlns="http://www.w3.org/2000/svg">
<mask id="mask0_7739_30485" style="mask-type:alpha" maskUnits="userSpaceOnUse" x="0" y="0" width="24" height="24">
<rect width="24" height="24" fill="#D9D9D9"/>
</mask>
<g mask="url(#mask0_7739_30485)">
<path d="M6.01499 18C6.72139 18 7.32106 17.7555 7.81401 17.2666C8.30696 16.7777 8.55344 16.1792 8.55344 15.4711C8.55344 15.0391 8.44575 14.6186 8.23036 14.2096C8.01498 13.8006 7.70472 13.4859 7.29959 13.2654L6.66884 12.8577V6.65383C6.66884 6.46536 6.6089 6.30927 6.48904 6.18555C6.36915 6.06183 6.21114 5.99998 6.01499 5.99998C5.83294 5.99998 5.67845 6.06183 5.55151 6.18555C5.4246 6.30927 5.36114 6.46536 5.36114 6.65383V12.8577L4.73039 13.2654C4.31884 13.5025 4.00697 13.8177 3.79479 14.211C3.5826 14.6042 3.47651 15.0243 3.47651 15.4711C3.47651 16.1792 3.72299 16.7777 4.21594 17.2666C4.70889 17.7555 5.30857 18 6.01499 18ZM6.01016 19.5C4.8916 19.5 3.93969 19.1099 3.15444 18.3298C2.36919 17.5496 1.97656 16.5936 1.97656 15.4615C1.97656 14.7236 2.14868 14.0625 2.49291 13.4783C2.83713 12.894 3.29321 12.4244 3.86116 12.0692V6.65383C3.86116 6.05076 4.07078 5.54103 4.49001 5.12463C4.90923 4.70821 5.41755 4.5 6.01499 4.5C6.62524 4.5 7.13677 4.70821 7.54959 5.12463C7.9624 5.54103 8.16881 6.05076 8.16881 6.65383V12.0692C8.73035 12.4244 9.18483 12.8962 9.53226 13.4846C9.8797 14.0731 10.0534 14.7352 10.0534 15.4711C10.0534 16.5865 9.65919 17.5368 8.87074 18.3221C8.08227 19.1073 7.12875 19.5 6.01016 19.5ZM13.4015 14.9038C12.6463 14.3987 12.0188 13.74 11.5188 12.9279C11.0188 12.1157 10.7688 11.1846 10.7688 10.1346C10.7688 8.56943 11.3165 7.23904 12.4119 6.14342C13.5073 5.04781 14.8374 4.5 16.4022 4.5C17.9671 4.5 19.2976 5.04781 20.3937 6.14342C21.4899 7.23904 22.038 8.56943 22.038 10.1346C22.038 11.1846 21.788 12.1157 21.288 12.9279C20.788 13.74 20.1604 14.3987 19.4053 14.9038H13.4015ZM13.9091 13.4039H18.988C19.4893 12.991 19.8729 12.5122 20.1389 11.9673C20.405 11.4224 20.538 10.8115 20.538 10.1346C20.538 8.99758 20.133 8.02422 19.323 7.21452C18.513 6.40482 17.5393 5.99998 16.4018 5.99998C15.2644 5.99998 14.2912 6.40482 13.4822 7.21452C12.6732 8.02422 12.2687 8.99758 12.2687 10.1346C12.2687 10.8179 12.4168 11.432 12.713 11.9769C13.0091 12.5218 13.4079 12.9974 13.9091 13.4039ZM16.4034 19.5C16.029 19.5 15.7015 19.3596 15.4207 19.0788C15.1399 18.798 14.9995 18.4704 14.9995 18.0961H17.8072C17.8072 18.4704 17.6668 18.798 17.3861 19.0788C17.1053 19.3596 16.7777 19.5 16.4034 19.5ZM13.6918 17.4038V15.9038H19.1149V17.4038H13.6918Z" fill="#1C1B1F"/>
</g>
</svg>
