<svg width="451" height="312" viewBox="0 0 451 312" fill="none" xmlns="http://www.w3.org/2000/svg">
<path d="M60 19C60 14.5817 63.5817 11 68 11L414 11C418.418 11 422 14.5817 422 19V83.7744C422 85.8438 422.802 87.8328 424.237 89.3235L432.763 98.1765C434.198 99.6672 435 101.656 435 103.726V278.939C435 280.91 434.272 282.812 432.957 284.279L424.043 294.221C422.728 295.688 422 297.59 422 299.561V300C422 304.418 418.418 308 414 308H68C63.5817 308 60 304.418 60 300V19Z" fill="#008F89"/>
<rect x="271" y="273" width="28" height="32" fill="white" fill-opacity="0.3"/>
<rect width="285" height="15" transform="translate(135 15)" fill="#404040"/>
<rect x="154" y="19" width="7" height="7" fill="#151515"/>
<rect x="139" y="19" width="7" height="7" fill="#151515"/>
<rect x="169" y="19" width="7" height="7" fill="#151515"/>
<rect x="184" y="19" width="7" height="7" fill="#151515"/>
<rect x="199" y="19" width="7" height="7" fill="#151515"/>
<rect x="214" y="19" width="7" height="7" fill="#151515"/>
<rect x="229" y="19" width="7" height="7" fill="#151515"/>
<rect x="244" y="19" width="7" height="7" fill="#151515"/>
<rect x="259" y="19" width="7" height="7" fill="#151515"/>
<rect x="274" y="19" width="7" height="7" fill="#151515"/>
<rect x="304" y="19" width="7" height="7" fill="#151515"/>
<rect x="319" y="19" width="7" height="7" fill="#151515"/>
<rect x="334" y="19" width="7" height="7" fill="#151515"/>
<rect x="349" y="19" width="7" height="7" fill="#151515"/>
<rect x="364" y="19" width="7" height="7" fill="#151515"/>
<rect x="379" y="19" width="7" height="7" fill="#151515"/>
<rect x="394" y="19" width="7" height="7" fill="#151515"/>
<rect x="409" y="19" width="7" height="7" fill="#151515"/>
<rect width="225" height="15" transform="translate(195 285)" fill="#404040"/>
<rect x="199" y="289" width="7" height="7" fill="#151515"/>
<rect x="214" y="289" width="7" height="7" fill="#151515"/>
<rect x="229" y="289" width="7" height="7" fill="#151515"/>
<rect x="244" y="289" width="7" height="7" fill="#151515"/>
<rect x="259" y="289" width="7" height="7" fill="#151515"/>
<rect x="274" y="289" width="7" height="7" fill="#151515"/>
<rect x="289" y="289" width="7" height="7" fill="#151515"/>
<rect x="304" y="289" width="7" height="7" fill="#151515"/>
<rect x="334" y="289" width="7" height="7" fill="#151515"/>
<rect x="349" y="289" width="7" height="7" fill="#151515"/>
<rect x="364" y="289" width="7" height="7" fill="#151515"/>
<rect x="379" y="289" width="7" height="7" fill="#151515"/>
<rect x="394" y="289" width="7" height="7" fill="#151515"/>
<rect x="409" y="289" width="7" height="7" fill="#151515"/>
<rect x="214" y="201" width="196" height="39" fill="#1A1A1A"/>
<rect width="196" height="4" transform="translate(214 240)" fill="black"/>
<rect width="7" height="3" transform="translate(218 240)" fill="#E1E1E1"/>
<rect width="7" height="3" transform="translate(231 240)" fill="#E1E1E1"/>
<rect width="7" height="3" transform="translate(245 240)" fill="#E1E1E1"/>
<rect width="7" height="3" transform="translate(259 240)" fill="#E1E1E1"/>
<rect width="7" height="3" transform="translate(273 240)" fill="#E1E1E1"/>
<rect width="7" height="3" transform="translate(287 240)" fill="#E1E1E1"/>
<rect width="7" height="3" transform="translate(301 240)" fill="#E1E1E1"/>
<rect width="7" height="3" transform="translate(315 240)" fill="#E1E1E1"/>
<rect width="7" height="3" transform="translate(329 240)" fill="#E1E1E1"/>
<rect width="7" height="3" transform="translate(343 240)" fill="#E1E1E1"/>
<rect width="7" height="3" transform="translate(357 240)" fill="#E1E1E1"/>
<rect width="7" height="3" transform="translate(371 240)" fill="#E1E1E1"/>
<rect width="7" height="3" transform="translate(385 240)" fill="#E1E1E1"/>
<rect width="7" height="3" transform="translate(399 240)" fill="#E1E1E1"/>
<rect width="196" height="4" transform="translate(214 197)" fill="black"/>
<rect width="7" height="3" transform="translate(218 198)" fill="#E1E1E1"/>
<rect width="7" height="3" transform="translate(231 198)" fill="#E1E1E1"/>
<rect width="7" height="3" transform="translate(245 198)" fill="#E1E1E1"/>
<rect width="7" height="3" transform="translate(259 198)" fill="#E1E1E1"/>
<rect width="7" height="3" transform="translate(273 198)" fill="#E1E1E1"/>
<rect width="7" height="3" transform="translate(287 198)" fill="#E1E1E1"/>
<rect width="7" height="3" transform="translate(301 198)" fill="#E1E1E1"/>
<rect width="7" height="3" transform="translate(315 198)" fill="#E1E1E1"/>
<rect width="7" height="3" transform="translate(329 198)" fill="#E1E1E1"/>
<rect width="7" height="3" transform="translate(343 198)" fill="#E1E1E1"/>
<rect width="7" height="3" transform="translate(357 198)" fill="#E1E1E1"/>
<rect width="7" height="3" transform="translate(371 198)" fill="#E1E1E1"/>
<rect width="7" height="3" transform="translate(385 198)" fill="#E1E1E1"/>
<rect width="7" height="3" transform="translate(399 198)" fill="#E1E1E1"/>
<circle cx="256.5" cy="220.5" r="8.5" fill="#0F0D0E"/>
<circle cx="369.5" cy="220.5" r="8.5" fill="#0F0D0E"/>
<path d="M136 48L139 45H148L151 48V60L136 60V57V48Z" fill="#404040"/>
<path d="M121 48L124 45H133L136 48V57V60L124 60L121 57V48Z" fill="#404040"/>
<path d="M136 60L151 60V72L148 75H139L136 72V60Z" fill="#404040"/>
<path d="M121 63L124 60L136 60V72L133 75H124L121 72V63Z" fill="#404040"/>
<path d="M151 48L154 45H163L166 48V57L163 60L151 60V48Z" fill="#404040"/>
<path d="M151 60L163 60L166 63V72L163 75H154L151 72V60Z" fill="#404040"/>
<path d="M432 150L435 153L435 162L432 165L420 165L420 150L423 150L432 150Z" fill="#404040"/>
<path d="M432 135L435 138L435 147L432 150L423 150L420 150L420 138L423 135L432 135Z" fill="#404040"/>
<path d="M420 150L420 165L408 165L405 162L405 153L408 150L420 150Z" fill="#404040"/>
<path d="M417 135L420 138L420 150L408 150L405 147L405 138L408 135L417 135Z" fill="#404040"/>
<path d="M432 165L435 168L435 177L432 180L423 180L420 177L420 165L432 165Z" fill="#404040"/>
<path d="M420 165L420 177L417 180L408 180L405 177L405 168L408 165L420 165Z" fill="#404040"/>
<rect x="155" y="49" width="7" height="7" fill="#D9D9D9"/>
<rect x="431" y="169" width="7" height="7" transform="rotate(90 431 169)" fill="#D9D9D9"/>
<rect x="155" y="64" width="7" height="7" fill="#D9D9D9"/>
<rect x="416" y="169" width="7" height="7" transform="rotate(90 416 169)" fill="#D9D9D9"/>
<rect x="125" y="49" width="7" height="7" fill="#D9D9D9"/>
<rect x="431" y="139" width="7" height="7" transform="rotate(90 431 139)" fill="#D9D9D9"/>
<rect x="125" y="64" width="7" height="7" fill="#D9D9D9"/>
<rect x="135" y="241" width="36" height="37" fill="#1A1A1A"/>
<rect x="175" y="241" width="36" height="37" fill="#1A1A1A"/>
<rect x="416" y="139" width="7" height="7" transform="rotate(90 416 139)" fill="#D9D9D9"/>
<rect x="140" y="49" width="7" height="7" fill="#D9D9D9"/>
<rect x="431" y="154" width="7" height="7" transform="rotate(90 431 154)" fill="#D9D9D9"/>
<rect x="140" y="64" width="7" height="7" fill="#D9D9D9"/>
<rect x="416" y="154" width="7" height="7" transform="rotate(90 416 154)" fill="#D9D9D9"/>
<rect x="75" y="20" width="34" height="34" fill="#B0B0B0"/>
<circle cx="92" cy="37" r="9" fill="#D9D9D9"/>
<rect x="17" y="64" width="91" height="66" fill="#D9D9D9"/>
<rect x="111" y="227" width="10" height="5" fill="#D9D9D9"/>
<rect x="111" y="197" width="10" height="5" fill="#D9D9D9"/>
<rect x="111" y="212" width="10" height="5" fill="#D9D9D9"/>
<rect x="87" y="210" width="4" height="9" fill="#D9D9D9"/>
<rect x="134" y="155" width="57" height="22" rx="11" fill="#D9D9D9"/>
<circle cx="153" cy="260" r="18" fill="#D9D9D9"/>
<circle cx="193" cy="260" r="18" fill="#D9D9D9"/>
<rect x="60" y="242" width="62" height="48" fill="#4B4D4D"/>
<rect x="43" y="242" width="17" height="48" fill="#222E2D"/>
<circle cx="125" cy="31" r="9" fill="white"/>
<circle cx="135" cy="295" r="9" fill="white"/>
<circle cx="422" cy="268" r="9" fill="white"/>
<circle cx="421" cy="114" r="9" fill="white"/>
<rect x="91" y="196" width="20" height="37" fill="#1A1A1A"/>
<rect x="155" y="190" width="16" height="17" fill="#1A1A1A"/>
<rect x="170" y="220" width="10" height="13" fill="#1A1A1A"/>
<rect x="375" y="151" width="10" height="13" fill="#1A1A1A"/>
<rect x="364" y="124" width="6" height="16" fill="#1A1A1A"/>
<rect x="154" y="105" width="28" height="28" fill="#1A1A1A"/>
<rect x="235" y="141" width="74" height="21" fill="white" fill-opacity="0.3"/>
<rect x="189" y="118" width="12" height="7" fill="white" fill-opacity="0.3"/>
<rect x="189" y="105" width="12" height="7" fill="white" fill-opacity="0.3"/>
<rect x="284" y="257" width="33" height="9" fill="white" fill-opacity="0.3"/>
<rect x="330" y="257" width="56" height="9" fill="white" fill-opacity="0.3"/>
<rect x="333" y="173" width="44" height="7" fill="white" fill-opacity="0.3"/>
<rect x="313" y="224" width="23" height="7" fill="white" fill-opacity="0.3"/>
<rect x="280" y="217" width="56" height="6" fill="white" fill-opacity="0.3"/>
<rect x="280" y="224" width="32" height="6" fill="white" fill-opacity="0.3"/>
<rect x="288" y="210" width="41" height="6" fill="white" fill-opacity="0.3"/>
<rect x="412" y="127" width="16" height="7" fill="white" fill-opacity="0.3"/>
<rect x="391" y="105" width="11" height="7" fill="white" fill-opacity="0.3"/>
<rect x="213" y="64" width="95" height="9" fill="white" fill-opacity="0.3"/>
<rect x="308" y="71" width="95" height="2" fill="white" fill-opacity="0.3"/>
<rect x="181" y="35" width="14" height="26" fill="white" fill-opacity="0.3"/>
<rect x="213" y="31" width="10" height="17" fill="white" fill-opacity="0.3"/>
<rect x="198" y="31" width="10" height="17" fill="white" fill-opacity="0.3"/>
<rect x="168" y="31" width="10" height="17" fill="white" fill-opacity="0.3"/>
<rect x="228" y="31" width="10" height="17" fill="white" fill-opacity="0.3"/>
<rect x="243" y="31" width="10" height="17" fill="white" fill-opacity="0.3"/>
<rect x="258" y="31" width="10" height="17" fill="white" fill-opacity="0.3"/>
<rect x="273" y="31" width="10" height="17" fill="white" fill-opacity="0.3"/>
<rect x="303" y="31" width="10" height="17" fill="white" fill-opacity="0.3"/>
<rect x="318" y="31" width="10" height="17" fill="white" fill-opacity="0.3"/>
<rect x="333" y="31" width="10" height="17" fill="white" fill-opacity="0.3"/>
<rect x="348" y="31" width="10" height="17" fill="white" fill-opacity="0.3"/>
<rect x="363" y="31" width="10" height="17" fill="white" fill-opacity="0.3"/>
<rect x="378" y="31" width="10" height="17" fill="white" fill-opacity="0.3"/>
<rect x="393" y="31" width="10" height="17" fill="white" fill-opacity="0.3"/>
<rect x="408" y="31" width="10" height="17" fill="white" fill-opacity="0.3"/>
<rect x="239" y="120" width="66" height="11" fill="white" fill-opacity="0.3"/>
<rect x="238" y="83" width="69" height="33" rx="16.5" fill="white" fill-opacity="0.3"/>
<rect x="333" y="270" width="10" height="14" fill="white" fill-opacity="0.3"/>
<rect x="258" y="270" width="10" height="14" fill="white" fill-opacity="0.3"/>
<rect x="243" y="270" width="10" height="14" fill="white" fill-opacity="0.3"/>
<rect x="228" y="260" width="10" height="24" fill="white" fill-opacity="0.3"/>
<rect x="213" y="260" width="10" height="24" fill="white" fill-opacity="0.3"/>
<rect x="303" y="270" width="10" height="14" fill="white" fill-opacity="0.3"/>
<rect x="347" y="270" width="10" height="14" fill="white" fill-opacity="0.3"/>
<rect x="361" y="270" width="10" height="14" fill="white" fill-opacity="0.3"/>
<rect x="375" y="270" width="10" height="14" fill="white" fill-opacity="0.3"/>
<rect x="389" y="270" width="10" height="14" fill="white" fill-opacity="0.3"/>
<rect x="403" y="270" width="10" height="14" fill="white" fill-opacity="0.3"/>
</svg>
