<svg width="544" height="558" viewBox="0 0 544 558" fill="none" xmlns="http://www.w3.org/2000/svg">
<g clip-path="url(#clip0_982_6424)">
<path d="M293 108C297.418 108 301 111.582 301 116L301 462C301 466.418 297.418 470 293 470H228.226C226.156 470 224.167 470.802 222.677 472.237L213.823 480.763C212.333 482.198 210.344 483 208.274 483H33.0611C31.0901 483 29.1884 482.272 27.7208 480.957L17.7792 472.043C16.3116 470.728 14.4099 470 12.4389 470H12C7.58172 470 4 466.418 4 462V116C4 111.582 7.58172 108 12 108L293 108Z" fill="#008F89"/>
<rect x="39" y="319" width="28" height="32" transform="rotate(90 39 319)" fill="white" fill-opacity="0.3"/>
<g clip-path="url(#clip1_982_6424)">
<rect width="285" height="15" transform="matrix(0 1 -1 0 297 183)" fill="#404040"/>
<rect x="293" y="202" width="7" height="7" transform="rotate(90 293 202)" fill="#151515"/>
<rect x="293" y="187" width="7" height="7" transform="rotate(90 293 187)" fill="#151515"/>
<rect x="293" y="217" width="7" height="7" transform="rotate(90 293 217)" fill="#151515"/>
<rect x="293" y="232" width="7" height="7" transform="rotate(90 293 232)" fill="#151515"/>
<rect x="293" y="247" width="7" height="7" transform="rotate(90 293 247)" fill="#151515"/>
<rect x="293" y="262" width="7" height="7" transform="rotate(90 293 262)" fill="#151515"/>
<rect x="293" y="277" width="7" height="7" transform="rotate(90 293 277)" fill="#151515"/>
<rect x="293" y="292" width="7" height="7" transform="rotate(90 293 292)" fill="#151515"/>
<rect x="293" y="307" width="7" height="7" transform="rotate(90 293 307)" fill="#151515"/>
<rect x="293" y="322" width="7" height="7" transform="rotate(90 293 322)" fill="#151515"/>
<rect x="293" y="352" width="7" height="7" transform="rotate(90 293 352)" fill="#151515"/>
<rect x="293" y="367" width="7" height="7" transform="rotate(90 293 367)" fill="#151515"/>
<rect x="293" y="382" width="7" height="7" transform="rotate(90 293 382)" fill="#151515"/>
<rect x="293" y="397" width="7" height="7" transform="rotate(90 293 397)" fill="#151515"/>
<rect x="293" y="412" width="7" height="7" transform="rotate(90 293 412)" fill="#151515"/>
<rect x="293" y="427" width="7" height="7" transform="rotate(90 293 427)" fill="#151515"/>
<rect x="293" y="442" width="7" height="7" transform="rotate(90 293 442)" fill="#151515"/>
<rect x="293" y="457" width="7" height="7" transform="rotate(90 293 457)" fill="#151515"/>
</g>
<g clip-path="url(#clip2_982_6424)">
<rect width="225" height="15" transform="matrix(0 1 -1 0 27 243)" fill="#404040"/>
<rect x="23" y="247" width="7" height="7" transform="rotate(90 23 247)" fill="#151515"/>
<rect x="23" y="262" width="7" height="7" transform="rotate(90 23 262)" fill="#151515"/>
<rect x="23" y="277" width="7" height="7" transform="rotate(90 23 277)" fill="#151515"/>
<rect x="23" y="292" width="7" height="7" transform="rotate(90 23 292)" fill="#151515"/>
<rect x="23" y="307" width="7" height="7" transform="rotate(90 23 307)" fill="#151515"/>
<rect x="23" y="322" width="7" height="7" transform="rotate(90 23 322)" fill="#151515"/>
<rect x="23" y="337" width="7" height="7" transform="rotate(90 23 337)" fill="#151515"/>
<rect x="23" y="352" width="7" height="7" transform="rotate(90 23 352)" fill="#151515"/>
<rect x="23" y="382" width="7" height="7" transform="rotate(90 23 382)" fill="#151515"/>
<rect x="23" y="397" width="7" height="7" transform="rotate(90 23 397)" fill="#151515"/>
<rect x="23" y="412" width="7" height="7" transform="rotate(90 23 412)" fill="#151515"/>
<rect x="23" y="427" width="7" height="7" transform="rotate(90 23 427)" fill="#151515"/>
<rect x="23" y="442" width="7" height="7" transform="rotate(90 23 442)" fill="#151515"/>
<rect x="23" y="457" width="7" height="7" transform="rotate(90 23 457)" fill="#151515"/>
</g>
<rect x="111" y="262" width="196" height="39" transform="rotate(90 111 262)" fill="#1A1A1A"/>
<g clip-path="url(#clip3_982_6424)">
<rect width="196" height="4" transform="matrix(0 1 -1 0 72 262)" fill="black"/>
<rect width="7" height="3" transform="matrix(0 1 -1 0 72 266)" fill="#E1E1E1"/>
<rect width="7" height="3" transform="matrix(0 1 -1 0 72 279)" fill="#E1E1E1"/>
<rect width="7" height="3" transform="matrix(0 1 -1 0 72 293)" fill="#E1E1E1"/>
<rect width="7" height="3" transform="matrix(0 1 -1 0 72 307)" fill="#E1E1E1"/>
<rect width="7" height="3" transform="matrix(0 1 -1 0 72 321)" fill="#E1E1E1"/>
<rect width="7" height="3" transform="matrix(0 1 -1 0 72 335)" fill="#E1E1E1"/>
<rect width="7" height="3" transform="matrix(0 1 -1 0 72 349)" fill="#E1E1E1"/>
<rect width="7" height="3" transform="matrix(0 1 -1 0 72 363)" fill="#E1E1E1"/>
<rect width="7" height="3" transform="matrix(0 1 -1 0 72 377)" fill="#E1E1E1"/>
<rect width="7" height="3" transform="matrix(0 1 -1 0 72 391)" fill="#E1E1E1"/>
<rect width="7" height="3" transform="matrix(0 1 -1 0 72 405)" fill="#E1E1E1"/>
<rect width="7" height="3" transform="matrix(0 1 -1 0 72 419)" fill="#E1E1E1"/>
<rect width="7" height="3" transform="matrix(0 1 -1 0 72 433)" fill="#E1E1E1"/>
<rect width="7" height="3" transform="matrix(0 1 -1 0 72 447)" fill="#E1E1E1"/>
</g>
<g clip-path="url(#clip4_982_6424)">
<rect width="196" height="4" transform="matrix(0 1 -1 0 115 262)" fill="black"/>
<rect width="7" height="3" transform="matrix(0 1 -1 0 114 266)" fill="#E1E1E1"/>
<rect width="7" height="3" transform="matrix(0 1 -1 0 114 279)" fill="#E1E1E1"/>
<rect width="7" height="3" transform="matrix(0 1 -1 0 114 293)" fill="#E1E1E1"/>
<rect width="7" height="3" transform="matrix(0 1 -1 0 114 307)" fill="#E1E1E1"/>
<rect width="7" height="3" transform="matrix(0 1 -1 0 114 321)" fill="#E1E1E1"/>
<rect width="7" height="3" transform="matrix(0 1 -1 0 114 335)" fill="#E1E1E1"/>
<rect width="7" height="3" transform="matrix(0 1 -1 0 114 349)" fill="#E1E1E1"/>
<rect width="7" height="3" transform="matrix(0 1 -1 0 114 363)" fill="#E1E1E1"/>
<rect width="7" height="3" transform="matrix(0 1 -1 0 114 377)" fill="#E1E1E1"/>
<rect width="7" height="3" transform="matrix(0 1 -1 0 114 391)" fill="#E1E1E1"/>
<rect width="7" height="3" transform="matrix(0 1 -1 0 114 405)" fill="#E1E1E1"/>
<rect width="7" height="3" transform="matrix(0 1 -1 0 114 419)" fill="#E1E1E1"/>
<rect width="7" height="3" transform="matrix(0 1 -1 0 114 433)" fill="#E1E1E1"/>
<rect width="7" height="3" transform="matrix(0 1 -1 0 114 447)" fill="#E1E1E1"/>
</g>
<circle cx="91.5" cy="304.5" r="8.5" transform="rotate(90 91.5 304.5)" fill="#0F0D0E"/>
<circle cx="91.5" cy="417.5" r="8.5" transform="rotate(90 91.5 417.5)" fill="#0F0D0E"/>
<path d="M264 184L267 187V196L264 199H252L252 184H255H264Z" fill="#404040"/>
<path d="M264 169L267 172V181L264 184H255H252L252 172L255 169H264Z" fill="#404040"/>
<path d="M252 184L252 199H240L237 196V187L240 184H252Z" fill="#404040"/>
<path d="M249 169L252 172L252 184H240L237 181V172L240 169H249Z" fill="#404040"/>
<path d="M264 199L267 202V211L264 214H255L252 211L252 199H264Z" fill="#404040"/>
<path d="M252 199L252 211L249 214H240L237 211V202L240 199H252Z" fill="#404040"/>
<path d="M162 480L159 483L150 483L147 480L147 468L162 468L162 471L162 480Z" fill="#404040"/>
<path d="M177 480L174 483L165 483L162 480L162 471L162 468L174 468L177 471L177 480Z" fill="#404040"/>
<path d="M162 468L147 468L147 456L150 453L159 453L162 456L162 468Z" fill="#404040"/>
<path d="M177 465L174 468L162 468L162 456L165 453L174 453L177 456L177 465Z" fill="#404040"/>
<path d="M147 480L144 483L135 483L132 480L132 471L135 468L147 468L147 480Z" fill="#404040"/>
<path d="M147 468L135 468L132 465L132 456L135 453L144 453L147 456L147 468Z" fill="#404040"/>
<rect x="263" y="203" width="7" height="7" transform="rotate(90 263 203)" fill="#D9D9D9"/>
<rect x="143" y="479" width="7" height="7" transform="rotate(-180 143 479)" fill="#D9D9D9"/>
<rect x="248" y="203" width="7" height="7" transform="rotate(90 248 203)" fill="#D9D9D9"/>
<rect x="143" y="464" width="7" height="7" transform="rotate(-180 143 464)" fill="#D9D9D9"/>
<rect x="263" y="173" width="7" height="7" transform="rotate(90 263 173)" fill="#D9D9D9"/>
<rect x="173" y="479" width="7" height="7" transform="rotate(-180 173 479)" fill="#D9D9D9"/>
<rect x="248" y="173" width="7" height="7" transform="rotate(90 248 173)" fill="#D9D9D9"/>
<rect x="71" y="183" width="36" height="37" transform="rotate(90 71 183)" fill="#1A1A1A"/>
<rect x="71" y="223" width="36" height="37" transform="rotate(90 71 223)" fill="#1A1A1A"/>
<rect x="173" y="464" width="7" height="7" transform="rotate(-180 173 464)" fill="#D9D9D9"/>
<rect x="263" y="188" width="7" height="7" transform="rotate(90 263 188)" fill="#D9D9D9"/>
<rect x="158" y="479" width="7" height="7" transform="rotate(-180 158 479)" fill="#D9D9D9"/>
<rect x="248" y="188" width="7" height="7" transform="rotate(90 248 188)" fill="#D9D9D9"/>
<rect x="158" y="464" width="7" height="7" transform="rotate(-180 158 464)" fill="#D9D9D9"/>
<rect x="292" y="123" width="34" height="34" transform="rotate(90 292 123)" fill="#B0B0B0"/>
<circle cx="275" cy="140" r="9" transform="rotate(90 275 140)" fill="#D9D9D9"/>
<rect x="248" y="65" width="91" height="66" transform="rotate(90 248 65)" fill="#D9D9D9"/>
<rect x="85" y="159" width="10" height="5" transform="rotate(90 85 159)" fill="#D9D9D9"/>
<rect x="115" y="159" width="10" height="5" transform="rotate(90 115 159)" fill="#D9D9D9"/>
<rect x="100" y="159" width="10" height="5" transform="rotate(90 100 159)" fill="#D9D9D9"/>
<rect x="102" y="135" width="4" height="9" transform="rotate(90 102 135)" fill="#D9D9D9"/>
<rect x="157" y="182" width="57" height="22" rx="11" transform="rotate(90 157 182)" fill="#D9D9D9"/>
<circle cx="52" cy="201" r="18" transform="rotate(90 52 201)" fill="#D9D9D9"/>
<circle cx="52" cy="241" r="18" transform="rotate(90 52 241)" fill="#D9D9D9"/>
<rect x="70" y="108" width="62" height="48" transform="rotate(90 70 108)" fill="#4B4D4D"/>
<rect x="70" y="91" width="17" height="48" transform="rotate(90 70 91)" fill="#222E2D"/>
<circle cx="281" cy="173" r="9" transform="rotate(90 281 173)" fill="white"/>
<circle cx="17" cy="183" r="9" transform="rotate(90 17 183)" fill="white"/>
<circle cx="44" cy="470" r="9" transform="rotate(90 44 470)" fill="white"/>
<circle cx="198" cy="469" r="9" transform="rotate(90 198 469)" fill="white"/>
<rect x="116" y="139" width="20" height="37" transform="rotate(90 116 139)" fill="#1A1A1A"/>
<rect x="122" y="203" width="16" height="17" transform="rotate(90 122 203)" fill="#1A1A1A"/>
<rect x="92" y="218" width="10" height="13" transform="rotate(90 92 218)" fill="#1A1A1A"/>
<rect x="161" y="423" width="10" height="13" transform="rotate(90 161 423)" fill="#1A1A1A"/>
<rect x="188" y="412" width="6" height="16" transform="rotate(90 188 412)" fill="#1A1A1A"/>
<rect x="207" y="202" width="28" height="28" transform="rotate(90 207 202)" fill="#1A1A1A"/>
<rect x="171" y="283" width="74" height="21" transform="rotate(90 171 283)" fill="white" fill-opacity="0.3"/>
<rect x="194" y="237" width="12" height="7" transform="rotate(90 194 237)" fill="white" fill-opacity="0.3"/>
<rect x="207" y="237" width="12" height="7" transform="rotate(90 207 237)" fill="white" fill-opacity="0.3"/>
<rect x="55" y="332" width="33" height="9" transform="rotate(90 55 332)" fill="white" fill-opacity="0.3"/>
<rect x="55" y="378" width="56" height="9" transform="rotate(90 55 378)" fill="white" fill-opacity="0.3"/>
<rect x="139" y="381" width="44" height="7" transform="rotate(90 139 381)" fill="white" fill-opacity="0.3"/>
<rect x="88" y="361" width="23" height="7" transform="rotate(90 88 361)" fill="white" fill-opacity="0.3"/>
<rect x="95" y="328" width="56" height="6" transform="rotate(90 95 328)" fill="white" fill-opacity="0.3"/>
<rect x="88" y="328" width="32" height="6" transform="rotate(90 88 328)" fill="white" fill-opacity="0.3"/>
<rect x="102" y="336" width="41" height="6" transform="rotate(90 102 336)" fill="white" fill-opacity="0.3"/>
<rect x="185" y="460" width="16" height="7" transform="rotate(90 185 460)" fill="white" fill-opacity="0.3"/>
<rect x="207" y="439" width="11" height="7" transform="rotate(90 207 439)" fill="white" fill-opacity="0.3"/>
<rect x="248" y="261" width="95" height="9" transform="rotate(90 248 261)" fill="white" fill-opacity="0.3"/>
<rect x="241" y="356" width="95" height="2" transform="rotate(90 241 356)" fill="white" fill-opacity="0.3"/>
<rect x="277" y="229" width="14" height="26" transform="rotate(90 277 229)" fill="white" fill-opacity="0.3"/>
<rect x="281" y="261" width="10" height="17" transform="rotate(90 281 261)" fill="white" fill-opacity="0.3"/>
<rect x="281" y="246" width="10" height="17" transform="rotate(90 281 246)" fill="white" fill-opacity="0.3"/>
<rect x="281" y="216" width="10" height="17" transform="rotate(90 281 216)" fill="white" fill-opacity="0.3"/>
<rect x="281" y="276" width="10" height="17" transform="rotate(90 281 276)" fill="white" fill-opacity="0.3"/>
<rect x="281" y="291" width="10" height="17" transform="rotate(90 281 291)" fill="white" fill-opacity="0.3"/>
<rect x="281" y="306" width="10" height="17" transform="rotate(90 281 306)" fill="white" fill-opacity="0.3"/>
<rect x="281" y="321" width="10" height="17" transform="rotate(90 281 321)" fill="white" fill-opacity="0.3"/>
<rect x="281" y="351" width="10" height="17" transform="rotate(90 281 351)" fill="white" fill-opacity="0.3"/>
<rect x="281" y="366" width="10" height="17" transform="rotate(90 281 366)" fill="white" fill-opacity="0.3"/>
<rect x="281" y="381" width="10" height="17" transform="rotate(90 281 381)" fill="white" fill-opacity="0.3"/>
<rect x="281" y="396" width="10" height="17" transform="rotate(90 281 396)" fill="white" fill-opacity="0.3"/>
<rect x="281" y="411" width="10" height="17" transform="rotate(90 281 411)" fill="white" fill-opacity="0.3"/>
<rect x="281" y="426" width="10" height="17" transform="rotate(90 281 426)" fill="white" fill-opacity="0.3"/>
<rect x="281" y="441" width="10" height="17" transform="rotate(90 281 441)" fill="white" fill-opacity="0.3"/>
<rect x="281" y="456" width="10" height="17" transform="rotate(90 281 456)" fill="white" fill-opacity="0.3"/>
<rect x="192" y="287" width="66" height="11" transform="rotate(90 192 287)" fill="white" fill-opacity="0.3"/>
<rect x="229" y="286" width="69" height="33" rx="16.5" transform="rotate(90 229 286)" fill="white" fill-opacity="0.3"/>
<rect x="42" y="381" width="10" height="14" transform="rotate(90 42 381)" fill="white" fill-opacity="0.3"/>
<rect x="42" y="306" width="10" height="14" transform="rotate(90 42 306)" fill="white" fill-opacity="0.3"/>
<rect x="42" y="291" width="10" height="14" transform="rotate(90 42 291)" fill="white" fill-opacity="0.3"/>
<rect x="52" y="276" width="10" height="24" transform="rotate(90 52 276)" fill="white" fill-opacity="0.3"/>
<rect x="52" y="261" width="10" height="24" transform="rotate(90 52 261)" fill="white" fill-opacity="0.3"/>
<rect x="42" y="351" width="10" height="14" transform="rotate(90 42 351)" fill="white" fill-opacity="0.3"/>
<rect x="42" y="395" width="10" height="14" transform="rotate(90 42 395)" fill="white" fill-opacity="0.3"/>
<rect x="42" y="409" width="10" height="14" transform="rotate(90 42 409)" fill="white" fill-opacity="0.3"/>
<rect x="42" y="423" width="10" height="14" transform="rotate(90 42 423)" fill="white" fill-opacity="0.3"/>
<rect x="42" y="437" width="10" height="14" transform="rotate(90 42 437)" fill="white" fill-opacity="0.3"/>
<rect x="42" y="451" width="10" height="14" transform="rotate(90 42 451)" fill="white" fill-opacity="0.3"/>
</g>
<path fill-rule="evenodd" clip-rule="evenodd" d="M476.56 0H495.66V216.154H408.635V0H427.97V41.9406H476.56V0ZM424.838 18.5124C424.838 22.1572 421.883 25.112 418.238 25.112C414.593 25.112 411.639 22.1572 411.639 18.5124C411.639 14.8675 414.593 11.9127 418.238 11.9127C421.883 11.9127 424.838 14.8675 424.838 18.5124ZM419.722 55.1758C421.827 55.1758 423.533 53.4698 423.533 51.3654C423.533 49.261 421.827 47.5551 419.722 47.5551C417.618 47.5551 415.912 49.261 415.912 51.3654C415.912 53.4698 417.618 55.1758 419.722 55.1758ZM478.546 51.3654C478.546 53.4698 476.84 55.1758 474.736 55.1758C472.632 55.1758 470.926 53.4698 470.926 51.3654C470.926 49.261 472.632 47.5551 474.736 47.5551C476.84 47.5551 478.546 49.261 478.546 51.3654ZM486.051 25.112C489.696 25.112 492.651 22.1572 492.651 18.5124C492.651 14.8675 489.696 11.9127 486.051 11.9127C482.407 11.9127 479.452 14.8675 479.452 18.5124C479.452 22.1572 482.407 25.112 486.051 25.112ZM469.709 174.337C469.709 184.036 461.846 191.899 452.147 191.899C442.448 191.899 434.585 184.036 434.585 174.337C434.585 164.638 442.448 156.775 452.147 156.775C461.846 156.775 469.709 164.638 469.709 174.337Z" fill="#DE3629"/>
<path d="M478.506 214.877V201.697H425.789V214.877H478.506Z" fill="#404040"/>
<path d="M474.992 211.362V205.212H468.841L468.841 211.362H474.992Z" fill="#151515"/>
<path d="M461.812 211.362V205.212H455.662L455.662 211.362H461.812Z" fill="#151515"/>
<path d="M448.634 211.362V205.212H442.483L442.483 211.362H448.634Z" fill="#151515"/>
<path d="M435.453 211.362V205.212H429.303L429.303 211.362H435.453Z" fill="#151515"/>
<path d="M474.113 247.343V206.09H469.72V247.343H474.113Z" fill="#D9D9D9"/>
<path d="M460.934 247.343V206.09H456.54V247.343H460.934Z" fill="#D9D9D9"/>
<path d="M447.754 247.343V206.09H443.361V247.343H447.754Z" fill="#D9D9D9"/>
<path d="M434.575 247.343V206.09H430.182V247.343H434.575Z" fill="#D9D9D9"/>
<rect x="411.919" y="186.563" width="7.41332" height="12.3259" fill="#D9D9D9"/>
<rect x="484.7" y="186.563" width="7.41332" height="12.3259" fill="#D9D9D9"/>
<rect x="408.635" y="87.3687" width="29.4033" height="58.1077" fill="#138DC3"/>
<circle cx="413.983" cy="140.128" r="5.34875" fill="#E9C68F"/>
<line x1="415.777" y1="135.308" x2="412.785" y2="145.189" stroke="#C8AF88"/>
<rect x="458.737" y="98.3958" width="27.0591" height="26.9785" fill="#151515"/>
<rect x="460.499" y="94.5706" width="2.29751" height="3.8253" fill="#D9D9D9"/>
<rect x="460.499" y="125.375" width="2.29751" height="3.8253" fill="#D9D9D9"/>
<rect x="467.578" y="94.5706" width="2.29751" height="3.8253" fill="#D9D9D9"/>
<rect x="467.578" y="125.375" width="2.29751" height="3.8253" fill="#D9D9D9"/>
<rect x="474.657" y="94.5706" width="2.29751" height="3.8253" fill="#D9D9D9"/>
<rect x="474.657" y="125.375" width="2.29751" height="3.8253" fill="#D9D9D9"/>
<rect x="481.737" y="94.5706" width="2.29751" height="3.8253" fill="#D9D9D9"/>
<rect x="481.737" y="125.375" width="2.29751" height="3.8253" fill="#D9D9D9"/>
<rect x="458.076" y="46.8438" width="10.2857" height="6.84151" rx="3.42075" fill="#D9D9D9"/>
<rect x="438.457" y="46.8438" width="10.2857" height="6.84151" rx="3.42075" fill="#D9D9D9"/>
<circle cx="453.017" cy="34.8788" r="13.5605" fill="#151515"/>
<circle cx="453.017" cy="34.8788" r="13.5605" stroke="#D9D9D9" stroke-width="2"/>
<circle cx="453.017" cy="34.8788" r="13.5605" stroke="black" stroke-opacity="0.2" stroke-width="2"/>
<path d="M431.106 201.697H429.531L431.932 194.742H433.827L436.224 201.697H434.648L432.906 196.332H432.852L431.106 201.697ZM431.008 198.963H434.73V200.111H431.008V198.963Z" fill="white"/>
<path d="M447.188 196.99C447.141 196.825 447.074 196.679 446.988 196.552C446.902 196.423 446.797 196.314 446.672 196.226C446.55 196.136 446.409 196.067 446.251 196.019C446.095 195.971 445.921 195.948 445.731 195.948C445.376 195.948 445.063 196.036 444.794 196.213C444.527 196.389 444.319 196.646 444.169 196.983C444.02 197.319 443.945 197.728 443.945 198.213C443.945 198.697 444.019 199.109 444.166 199.449C444.313 199.789 444.521 200.048 444.791 200.227C445.06 200.403 445.378 200.492 445.745 200.492C446.078 200.492 446.362 200.433 446.597 200.315C446.835 200.195 447.016 200.026 447.141 199.809C447.267 199.592 447.331 199.335 447.331 199.038L447.63 199.082H445.837V197.975H448.747V198.851C448.747 199.463 448.618 199.988 448.36 200.427C448.102 200.864 447.746 201.201 447.293 201.439C446.841 201.675 446.322 201.792 445.738 201.792C445.086 201.792 444.513 201.648 444.02 201.361C443.526 201.071 443.141 200.66 442.865 200.128C442.591 199.594 442.454 198.96 442.454 198.226C442.454 197.663 442.536 197.16 442.699 196.719C442.864 196.275 443.095 195.899 443.391 195.591C443.688 195.283 444.033 195.049 444.427 194.888C444.821 194.727 445.248 194.647 445.708 194.647C446.101 194.647 446.468 194.705 446.808 194.82C447.147 194.933 447.449 195.094 447.711 195.302C447.976 195.511 448.192 195.759 448.36 196.046C448.527 196.331 448.635 196.646 448.682 196.99H447.188Z" fill="white"/>
<path d="M457.79 200.842V196.033H459.005V200.842H457.79ZM455.993 199.046V197.83H460.802V199.046H455.993Z" fill="white"/>
<path d="M471.4 201.697H468.934V194.742H471.42C472.12 194.742 472.722 194.881 473.227 195.16C473.732 195.436 474.12 195.833 474.392 196.352C474.665 196.87 474.802 197.491 474.802 198.213C474.802 198.937 474.665 199.56 474.392 200.081C474.12 200.601 473.729 201.001 473.22 201.28C472.713 201.558 472.106 201.697 471.4 201.697ZM470.405 200.437H471.338C471.773 200.437 472.139 200.36 472.435 200.206C472.734 200.05 472.958 199.809 473.108 199.483C473.26 199.155 473.335 198.731 473.335 198.213C473.335 197.699 473.26 197.279 473.108 196.953C472.958 196.627 472.735 196.387 472.439 196.233C472.142 196.079 471.777 196.002 471.342 196.002H470.405V200.437Z" fill="white"/>
<path d="M472.12 243.656L472.12 414.57L292.356 414.57" stroke="#007300" stroke-width="4"/>
<path d="M458.398 243.656L458.397 310.613L20.3557 310.612" stroke="#DE3629" stroke-width="4"/>
<path d="M446.26 243.656L446.26 345.716L19.5439 345.716L19.5439 325.588" stroke="#FFC900" stroke-width="4"/>
<path d="M432.877 244.549L432.877 386.153L20.7295 386.153" stroke="#07B3FF" stroke-width="4"/>
<defs>
<clipPath id="clip0_982_6424">
<rect width="451" height="312" fill="white" transform="matrix(0 1 -1 0 312 48)"/>
</clipPath>
<clipPath id="clip1_982_6424">
<rect width="285" height="15" fill="white" transform="matrix(0 1 -1 0 297 183)"/>
</clipPath>
<clipPath id="clip2_982_6424">
<rect width="225" height="15" fill="white" transform="matrix(0 1 -1 0 27 243)"/>
</clipPath>
<clipPath id="clip3_982_6424">
<rect width="196" height="4" fill="white" transform="matrix(0 1 -1 0 72 262)"/>
</clipPath>
<clipPath id="clip4_982_6424">
<rect width="196" height="4" fill="white" transform="matrix(0 1 -1 0 115 262)"/>
</clipPath>
</defs>
</svg>
