<svg width="622" height="208" viewBox="0 0 622 208" fill="none" xmlns="http://www.w3.org/2000/svg">
<path fill-rule="evenodd" clip-rule="evenodd" d="M540.602 5.30853H4.42334V207.924H540.602V5.30853ZM30.9655 31.8523C36.8294 31.8523 41.5829 27.0987 41.5829 21.2349C41.5829 15.371 36.8294 10.6175 30.9655 10.6175C25.1017 10.6175 20.3481 15.371 20.3481 21.2349C20.3481 27.0987 25.1017 31.8523 30.9655 31.8523ZM519.365 29.198C519.365 35.0618 514.611 39.8154 508.748 39.8154C502.884 39.8154 498.13 35.0618 498.13 29.198C498.13 23.3342 502.884 18.5806 508.748 18.5806C514.611 18.5806 519.365 23.3342 519.365 29.198ZM30.9655 201.731C36.8294 201.731 41.5829 196.977 41.5829 191.113C41.5829 185.249 36.8294 180.496 30.9655 180.496C25.1017 180.496 20.3481 185.249 20.3481 191.113C20.3481 196.977 25.1017 201.731 30.9655 201.731Z" fill="#78426A"/>
<rect x="571.637" y="130.063" width="60.0291" height="13.3398" transform="rotate(90 571.637 130.063)" fill="#E4C798"/>
<rect x="558.774" y="130.063" width="60.0291" height="6.66991" transform="rotate(90 558.774 130.063)" fill="#BEAA86"/>
<rect x="622" y="138.956" width="42.2427" height="51.136" transform="rotate(90 622 138.956)" fill="#E4C798"/>
<rect x="617.554" y="138.956" width="42.2427" height="2.2233" transform="rotate(90 617.554 138.956)" fill="#1A1A1A"/>
<rect x="613.109" y="138.956" width="42.2427" height="2.2233" transform="rotate(90 613.109 138.956)" fill="#BEAA86"/>
<rect x="608.661" y="138.956" width="42.2427" height="2.2233" transform="rotate(90 608.661 138.956)" fill="#BEAA86"/>
<rect x="604.216" y="138.956" width="42.2427" height="2.2233" transform="rotate(90 604.216 138.956)" fill="#BEAA86"/>
<rect x="599.771" y="138.956" width="42.2427" height="2.2233" transform="rotate(90 599.771 138.956)" fill="#BEAA86"/>
<rect x="595.326" y="138.956" width="42.2427" height="2.2233" transform="rotate(90 595.326 138.956)" fill="#BEAA86"/>
<rect x="590.878" y="138.956" width="42.2427" height="2.2233" transform="rotate(90 590.878 138.956)" fill="#BEAA86"/>
<rect x="617.554" y="138.956" width="42.2427" height="2.2233" transform="rotate(90 617.554 138.956)" fill="#BEAA86"/>
<rect x="522.02" y="141.565" width="30.9674" height="4.42391" fill="#E4C798"/>
<rect x="522.02" y="174.302" width="30.9674" height="4.42391" fill="#E4C798"/>
<rect x="522.02" y="156.607" width="30.9674" height="4.42391" fill="#E4C798"/>
<rect width="128.294" height="135.228" transform="matrix(0 1 -1 0 497.102 42.4696)" fill="#25882F"/>
<rect x="497.102" y="51.0225" width="8.55291" height="5.63451" transform="rotate(90 497.102 51.0225)" fill="#E9C68F"/>
<ellipse cx="491.467" cy="55.299" rx="4.27645" ry="4.22588" transform="rotate(90 491.467 55.299)" fill="#E9C68F"/>
<ellipse cx="491.467" cy="55.299" rx="2.85097" ry="2.81726" transform="rotate(90 491.467 55.299)" fill="white"/>
<rect x="367.508" y="51.0225" width="8.55291" height="5.63451" transform="rotate(90 367.508 51.0225)" fill="#E9C68F"/>
<ellipse cx="367.508" cy="55.299" rx="4.27645" ry="4.22588" transform="rotate(90 367.508 55.299)" fill="#E9C68F"/>
<ellipse cx="367.508" cy="55.299" rx="2.85097" ry="2.81725" transform="rotate(90 367.508 55.299)" fill="white"/>
<rect x="367.508" y="96.638" width="8.55291" height="5.63451" transform="rotate(90 367.508 96.638)" fill="#E9C68F"/>
<ellipse cx="367.508" cy="100.914" rx="4.27645" ry="4.22588" transform="rotate(90 367.508 100.914)" fill="#E9C68F"/>
<ellipse cx="367.508" cy="100.914" rx="2.85097" ry="2.81725" transform="rotate(90 367.508 100.914)" fill="white"/>
<rect x="367.508" y="62.4264" width="8.55291" height="5.63451" transform="rotate(90 367.508 62.4264)" fill="#E9C68F"/>
<ellipse cx="367.508" cy="66.7028" rx="4.27645" ry="4.22588" transform="rotate(90 367.508 66.7028)" fill="#E9C68F"/>
<ellipse cx="367.508" cy="66.7028" rx="2.85097" ry="2.81725" transform="rotate(90 367.508 66.7028)" fill="white"/>
<rect x="367.508" y="108.042" width="8.55291" height="5.63451" transform="rotate(90 367.508 108.042)" fill="#E9C68F"/>
<ellipse cx="367.508" cy="112.318" rx="4.27645" ry="4.22588" transform="rotate(90 367.508 112.318)" fill="#E9C68F"/>
<ellipse cx="367.508" cy="112.318" rx="2.85097" ry="2.81725" transform="rotate(90 367.508 112.318)" fill="white"/>
<rect x="367.508" y="73.8303" width="8.55291" height="5.63451" transform="rotate(90 367.508 73.8303)" fill="#E9C68F"/>
<ellipse cx="367.508" cy="78.1067" rx="4.27645" ry="4.22588" transform="rotate(90 367.508 78.1067)" fill="#E9C68F"/>
<ellipse cx="367.508" cy="78.1067" rx="2.85097" ry="2.81725" transform="rotate(90 367.508 78.1067)" fill="white"/>
<rect x="367.508" y="119.446" width="8.5529" height="5.63451" transform="rotate(90 367.508 119.446)" fill="#E9C68F"/>
<ellipse cx="367.508" cy="123.722" rx="4.27645" ry="4.22588" transform="rotate(90 367.508 123.722)" fill="#E9C68F"/>
<ellipse cx="367.508" cy="123.722" rx="2.85097" ry="2.81725" transform="rotate(90 367.508 123.722)" fill="white"/>
<rect x="367.508" y="142.254" width="8.55291" height="5.63451" transform="rotate(90 367.508 142.254)" fill="#E9C68F"/>
<ellipse cx="367.508" cy="146.53" rx="4.27645" ry="4.22588" transform="rotate(90 367.508 146.53)" fill="#E9C68F"/>
<ellipse cx="367.508" cy="146.53" rx="2.85097" ry="2.81725" transform="rotate(90 367.508 146.53)" fill="white"/>
<rect x="367.508" y="85.2341" width="8.55291" height="5.63451" transform="rotate(90 367.508 85.2341)" fill="#E9C68F"/>
<ellipse cx="367.508" cy="89.5106" rx="4.27645" ry="4.22588" transform="rotate(90 367.508 89.5106)" fill="#E9C68F"/>
<ellipse cx="367.508" cy="89.5106" rx="2.85097" ry="2.81725" transform="rotate(90 367.508 89.5106)" fill="white"/>
<rect x="367.508" y="130.85" width="8.5529" height="5.63451" transform="rotate(90 367.508 130.85)" fill="#E9C68F"/>
<ellipse cx="367.508" cy="135.126" rx="4.27645" ry="4.22588" transform="rotate(90 367.508 135.126)" fill="#E9C68F"/>
<ellipse cx="367.508" cy="135.126" rx="2.85097" ry="2.81725" transform="rotate(90 367.508 135.126)" fill="white"/>
<rect x="367.508" y="153.657" width="8.5529" height="5.63451" transform="rotate(90 367.508 153.657)" fill="#E9C68F"/>
<ellipse cx="367.508" cy="157.934" rx="4.27645" ry="4.22588" transform="rotate(90 367.508 157.934)" fill="#E9C68F"/>
<ellipse cx="367.508" cy="157.934" rx="2.85097" ry="2.81725" transform="rotate(90 367.508 157.934)" fill="white"/>
<rect x="497.102" y="96.638" width="8.55291" height="5.63451" transform="rotate(90 497.102 96.638)" fill="#E9C68F"/>
<ellipse cx="491.467" cy="100.914" rx="4.27645" ry="4.22588" transform="rotate(90 491.467 100.914)" fill="#E9C68F"/>
<ellipse cx="491.467" cy="100.914" rx="2.85097" ry="2.81726" transform="rotate(90 491.467 100.914)" fill="white"/>
<rect x="497.102" y="62.4264" width="8.55291" height="5.63451" transform="rotate(90 497.102 62.4264)" fill="#E9C68F"/>
<ellipse cx="491.467" cy="66.7028" rx="4.27645" ry="4.22588" transform="rotate(90 491.467 66.7028)" fill="#E9C68F"/>
<ellipse cx="491.467" cy="66.7028" rx="2.85097" ry="2.81726" transform="rotate(90 491.467 66.7028)" fill="white"/>
<rect x="497.102" y="108.042" width="8.55291" height="5.63451" transform="rotate(90 497.102 108.042)" fill="#E9C68F"/>
<ellipse cx="491.467" cy="112.318" rx="4.27645" ry="4.22588" transform="rotate(90 491.467 112.318)" fill="#E9C68F"/>
<ellipse cx="491.467" cy="112.318" rx="2.85097" ry="2.81726" transform="rotate(90 491.467 112.318)" fill="white"/>
<rect x="497.102" y="73.8303" width="8.55291" height="5.63451" transform="rotate(90 497.102 73.8303)" fill="#E9C68F"/>
<ellipse cx="491.467" cy="78.1067" rx="4.27645" ry="4.22588" transform="rotate(90 491.467 78.1067)" fill="#E9C68F"/>
<ellipse cx="491.467" cy="78.1067" rx="2.85097" ry="2.81726" transform="rotate(90 491.467 78.1067)" fill="white"/>
<rect x="497.102" y="119.446" width="8.5529" height="5.63451" transform="rotate(90 497.102 119.446)" fill="#E9C68F"/>
<ellipse cx="491.467" cy="123.722" rx="4.27645" ry="4.22588" transform="rotate(90 491.467 123.722)" fill="#E9C68F"/>
<ellipse cx="491.467" cy="123.722" rx="2.85097" ry="2.81726" transform="rotate(90 491.467 123.722)" fill="white"/>
<rect x="497.102" y="85.2341" width="8.55291" height="5.63451" transform="rotate(90 497.102 85.2341)" fill="#E9C68F"/>
<ellipse cx="491.467" cy="89.5106" rx="4.27645" ry="4.22588" transform="rotate(90 491.467 89.5106)" fill="#E9C68F"/>
<ellipse cx="491.467" cy="89.5106" rx="2.85097" ry="2.81726" transform="rotate(90 491.467 89.5106)" fill="white"/>
<rect x="497.102" y="130.85" width="8.5529" height="5.63451" transform="rotate(90 497.102 130.85)" fill="#E9C68F"/>
<ellipse cx="491.467" cy="135.126" rx="4.27645" ry="4.22588" transform="rotate(90 491.467 135.126)" fill="#E9C68F"/>
<ellipse cx="491.467" cy="135.126" rx="2.85097" ry="2.81726" transform="rotate(90 491.467 135.126)" fill="white"/>
<rect x="497.102" y="142.254" width="8.55291" height="5.63451" transform="rotate(90 497.102 142.254)" fill="#E9C68F"/>
<ellipse cx="491.467" cy="146.53" rx="4.27645" ry="4.22588" transform="rotate(90 491.467 146.53)" fill="#E9C68F"/>
<ellipse cx="491.467" cy="146.53" rx="2.85097" ry="2.81726" transform="rotate(90 491.467 146.53)" fill="white"/>
<rect x="497.102" y="153.657" width="8.5529" height="5.63451" transform="rotate(90 497.102 153.657)" fill="#E9C68F"/>
<ellipse cx="491.467" cy="157.934" rx="4.27645" ry="4.22588" transform="rotate(90 491.467 157.934)" fill="#E9C68F"/>
<ellipse cx="491.467" cy="157.934" rx="2.85097" ry="2.81726" transform="rotate(90 491.467 157.934)" fill="white"/>
<rect x="444.982" y="52.448" width="54.1684" height="53.5279" transform="rotate(90 444.982 52.448)" fill="#1A1A1A"/>
<rect x="480.198" y="130.85" width="11.4039" height="19.7208" transform="rotate(90 480.198 130.85)" fill="#1A1A1A"/>
<rect x="425.261" y="147.955" width="17.1058" height="8.45177" transform="rotate(90 425.261 147.955)" fill="#1A1A1A"/>
<rect x="477.381" y="46.746" width="25.6587" height="16.9035" transform="rotate(90 477.381 46.746)" fill="white" fill-opacity="0.3"/>
<rect x="522.379" y="123.445" width="17.6957" height="19.4652" transform="rotate(-90 522.379 123.445)" fill="#404040"/>
<rect x="527.688" y="118.136" width="7.07826" height="8.84784" transform="rotate(-90 527.688 118.136)" fill="#D9D9D9"/>
<rect x="527.688" y="112.829" width="1.76957" height="8.84784" transform="rotate(-90 527.688 112.829)" fill="#C9C9C9"/>
<rect x="527.688" y="112.829" width="1.76957" height="8.84784" transform="rotate(-90 527.688 112.829)" fill="#C9C9C9"/>
<rect x="522.379" y="106.387" width="17.6957" height="19.4652" transform="rotate(-90 522.379 106.387)" fill="#404040"/>
<rect x="527.688" y="101.078" width="7.07826" height="8.84784" transform="rotate(-90 527.688 101.078)" fill="#D9D9D9"/>
<rect x="527.688" y="95.772" width="1.76957" height="8.84784" transform="rotate(-90 527.688 95.772)" fill="#C9C9C9"/>
<rect x="527.688" y="95.772" width="1.76957" height="8.84784" transform="rotate(-90 527.688 95.772)" fill="#C9C9C9"/>
<rect x="522.379" y="89.3298" width="17.6957" height="19.4652" transform="rotate(-90 522.379 89.3298)" fill="#404040"/>
<rect x="527.688" y="84.021" width="7.07826" height="8.84784" transform="rotate(-90 527.688 84.021)" fill="#D9D9D9"/>
<rect x="527.688" y="78.7145" width="1.76957" height="8.84784" transform="rotate(-90 527.688 78.7145)" fill="#C9C9C9"/>
<rect x="527.688" y="78.7145" width="1.76957" height="8.84784" transform="rotate(-90 527.688 78.7145)" fill="#C9C9C9"/>
<rect x="522.379" y="72.2725" width="17.6957" height="19.4652" transform="rotate(-90 522.379 72.2725)" fill="#404040"/>
<rect x="527.688" y="66.9675" width="7.07826" height="8.84784" transform="rotate(-90 527.688 66.9675)" fill="#D9D9D9"/>
<rect x="527.688" y="61.6564" width="1.76957" height="8.84784" transform="rotate(-90 527.688 61.6564)" fill="#C9C9C9"/>
<rect x="527.688" y="61.6564" width="1.76957" height="8.84784" transform="rotate(-90 527.688 61.6564)" fill="#C9C9C9"/>
<rect x="117.379" y="29.8611" width="17.6957" height="19.4652" transform="rotate(-180 117.379 29.8611)" fill="#404040"/>
<rect x="112.072" y="24.5523" width="7.07827" height="8.84784" transform="rotate(-180 112.072 24.5523)" fill="#D9D9D9"/>
<rect x="106.766" y="24.5523" width="1.76957" height="8.84784" transform="rotate(-180 106.766 24.5523)" fill="#C9C9C9"/>
<rect x="106.766" y="24.5523" width="1.76957" height="8.84784" transform="rotate(-180 106.766 24.5523)" fill="#C9C9C9"/>
<rect x="100.324" y="29.8611" width="17.6957" height="19.4652" transform="rotate(-180 100.324 29.8611)" fill="#404040"/>
<rect x="95.0142" y="24.5524" width="7.07827" height="8.84784" transform="rotate(-180 95.0142 24.5524)" fill="#D9D9D9"/>
<rect x="89.7041" y="24.5524" width="1.76957" height="8.84784" transform="rotate(-180 89.7041 24.5524)" fill="#C9C9C9"/>
<rect x="89.7041" y="24.5524" width="1.76957" height="8.84784" transform="rotate(-180 89.7041 24.5524)" fill="#C9C9C9"/>
<rect x="83.2666" y="29.8611" width="17.6957" height="19.4652" transform="rotate(-180 83.2666 29.8611)" fill="#404040"/>
<rect x="77.9604" y="24.5524" width="7.07827" height="8.84784" transform="rotate(-180 77.9604 24.5524)" fill="#D9D9D9"/>
<rect x="72.6514" y="24.5524" width="1.76957" height="8.84784" transform="rotate(-180 72.6514 24.5524)" fill="#C9C9C9"/>
<rect x="72.6514" y="24.5524" width="1.76957" height="8.84784" transform="rotate(-180 72.6514 24.5524)" fill="#C9C9C9"/>
<rect x="66.207" y="29.8611" width="17.6957" height="19.4652" transform="rotate(-180 66.207 29.8611)" fill="#404040"/>
<rect x="60.9028" y="24.5524" width="7.07827" height="8.84784" transform="rotate(-180 60.9028 24.5524)" fill="#D9D9D9"/>
<rect x="55.5928" y="24.5524" width="1.76957" height="8.84784" transform="rotate(-180 55.5928 24.5524)" fill="#C9C9C9"/>
<rect x="55.5928" y="24.5524" width="1.76957" height="8.84784" transform="rotate(-180 55.5928 24.5524)" fill="#C9C9C9"/>
<rect x="361.875" y="27.4283" width="27.4283" height="41.5848" transform="rotate(-90 361.875 27.4283)" fill="#007300"/>
<rect x="361.875" y="27.4283" width="2.65435" height="41.5848" transform="rotate(-90 361.875 27.4283)" fill="black" fill-opacity="0.2"/>
<circle cx="392.198" cy="13.5126" r="8.20392" transform="rotate(-90 392.198 13.5126)" fill="#E1E1E1"/>
<ellipse cx="372.732" cy="13.5126" rx="8.20392" ry="8.20392" transform="rotate(-90 372.732 13.5126)" fill="#E1E1E1"/>
<rect x="404.347" y="27.4286" width="27.4283" height="41.5848" transform="rotate(-90 404.347 27.4286)" fill="#007300"/>
<rect x="404.347" y="27.4286" width="2.65435" height="41.5848" transform="rotate(-90 404.347 27.4286)" fill="black" fill-opacity="0.2"/>
<circle cx="434.669" cy="13.5129" r="8.20392" transform="rotate(-90 434.669 13.5129)" fill="#E1E1E1"/>
<ellipse cx="415.204" cy="13.5128" rx="8.20392" ry="8.20392" transform="rotate(-90 415.204 13.5128)" fill="#E1E1E1"/>
<rect x="446.814" y="27.4283" width="27.4283" height="41.5848" transform="rotate(-90 446.814 27.4283)" fill="#007300"/>
<rect x="446.814" y="27.4283" width="2.65435" height="41.5848" transform="rotate(-90 446.814 27.4283)" fill="black" fill-opacity="0.2"/>
<circle cx="477.136" cy="13.5125" r="8.20392" transform="rotate(-90 477.136 13.5125)" fill="#E1E1E1"/>
<ellipse cx="457.673" cy="13.5124" rx="8.20392" ry="8.20392" transform="rotate(-90 457.673 13.5124)" fill="#E1E1E1"/>
<path d="M66.3674 195.158C66.3674 198.794 63.4197 201.742 59.7835 201.742C56.1474 201.742 53.1997 198.794 53.1997 195.158C53.1997 191.522 56.1474 188.574 59.7835 188.574C63.4197 188.574 66.3674 191.522 66.3674 195.158Z" fill="#B1B1B1" stroke="#D9D9D9" stroke-width="2"/>
<path d="M83.4333 195.158C83.4333 198.794 80.4856 201.742 76.8495 201.742C73.2133 201.742 70.2656 198.794 70.2656 195.158C70.2656 191.522 73.2133 188.574 76.8495 188.574C80.4856 188.574 83.4333 191.522 83.4333 195.158Z" fill="#B1B1B1" stroke="#D9D9D9" stroke-width="2"/>
<path d="M100.491 195.158C100.491 198.794 97.5437 201.742 93.9076 201.742C90.2714 201.742 87.3237 198.794 87.3237 195.158C87.3237 191.522 90.2714 188.574 93.9076 188.574C97.5437 188.574 100.491 191.522 100.491 195.158Z" fill="#B1B1B1" stroke="#D9D9D9" stroke-width="2"/>
<path d="M117.558 195.158C117.558 198.794 114.61 201.742 110.974 201.742C107.338 201.742 104.39 198.794 104.39 195.158C104.39 191.522 107.338 188.574 110.974 188.574C114.61 188.574 117.558 191.522 117.558 195.158Z" fill="#B1B1B1" stroke="#D9D9D9" stroke-width="2"/>
<path d="M79.5159 56.6261C79.5159 59.4944 77.1907 61.8196 74.3224 61.8196C71.4541 61.8196 69.1289 59.4944 69.1289 56.6261C69.1289 53.7578 71.4541 51.4326 74.3224 51.4326C77.1907 51.4326 79.5159 53.7578 79.5159 56.6261Z" fill="#B1B1B1" stroke="#D9D9D9" stroke-width="2"/>
<path d="M100.623 56.6262C100.623 59.4945 98.2976 61.8197 95.4293 61.8197C92.561 61.8197 90.2358 59.4945 90.2358 56.6262C90.2358 53.7579 92.561 51.4327 95.4293 51.4327C98.2976 51.4327 100.623 53.7579 100.623 56.6262Z" fill="#B1B1B1" stroke="#D9D9D9" stroke-width="2"/>
<path d="M54.8566 70.013C57.7249 70.013 60.0501 72.3382 60.0501 75.2065C60.0501 78.0748 57.7249 80.4 54.8566 80.4C51.9883 80.4 49.6631 78.0748 49.6631 75.2065C49.6631 72.3382 51.9883 70.013 54.8566 70.013Z" fill="#B1B1B1" stroke="#D9D9D9" stroke-width="2"/>
<path d="M54.8566 51.4325C57.7249 51.4325 60.0501 53.7578 60.0501 56.626C60.0501 59.4943 57.7249 61.8195 54.8566 61.8195C51.9883 61.8195 49.6631 59.4943 49.6631 56.626C49.6631 53.7578 51.9883 51.4325 54.8566 51.4325Z" fill="#B1B1B1" stroke="#D9D9D9" stroke-width="2"/>
<path d="M80.3987 149.528C80.3987 152.396 78.0735 154.722 75.2052 154.722C72.3369 154.722 70.0117 152.396 70.0117 149.528C70.0117 146.66 72.3369 144.335 75.2052 144.335C78.0735 144.335 80.3987 146.66 80.3987 149.528Z" fill="#B1B1B1" stroke="#D9D9D9" stroke-width="2"/>
<path d="M101.507 149.528C101.507 152.396 99.1814 154.722 96.3131 154.722C93.4448 154.722 91.1196 152.396 91.1196 149.528C91.1196 146.66 93.4448 144.335 96.3131 144.335C99.1814 144.335 101.507 146.66 101.507 149.528Z" fill="#B1B1B1" stroke="#D9D9D9" stroke-width="2"/>
<path d="M150.27 195.083C150.27 198.677 147.356 201.591 143.762 201.591C140.167 201.591 137.253 198.677 137.253 195.083C137.253 191.488 140.167 188.574 143.762 188.574C147.356 188.574 150.27 191.488 150.27 195.083Z" fill="#B1B1B1" stroke="#D9D9D9" stroke-width="2"/>
<path d="M167.163 195.082C167.163 198.677 164.249 201.591 160.655 201.591C157.06 201.591 154.146 198.677 154.146 195.082C154.146 191.488 157.06 188.574 160.655 188.574C164.249 188.574 167.163 191.488 167.163 195.082Z" fill="#B1B1B1" stroke="#D9D9D9" stroke-width="2"/>
<path d="M184.064 195.082C184.064 198.677 181.15 201.591 177.555 201.591C173.961 201.591 171.047 198.677 171.047 195.082C171.047 191.488 173.961 188.574 177.555 188.574C181.15 188.574 184.064 191.488 184.064 195.082Z" fill="#B1B1B1" stroke="#D9D9D9" stroke-width="2"/>
<path d="M200.956 195.082C200.956 198.677 198.042 201.591 194.447 201.591C190.853 201.591 187.939 198.677 187.939 195.082C187.939 191.488 190.853 188.574 194.447 188.574C198.042 188.574 200.956 191.488 200.956 195.082Z" fill="#B1B1B1" stroke="#D9D9D9" stroke-width="2"/>
<path d="M217.841 195.082C217.841 198.677 214.927 201.591 211.333 201.591C207.739 201.591 204.825 198.677 204.825 195.082C204.825 191.488 207.739 188.574 211.333 188.574C214.927 188.574 217.841 191.488 217.841 195.082Z" fill="#B1B1B1" stroke="#D9D9D9" stroke-width="2"/>
<path d="M234.738 195.082C234.738 198.677 231.824 201.591 228.23 201.591C224.636 201.591 221.722 198.677 221.722 195.082C221.722 191.488 224.636 188.574 228.23 188.574C231.824 188.574 234.738 191.488 234.738 195.082Z" fill="#B1B1B1" stroke="#D9D9D9" stroke-width="2"/>
<path d="M251.63 195.082C251.63 198.677 248.717 201.591 245.122 201.591C241.528 201.591 238.614 198.677 238.614 195.082C238.614 191.488 241.528 188.574 245.122 188.574C248.717 188.574 251.63 191.488 251.63 195.082Z" fill="#B1B1B1" stroke="#D9D9D9" stroke-width="2"/>
<path d="M268.526 195.082C268.526 198.677 265.612 201.591 262.018 201.591C258.423 201.591 255.509 198.677 255.509 195.082C255.509 191.488 258.423 188.574 262.018 188.574C265.612 188.574 268.526 191.488 268.526 195.082Z" fill="#B1B1B1" stroke="#D9D9D9" stroke-width="2"/>
<path d="M285.418 195.082C285.418 198.677 282.505 201.591 278.91 201.591C275.316 201.591 272.402 198.677 272.402 195.082C272.402 191.488 275.316 188.574 278.91 188.574C282.505 188.574 285.418 191.488 285.418 195.082Z" fill="#B1B1B1" stroke="#D9D9D9" stroke-width="2"/>
<path d="M302.312 195.082C302.312 198.677 299.398 201.591 295.803 201.591C292.209 201.591 289.295 198.677 289.295 195.082C289.295 191.488 292.209 188.574 295.803 188.574C299.398 188.574 302.312 191.488 302.312 195.082Z" fill="#B1B1B1" stroke="#D9D9D9" stroke-width="2"/>
<path d="M319.209 195.082C319.209 198.677 316.295 201.591 312.701 201.591C309.106 201.591 306.192 198.677 306.192 195.082C306.192 191.488 309.106 188.574 312.701 188.574C316.295 188.574 319.209 191.488 319.209 195.082Z" fill="#B1B1B1" stroke="#D9D9D9" stroke-width="2"/>
<path d="M336.098 195.082C336.098 198.677 333.184 201.591 329.589 201.591C325.995 201.591 323.081 198.677 323.081 195.082C323.081 191.488 325.995 188.574 329.589 188.574C333.184 188.574 336.098 191.488 336.098 195.082Z" fill="#B1B1B1" stroke="#D9D9D9" stroke-width="2"/>
<path d="M142.906 18.4235C142.906 22.1824 139.859 25.2295 136.1 25.2295C132.342 25.2295 129.294 22.1824 129.294 18.4235C129.294 14.6646 132.342 11.6175 136.1 11.6175C139.859 11.6175 142.906 14.6646 142.906 18.4235Z" fill="#B1B1B1" stroke="#D9D9D9" stroke-width="2"/>
<path d="M160.464 18.4235C160.464 22.1824 157.416 25.2295 153.658 25.2295C149.899 25.2295 146.852 22.1824 146.852 18.4235C146.852 14.6646 149.899 11.6175 153.658 11.6175C157.416 11.6175 160.464 14.6646 160.464 18.4235Z" fill="#B1B1B1" stroke="#D9D9D9" stroke-width="2"/>
<path d="M178.033 18.4235C178.033 22.1824 174.986 25.2295 171.227 25.2295C167.468 25.2295 164.421 22.1824 164.421 18.4235C164.421 14.6646 167.468 11.6175 171.227 11.6175C174.986 11.6175 178.033 14.6646 178.033 18.4235Z" fill="#B1B1B1" stroke="#D9D9D9" stroke-width="2"/>
<path d="M195.598 18.4235C195.598 22.1824 192.551 25.2295 188.792 25.2295C185.033 25.2295 181.986 22.1824 181.986 18.4235C181.986 14.6646 185.033 11.6175 188.792 11.6175C192.551 11.6175 195.598 14.6646 195.598 18.4235Z" fill="#B1B1B1" stroke="#D9D9D9" stroke-width="2"/>
<path d="M213.157 18.4235C213.157 22.1824 210.11 25.2295 206.351 25.2295C202.592 25.2295 199.545 22.1824 199.545 18.4235C199.545 14.6646 202.592 11.6175 206.351 11.6175C210.11 11.6175 213.157 14.6646 213.157 18.4235Z" fill="#B1B1B1" stroke="#D9D9D9" stroke-width="2"/>
<path d="M230.722 18.4235C230.722 22.1824 227.675 25.2295 223.916 25.2295C220.157 25.2295 217.11 22.1824 217.11 18.4235C217.11 14.6646 220.157 11.6175 223.916 11.6175C227.675 11.6175 230.722 14.6646 230.722 18.4235Z" fill="#B1B1B1" stroke="#D9D9D9" stroke-width="2"/>
<path d="M248.285 18.4235C248.285 22.1824 245.238 25.2295 241.479 25.2295C237.72 25.2295 234.673 22.1824 234.673 18.4235C234.673 14.6646 237.72 11.6175 241.479 11.6175C245.238 11.6175 248.285 14.6646 248.285 18.4235Z" fill="#B1B1B1" stroke="#D9D9D9" stroke-width="2"/>
<path d="M265.849 18.4235C265.849 22.1824 262.802 25.2295 259.043 25.2295C255.284 25.2295 252.237 22.1824 252.237 18.4235C252.237 14.6646 255.284 11.6175 259.043 11.6175C262.802 11.6175 265.849 14.6646 265.849 18.4235Z" fill="#B1B1B1" stroke="#D9D9D9" stroke-width="2"/>
<path d="M283.408 18.4235C283.408 22.1824 280.361 25.2295 276.602 25.2295C272.844 25.2295 269.796 22.1824 269.796 18.4235C269.796 14.6646 272.844 11.6175 276.602 11.6175C280.361 11.6175 283.408 14.6646 283.408 18.4235Z" fill="#B1B1B1" stroke="#D9D9D9" stroke-width="2"/>
<path d="M300.973 18.4235C300.973 22.1824 297.926 25.2295 294.167 25.2295C290.408 25.2295 287.361 22.1824 287.361 18.4235C287.361 14.6646 290.408 11.6175 294.167 11.6175C297.926 11.6175 300.973 14.6646 300.973 18.4235Z" fill="#B1B1B1" stroke="#D9D9D9" stroke-width="2"/>
<path d="M318.543 18.4235C318.543 22.1824 315.496 25.2295 311.737 25.2295C307.978 25.2295 304.931 22.1824 304.931 18.4235C304.931 14.6646 307.978 11.6175 311.737 11.6175C315.496 11.6175 318.543 14.6646 318.543 18.4235Z" fill="#B1B1B1" stroke="#D9D9D9" stroke-width="2"/>
<path d="M336.103 18.4235C336.103 22.1824 333.056 25.2295 329.297 25.2295C325.538 25.2295 322.491 22.1824 322.491 18.4235C322.491 14.6646 325.538 11.6175 329.297 11.6175C333.056 11.6175 336.103 14.6646 336.103 18.4235Z" fill="#B1B1B1" stroke="#D9D9D9" stroke-width="2"/>
<path d="M374.425 196.118C374.425 199.307 371.84 201.893 368.65 201.893C365.461 201.893 362.875 199.307 362.875 196.118C362.875 192.929 365.461 190.343 368.65 190.343C371.84 190.343 374.425 192.929 374.425 196.118Z" fill="#B1B1B1" stroke="#D9D9D9" stroke-width="2"/>
<path d="M389.67 196.118C389.67 199.307 387.084 201.893 383.895 201.893C380.706 201.893 378.12 199.307 378.12 196.118C378.12 192.929 380.706 190.343 383.895 190.343C387.084 190.343 389.67 192.929 389.67 196.118Z" fill="#B1B1B1" stroke="#D9D9D9" stroke-width="2"/>
<path d="M404.91 196.118C404.91 199.307 402.325 201.893 399.136 201.893C395.946 201.893 393.361 199.307 393.361 196.118C393.361 192.929 395.946 190.343 399.136 190.343C402.325 190.343 404.91 192.929 404.91 196.118Z" fill="#B1B1B1" stroke="#D9D9D9" stroke-width="2"/>
<path d="M420.153 196.118C420.153 199.307 417.568 201.893 414.378 201.893C411.189 201.893 408.604 199.307 408.604 196.118C408.604 192.929 411.189 190.343 414.378 190.343C417.568 190.343 420.153 192.929 420.153 196.118Z" fill="#B1B1B1" stroke="#D9D9D9" stroke-width="2"/>
<rect x="24.7739" y="169.853" width="24.7739" height="59.5673" transform="rotate(-180 24.7739 169.853)" fill="#007300"/>
<rect x="24.7739" y="169.853" width="2.47739" height="59.5673" transform="rotate(-180 24.7739 169.853)" fill="black" fill-opacity="0.2"/>
<ellipse cx="9.90864" cy="122.673" rx="7.43219" ry="7.43218" transform="rotate(-180 9.90864 122.673)" fill="#E1E1E1"/>
<ellipse cx="9.90864" cy="140.014" rx="7.43219" ry="7.43218" transform="rotate(-180 9.90864 140.014)" fill="#E1E1E1"/>
<ellipse cx="9.90864" cy="157.357" rx="7.43219" ry="7.43218" transform="rotate(-180 9.90864 157.357)" fill="#E1E1E1"/>
<rect x="24.7739" y="108.828" width="24.7739" height="74.3218" transform="rotate(-180 24.7739 108.828)" fill="#007300"/>
<rect x="24.7739" y="108.828" width="2.47739" height="74.3218" transform="rotate(-180 24.7739 108.828)" fill="black" fill-opacity="0.2"/>
<ellipse cx="9.90961" cy="46.8936" rx="7.43218" ry="7.43218" transform="rotate(-180 9.90961 46.8936)" fill="#E1E1E1"/>
<ellipse cx="9.90961" cy="64.2354" rx="7.43218" ry="7.43218" transform="rotate(-180 9.90961 64.2354)" fill="#E1E1E1"/>
<ellipse cx="9.90961" cy="81.5777" rx="7.43218" ry="7.43218" transform="rotate(-180 9.90961 81.5777)" fill="#E1E1E1"/>
<ellipse cx="9.90961" cy="97.917" rx="7.43218" ry="7.43218" transform="rotate(-180 9.90961 97.917)" fill="#E1E1E1"/>
<rect x="125.611" y="160.265" width="18.2763" height="18.2763" fill="#404040"/>
<rect x="130.18" y="164.834" width="9.13817" height="9.13817" fill="#151515"/>
<rect x="143.639" y="160.265" width="18.2763" height="18.2763" fill="#404040"/>
<rect x="148.207" y="164.834" width="9.13817" height="9.13817" fill="#151515"/>
<rect x="161.665" y="160.265" width="18.2763" height="18.2763" fill="#404040"/>
<rect x="166.235" y="164.834" width="9.13817" height="9.13817" fill="#151515"/>
<rect x="179.692" y="160.265" width="18.2763" height="18.2763" fill="#404040"/>
<rect x="184.263" y="164.834" width="9.13817" height="9.13817" fill="#151515"/>
<rect x="197.72" y="160.265" width="18.2763" height="18.2763" fill="#404040"/>
<rect x="202.288" y="164.834" width="9.13817" height="9.13817" fill="#151515"/>
<rect x="215.743" y="160.265" width="18.2763" height="18.2763" fill="#404040"/>
<rect x="220.317" y="164.834" width="9.13817" height="9.13817" fill="#151515"/>
<rect x="233.774" y="160.265" width="18.2763" height="18.2763" fill="#404040"/>
<rect x="238.34" y="164.834" width="9.13817" height="9.13817" fill="#151515"/>
<rect x="251.8" y="160.265" width="18.2763" height="18.2763" fill="#404040"/>
<rect x="256.372" y="164.834" width="9.13817" height="9.13817" fill="#151515"/>
<rect x="269.829" y="160.265" width="18.2763" height="18.2763" fill="#404040"/>
<rect x="274.396" y="164.834" width="9.13817" height="9.13817" fill="#151515"/>
<rect x="287.854" y="160.265" width="18.2763" height="18.2763" fill="#404040"/>
<rect x="292.426" y="164.834" width="9.13817" height="9.13817" fill="#151515"/>
<rect x="305.88" y="160.265" width="18.2763" height="18.2763" fill="#404040"/>
<rect x="310.45" y="164.834" width="9.13817" height="9.13817" fill="#151515"/>
<rect x="323.911" y="160.265" width="18.2763" height="18.2763" fill="#404040"/>
<rect x="328.479" y="164.834" width="9.13817" height="9.13817" fill="#151515"/>
<rect x="125.611" y="34.652" width="18.2763" height="18.2763" fill="#404040"/>
<rect x="130.18" y="39.221" width="9.13817" height="9.13817" fill="#151515"/>
<rect x="143.639" y="34.652" width="18.2763" height="18.2763" fill="#404040"/>
<rect x="148.207" y="39.221" width="9.13817" height="9.13817" fill="#151515"/>
<rect x="161.665" y="34.652" width="18.2763" height="18.2763" fill="#404040"/>
<rect x="166.235" y="39.2209" width="9.13817" height="9.13817" fill="#151515"/>
<rect x="179.692" y="34.652" width="18.2763" height="18.2763" fill="#404040"/>
<rect x="184.263" y="39.221" width="9.13817" height="9.13817" fill="#151515"/>
<rect x="197.72" y="34.652" width="18.2763" height="18.2763" fill="#404040"/>
<rect x="202.288" y="39.221" width="9.13817" height="9.13817" fill="#151515"/>
<rect x="215.743" y="34.652" width="18.2763" height="18.2763" fill="#404040"/>
<rect x="220.317" y="39.221" width="9.13817" height="9.13817" fill="#151515"/>
<rect x="233.774" y="34.652" width="18.2763" height="18.2763" fill="#404040"/>
<rect x="238.34" y="39.2209" width="9.13817" height="9.13817" fill="#151515"/>
<rect x="251.8" y="34.652" width="18.2763" height="18.2763" fill="#404040"/>
<rect x="256.372" y="39.221" width="9.13817" height="9.13817" fill="#151515"/>
<rect x="269.829" y="34.652" width="18.2763" height="18.2763" fill="#404040"/>
<rect x="274.396" y="39.221" width="9.13817" height="9.13817" fill="#151515"/>
<rect x="287.854" y="34.652" width="18.2763" height="18.2763" fill="#404040"/>
<rect x="292.426" y="39.221" width="9.13817" height="9.13817" fill="#151515"/>
<rect x="305.88" y="34.652" width="18.2763" height="18.2763" fill="#404040"/>
<rect x="310.45" y="39.221" width="9.13817" height="9.13817" fill="#151515"/>
<rect x="323.911" y="34.652" width="18.2763" height="18.2763" fill="#404040"/>
<rect x="328.479" y="39.2209" width="9.13817" height="9.13817" fill="#151515"/>
<rect x="323.992" y="52.8441" width="18.2789" height="17.326" fill="#404040"/>
<rect x="328.563" y="57.1756" width="9.13945" height="8.66299" fill="#151515"/>
<rect x="323.992" y="70.1701" width="18.2789" height="17.326" fill="#404040"/>
<rect x="328.563" y="74.5015" width="9.13945" height="8.66299" fill="#151515"/>
<rect x="323.992" y="87.4963" width="18.2789" height="17.326" fill="#404040"/>
<rect x="328.563" y="91.8277" width="9.13945" height="8.66299" fill="#151515"/>
<rect x="173.259" y="51.978" width="17.326" height="18.2789" fill="#404040"/>
<rect x="177.591" y="56.5477" width="8.66299" height="9.13946" fill="#151515"/>
<rect x="190.587" y="51.9779" width="17.326" height="18.2789" fill="#404040"/>
<rect x="194.917" y="56.5477" width="8.66299" height="9.13946" fill="#151515"/>
</svg>
