<svg width="343" height="183" viewBox="0 0 343 183" fill="none" xmlns="http://www.w3.org/2000/svg">
<rect width="333.973" height="182.167" transform="matrix(1 0 0 -1 9.0271 182.167)" fill="#224082"/>
<ellipse cx="21.5619" cy="12.5366" rx="9.52776" ry="9.52776" fill="#C1C4A1"/>
<ellipse cx="21.5634" cy="12.5364" rx="7.52192" ry="7.52192" fill="#FFFEEA"/>
<ellipse cx="47.6386" cy="12.5366" rx="9.52776" ry="9.52776" fill="#C1C4A1"/>
<ellipse cx="47.6396" cy="12.5364" rx="7.52192" ry="7.52192" fill="#FFFEEA"/>
<ellipse cx="73.7157" cy="12.5366" rx="9.52776" ry="9.52776" fill="#C1C4A1"/>
<ellipse cx="73.716" cy="12.5364" rx="7.52192" ry="7.52192" fill="#FFFEEA"/>
<ellipse cx="99.7912" cy="12.5366" rx="9.52776" ry="9.52776" fill="#C1C4A1"/>
<ellipse cx="99.7905" cy="12.5364" rx="7.52192" ry="7.52192" fill="#FFFEEA"/>
<ellipse cx="125.867" cy="12.5366" rx="9.52776" ry="9.52776" fill="#C1C4A1"/>
<ellipse cx="125.866" cy="12.5364" rx="7.52192" ry="7.52192" fill="#FFFEEA"/>
<ellipse cx="151.944" cy="12.5366" rx="9.52776" ry="9.52776" fill="#C1C4A1"/>
<ellipse cx="151.944" cy="12.5364" rx="7.52192" ry="7.52192" fill="#FFFEEA"/>
<ellipse cx="178.018" cy="12.5366" rx="9.52776" ry="9.52776" fill="#C1C4A1"/>
<ellipse cx="178.019" cy="12.5364" rx="7.52192" ry="7.52192" fill="#FFFEEA"/>
<ellipse cx="204.093" cy="12.5366" rx="9.52776" ry="9.52776" fill="#C1C4A1"/>
<ellipse cx="204.095" cy="12.5364" rx="7.52192" ry="7.52192" fill="#FFFEEA"/>
<ellipse cx="230.17" cy="12.5366" rx="9.52776" ry="9.52776" fill="#C1C4A1"/>
<ellipse cx="230.171" cy="12.5364" rx="7.52192" ry="7.52192" fill="#FFFEEA"/>
<ellipse cx="256.247" cy="12.5366" rx="9.52776" ry="9.52776" fill="#C1C4A1"/>
<path d="M263.768 12.5364C263.768 16.6907 260.401 20.0584 256.246 20.0584C252.092 20.0584 248.724 16.6907 248.724 12.5364C248.724 8.3822 252.092 5.01453 256.246 5.01453C260.401 5.01453 263.768 8.3822 263.768 12.5364Z" fill="#FFFEEA"/>
<ellipse cx="282.322" cy="12.5366" rx="9.52776" ry="9.52776" fill="#C1C4A1"/>
<ellipse cx="282.322" cy="12.5364" rx="7.52192" ry="7.52192" fill="#FFFEEA"/>
<ellipse cx="308.4" cy="12.5366" rx="9.52776" ry="9.52776" fill="#C1C4A1"/>
<ellipse cx="308.397" cy="12.5364" rx="7.52192" ry="7.52192" fill="#FFFEEA"/>
<ellipse cx="21.5619" cy="170.998" rx="9.52776" ry="9.52776" fill="#C1C4A1"/>
<ellipse cx="21.5634" cy="170.998" rx="7.52192" ry="7.52192" fill="#FFFEEA"/>
<ellipse cx="47.6386" cy="170.998" rx="9.52776" ry="9.52776" fill="#C1C4A1"/>
<ellipse cx="47.6396" cy="170.998" rx="7.52192" ry="7.52192" fill="#FFFEEA"/>
<ellipse cx="73.7157" cy="170.998" rx="9.52776" ry="9.52776" fill="#C1C4A1"/>
<ellipse cx="73.716" cy="170.998" rx="7.52192" ry="7.52192" fill="#FFFEEA"/>
<ellipse cx="99.7912" cy="170.998" rx="9.52776" ry="9.52776" fill="#C1C4A1"/>
<ellipse cx="99.7905" cy="170.998" rx="7.52192" ry="7.52192" fill="#FFFEEA"/>
<ellipse cx="125.867" cy="170.998" rx="9.52776" ry="9.52776" fill="#C1C4A1"/>
<ellipse cx="125.866" cy="170.998" rx="7.52192" ry="7.52192" fill="#FFFEEA"/>
<ellipse cx="151.944" cy="170.998" rx="9.52776" ry="9.52776" fill="#C1C4A1"/>
<ellipse cx="151.944" cy="170.998" rx="7.52192" ry="7.52192" fill="#FFFEEA"/>
<ellipse cx="178.018" cy="170.998" rx="9.52776" ry="9.52776" fill="#C1C4A1"/>
<ellipse cx="178.019" cy="170.998" rx="7.52192" ry="7.52192" fill="#FFFEEA"/>
<ellipse cx="204.093" cy="170.998" rx="9.52776" ry="9.52776" fill="#C1C4A1"/>
<ellipse cx="204.095" cy="170.998" rx="7.52192" ry="7.52192" fill="#FFFEEA"/>
<ellipse cx="230.17" cy="170.998" rx="9.52776" ry="9.52776" fill="#C1C4A1"/>
<ellipse cx="230.171" cy="170.998" rx="7.52192" ry="7.52192" fill="#FFFEEA"/>
<ellipse cx="256.247" cy="170.998" rx="9.52776" ry="9.52776" fill="#C1C4A1"/>
<path d="M263.768 170.998C263.768 175.153 260.401 178.52 256.246 178.52C252.092 178.52 248.724 175.153 248.724 170.998C248.724 166.844 252.092 163.476 256.246 163.476C260.401 163.476 263.768 166.844 263.768 170.998Z" fill="#FFFEEA"/>
<ellipse cx="282.322" cy="170.998" rx="9.52776" ry="9.52776" fill="#C1C4A1"/>
<ellipse cx="282.322" cy="170.998" rx="7.52192" ry="7.52192" fill="#FFFEEA"/>
<ellipse cx="308.4" cy="170.998" rx="9.52776" ry="9.52776" fill="#C1C4A1"/>
<ellipse cx="308.397" cy="170.998" rx="7.52192" ry="7.52192" fill="#FFFEEA"/>
<ellipse cx="330.462" cy="27.5804" rx="9.52776" ry="9.52776" fill="#C1C4A1"/>
<ellipse cx="330.462" cy="27.5805" rx="7.52192" ry="7.52192" fill="#FFFEEA"/>
<ellipse cx="330.462" cy="53.6564" rx="9.52776" ry="9.52776" fill="#C1C4A1"/>
<ellipse cx="330.461" cy="53.6563" rx="7.52192" ry="7.52192" fill="#FFFEEA"/>
<ellipse cx="330.462" cy="79.7323" rx="9.52776" ry="9.52776" fill="#C1C4A1"/>
<ellipse cx="330.461" cy="79.7323" rx="7.52192" ry="7.52192" fill="#FFFEEA"/>
<ellipse cx="330.462" cy="105.808" rx="9.52776" ry="9.52776" fill="#C1C4A1"/>
<ellipse cx="330.461" cy="105.808" rx="7.52192" ry="7.52192" fill="#FFFEEA"/>
<ellipse cx="330.462" cy="131.884" rx="9.52776" ry="9.52776" fill="#C1C4A1"/>
<ellipse cx="330.461" cy="131.884" rx="7.52192" ry="7.52192" fill="#FFFEEA"/>
<ellipse cx="330.462" cy="157.96" rx="9.52776" ry="9.52776" fill="#C1C4A1"/>
<ellipse cx="330.461" cy="157.96" rx="7.52192" ry="7.52192" fill="#FFFEEA"/>
<circle cx="85.7217" cy="148.906" r="9.5" fill="#C1C4A1"/>
<circle cx="85.7217" cy="148.906" r="7.5" fill="#FFFEEA"/>
<circle cx="111.722" cy="148.906" r="9.5" fill="#C1C4A1"/>
<circle cx="111.722" cy="148.906" r="7.5" fill="#FFFEEA"/>
<circle cx="193.034" cy="148.906" r="9.5" fill="#C1C4A1"/>
<circle cx="193.034" cy="148.906" r="7.5" fill="#FFFEEA"/>
<circle cx="219.034" cy="148.906" r="9.5" fill="#C1C4A1"/>
<circle cx="219.034" cy="148.906" r="7.5" fill="#FFFEEA"/>
<circle cx="239.534" cy="148.906" r="4" fill="#D9D9D9"/>
<circle cx="239.533" cy="148.906" r="3.2" fill="#B1B1B1"/>
<rect x="153.693" y="41.6207" width="69.1398" height="69.1398" rx="3" transform="rotate(45 153.693 41.6207)" fill="#38373F"/>
<rect x="156.703" y="44.6324" width="18.0827" height="5.51543" transform="rotate(-45 156.703 44.6324)" fill="#A4A4A4"/>
<rect x="162.157" y="50.0876" width="18.0827" height="5.51543" transform="rotate(-45 162.157 50.0876)" fill="#A4A4A4"/>
<rect x="167.616" y="55.5485" width="18.0827" height="5.51543" transform="rotate(-45 167.616 55.5485)" fill="#A4A4A4"/>
<rect x="173.081" y="61.0096" width="18.0827" height="5.51543" transform="rotate(-45 173.081 61.0096)" fill="#A4A4A4"/>
<rect x="178.539" y="66.4694" width="18.0827" height="5.51543" transform="rotate(-45 178.539 66.4694)" fill="#A4A4A4"/>
<rect x="184.002" y="71.9306" width="18.0827" height="5.51543" transform="rotate(-45 184.002 71.9306)" fill="#A4A4A4"/>
<rect x="189.461" y="77.3917" width="18.0827" height="5.51543" transform="rotate(-45 189.461 77.3917)" fill="#A4A4A4"/>
<rect x="194.915" y="82.8472" width="18.0827" height="5.51543" transform="rotate(-45 194.915 82.8472)" fill="#A4A4A4"/>
<rect x="95.0278" y="106.308" width="18.0827" height="5.51543" transform="rotate(-45 95.0278 106.308)" fill="#A4A4A4"/>
<rect x="100.483" y="111.763" width="18.0827" height="5.51543" transform="rotate(-45 100.483 111.763)" fill="#A4A4A4"/>
<rect x="105.944" y="117.224" width="18.0827" height="5.51543" transform="rotate(-45 105.944 117.224)" fill="#A4A4A4"/>
<rect x="111.405" y="122.685" width="18.0827" height="5.51543" transform="rotate(-45 111.405 122.685)" fill="#A4A4A4"/>
<rect x="116.864" y="128.145" width="18.0827" height="5.51543" transform="rotate(-45 116.864 128.145)" fill="#A4A4A4"/>
<rect x="122.325" y="133.606" width="18.0827" height="5.51543" transform="rotate(-45 122.325 133.606)" fill="#A4A4A4"/>
<rect x="127.788" y="139.067" width="18.0827" height="5.51543" transform="rotate(-45 127.788 139.067)" fill="#A4A4A4"/>
<rect x="133.244" y="144.523" width="18.0827" height="5.51543" transform="rotate(-45 133.244 144.523)" fill="#A4A4A4"/>
<rect x="170.237" y="148.426" width="18.0827" height="5.51543" transform="rotate(-135 170.237 148.426)" fill="#A4A4A4"/>
<rect x="175.698" y="142.966" width="18.0827" height="5.51543" transform="rotate(-135 175.698 142.966)" fill="#A4A4A4"/>
<rect x="181.159" y="137.506" width="18.0827" height="5.51543" transform="rotate(-135 181.159 137.506)" fill="#A4A4A4"/>
<rect x="186.619" y="132.046" width="18.0827" height="5.51543" transform="rotate(-135 186.619 132.046)" fill="#A4A4A4"/>
<rect x="192.078" y="126.586" width="18.0827" height="5.51543" transform="rotate(-135 192.078 126.586)" fill="#A4A4A4"/>
<rect x="197.536" y="121.126" width="18.0827" height="5.51543" transform="rotate(-135 197.536 121.126)" fill="#A4A4A4"/>
<rect x="202.998" y="115.666" width="18.0827" height="5.51543" transform="rotate(-135 202.998 115.666)" fill="#A4A4A4"/>
<rect x="208.457" y="110.206" width="18.0827" height="5.51543" transform="rotate(-135 208.457 110.206)" fill="#A4A4A4"/>
<rect x="108.563" y="86.749" width="18.0827" height="5.51543" transform="rotate(-135 108.563 86.749)" fill="#A4A4A4"/>
<rect x="114.023" y="81.2893" width="18.0827" height="5.51543" transform="rotate(-135 114.023 81.2893)" fill="#A4A4A4"/>
<rect x="119.482" y="75.829" width="18.0827" height="5.51543" transform="rotate(-135 119.482 75.829)" fill="#A4A4A4"/>
<rect x="124.941" y="70.3693" width="18.0827" height="5.51543" transform="rotate(-135 124.941 70.3693)" fill="#A4A4A4"/>
<rect x="130.4" y="64.9091" width="18.0827" height="5.51543" transform="rotate(-135 130.4 64.9091)" fill="#A4A4A4"/>
<rect x="135.862" y="59.4493" width="18.0827" height="5.51543" transform="rotate(-135 135.862 59.4493)" fill="#A4A4A4"/>
<rect x="141.322" y="53.9893" width="18.0827" height="5.51543" transform="rotate(-135 141.322 53.9893)" fill="#A4A4A4"/>
<rect x="146.781" y="48.5295" width="18.0827" height="5.51543" transform="rotate(-135 146.781 48.5295)" fill="#A4A4A4"/>
<circle cx="187.54" cy="89.7598" r="5.8503" transform="rotate(45 187.54 89.7598)" fill="#1E1C27"/>
<rect x="50.5378" y="56.1156" width="8.91815" height="63.418" fill="#D9D9D9"/>
<rect x="11.8911" y="56.1156" width="8.91815" height="63.418" fill="#D9D9D9"/>
<path d="M25.1756 62.5801L46.0318 62.5801L60.7794 77.3276L60.7794 98.1838L46.0318 112.931L25.1756 112.931L10.4281 98.1838L10.4281 77.3276L25.1756 62.5801Z" fill="#B9B1AE"/>
<path d="M27.6093 68.2321L43.915 68.2321L55.4449 79.762L55.4449 96.0678L43.915 107.598L27.6093 107.598L16.0794 96.0678L16.0794 79.762L27.6093 68.2321Z" fill="#38373F"/>
<path d="M28.2187 69.6452L43.3869 69.6452L54.1124 80.3707L54.1124 95.5388L43.3869 106.264L28.2187 106.264L17.4932 95.5388L17.4932 80.3707L28.2187 69.6452Z" fill="#D9D9D9"/>
<path d="M28.9029 71.6698L42.1751 71.6699L51.5599 81.0547L51.5599 94.3268L42.1751 103.712L28.9029 103.712L19.5181 94.3268L19.5181 81.0547L28.9029 71.6698Z" fill="#B3ADAF"/>
<ellipse cx="36.1672" cy="88.3201" rx="10.4045" ry="10.4045" fill="#E7DCA5"/>
<ellipse cx="36.1676" cy="88.32" rx="8.4227" ry="8.4227" fill="#CBB876"/>
<rect x="237.693" y="130.38" width="40.1169" height="16.0468" fill="#A4A4A4"/>
<rect x="242.708" y="130.38" width="26.076" height="16.0468" fill="#1D1D1F"/>
<rect x="268.781" y="130.38" width="3.00877" height="16.0468" fill="#D9D9D9"/>
<rect x="237.693" y="46.1344" width="40.1169" height="16.0468" fill="#A4A4A4"/>
<rect x="242.708" y="46.1344" width="26.076" height="16.0468" fill="#1D1D1F"/>
<rect x="268.781" y="46.1344" width="3.00877" height="16.0468" fill="#D9D9D9"/>
<rect x="26.0762" y="139.406" width="22.0643" height="8.82572" fill="#A4A4A4"/>
<rect x="29.9382" y="139.406" width="14.3418" height="8.82572" fill="#EED4A6"/>
<rect x="225.658" y="103.301" width="22.0643" height="8.82572" transform="rotate(-90 225.658 103.301)" fill="#A4A4A4"/>
<rect x="225.658" y="99.4385" width="14.3418" height="8.82572" transform="rotate(-90 225.658 99.4385)" fill="#EED4A6"/>
<rect x="51.1494" y="141.412" width="15.0438" height="6.01754" fill="#A4A4A4"/>
<rect x="53.7808" y="141.412" width="9.77849" height="6.01754" fill="#1D1D1F"/>
<rect x="35.103" y="40.1169" width="15.0438" height="6.01754" fill="#A4A4A4"/>
<rect x="37.7354" y="40.1169" width="9.77849" height="6.01754" fill="#1D1D1F"/>
<rect x="80.2324" y="105.307" width="15.0438" height="6.01753" transform="rotate(-90 80.2324 105.307)" fill="#A4A4A4"/>
<rect x="80.2324" y="102.674" width="9.77849" height="6.01753" transform="rotate(-90 80.2324 102.674)" fill="#1D1D1F"/>
<rect x="80.2324" y="105.307" width="15.0438" height="6.01753" transform="rotate(-90 80.2324 105.307)" fill="#A4A4A4"/>
<rect x="80.2324" y="102.674" width="9.77849" height="6.01753" transform="rotate(-90 80.2324 102.674)" fill="#937B63"/>
<rect x="57.1658" y="40.1169" width="15.0438" height="6.01754" fill="#A4A4A4"/>
<rect x="59.7983" y="40.1169" width="9.77849" height="6.01754" fill="#937B63"/>
<rect x="209.61" y="55.1607" width="15.0438" height="6.01754" fill="#A4A4A4"/>
<rect x="212.244" y="55.1608" width="9.77849" height="6.01754" fill="#937B63"/>
<rect x="307.897" y="139.406" width="15.0438" height="6.01753" transform="rotate(-90 307.897 139.406)" fill="#A4A4A4"/>
<rect x="307.897" y="136.773" width="9.77849" height="6.01753" transform="rotate(-90 307.897 136.773)" fill="#937B63"/>
<rect x="241.705" y="85.2485" width="29.0848" height="16.0468" fill="#1D1D1F"/>
<rect x="241.705" y="87.2543" width="29.0848" height="12.0351" fill="#38373F"/>
<rect x="243.71" y="75.2192" width="4.01169" height="10.0292" fill="#E1E1E1"/>
<rect x="253.74" y="101.295" width="4.01169" height="10.0292" fill="#E1E1E1"/>
<rect x="263.77" y="101.295" width="4.01169" height="10.0292" fill="#E1E1E1"/>
<rect x="243.71" y="101.295" width="4.01169" height="10.0292" fill="#E1E1E1"/>
<rect x="263.77" y="75.2192" width="4.01169" height="10.0292" fill="#E1E1E1"/>
<rect x="198.579" y="36.1053" width="4.01169" height="15.0438" fill="#D9D9D9"/>
<rect x="224.656" y="36.1053" width="4.01169" height="15.0438" fill="#D9D9D9"/>
<rect x="211.617" y="36.1053" width="4.01169" height="15.0438" fill="#D9D9D9"/>
<rect x="196.573" y="37.1082" width="34.0994" height="13.038" fill="#A4A4A4"/>
<rect x="197.576" y="38.1111" width="32.0935" height="11.0321" rx="2" fill="#D9D9D9"/>
<ellipse cx="208.606" cy="91.2659" rx="4.01169" ry="4.01169" fill="#D9D9D9"/>
<circle cx="208.609" cy="91.2659" r="3.20935" fill="#B1B1B1"/>
<ellipse cx="221.645" cy="109.319" rx="4.01169" ry="4.01169" fill="#D9D9D9"/>
<circle cx="221.645" cy="109.319" r="3.20935" fill="#B1B1B1"/>
<ellipse cx="165.482" cy="160.468" rx="4.01169" ry="4.01169" fill="#D9D9D9"/>
<circle cx="165.482" cy="160.468" r="3.20935" fill="#B1B1B1"/>
<ellipse cx="237.693" cy="69.2016" rx="4.01169" ry="4.01169" fill="#D9D9D9"/>
<circle cx="237.69" cy="69.2017" r="3.20935" fill="#B1B1B1"/>
<ellipse cx="69.2019" cy="55.1607" rx="4.01169" ry="4.01169" fill="#D9D9D9"/>
<circle cx="69.1998" cy="55.1607" r="3.20935" fill="#B1B1B1"/>
<ellipse cx="82.2385" cy="60.1753" rx="4.01169" ry="4.01169" fill="#D9D9D9"/>
<circle cx="82.2384" cy="60.1753" r="3.20935" fill="#B1B1B1"/>
<ellipse cx="21.0608" cy="34.0993" rx="4.01169" ry="4.01169" fill="#D9D9D9"/>
<circle cx="21.0616" cy="34.0993" r="3.20935" fill="#B1B1B1"/>
<ellipse cx="35.1018" cy="127.371" rx="4.01169" ry="4.01169" fill="#D9D9D9"/>
<circle cx="35.1012" cy="127.371" r="3.20935" fill="#B1B1B1"/>
<ellipse cx="305.891" cy="68.1987" rx="4.01169" ry="4.01169" fill="#D9D9D9"/>
<circle cx="305.891" cy="68.1987" r="3.20935" fill="#B1B1B1"/>
<ellipse cx="305.891" cy="56.1637" rx="4.01169" ry="4.01169" fill="#D9D9D9"/>
<circle cx="305.891" cy="56.1636" r="3.20935" fill="#B1B1B1"/>
<ellipse cx="305.892" cy="40.1169" rx="8.02338" ry="8.02338" fill="#5772AE"/>
<ellipse cx="305.89" cy="40.1168" rx="6.4187" ry="6.4187" fill="#C1C3A1"/>
<ellipse cx="271.792" cy="157.459" rx="4.01169" ry="4.01169" fill="#D9D9D9"/>
<circle cx="271.791" cy="157.459" r="3.20935" fill="#B1B1B1"/>
<ellipse cx="285.832" cy="145.424" rx="4.01169" ry="4.01169" fill="#D9D9D9"/>
<circle cx="285.831" cy="145.424" r="3.20935" fill="#B1B1B1"/>
<ellipse cx="275.803" cy="109.319" rx="4.01169" ry="4.01169" fill="#D9D9D9"/>
<circle cx="275.801" cy="109.319" r="3.20935" fill="#B1B1B1"/>
<ellipse cx="259.756" cy="122.357" rx="4.01169" ry="4.01169" fill="#D9D9D9"/>
<circle cx="259.754" cy="122.357" r="3.20935" fill="#B1B1B1"/>
</svg>
