<svg width="390" height="466" viewBox="0 0 390 466" fill="none" xmlns="http://www.w3.org/2000/svg">
<rect x="13" y="29" width="365" height="425" rx="8" fill="#464646"/>
<rect x="164" y="262" width="70" height="14" fill="white" fill-opacity="0.3"/>
<rect x="164" y="278" width="54" height="14" fill="white" fill-opacity="0.3"/>
<rect x="164" y="294" width="143" height="11" fill="white" fill-opacity="0.3"/>
<rect x="163" y="307" width="72" height="11" fill="white" fill-opacity="0.3"/>
<rect x="260" y="428" width="27" height="11" fill="white" fill-opacity="0.3"/>
<rect x="81" y="358" width="18" height="11" fill="white" fill-opacity="0.3"/>
<rect x="22" y="111" width="39" height="13" fill="white" fill-opacity="0.3"/>
<rect x="22" y="128" width="39" height="9" fill="white" fill-opacity="0.3"/>
<rect x="303" y="46" width="9" height="18" fill="white" fill-opacity="0.3"/>
<rect x="318" y="46" width="9" height="18" fill="white" fill-opacity="0.3"/>
<rect x="81" y="385" width="26" height="11" fill="white" fill-opacity="0.3"/>
<rect x="81" y="411" width="18" height="11" fill="white" fill-opacity="0.3"/>
<rect x="160" y="415" width="11" height="30" fill="white" fill-opacity="0.3"/>
<rect x="211" y="395" width="11" height="19" fill="white" fill-opacity="0.3"/>
<rect x="222" y="406" width="19" height="8" fill="white" fill-opacity="0.3"/>
<rect x="288" y="384" width="10" height="55" fill="white" fill-opacity="0.3"/>
<rect x="320" y="325" width="10" height="18" fill="white" fill-opacity="0.3"/>
<rect x="305" y="210" width="10" height="31" fill="white" fill-opacity="0.3"/>
<rect x="348" y="421" width="15" height="11" fill="white" fill-opacity="0.3"/>
<rect x="348" y="434" width="20" height="11" fill="white" fill-opacity="0.3"/>
<rect width="90" height="96" transform="translate(69 61)" fill="#25882F"/>
<rect x="75" y="61" width="6" height="4" fill="#E9C68F"/>
<circle cx="78" cy="65" r="3" fill="#E9C68F"/>
<circle cx="78" cy="65" r="2" fill="white"/>
<rect x="75" y="153" width="6" height="4" fill="#E9C68F"/>
<circle cx="78" cy="153" r="3" fill="#E9C68F"/>
<circle cx="78" cy="153" r="2" fill="white"/>
<rect x="107" y="153" width="6" height="4" fill="#E9C68F"/>
<circle cx="110" cy="153" r="3" fill="#E9C68F"/>
<circle cx="110" cy="153" r="2" fill="white"/>
<rect x="83" y="153" width="6" height="4" fill="#E9C68F"/>
<circle cx="86" cy="153" r="3" fill="#E9C68F"/>
<circle cx="86" cy="153" r="2" fill="white"/>
<rect x="115" y="153" width="6" height="4" fill="#E9C68F"/>
<circle cx="118" cy="153" r="3" fill="#E9C68F"/>
<circle cx="118" cy="153" r="2" fill="white"/>
<rect x="91" y="153" width="6" height="4" fill="#E9C68F"/>
<circle cx="94" cy="153" r="3" fill="#E9C68F"/>
<circle cx="94" cy="153" r="2" fill="white"/>
<rect x="123" y="153" width="6" height="4" fill="#E9C68F"/>
<circle cx="126" cy="153" r="3" fill="#E9C68F"/>
<circle cx="126" cy="153" r="2" fill="white"/>
<rect x="139" y="153" width="6" height="4" fill="#E9C68F"/>
<circle cx="142" cy="153" r="3" fill="#E9C68F"/>
<circle cx="142" cy="153" r="2" fill="white"/>
<rect x="99" y="153" width="6" height="4" fill="#E9C68F"/>
<circle cx="102" cy="153" r="3" fill="#E9C68F"/>
<circle cx="102" cy="153" r="2" fill="white"/>
<rect x="131" y="153" width="6" height="4" fill="#E9C68F"/>
<circle cx="134" cy="153" r="3" fill="#E9C68F"/>
<circle cx="134" cy="153" r="2" fill="white"/>
<rect x="147" y="153" width="6" height="4" fill="#E9C68F"/>
<circle cx="150" cy="153" r="3" fill="#E9C68F"/>
<circle cx="150" cy="153" r="2" fill="white"/>
<rect x="107" y="61" width="6" height="4" fill="#E9C68F"/>
<circle cx="110" cy="65" r="3" fill="#E9C68F"/>
<circle cx="110" cy="65" r="2" fill="white"/>
<rect x="83" y="61" width="6" height="4" fill="#E9C68F"/>
<circle cx="86" cy="65" r="3" fill="#E9C68F"/>
<circle cx="86" cy="65" r="2" fill="white"/>
<rect x="115" y="61" width="6" height="4" fill="#E9C68F"/>
<circle cx="118" cy="65" r="3" fill="#E9C68F"/>
<circle cx="118" cy="65" r="2" fill="white"/>
<rect x="91" y="61" width="6" height="4" fill="#E9C68F"/>
<circle cx="94" cy="65" r="3" fill="#E9C68F"/>
<circle cx="94" cy="65" r="2" fill="white"/>
<rect x="123" y="61" width="6" height="4" fill="#E9C68F"/>
<circle cx="126" cy="65" r="3" fill="#E9C68F"/>
<circle cx="126" cy="65" r="2" fill="white"/>
<rect x="99" y="61" width="6" height="4" fill="#E9C68F"/>
<circle cx="102" cy="65" r="3" fill="#E9C68F"/>
<circle cx="102" cy="65" r="2" fill="white"/>
<rect x="131" y="61" width="6" height="4" fill="#E9C68F"/>
<circle cx="134" cy="65" r="3" fill="#E9C68F"/>
<circle cx="134" cy="65" r="2" fill="white"/>
<rect x="139" y="61" width="6" height="4" fill="#E9C68F"/>
<circle cx="142" cy="65" r="3" fill="#E9C68F"/>
<circle cx="142" cy="65" r="2" fill="white"/>
<rect x="147" y="61" width="6" height="4" fill="#E9C68F"/>
<circle cx="150" cy="65" r="3" fill="#E9C68F"/>
<circle cx="150" cy="65" r="2" fill="white"/>
<rect x="76" y="98" width="38" height="38" fill="#1A1A1A"/>
<rect x="131" y="73" width="8" height="14" fill="#1A1A1A"/>
<rect x="143" y="112" width="12" height="6" fill="#1A1A1A"/>
<rect x="72" y="75" width="18" height="12" fill="white" fill-opacity="0.3"/>
<path d="M182 111L185 108H190L193 111V116L190 119H185L182 116V111Z" fill="#E9C68F"/>
<rect x="185" y="111" width="5" height="5" fill="white"/>
<path d="M182 125L185 122H190L193 125V130L190 133H185L182 130V125Z" fill="#E9C68F"/>
<rect x="185" y="125" width="5" height="5" fill="white"/>
<path d="M182 139L185 136H190L193 139V144L190 147H185L182 144V139Z" fill="#E9C68F"/>
<rect x="185" y="139" width="5" height="5" fill="white"/>
<path d="M197 111L200 108H205L208 111V116L205 119H200L197 116V111Z" fill="#E9C68F"/>
<rect x="200" y="111" width="5" height="5" fill="white"/>
<path d="M197 125L200 122H205L208 125V130L205 133H200L197 130V125Z" fill="#E9C68F"/>
<rect x="200" y="125" width="5" height="5" fill="white"/>
<path d="M197 139L200 136H205L208 139V144L205 147H200L197 144V139Z" fill="#E9C68F"/>
<rect x="200" y="139" width="5" height="5" fill="white"/>
<rect x="24" y="328" width="120" height="90" transform="rotate(-90 24 328)" fill="#557DD4"/>
<rect x="31" y="323" width="30" height="30" transform="rotate(-90 31 323)" fill="white" fill-opacity="0.3"/>
<rect x="46" y="262" width="48" height="13" transform="rotate(-90 46 262)" fill="white" fill-opacity="0.3"/>
<rect x="61" y="262" width="48" height="13" transform="rotate(-90 61 262)" fill="white" fill-opacity="0.3"/>
<rect x="76" y="299" width="85" height="13" transform="rotate(-90 76 299)" fill="white" fill-opacity="0.3"/>
<rect x="91" y="283" width="69" height="13" transform="rotate(-90 91 283)" fill="white" fill-opacity="0.3"/>
<rect x="31" y="284" width="70" height="13" transform="rotate(-90 31 284)" fill="white" fill-opacity="0.3"/>
<rect x="48" y="436" width="30" height="90" transform="rotate(-180 48 436)" fill="#007300"/>
<rect x="48" y="436" width="3" height="90" transform="rotate(-180 48 436)" fill="black" fill-opacity="0.2"/>
<circle cx="30" cy="361" r="9" transform="rotate(-180 30 361)" fill="#E1E1E1"/>
<circle cx="30" cy="391" r="9" transform="rotate(-180 30 391)" fill="#E1E1E1"/>
<circle cx="30" cy="421" r="9" transform="rotate(-180 30 421)" fill="#E1E1E1"/>
<rect x="342" y="286" width="30" height="90" fill="#007300"/>
<rect x="342" y="286" width="3" height="90" fill="black" fill-opacity="0.2"/>
<circle cx="360" cy="361" r="9" fill="#E1E1E1"/>
<circle cx="360" cy="331" r="9" fill="#E1E1E1"/>
<circle cx="360" cy="301" r="9" fill="#E1E1E1"/>
<rect x="342" y="181" width="30" height="90" fill="#007300"/>
<rect x="342" y="181" width="3" height="90" fill="black" fill-opacity="0.2"/>
<circle cx="360" cy="256" r="9" fill="#E1E1E1"/>
<circle cx="360" cy="226" r="9" fill="#E1E1E1"/>
<circle cx="360" cy="196" r="9" fill="#E1E1E1"/>
<rect x="342" y="43" width="30" height="124" fill="#007300"/>
<rect x="342" y="43" width="3" height="124" fill="black" fill-opacity="0.2"/>
<circle cx="360" cy="118" r="9" fill="#E1E1E1"/>
<circle cx="360" cy="118" r="9" fill="#E1E1E1"/>
<circle cx="360" cy="88" r="9" fill="#E1E1E1"/>
<circle cx="360" cy="58" r="9" fill="#E1E1E1"/>
<circle cx="360" cy="151" r="9" fill="#E1E1E1"/>
<circle cx="258" cy="412" r="12" fill="#B8AF82"/>
<circle cx="258" cy="412" r="9" fill="white"/>
<circle cx="255" cy="136" r="12" fill="#B8AF82"/>
<circle cx="255" cy="136" r="9" fill="white"/>
<circle cx="141" cy="412" r="12" fill="#B8AF82"/>
<circle cx="141" cy="412" r="9" fill="white"/>
<rect x="195" y="210" width="42" height="42" fill="#1A1A1A"/>
<rect x="246" y="323" width="37" height="20" fill="#1A1A1A"/>
<rect x="37" y="61" width="9" height="18" fill="#D9D9D9"/>
<rect x="227" y="334" width="11" height="20" fill="#D9D9D9"/>
<rect x="291" y="334" width="11" height="20" fill="#D9D9D9"/>
<rect width="90" height="15" transform="translate(240 31)" fill="#404040"/>
<rect x="244" y="35" width="7" height="7" fill="#151515"/>
<rect x="259" y="35" width="7" height="7" fill="#151515"/>
<rect x="274" y="35" width="7" height="7" fill="#151515"/>
<rect x="289" y="35" width="7" height="7" fill="#151515"/>
<rect x="304" y="35" width="7" height="7" fill="#151515"/>
<rect x="319" y="35" width="7" height="7" fill="#151515"/>
<rect x="319" y="434" width="27" height="12" fill="#333437"/>
<rect x="342" y="380" width="27" height="20" fill="#333437"/>
<circle cx="212" cy="71" r="5" fill="#C4B38C"/>
<circle cx="212" cy="71" r="5" fill="#C4B38C"/>
<circle cx="176" cy="71" r="5" fill="#C4B38C"/>
<circle cx="176" cy="71" r="5" fill="#C4B38C"/>
<circle cx="176" cy="35" r="5" fill="#C4B38C"/>
<circle cx="176" cy="35" r="5" fill="#C4B38C"/>
<circle cx="212" cy="35" r="5" fill="#C4B38C"/>
<circle cx="212" cy="35" r="5" fill="#C4B38C"/>
<rect x="175" y="34" width="38" height="38" fill="#E4C798"/>
<circle cx="194" cy="53" r="16" fill="#BEAA86"/>
<rect x="144" y="166" width="164" height="29" rx="8" fill="white" fill-opacity="0.3"/>
<rect x="123" y="208" width="28" height="69" rx="14" fill="white" fill-opacity="0.3"/>
<rect x="183" y="421" width="36" height="22" rx="3" fill="#D9D9D9"/>
<rect x="192" y="427" width="17" height="10" rx="3" fill="#1A1A1A"/>
<rect x="181" y="4" width="26" height="30" fill="#E4C798"/>
<line x1="48" y1="361.5" x2="76" y2="361.5" stroke="white" stroke-opacity="0.3" stroke-width="3"/>
<line x1="48" y1="421.5" x2="73" y2="421.5" stroke="white" stroke-opacity="0.3" stroke-width="3"/>
<path d="M48 391.5H62.5L72.5 402.5H76" stroke="white" stroke-opacity="0.3" stroke-width="3"/>
<line x1="74.5" y1="374" x2="74.5" y2="363" stroke="white" stroke-opacity="0.3" stroke-width="3"/>
<line x1="74.5" y1="423" x2="74.5" y2="413" stroke="white" stroke-opacity="0.3" stroke-width="3"/>
<circle cx="74.5" cy="374.5" r="2.5" fill="#83898C"/>
<circle cx="74.5" cy="412.5" r="2.5" fill="#83898C"/>
<rect x="181" y="12" width="26" height="4" fill="#1A1A1A"/>
</svg>
