<svg width="120" height="360" viewBox="0 0 120 360" fill="none" xmlns="http://www.w3.org/2000/svg">
<rect x="30" y="30" width="60" height="15" fill="#57575B"/>
<path d="M0 43C0 36 6 30 13 30C13 30 100 30 107 30C114 30 120 36 120 43C120 50 120 114 120 114H80C80 111 78 109 75 109H45C42 109 40 111 40 114H0V43Z" fill="#E35348"/>
<circle cx="13" cy="43" r="8" fill="white"/>
<circle cx="107" cy="43" r="8" fill="white"/>
<path d="M0 114H40V305L26 347H14L0 305V114Z" fill="#C9A77A"/>
<path d="M80 114H120V305L106 347H94L80 305V114Z" fill="#C9A77A"/>
<path d="M3 114H37V305L24.5 343H16L3 305V114Z" fill="#C9AF8A"/>
<path d="M83 114H117V305L104.5 343H96L83 305V114Z" fill="#C9AF8A"/>
<path d="M4 89L6 87H11L13 89V94L11 96H6L4 94V89Z" fill="#E9C68F"/>
<path d="M17 89L19 87H24L26 89V94L24 96H19L17 94V89Z" fill="#E9C68F"/>
<path d="M4 76.5L6 74.5H11L13 76.5V81.5L11 83.5H6L4 81.5V76.5Z" fill="#E9C68F"/>
<path d="M17 76.5L19 74.5H24L26 76.5V81.5L24 83.5H19L17 81.5V76.5Z" fill="#E9C68F"/>
<path d="M4 63.5L6 61.5H11L13 63.5V68.5L11 70.5H6L4 68.5V63.5Z" fill="#E9C68F"/>
<path d="M17 63.5L19 61.5H24L26 63.5V68.5L24 70.5H19L17 68.5V63.5Z" fill="#E9C68F"/>
<path d="M108 86L110 84H115L117 86V91L115 93H110L108 91V86Z" fill="#E9C68F"/>
<rect x="33" y="92" width="15" height="7" fill="#DE3629"/>
<rect x="55" y="92" width="15" height="7" fill="#DE3629"/>
<rect x="88" y="59" width="15" height="22" fill="#DE3629"/>
<rect x="105" y="59" width="10" height="15" fill="#DE3629"/>
<rect x="81" y="34" width="7" height="25" fill="#DE3629"/>
<rect x="32" y="34" width="7" height="25" fill="#DE3629"/>
<rect x="45" y="61" width="28" height="28" fill="#57575B"/>
<rect x="90" y="30" width="15" height="60" transform="rotate(90 90 30)" fill="#404040"/>
<rect x="86" y="34" width="7" height="7" transform="rotate(90 86 34)" fill="#151515"/>
<rect x="71" y="34" width="7" height="7" transform="rotate(90 71 34)" fill="#151515"/>
<rect x="56" y="34" width="7" height="7" transform="rotate(90 56 34)" fill="#151515"/>
<rect x="41" y="34" width="7" height="7" transform="rotate(90 41 34)" fill="#151515"/>
<rect x="85" y="5" width="35" height="5" transform="rotate(90 85 5)" fill="#D9D9D9"/>
<rect x="70" y="5" width="35" height="5" transform="rotate(90 70 5)" fill="#D9D9D9"/>
<rect x="55" y="5" width="35" height="5" transform="rotate(90 55 5)" fill="#D9D9D9"/>
<rect x="40" y="5" width="35" height="5" transform="rotate(90 40 5)" fill="#D9D9D9"/>
</svg>
