<?xml version="1.0" encoding="UTF-8" standalone="no"?>
<!-- Created with Inkscape (http://www.inkscape.org/) -->

<svg
   width="114"
   height="300"
   viewBox="0 0 30.162499 79.375002"
   version="1.1"
   id="svg5"
   sodipodi:docname="Soil Moisture Sensor Skeleton.svg"
   inkscape:version="1.1 (c68e22c387, 2021-05-23)"
   xmlns:inkscape="http://www.inkscape.org/namespaces/inkscape"
   xmlns:sodipodi="http://sodipodi.sourceforge.net/DTD/sodipodi-0.dtd"
   xmlns="http://www.w3.org/2000/svg"
   xmlns:svg="http://www.w3.org/2000/svg">
  <sodipodi:namedview
     id="namedview7"
     pagecolor="#ffffff"
     bordercolor="#666666"
     borderopacity="1.0"
     inkscape:pageshadow="2"
     inkscape:pageopacity="0.0"
     inkscape:pagecheckerboard="0"
     inkscape:document-units="px"
     showgrid="true"
     units="px"
     inkscape:zoom="4.1153615"
     inkscape:cx="61.355485"
     inkscape:cy="116.02869"
     inkscape:window-width="2560"
     inkscape:window-height="1377"
     inkscape:window-x="-8"
     inkscape:window-y="-8"
     inkscape:window-maximized="1"
     inkscape:current-layer="layer1">
    <inkscape:grid
       type="xygrid"
       id="grid928" />
  </sodipodi:namedview>
  <defs
     id="defs2" />
  <g
     inkscape:label="Ebene 1"
     inkscape:groupmode="layer"
     id="layer1">
    <path
       id="rect19098"
       style="opacity:1;fill:#e0e0e0;stroke-width:0.264583;stroke-linecap:round;stroke-linejoin:round;fill-opacity:1"
       d="m 3.4659383,0.26458351 c -1.905529,0 -3.4395832,1.53405429 -3.43958325,3.43958329 V 21.166667 H 10.106876 c 0.121964,-0.605208 0.654367,-1.058334 1.296562,-1.058334 h 7.14375 c 0.642195,0 1.174598,0.453126 1.296562,1.058334 H 29.924271 V 3.7041668 c 0,-1.905529 -1.534054,-3.43958329 -3.439583,-3.43958329 z m 0,1.05833329 A 2.1166665,2.1166665 0 0 1 5.582605,3.4395835 2.1166665,2.1166665 0 0 1 3.4659383,5.5562501 2.1166665,2.1166665 0 0 1 1.3492717,3.4395835 2.1166665,2.1166665 0 0 1 3.4659383,1.3229168 Z m 23.0187497,0 a 2.1166665,2.1166665 0 0 1 2.116667,2.1166667 2.1166665,2.1166665 0 0 1 -2.116667,2.1166666 2.1166665,2.1166665 0 0 1 -2.116667,-2.1166666 2.1166665,2.1166665 0 0 1 2.116667,-2.1166667 z" />
    <path
       style="fill:#eeeeee;stroke:none;stroke-width:0.264583px;stroke-linecap:butt;stroke-linejoin:miter;stroke-opacity:1;fill-opacity:1;opacity:1"
       d="m 0,21.166666 v 47.625 L 3.4395833,79.374999 H 6.6145832 L 10.054167,68.791666 v -47.625 z"
       id="path963" />
    <path
       style="fill:#eeeeee;fill-opacity:1;stroke:none;stroke-width:0.264583px;stroke-linecap:butt;stroke-linejoin:miter;stroke-opacity:1"
       d="m 19.84375,21.166667 v 47.625 L 23.283333,79.375 h 3.175 l 3.439584,-10.583333 v -47.625 z"
       id="path963-6" />
    <circle
       style="opacity:1;fill:#e35348;fill-opacity:1;stroke:none;stroke-linecap:round;stroke-linejoin:round;stroke-opacity:1"
       id="path30283"
       cx="0"
       cy="0"
       r="0"
       transform="scale(0.26458333)" />
    <rect
       style="fill:#bdbdbd;stroke:none;stroke-width:0.264583;stroke-linecap:round;stroke-linejoin:round;fill-opacity:1"
       id="rect851"
       width="8.7312498"
       height="4.7624998"
       x="10.583333"
       y="0.26458332"
       ry="1.2855119e-08" />
    <rect
       style="fill:#bdbdbd;fill-opacity:1;stroke:none;stroke-width:0.282255;stroke-linecap:round;stroke-linejoin:round"
       id="rect851-6"
       width="6.8791661"
       height="6.8791661"
       x="11.377083"
       y="8.2020836"
       ry="1.8568505e-08" />
    <g
       aria-label="SOIL Moisture Sensor "
       id="text15424"
       style="font-size:2.11667px;line-height:1.25;stroke-width:0.264583;fill:#bdbdbd;fill-opacity:1">
      <path
         d="m 2.0275756,17.950957 h 0.4516528 q 0.082682,0 0.156063,0.07028 0.074414,0.06925 0.074414,0.168465 0,0.03721 -0.026872,0.06304 -0.025838,0.02584 -0.057878,0.02584 -0.044442,0 -0.060978,-0.01964 -0.016536,-0.02067 -0.032039,-0.07545 -0.014469,-0.05478 -0.066146,-0.05478 H 2.0368774 q -0.031006,0 -0.031006,0.01964 0,0.0124 0.013436,0.02894 l 0.6438893,0.823723 q 0.046509,0.05994 0.046509,0.128158 0,0.07752 -0.056844,0.136426 -0.055811,0.05891 -0.1250571,0.05891 H 2.0596151 q -0.093018,0 -0.1622643,-0.07028 -0.068213,-0.07131 -0.068213,-0.156063 0,-0.09715 0.090951,-0.09715 0.03514,0 0.059945,0.02584 0.024805,0.02481 0.024805,0.05891 0,0.02791 0.018604,0.04651 0.019637,0.0186 0.048576,0.0186 h 0.4320157 q 0.027905,0 0.027905,-0.0217 0,-0.01033 -0.013436,-0.02687 L 1.8756467,18.278586 q -0.045475,-0.05891 -0.045475,-0.128158 0,-0.08062 0.057878,-0.139527 0.057878,-0.05994 0.1395265,-0.05994 z"
         style="font-family:'OCR A Extended';-inkscape-font-specification:'OCR A Extended';fill:#bdbdbd;fill-opacity:1"
         id="path32904" />
      <path
         d="m 3.7525375,18.078081 0.1912031,0.389641 q 0.040308,0.07958 0.040308,0.172599 0,0.09095 -0.040308,0.171566 l -0.1912031,0.385507 q -0.060978,0.127124 -0.206706,0.127124 -0.069246,0 -0.1250572,-0.03617 -0.054777,-0.03617 -0.082682,-0.09095 L 3.1458553,18.811887 q -0.038241,-0.07545 -0.038241,-0.171566 0,-0.09612 0.038241,-0.172599 l 0.1922366,-0.389641 q 0.065112,-0.127124 0.2077396,-0.127124 0.1446942,0 0.206706,0.127124 z m -0.2645837,0.08682 -0.1798343,0.36587 q -0.024805,0.05478 -0.024805,0.107487 0,0.05684 0.024805,0.108521 l 0.185002,0.370004 q 0.014469,0.03411 0.05271,0.03411 0.033073,0 0.050643,-0.03411 l 0.1860354,-0.370004 q 0.025838,-0.05478 0.025838,-0.108521 0,-0.05684 -0.025838,-0.107487 l -0.1819013,-0.36587 q -0.01757,-0.04031 -0.054777,-0.04031 -0.037207,0 -0.057878,0.04031 z"
         style="font-family:'OCR A Extended';-inkscape-font-specification:'OCR A Extended';fill:#bdbdbd;fill-opacity:1"
         id="path32906" />
      <path
         d="m 4.4729081,17.950957 h 0.7028005 q 0.034107,0 0.059945,0.02584 0.026872,0.02584 0.026872,0.06098 0,0.03617 -0.025838,0.06304 -0.025838,0.02584 -0.060978,0.02584 H 4.9131919 v 1.024228 h 0.2625167 q 0.036174,0 0.060978,0.02584 0.025838,0.02481 0.025838,0.06098 0,0.03617 -0.025838,0.06201 -0.025838,0.02481 -0.060978,0.02481 H 4.4729081 q -0.036174,0 -0.062012,-0.02481 -0.024805,-0.02584 -0.024805,-0.06201 0,-0.03617 0.024805,-0.06098 0.025838,-0.02584 0.062012,-0.02584 H 4.7395589 V 18.126657 H 4.4729081 q -0.036174,0 -0.062012,-0.02584 -0.024805,-0.02584 -0.024805,-0.06098 0,-0.03721 0.024805,-0.06305 0.025838,-0.02584 0.062012,-0.02584 z"
         style="font-family:'OCR A Extended';-inkscape-font-specification:'OCR A Extended';fill:#bdbdbd;fill-opacity:1"
         id="path32908" />
      <path
         d="m 5.6666355,19.324518 v -1.286745 q 0,-0.03514 0.025838,-0.06098 0.025838,-0.02584 0.060978,-0.02584 0.03514,0 0.060978,0.02584 0.025838,0.02584 0.025838,0.06098 v 1.113112 h 0.613917 q 0.036174,0 0.062012,0.02584 0.026872,0.02481 0.026872,0.06098 0,0.03617 -0.026872,0.06201 -0.025838,0.02481 -0.062012,0.02481 z"
         style="font-family:'OCR A Extended';-inkscape-font-specification:'OCR A Extended';fill:#bdbdbd;fill-opacity:1"
         id="path32910" />
      <path
         d="m 8.5729222,18.490459 v -0.04444 L 8.3930879,18.189702 v 1.048 q 0,0.03617 -0.025838,0.06201 -0.024805,0.02481 -0.060978,0.02481 -0.036174,0 -0.062012,-0.02584 -0.024805,-0.02584 -0.024805,-0.06098 v -1.286745 h 0.2242761 l 0.2139408,0.311092 0.2201419,-0.311092 h 0.2201419 v 1.286745 q 0,0.03617 -0.026872,0.06201 -0.025838,0.02481 -0.062012,0.02481 -0.03514,0 -0.060978,-0.02584 -0.025838,-0.02584 -0.025838,-0.06098 v -1.043866 l -0.1757001,0.248047 v 0.04858 q 0,0.03514 -0.025838,0.06098 -0.025838,0.02584 -0.060978,0.02584 -0.036174,0 -0.062012,-0.02584 -0.024805,-0.02584 -0.024805,-0.06098 z"
         style="font-family:'OCR A Extended';-inkscape-font-specification:'OCR A Extended';fill:#bdbdbd;fill-opacity:1"
         id="path32912" />
      <path
         d="m 10.376433,18.640321 v 0.366903 q 0,0.116789 -0.110588,0.216008 -0.109554,0.09922 -0.226343,0.09922 H 9.8358964 q -0.118856,0 -0.2273766,-0.100252 -0.1085207,-0.101286 -0.1085207,-0.214975 v -0.366903 q 0,-0.113688 0.1054201,-0.213941 0.1064536,-0.101286 0.2304772,-0.101286 h 0.2036056 q 0.116789,-0.0021 0.226343,0.09715 0.110588,0.09922 0.110588,0.218075 z m -0.7007338,0.0072 v 0.3514 q 0,0.04754 0.034107,0.07545 l 0.065112,0.05581 q 0.021704,0.0186 0.060978,0.0186 h 0.2015386 q 0.04444,0 0.08061,-0.03204 l 0.05271,-0.04651 q 0.03204,-0.02481 0.03204,-0.06925 v -0.3514 q 0,-0.05168 -0.03204,-0.07648 l -0.06098,-0.04858 q -0.03101,-0.02584 -0.07235,-0.02584 H 9.8576005 q -0.058911,0 -0.090951,0.02791 l -0.058911,0.05064 q -0.032039,0.02687 -0.032039,0.07028 z"
         style="font-family:'OCR A Extended';-inkscape-font-specification:'OCR A Extended';fill:#bdbdbd;fill-opacity:1"
         id="path32914" />
      <path
         d="m 11.127809,17.874475 h 0.09095 q 0.03617,0 0.06098,0.02584 0.02584,0.0248 0.02584,0.06098 v 0.07441 q 0,0.03617 -0.02584,0.06304 -0.02481,0.02584 -0.06098,0.02584 h -0.09302 q -0.03721,0 -0.06305,-0.02687 -0.02481,-0.02687 -0.02377,-0.05994 l 0.0021,-0.07648 q 0,-0.03617 0.02481,-0.06098 0.02584,-0.02584 0.06201,-0.02584 z m 0.353467,1.447976 h -0.529167 q -0.03617,0 -0.06201,-0.02481 -0.02481,-0.02584 -0.02481,-0.06201 0,-0.03514 0.02481,-0.06098 0.02584,-0.02584 0.06201,-0.02584 h 0.177767 v -0.648023 h -0.1757 q -0.03617,0 -0.06201,-0.02584 -0.0248,-0.02584 -0.0248,-0.06098 0,-0.03617 0.0248,-0.06201 0.02584,-0.02687 0.06201,-0.02687 h 0.264584 q 0.03617,0 0.06098,0.02687 0.02584,0.02584 0.02584,0.06201 v 0.73484 h 0.173633 q 0.03617,0 0.06201,0.02584 0.02687,0.02481 0.02687,0.06098 0,0.03617 -0.02584,0.06201 -0.02584,0.02481 -0.06098,0.02481 z"
         style="font-family:'OCR A Extended';-inkscape-font-specification:'OCR A Extended';fill:#bdbdbd;fill-opacity:1"
         id="path32916" />
      <path
         d="m 12.301899,18.327162 h 0.397909 q 0.09302,0 0.164332,0.05581 0.07131,0.05478 0.07131,0.107487 0,0.03721 -0.02687,0.06098 -0.02584,0.02377 -0.05788,0.02377 -0.04134,0 -0.07545,-0.03721 -0.03411,-0.03721 -0.07131,-0.03721 h -0.392741 q -0.05788,0 -0.05788,0.04858 0,0.03411 0.03824,0.05168 l 0.461988,0.204639 q 0.07028,0.03101 0.114722,0.100252 0.04547,0.06821 0.04547,0.151929 0,0.111622 -0.07958,0.189136 -0.07855,0.07752 -0.1788,0.07752 h -0.351401 q -0.09095,0 -0.169499,-0.05478 -0.07751,-0.05478 -0.07751,-0.106454 0,-0.03411 0.0248,-0.05994 0.02584,-0.02687 0.06615,-0.02687 0.03307,0 0.07028,0.03721 0.03824,0.03721 0.109554,0.03721 h 0.323495 q 0.03824,0 0.06408,-0.02894 0.02584,-0.02997 0.02584,-0.06821 0,-0.05891 -0.05788,-0.08475 L 12.21715,18.759177 q -0.06718,-0.02997 -0.103353,-0.08682 -0.03617,-0.05684 -0.03617,-0.115756 0,-0.09302 0.06408,-0.16123 0.06511,-0.06821 0.160197,-0.06821 z"
         style="font-family:'OCR A Extended';-inkscape-font-specification:'OCR A Extended';fill:#bdbdbd;fill-opacity:1"
         id="path32918" />
      <path
         d="m 13.947279,19.324518 h -0.173633 q -0.107487,0 -0.185002,-0.07648 -0.07752,-0.07648 -0.07752,-0.183968 v -0.563274 h -0.08888 q -0.03617,0 -0.06201,-0.02481 -0.02481,-0.02481 -0.02481,-0.06201 0,-0.03617 0.02481,-0.06098 0.02584,-0.02584 0.06201,-0.02584 h 0.09095 v -0.212908 q 0,-0.03617 0.0248,-0.06098 0.02584,-0.02584 0.06201,-0.02584 0.03411,0 0.05994,0.02584 0.02687,0.02584 0.02687,0.06098 v 0.212908 h 0.349333 q 0.03514,0 0.06098,0.02584 0.02584,0.02584 0.02584,0.06098 0,0.03617 -0.02584,0.06201 -0.02584,0.02481 -0.06098,0.02481 h -0.351401 v 0.563274 q 0,0.03514 0.02584,0.06098 0.02687,0.02584 0.06304,0.02584 h 0.169499 q 0.06925,0 0.09198,-0.07441 0.02274,-0.07545 0.08785,-0.07545 0.03824,0 0.06201,0.02584 0.02481,0.02481 0.02481,0.06305 0,0.07855 -0.07441,0.157096 -0.07338,0.07752 -0.188103,0.07752 z"
         style="font-family:'OCR A Extended';-inkscape-font-specification:'OCR A Extended';fill:#bdbdbd;fill-opacity:1"
         id="path32920" />
      <path
         d="m 15.028352,19.148818 0.292489,-0.186035 v -0.548805 q 0,-0.03617 0.0248,-0.06201 0.02584,-0.02687 0.06201,-0.02687 0.03617,0 0.06098,0.02687 0.02584,0.02584 0.02584,0.06201 v 0.823724 q 0,0.03514 -0.02584,0.06098 -0.02584,0.02584 -0.06098,0.02584 -0.03514,0 -0.06098,-0.02584 -0.02584,-0.02584 -0.02584,-0.06098 v -0.06821 l -0.150896,0.09819 q -0.08888,0.05684 -0.179834,0.05684 h -0.08061 q -0.106454,0 -0.182935,-0.07441 -0.07648,-0.07441 -0.08165,-0.181901 l -0.0248,-0.654225 q -0.0021,-0.03411 0.02377,-0.05994 0.02687,-0.02687 0.06305,-0.02687 0.03514,0 0.05994,0.02584 0.02584,0.02584 0.02687,0.06098 l 0.02274,0.641822 q 0.0031,0.09302 0.106453,0.09302 z"
         style="font-family:'OCR A Extended';-inkscape-font-specification:'OCR A Extended';fill:#bdbdbd;fill-opacity:1"
         id="path32922" />
      <path
         d="m 15.89445,19.237702 v -0.823724 q 0,-0.03617 0.0248,-0.06201 0.02584,-0.02687 0.06201,-0.02687 0.03617,0 0.06098,0.02584 0.02584,0.02584 0.02584,0.06304 v 0.108521 l 0.141593,-0.120923 q 0.08785,-0.07441 0.171566,-0.07441 h 0.127125 q 0.107487,0 0.183968,0.07648 0.07648,0.07648 0.07648,0.183968 v 0.04651 q 0,0.03721 -0.02584,0.06304 -0.02481,0.02584 -0.06098,0.02584 -0.03617,0 -0.06201,-0.02481 -0.02481,-0.02584 -0.02481,-0.06201 v -0.04858 q 0,-0.03617 -0.02584,-0.06098 -0.0248,-0.02584 -0.06098,-0.02584 h -0.112655 q -0.03617,0 -0.08061,0.03824 l -0.247014,0.213941 v 0.484726 q 0,0.03617 -0.02584,0.06201 -0.02584,0.02481 -0.06098,0.02481 -0.03617,0 -0.06201,-0.02481 -0.0248,-0.02584 -0.0248,-0.06201 z"
         style="font-family:'OCR A Extended';-inkscape-font-specification:'OCR A Extended';fill:#bdbdbd;fill-opacity:1"
         id="path32924" />
      <path
         d="m 18.047294,18.653757 v 0.209807 q 0,0.03514 -0.02584,0.06098 -0.02584,0.02584 -0.06098,0.02584 H 17.34656 v 0.05064 q 0,0.04444 0.03824,0.07545 l 0.05064,0.04237 q 0.04134,0.03204 0.07855,0.03204 h 0.446485 q 0.03514,0 0.06098,0.02584 0.02584,0.02481 0.02584,0.06098 0,0.03514 -0.02687,0.06098 -0.02584,0.02584 -0.05994,0.02584 h -0.457853 q -0.04548,0 -0.09612,-0.0186 -0.04961,-0.01964 -0.07338,-0.04031 l -0.07751,-0.06821 q -0.03617,-0.02894 -0.06098,-0.08061 -0.02377,-0.05168 -0.02377,-0.09509 v -0.397909 q 0,-0.03411 0.02584,-0.09198 0.02687,-0.05788 0.06718,-0.08992 l 0.07235,-0.05684 q 0.07131,-0.05788 0.15813,-0.05788 h 0.243913 q 0.09198,0 0.173634,0.07648 l 0.06511,0.06201 q 0.07028,0.06304 0.07028,0.188102 z m -0.698666,-0.01344 v 0.134359 h 0.5271 v -0.120923 q 0,-0.04858 -0.02997,-0.07441 l -0.05064,-0.04444 q -0.03927,-0.03204 -0.07028,-0.03204 h -0.218075 q -0.04031,0 -0.07338,0.02791 l -0.05064,0.04237 q -0.03411,0.02584 -0.03411,0.06718 z"
         style="font-family:'OCR A Extended';-inkscape-font-specification:'OCR A Extended';fill:#bdbdbd;fill-opacity:1"
         id="path32926" />
      <path
         d="m 19.926252,17.950957 h 0.451652 q 0.08268,0 0.156063,0.07028 0.07441,0.06925 0.07441,0.168465 0,0.03721 -0.02687,0.06304 -0.02584,0.02584 -0.05788,0.02584 -0.04444,0 -0.06098,-0.01964 -0.01654,-0.02067 -0.03204,-0.07545 -0.01447,-0.05478 -0.06615,-0.05478 h -0.428915 q -0.03101,0 -0.03101,0.01964 0,0.0124 0.01344,0.02894 l 0.64389,0.823723 q 0.04651,0.05994 0.04651,0.128158 0,0.07752 -0.05684,0.136426 -0.05581,0.05891 -0.125057,0.05891 h -0.468189 q -0.09302,0 -0.162264,-0.07028 -0.06821,-0.07131 -0.06821,-0.156063 0,-0.09715 0.09095,-0.09715 0.03514,0 0.05994,0.02584 0.02481,0.02481 0.02481,0.05891 0,0.02791 0.0186,0.04651 0.01964,0.0186 0.04858,0.0186 h 0.432016 q 0.0279,0 0.0279,-0.0217 0,-0.01033 -0.01344,-0.02687 l -0.642855,-0.823723 q -0.04548,-0.05891 -0.04548,-0.128158 0,-0.08062 0.05788,-0.139527 0.05788,-0.05994 0.139527,-0.05994 z"
         style="font-family:'OCR A Extended';-inkscape-font-specification:'OCR A Extended';fill:#bdbdbd;fill-opacity:1"
         id="path32928" />
      <path
         d="m 21.882724,18.653757 v 0.209807 q 0,0.03514 -0.02584,0.06098 -0.02584,0.02584 -0.06098,0.02584 h -0.613917 v 0.05064 q 0,0.04444 0.03824,0.07545 l 0.05064,0.04237 q 0.04134,0.03204 0.07855,0.03204 h 0.446485 q 0.03514,0 0.06098,0.02584 0.02584,0.02481 0.02584,0.06098 0,0.03514 -0.02687,0.06098 -0.02584,0.02584 -0.05994,0.02584 h -0.457854 q -0.04548,0 -0.09612,-0.0186 -0.04961,-0.01964 -0.07338,-0.04031 l -0.07752,-0.06821 q -0.03617,-0.02894 -0.06098,-0.08061 -0.02377,-0.05168 -0.02377,-0.09509 v -0.397909 q 0,-0.03411 0.02584,-0.09198 0.02687,-0.05788 0.06718,-0.08992 l 0.07235,-0.05684 q 0.07131,-0.05788 0.15813,-0.05788 h 0.243914 q 0.09198,0 0.173633,0.07648 l 0.06511,0.06201 q 0.07028,0.06304 0.07028,0.188102 z m -0.698666,-0.01344 v 0.134359 h 0.5271 v -0.120923 q 0,-0.04858 -0.02997,-0.07441 l -0.05064,-0.04444 q -0.03927,-0.03204 -0.07028,-0.03204 h -0.218075 q -0.04031,0 -0.07338,0.02791 l -0.05064,0.04237 q -0.03411,0.02584 -0.03411,0.06718 z"
         style="font-family:'OCR A Extended';-inkscape-font-specification:'OCR A Extended';fill:#bdbdbd;fill-opacity:1"
         id="path32930" />
      <path
         d="m 22.697146,18.5287 -0.236679,0.153996 v 0.555006 q 0,0.03514 -0.02584,0.06098 -0.02584,0.02584 -0.06098,0.02584 -0.03514,0 -0.06098,-0.02584 -0.02584,-0.02584 -0.02584,-0.06098 v -0.823724 q 0,-0.03617 0.02481,-0.06201 0.02584,-0.02687 0.06201,-0.02687 0.03514,0 0.06098,0.02687 0.02584,0.02584 0.02584,0.06201 v 0.05788 l 0.15813,-0.09612 q 0.07958,-0.05064 0.179835,-0.05064 h 0.08062 q 0.103353,0 0.178801,0.07338 0.07545,0.07338 0.07958,0.180868 l 0.02377,0.658359 q 0.001,0.03514 -0.0248,0.06098 -0.02584,0.02584 -0.06201,0.02584 -0.03411,0 -0.05994,-0.02274 -0.02584,-0.02377 -0.02687,-0.06408 l -0.02584,-0.648024 q -0.0031,-0.09095 -0.09508,-0.09095 h -0.08475 q -0.03927,0 -0.08475,0.02997 z"
         style="font-family:'OCR A Extended';-inkscape-font-specification:'OCR A Extended';fill:#bdbdbd;fill-opacity:1"
         id="path32932" />
      <path
         d="M 23.808191,18.327162 H 24.2061 q 0.09302,0 0.164331,0.05581 0.07131,0.05478 0.07131,0.107487 0,0.03721 -0.02687,0.06098 -0.02584,0.02377 -0.05788,0.02377 -0.04134,0 -0.07545,-0.03721 -0.03411,-0.03721 -0.07131,-0.03721 h -0.392742 q -0.05788,0 -0.05788,0.04858 0,0.03411 0.03824,0.05168 l 0.461988,0.204639 q 0.07028,0.03101 0.114722,0.100252 0.04547,0.06821 0.04547,0.151929 0,0.111622 -0.07958,0.189136 -0.07855,0.07752 -0.178801,0.07752 h -0.3514 q -0.09095,0 -0.169499,-0.05478 -0.07751,-0.05478 -0.07751,-0.106454 0,-0.03411 0.02481,-0.05994 0.02584,-0.02687 0.06615,-0.02687 0.03307,0 0.07028,0.03721 0.03824,0.03721 0.109554,0.03721 h 0.323495 q 0.03824,0 0.06408,-0.02894 0.02584,-0.02997 0.02584,-0.06821 0,-0.05891 -0.05788,-0.08475 l -0.466122,-0.209807 q -0.06718,-0.02997 -0.103353,-0.08682 -0.03617,-0.05684 -0.03617,-0.115756 0,-0.09302 0.06408,-0.16123 0.06511,-0.06821 0.160198,-0.06821 z"
         style="font-family:'OCR A Extended';-inkscape-font-specification:'OCR A Extended';fill:#bdbdbd;fill-opacity:1"
         id="path32934" />
      <path
         d="m 25.718154,18.640321 v 0.366903 q 0,0.116789 -0.110587,0.216008 -0.109555,0.09922 -0.226344,0.09922 h -0.203605 q -0.118856,0 -0.227377,-0.100252 -0.10852,-0.101286 -0.10852,-0.214975 v -0.366903 q 0,-0.113688 0.10542,-0.213941 0.106453,-0.101286 0.230477,-0.101286 h 0.203605 q 0.116789,-0.0021 0.226344,0.09715 0.110587,0.09922 0.110587,0.218075 z m -0.700733,0.0072 v 0.3514 q 0,0.04754 0.03411,0.07545 l 0.06511,0.05581 q 0.0217,0.0186 0.06098,0.0186 h 0.201538 q 0.04444,0 0.08062,-0.03204 l 0.05271,-0.04651 q 0.03204,-0.02481 0.03204,-0.06925 v -0.3514 q 0,-0.05168 -0.03204,-0.07648 l -0.06098,-0.04858 q -0.03101,-0.02584 -0.07235,-0.02584 h -0.179834 q -0.05891,0 -0.09095,0.02791 l -0.05891,0.05064 q -0.03204,0.02687 -0.03204,0.07028 z"
         style="font-family:'OCR A Extended';-inkscape-font-specification:'OCR A Extended';fill:#bdbdbd;fill-opacity:1"
         id="path32936" />
      <path
         d="m 26.122264,19.237702 v -0.823724 q 0,-0.03617 0.0248,-0.06201 0.02584,-0.02687 0.06201,-0.02687 0.03617,0 0.06098,0.02584 0.02584,0.02584 0.02584,0.06304 v 0.108521 l 0.141594,-0.120923 q 0.08785,-0.07441 0.171566,-0.07441 h 0.127124 q 0.107487,0 0.183969,0.07648 0.07648,0.07648 0.07648,0.183968 v 0.04651 q 0,0.03721 -0.02584,0.06304 -0.02481,0.02584 -0.06098,0.02584 -0.03617,0 -0.06201,-0.02481 -0.02481,-0.02584 -0.02481,-0.06201 v -0.04858 q 0,-0.03617 -0.02584,-0.06098 -0.02481,-0.02584 -0.06098,-0.02584 h -0.112654 q -0.03617,0 -0.08062,0.03824 l -0.247014,0.213941 v 0.484726 q 0,0.03617 -0.02584,0.06201 -0.02584,0.02481 -0.06098,0.02481 -0.03617,0 -0.06201,-0.02481 -0.0248,-0.02584 -0.0248,-0.06201 z"
         style="font-family:'OCR A Extended';-inkscape-font-specification:'OCR A Extended';fill:#bdbdbd;fill-opacity:1"
         id="path32938" />
    </g>
    <path
       style="fill:#bdbdbd;stroke:none;stroke-width:0.264583px;stroke-linecap:butt;stroke-linejoin:miter;stroke-opacity:1;fill-opacity:1"
       d="M 1.0583333,8.7312499 V 9.7895832 L 1.5875,10.31875 H 2.6458333 L 3.175,9.7895832 V 8.7312499 L 2.6458333,8.2020832 H 1.5875 Z"
       id="path33944" />
    <path
       style="fill:#bdbdbd;fill-opacity:1;stroke:none;stroke-width:0.264583px;stroke-linecap:butt;stroke-linejoin:miter;stroke-opacity:1"
       d="M 4.2333333,8.73125 V 9.7895828 L 4.7625,10.31875 H 5.8208333 L 6.35,9.7895828 V 8.73125 L 5.8208333,8.2020833 H 4.7625 Z"
       id="path33944-3" />
    <path
       style="fill:#bdbdbd;fill-opacity:1;stroke:none;stroke-width:0.264583px;stroke-linecap:butt;stroke-linejoin:miter;stroke-opacity:1"
       d="m 1.0583333,11.906249 v 1.058334 L 1.5875,13.49375 H 2.6458333 L 3.175,12.964583 V 11.906249 L 2.6458333,11.377083 H 1.5875 Z"
       id="path33944-6" />
    <path
       style="fill:#bdbdbd;fill-opacity:1;stroke:none;stroke-width:0.264583px;stroke-linecap:butt;stroke-linejoin:miter;stroke-opacity:1"
       d="m 4.2333333,11.90625 v 1.058332 L 4.7625,13.49375 H 5.8208333 L 6.35,12.964582 V 11.90625 L 5.8208333,11.377083 H 4.7625 Z"
       id="path33944-3-5" />
    <path
       style="fill:#bdbdbd;fill-opacity:1;stroke:none;stroke-width:0.264583px;stroke-linecap:butt;stroke-linejoin:miter;stroke-opacity:1"
       d="m 1.0583333,15.08125 v 1.058333 L 1.5875,16.66875 H 2.6458333 L 3.175,16.139583 V 15.08125 L 2.6458333,14.552083 H 1.5875 Z"
       id="path33944-37" />
    <path
       style="fill:#bdbdbd;fill-opacity:1;stroke:none;stroke-width:0.264583px;stroke-linecap:butt;stroke-linejoin:miter;stroke-opacity:1"
       d="m 4.2333333,15.08125 v 1.058333 L 4.7625,16.66875 H 5.8208333 L 6.35,16.139583 V 15.08125 L 5.8208333,14.552084 H 4.7625 Z"
       id="path33944-3-3" />
    <rect
       style="fill:#bdbdbd;fill-opacity:1;stroke:none;stroke-width:0.264583;stroke-linecap:round;stroke-linejoin:round"
       id="rect38646"
       width="3.7041667"
       height="5.5562501"
       x="21.960417"
       y="7.4083333"
       ry="1.2855125e-08" />
    <rect
       style="fill:#bdbdbd;fill-opacity:1;stroke:none;stroke-width:0.141426;stroke-linecap:round;stroke-linejoin:round"
       id="rect38646-88"
       width="3.7041667"
       height="1.5874999"
       x="8.2020836"
       y="15.610416"
       ry="3.6728927e-09" />
    <rect
       style="fill:#bdbdbd;fill-opacity:1;stroke:none;stroke-width:0.141426;stroke-linecap:round;stroke-linejoin:round"
       id="rect38646-88-2"
       width="3.7041667"
       height="1.5874999"
       x="13.49375"
       y="15.610417"
       ry="3.6728927e-09" />
    <rect
       style="fill:#bdbdbd;fill-opacity:1;stroke:none;stroke-width:0.17321;stroke-linecap:round;stroke-linejoin:round"
       id="rect38646-8"
       width="2.3812497"
       height="3.7041667"
       x="26.19375"
       y="7.4083333"
       ry="8.5700833e-09" />
    <rect
       style="fill:#bdbdbd;fill-opacity:1;stroke:none;stroke-width:0.185169;stroke-linecap:round;stroke-linejoin:round"
       id="rect38646-8-3"
       width="1.5875006"
       height="6.3499999"
       x="7.9375"
       y="1.0583334"
       ry="1.4691572e-08" />
    <rect
       style="fill:#bdbdbd;fill-opacity:1;stroke:none;stroke-width:0.185169;stroke-linecap:round;stroke-linejoin:round"
       id="rect38646-8-3-4"
       width="1.5875006"
       height="6.3499999"
       x="20.108334"
       y="1.0583329"
       ry="1.4691572e-08" />
    <circle
       style="fill:#bdbdbd;fill-opacity:1;stroke:none;stroke-width:0.264583;stroke-linecap:round;stroke-linejoin:round"
       id="path1174"
       cx="28.045834"
       cy="14.816667"
       r="0.70596862" />
  </g>
</svg>
